%TF.GenerationSoftware,KiCad,Pcbnew,9.0.6*%
%TF.CreationDate,2026-02-19T21:29:22+01:00*%
%TF.ProjectId,TankIR_Breaker,54616e6b-4952-45f4-9272-65616b65722e,rev?*%
%TF.SameCoordinates,Original*%
%TF.FileFunction,Copper,L2,Bot*%
%TF.FilePolarity,Positive*%
%FSLAX46Y46*%
G04 Gerber Fmt 4.6, Leading zero omitted, Abs format (unit mm)*
G04 Created by KiCad (PCBNEW 9.0.6) date 2026-02-19 21:29:22*
%MOMM*%
%LPD*%
G01*
G04 APERTURE LIST*
G04 Aperture macros list*
%AMRoundRect*
0 Rectangle with rounded corners*
0 $1 Rounding radius*
0 $2 $3 $4 $5 $6 $7 $8 $9 X,Y pos of 4 corners*
0 Add a 4 corners polygon primitive as box body*
4,1,4,$2,$3,$4,$5,$6,$7,$8,$9,$2,$3,0*
0 Add four circle primitives for the rounded corners*
1,1,$1+$1,$2,$3*
1,1,$1+$1,$4,$5*
1,1,$1+$1,$6,$7*
1,1,$1+$1,$8,$9*
0 Add four rect primitives between the rounded corners*
20,1,$1+$1,$2,$3,$4,$5,0*
20,1,$1+$1,$4,$5,$6,$7,0*
20,1,$1+$1,$6,$7,$8,$9,0*
20,1,$1+$1,$8,$9,$2,$3,0*%
G04 Aperture macros list end*
%TA.AperFunction,ComponentPad*%
%ADD10O,1.600000X1.600000*%
%TD*%
%TA.AperFunction,ComponentPad*%
%ADD11R,1.600000X1.600000*%
%TD*%
%TA.AperFunction,ComponentPad*%
%ADD12C,1.400000*%
%TD*%
%TA.AperFunction,ComponentPad*%
%ADD13RoundRect,0.250000X-0.350000X-0.625000X0.350000X-0.625000X0.350000X0.625000X-0.350000X0.625000X0*%
%TD*%
%TA.AperFunction,ComponentPad*%
%ADD14O,1.200000X1.750000*%
%TD*%
%TA.AperFunction,ComponentPad*%
%ADD15R,1.500000X1.050000*%
%TD*%
%TA.AperFunction,ComponentPad*%
%ADD16O,1.500000X1.050000*%
%TD*%
%TA.AperFunction,ComponentPad*%
%ADD17R,1.700000X1.700000*%
%TD*%
%TA.AperFunction,ComponentPad*%
%ADD18C,1.700000*%
%TD*%
%TA.AperFunction,ComponentPad*%
%ADD19R,2.000000X1.905000*%
%TD*%
%TA.AperFunction,ComponentPad*%
%ADD20O,2.000000X1.905000*%
%TD*%
%TA.AperFunction,ViaPad*%
%ADD21C,0.600000*%
%TD*%
%TA.AperFunction,Conductor*%
%ADD22C,0.500000*%
%TD*%
%TA.AperFunction,Conductor*%
%ADD23C,0.450000*%
%TD*%
%TA.AperFunction,Conductor*%
%ADD24C,0.250000*%
%TD*%
G04 APERTURE END LIST*
D10*
%TO.P,A1,30,VIN*%
%TO.N,unconnected-(A1-VIN-Pad30)*%
X81540000Y-58280000D03*
%TO.P,A1,29,GND*%
%TO.N,GND*%
X84080000Y-58280000D03*
%TO.P,A1,28,~{RESET}*%
%TO.N,unconnected-(A1-~{RESET}-Pad28)*%
X86620000Y-58280000D03*
%TO.P,A1,27,+5V*%
%TO.N,5V*%
X89160000Y-58280000D03*
%TO.P,A1,26,A7*%
%TO.N,unconnected-(A1-A7-Pad26)*%
X91700000Y-58280000D03*
%TO.P,A1,25,A6*%
%TO.N,unconnected-(A1-A6-Pad25)*%
X94240000Y-58280000D03*
%TO.P,A1,24,A5*%
%TO.N,unconnected-(A1-A5-Pad24)*%
X96780000Y-58280000D03*
%TO.P,A1,23,A4*%
%TO.N,/SOUND_REP*%
X99320000Y-58280000D03*
%TO.P,A1,22,A3*%
%TO.N,/SOUND_DES*%
X101860000Y-58280000D03*
%TO.P,A1,21,A2*%
%TO.N,/SOUND_HIT*%
X104400000Y-58280000D03*
%TO.P,A1,20,A1*%
%TO.N,/SOUND_FIRE*%
X106940000Y-58280000D03*
%TO.P,A1,19,A0*%
%TO.N,/Trigger*%
X109480000Y-58280000D03*
%TO.P,A1,18,AREF*%
%TO.N,unconnected-(A1-AREF-Pad18)*%
X112020000Y-58280000D03*
%TO.P,A1,17,3V3*%
%TO.N,unconnected-(A1-3V3-Pad17)*%
X114560000Y-58280000D03*
%TO.P,A1,16,D13*%
%TO.N,unconnected-(A1-D13-Pad16)*%
X117100000Y-58280000D03*
%TO.P,A1,15,D12*%
%TO.N,unconnected-(A1-D12-Pad15)*%
X117100000Y-73520000D03*
%TO.P,A1,14,D11*%
%TO.N,unconnected-(A1-D11-Pad14)*%
X114560000Y-73520000D03*
%TO.P,A1,13,D10*%
%TO.N,unconnected-(A1-D10-Pad13)*%
X112020000Y-73520000D03*
%TO.P,A1,12,D9*%
%TO.N,unconnected-(A1-D9-Pad12)*%
X109480000Y-73520000D03*
%TO.P,A1,11,D8*%
%TO.N,/Recoil_OUT*%
X106940000Y-73520000D03*
%TO.P,A1,10,D7*%
%TO.N,/RC_IN*%
X104400000Y-73520000D03*
%TO.P,A1,9,D6*%
%TO.N,/MUZZLE*%
X101860000Y-73520000D03*
%TO.P,A1,8,D5*%
%TO.N,/HIT*%
X99320000Y-73520000D03*
%TO.P,A1,7,D4*%
%TO.N,unconnected-(A1-D4-Pad7)*%
X96780000Y-73520000D03*
%TO.P,A1,6,D3*%
%TO.N,/IR OUT*%
X94240000Y-73520000D03*
%TO.P,A1,5,D2*%
%TO.N,/IR_IN*%
X91700000Y-73520000D03*
%TO.P,A1,4,GND*%
%TO.N,GND*%
X89160000Y-73520000D03*
%TO.P,A1,3,~{RESET}*%
%TO.N,unconnected-(A1-~{RESET}-Pad3)*%
X86620000Y-73520000D03*
%TO.P,A1,2,D0/RX*%
%TO.N,unconnected-(A1-D0{slash}RX-Pad2)*%
X84080000Y-73520000D03*
D11*
%TO.P,A1,1,D1/TX*%
%TO.N,unconnected-(A1-D1{slash}TX-Pad1)*%
X81540000Y-73520000D03*
%TD*%
D12*
%TO.P,R3,1*%
%TO.N,Net-(Q1-C)*%
X116120000Y-70700000D03*
%TO.P,R3,2*%
%TO.N,Net-(J7-Pin_2)*%
X113580000Y-70700000D03*
%TD*%
%TO.P,R2,1*%
%TO.N,/MUZZLE*%
X118280000Y-63800000D03*
%TO.P,R2,2*%
%TO.N,Net-(Q2-B)*%
X120820000Y-63800000D03*
%TD*%
%TO.P,R1,1*%
%TO.N,/IR OUT*%
X118280000Y-67900000D03*
%TO.P,R1,2*%
%TO.N,Net-(Q1-B)*%
X120820000Y-67900000D03*
%TD*%
D13*
%TO.P,J2,1,Pin_1*%
%TO.N,GND*%
X86600000Y-62050000D03*
D14*
%TO.P,J2,2,Pin_2*%
%TO.N,/Trigger*%
X88600000Y-62050000D03*
%TD*%
D15*
%TO.P,Q2,1,C*%
%TO.N,Net-(J8-Pin_2)*%
X119600000Y-58560000D03*
D16*
%TO.P,Q2,2,B*%
%TO.N,Net-(Q2-B)*%
X119600000Y-59830000D03*
%TO.P,Q2,3,E*%
%TO.N,GND*%
X119600000Y-61100000D03*
%TD*%
D17*
%TO.P,J6,1,Pin_1*%
%TO.N,/SOUND_REP*%
X94380000Y-61400000D03*
D18*
%TO.P,J6,2,Pin_2*%
%TO.N,/SOUND_DES*%
X96920000Y-61400000D03*
%TO.P,J6,3,Pin_3*%
%TO.N,/SOUND_HIT*%
X99460000Y-61400000D03*
%TO.P,J6,4,Pin_4*%
%TO.N,/SOUND_FIRE*%
X102000000Y-61400000D03*
%TO.P,J6,5,Pin_5*%
%TO.N,GND*%
X104540000Y-61400000D03*
%TD*%
D13*
%TO.P,J7,1,Pin_1*%
%TO.N,+BATT*%
X107400000Y-68850000D03*
D14*
%TO.P,J7,2,Pin_2*%
%TO.N,Net-(J7-Pin_2)*%
X109400000Y-68850000D03*
%TD*%
D13*
%TO.P,J1,1,Pin_1*%
%TO.N,+BATT*%
X86500000Y-69000000D03*
D14*
%TO.P,J1,2,Pin_2*%
%TO.N,GND*%
X88500000Y-69000000D03*
%TD*%
D13*
%TO.P,J5,1,Pin_1*%
%TO.N,5V*%
X93800000Y-69150000D03*
D14*
%TO.P,J5,2,Pin_2*%
%TO.N,/IR_IN*%
X95800000Y-69150000D03*
%TO.P,J5,3,Pin_3*%
%TO.N,GND*%
X97800000Y-69150000D03*
%TO.P,J5,4,Pin_4*%
X99800000Y-69150000D03*
%TO.P,J5,5,Pin_5*%
%TO.N,/HIT*%
X101800000Y-69150000D03*
%TD*%
D13*
%TO.P,J8,1,Pin_1*%
%TO.N,5V*%
X108900000Y-61850000D03*
D14*
%TO.P,J8,2,Pin_2*%
%TO.N,Net-(J8-Pin_2)*%
X110900000Y-61850000D03*
%TD*%
D15*
%TO.P,Q1,1,C*%
%TO.N,Net-(Q1-C)*%
X119640000Y-70830000D03*
D16*
%TO.P,Q1,2,B*%
%TO.N,Net-(Q1-B)*%
X119640000Y-72100000D03*
%TO.P,Q1,3,E*%
%TO.N,GND*%
X119640000Y-73370000D03*
%TD*%
D17*
%TO.P,J3,1,Pin_1*%
%TO.N,GND*%
X115400000Y-61860000D03*
D18*
%TO.P,J3,2,Pin_2*%
%TO.N,5V*%
X115400000Y-64400000D03*
%TO.P,J3,3,Pin_3*%
%TO.N,/Recoil_OUT*%
X115400000Y-66940000D03*
%TD*%
D19*
%TO.P,U1,1,VI*%
%TO.N,+BATT*%
X79250000Y-63560000D03*
D20*
%TO.P,U1,2,GND*%
%TO.N,GND*%
X79250000Y-66100000D03*
%TO.P,U1,3,VO*%
%TO.N,5V*%
X79250000Y-68640000D03*
%TD*%
D17*
%TO.P,J4,1,Pin_1*%
%TO.N,GND*%
X98140000Y-65100000D03*
D18*
%TO.P,J4,2,Pin_2*%
%TO.N,5V*%
X95600000Y-65100000D03*
%TO.P,J4,3,Pin_3*%
%TO.N,/RC_IN*%
X93060000Y-65100000D03*
%TD*%
D21*
%TO.N,/IR OUT*%
X109800000Y-65700000D03*
X118100000Y-66600000D03*
%TO.N,/RC_IN*%
X104300000Y-68300000D03*
%TD*%
D22*
%TO.N,+BATT*%
X79350000Y-63560000D02*
X80410000Y-63560000D01*
D23*
X87900000Y-67300000D02*
X86200000Y-69000000D01*
X107400000Y-68850000D02*
X105550000Y-67000000D01*
D22*
X80410000Y-63560000D02*
X86200000Y-69350000D01*
D23*
X89300000Y-67000000D02*
X89000000Y-67300000D01*
X89000000Y-67300000D02*
X87900000Y-67300000D01*
X86200000Y-69000000D02*
X86200000Y-69350000D01*
X105550000Y-67000000D02*
X89300000Y-67000000D01*
%TO.N,Net-(J8-Pin_2)*%
X110900000Y-61850000D02*
X111950000Y-61850000D01*
X111950000Y-61850000D02*
X113600000Y-60200000D01*
X119300083Y-58560000D02*
X119600000Y-58560000D01*
X117660083Y-60200000D02*
X119300083Y-58560000D01*
X113600000Y-60200000D02*
X117660083Y-60200000D01*
D24*
%TO.N,/IR OUT*%
X117200000Y-65700000D02*
X118100000Y-66600000D01*
X109800000Y-65700000D02*
X117200000Y-65700000D01*
D22*
%TO.N,/Trigger*%
X90350000Y-59900000D02*
X107840000Y-59900000D01*
X107840000Y-59900000D02*
X109460000Y-58280000D01*
X88200000Y-62050000D02*
X90350000Y-59900000D01*
D23*
%TO.N,/Recoil_OUT*%
X111140000Y-71200000D02*
X115400000Y-66940000D01*
X109240000Y-71200000D02*
X111140000Y-71200000D01*
X106920000Y-73520000D02*
X109240000Y-71200000D01*
D24*
%TO.N,/RC_IN*%
X104380000Y-68380000D02*
X104300000Y-68300000D01*
X104380000Y-73520000D02*
X104380000Y-68380000D01*
%TO.N,/HIT*%
X99300000Y-71650000D02*
X101800000Y-69150000D01*
X99300000Y-73520000D02*
X99300000Y-71650000D01*
D22*
%TO.N,/IR_IN*%
X94600000Y-71300000D02*
X93900000Y-71300000D01*
X93900000Y-71300000D02*
X91680000Y-73520000D01*
X95800000Y-69150000D02*
X95800000Y-70100000D01*
X95800000Y-70100000D02*
X94600000Y-71300000D01*
%TD*%
%TA.AperFunction,Conductor*%
%TO.N,GND*%
G36*
X81086125Y-57120185D02*
G01*
X81131880Y-57172989D01*
X81141824Y-57242147D01*
X81112799Y-57305703D01*
X81066539Y-57339061D01*
X81042403Y-57349058D01*
X80870342Y-57464024D01*
X80724024Y-57610342D01*
X80609058Y-57782403D01*
X80529870Y-57973579D01*
X80529868Y-57973587D01*
X80489500Y-58176530D01*
X80489500Y-58383469D01*
X80529868Y-58586412D01*
X80529870Y-58586420D01*
X80595939Y-58745925D01*
X80609059Y-58777598D01*
X80610664Y-58780000D01*
X80724024Y-58949657D01*
X80870342Y-59095975D01*
X80870345Y-59095977D01*
X81042402Y-59210941D01*
X81233580Y-59290130D01*
X81432352Y-59329668D01*
X81436530Y-59330499D01*
X81436534Y-59330500D01*
X81436535Y-59330500D01*
X81643466Y-59330500D01*
X81643467Y-59330499D01*
X81846420Y-59290130D01*
X82037598Y-59210941D01*
X82209655Y-59095977D01*
X82355977Y-58949655D01*
X82470941Y-58777598D01*
X82550130Y-58586420D01*
X82560633Y-58533616D01*
X82593017Y-58471707D01*
X82653732Y-58437133D01*
X82723502Y-58440872D01*
X82780174Y-58481738D01*
X82804723Y-58538411D01*
X82812009Y-58584417D01*
X82875244Y-58779031D01*
X82968140Y-58961349D01*
X83088417Y-59126894D01*
X83088417Y-59126895D01*
X83233104Y-59271582D01*
X83398650Y-59391859D01*
X83580968Y-59484754D01*
X83775578Y-59547988D01*
X83830000Y-59556607D01*
X83830000Y-58713012D01*
X83887007Y-58745925D01*
X84014174Y-58780000D01*
X84145826Y-58780000D01*
X84272993Y-58745925D01*
X84330000Y-58713012D01*
X84330000Y-59556606D01*
X84384421Y-59547988D01*
X84579031Y-59484754D01*
X84761349Y-59391859D01*
X84926894Y-59271582D01*
X84926895Y-59271582D01*
X85071582Y-59126895D01*
X85071582Y-59126894D01*
X85191859Y-58961349D01*
X85284755Y-58779031D01*
X85347988Y-58584422D01*
X85355275Y-58538413D01*
X85385204Y-58475278D01*
X85444515Y-58438346D01*
X85514377Y-58439342D01*
X85572611Y-58477951D01*
X85599366Y-58533617D01*
X85609868Y-58586414D01*
X85609870Y-58586420D01*
X85675939Y-58745925D01*
X85689059Y-58777598D01*
X85690664Y-58780000D01*
X85804024Y-58949657D01*
X85950342Y-59095975D01*
X85950345Y-59095977D01*
X86122402Y-59210941D01*
X86313580Y-59290130D01*
X86512352Y-59329668D01*
X86516530Y-59330499D01*
X86516534Y-59330500D01*
X86516535Y-59330500D01*
X86723466Y-59330500D01*
X86723467Y-59330499D01*
X86926420Y-59290130D01*
X87117598Y-59210941D01*
X87289655Y-59095977D01*
X87435977Y-58949655D01*
X87550941Y-58777598D01*
X87630130Y-58586420D01*
X87670500Y-58383465D01*
X87670500Y-58176535D01*
X87630130Y-57973580D01*
X87550941Y-57782402D01*
X87435977Y-57610345D01*
X87435975Y-57610342D01*
X87289657Y-57464024D01*
X87203626Y-57406541D01*
X87117598Y-57349059D01*
X87093461Y-57339061D01*
X87039058Y-57295220D01*
X87016993Y-57228926D01*
X87034272Y-57161227D01*
X87085409Y-57113616D01*
X87140914Y-57100500D01*
X88639086Y-57100500D01*
X88706125Y-57120185D01*
X88751880Y-57172989D01*
X88761824Y-57242147D01*
X88732799Y-57305703D01*
X88686539Y-57339061D01*
X88662403Y-57349058D01*
X88490342Y-57464024D01*
X88344024Y-57610342D01*
X88229058Y-57782403D01*
X88149870Y-57973579D01*
X88149868Y-57973587D01*
X88109500Y-58176530D01*
X88109500Y-58383469D01*
X88149868Y-58586412D01*
X88149870Y-58586420D01*
X88215939Y-58745925D01*
X88229059Y-58777598D01*
X88230664Y-58780000D01*
X88344024Y-58949657D01*
X88490342Y-59095975D01*
X88490345Y-59095977D01*
X88662402Y-59210941D01*
X88853580Y-59290130D01*
X89052352Y-59329668D01*
X89056530Y-59330499D01*
X89056534Y-59330500D01*
X89056535Y-59330500D01*
X89263466Y-59330500D01*
X89263467Y-59330499D01*
X89466420Y-59290130D01*
X89657598Y-59210941D01*
X89829655Y-59095977D01*
X89975977Y-58949655D01*
X90090941Y-58777598D01*
X90170130Y-58586420D01*
X90210500Y-58383465D01*
X90210500Y-58176535D01*
X90170130Y-57973580D01*
X90090941Y-57782402D01*
X89975977Y-57610345D01*
X89975975Y-57610342D01*
X89829657Y-57464024D01*
X89743626Y-57406541D01*
X89657598Y-57349059D01*
X89633461Y-57339061D01*
X89579058Y-57295220D01*
X89556993Y-57228926D01*
X89574272Y-57161227D01*
X89625409Y-57113616D01*
X89680914Y-57100500D01*
X91179086Y-57100500D01*
X91246125Y-57120185D01*
X91291880Y-57172989D01*
X91301824Y-57242147D01*
X91272799Y-57305703D01*
X91226539Y-57339061D01*
X91202403Y-57349058D01*
X91030342Y-57464024D01*
X90884024Y-57610342D01*
X90769058Y-57782403D01*
X90689870Y-57973579D01*
X90689868Y-57973587D01*
X90649500Y-58176530D01*
X90649500Y-58383469D01*
X90689868Y-58586412D01*
X90689870Y-58586420D01*
X90755939Y-58745925D01*
X90769059Y-58777598D01*
X90770664Y-58780000D01*
X90884024Y-58949657D01*
X91030342Y-59095975D01*
X91030345Y-59095977D01*
X91144717Y-59172397D01*
X91189523Y-59226009D01*
X91198230Y-59295334D01*
X91168076Y-59358362D01*
X91108633Y-59395082D01*
X91075827Y-59399500D01*
X90284107Y-59399500D01*
X90156812Y-59433608D01*
X90042686Y-59499500D01*
X90042683Y-59499502D01*
X88654005Y-60888181D01*
X88592682Y-60921666D01*
X88566324Y-60924500D01*
X88516228Y-60924500D01*
X88351925Y-60957182D01*
X88351917Y-60957184D01*
X88197139Y-61021295D01*
X88057837Y-61114373D01*
X87939376Y-61232834D01*
X87939373Y-61232838D01*
X87904585Y-61284902D01*
X87850972Y-61329707D01*
X87781647Y-61338414D01*
X87718620Y-61308259D01*
X87683777Y-61255015D01*
X87634358Y-61105880D01*
X87634356Y-61105875D01*
X87542315Y-60956654D01*
X87418345Y-60832684D01*
X87269124Y-60740643D01*
X87269119Y-60740641D01*
X87102697Y-60685494D01*
X87102690Y-60685493D01*
X86999986Y-60675000D01*
X86850000Y-60675000D01*
X86850000Y-61769670D01*
X86830255Y-61749925D01*
X86744745Y-61700556D01*
X86649370Y-61675000D01*
X86550630Y-61675000D01*
X86455255Y-61700556D01*
X86369745Y-61749925D01*
X86350000Y-61769670D01*
X86350000Y-60675000D01*
X86200027Y-60675000D01*
X86200012Y-60675001D01*
X86097302Y-60685494D01*
X85930880Y-60740641D01*
X85930875Y-60740643D01*
X85781654Y-60832684D01*
X85657684Y-60956654D01*
X85565643Y-61105875D01*
X85565641Y-61105880D01*
X85510494Y-61272302D01*
X85510493Y-61272309D01*
X85500000Y-61375013D01*
X85500000Y-61800000D01*
X86319670Y-61800000D01*
X86299925Y-61819745D01*
X86250556Y-61905255D01*
X86225000Y-62000630D01*
X86225000Y-62099370D01*
X86250556Y-62194745D01*
X86299925Y-62280255D01*
X86319670Y-62300000D01*
X85500001Y-62300000D01*
X85500001Y-62724986D01*
X85510494Y-62827697D01*
X85565641Y-62994119D01*
X85565643Y-62994124D01*
X85657684Y-63143345D01*
X85781654Y-63267315D01*
X85930875Y-63359356D01*
X85930880Y-63359358D01*
X86097302Y-63414505D01*
X86097309Y-63414506D01*
X86200019Y-63424999D01*
X86349999Y-63424999D01*
X86350000Y-63424998D01*
X86350000Y-62330330D01*
X86369745Y-62350075D01*
X86455255Y-62399444D01*
X86550630Y-62425000D01*
X86649370Y-62425000D01*
X86744745Y-62399444D01*
X86830255Y-62350075D01*
X86850000Y-62330330D01*
X86850000Y-63424999D01*
X86999972Y-63424999D01*
X86999986Y-63424998D01*
X87102697Y-63414505D01*
X87269119Y-63359358D01*
X87269124Y-63359356D01*
X87418345Y-63267315D01*
X87542315Y-63143345D01*
X87634356Y-62994124D01*
X87634359Y-62994117D01*
X87683776Y-62844984D01*
X87723548Y-62787539D01*
X87788063Y-62760715D01*
X87856839Y-62773030D01*
X87904584Y-62815096D01*
X87939373Y-62867161D01*
X87939376Y-62867165D01*
X88057837Y-62985626D01*
X88150494Y-63047537D01*
X88197137Y-63078703D01*
X88351918Y-63142816D01*
X88516228Y-63175499D01*
X88516232Y-63175500D01*
X88516233Y-63175500D01*
X88683768Y-63175500D01*
X88683769Y-63175499D01*
X88848082Y-63142816D01*
X89002863Y-63078703D01*
X89142162Y-62985626D01*
X89260626Y-62867162D01*
X89353703Y-62727863D01*
X89417816Y-62573082D01*
X89450500Y-62408767D01*
X89450500Y-61691233D01*
X89432916Y-61602831D01*
X89439143Y-61533241D01*
X89466850Y-61490963D01*
X90520995Y-60436819D01*
X90582318Y-60403334D01*
X90608676Y-60400500D01*
X93155500Y-60400500D01*
X93222539Y-60420185D01*
X93268294Y-60472989D01*
X93279500Y-60524500D01*
X93279500Y-62274678D01*
X93294032Y-62347735D01*
X93294033Y-62347739D01*
X93302226Y-62360000D01*
X93349399Y-62430601D01*
X93432260Y-62485966D01*
X93432264Y-62485967D01*
X93505321Y-62500499D01*
X93505324Y-62500500D01*
X93505326Y-62500500D01*
X95254676Y-62500500D01*
X95254677Y-62500499D01*
X95327740Y-62485966D01*
X95410601Y-62430601D01*
X95465966Y-62347740D01*
X95480500Y-62274674D01*
X95480500Y-60525326D01*
X95480500Y-60524500D01*
X95500185Y-60457461D01*
X95552989Y-60411706D01*
X95604500Y-60400500D01*
X96063796Y-60400500D01*
X96130835Y-60420185D01*
X96176590Y-60472989D01*
X96186534Y-60542147D01*
X96157509Y-60605703D01*
X96151477Y-60612181D01*
X96080588Y-60683069D01*
X96080588Y-60683070D01*
X96080586Y-60683072D01*
X96045831Y-60730908D01*
X95978768Y-60823211D01*
X95900128Y-60977552D01*
X95846597Y-61142302D01*
X95819500Y-61313389D01*
X95819500Y-61486610D01*
X95835166Y-61585526D01*
X95846598Y-61657701D01*
X95900127Y-61822445D01*
X95978768Y-61976788D01*
X96080586Y-62116928D01*
X96203072Y-62239414D01*
X96343212Y-62341232D01*
X96497555Y-62419873D01*
X96662299Y-62473402D01*
X96833389Y-62500500D01*
X96833390Y-62500500D01*
X97006610Y-62500500D01*
X97006611Y-62500500D01*
X97177701Y-62473402D01*
X97342445Y-62419873D01*
X97496788Y-62341232D01*
X97636928Y-62239414D01*
X97759414Y-62116928D01*
X97861232Y-61976788D01*
X97939873Y-61822445D01*
X97993402Y-61657701D01*
X98020500Y-61486611D01*
X98020500Y-61313389D01*
X97993402Y-61142299D01*
X97939873Y-60977555D01*
X97861232Y-60823212D01*
X97759414Y-60683072D01*
X97688523Y-60612181D01*
X97655038Y-60550858D01*
X97660022Y-60481166D01*
X97701894Y-60425233D01*
X97767358Y-60400816D01*
X97776204Y-60400500D01*
X98603796Y-60400500D01*
X98670835Y-60420185D01*
X98716590Y-60472989D01*
X98726534Y-60542147D01*
X98697509Y-60605703D01*
X98691477Y-60612181D01*
X98620588Y-60683069D01*
X98620588Y-60683070D01*
X98620586Y-60683072D01*
X98585831Y-60730908D01*
X98518768Y-60823211D01*
X98440128Y-60977552D01*
X98386597Y-61142302D01*
X98359500Y-61313389D01*
X98359500Y-61486610D01*
X98375166Y-61585526D01*
X98386598Y-61657701D01*
X98440127Y-61822445D01*
X98518768Y-61976788D01*
X98620586Y-62116928D01*
X98743072Y-62239414D01*
X98883212Y-62341232D01*
X99037555Y-62419873D01*
X99202299Y-62473402D01*
X99373389Y-62500500D01*
X99373390Y-62500500D01*
X99546610Y-62500500D01*
X99546611Y-62500500D01*
X99717701Y-62473402D01*
X99882445Y-62419873D01*
X100036788Y-62341232D01*
X100176928Y-62239414D01*
X100299414Y-62116928D01*
X100401232Y-61976788D01*
X100479873Y-61822445D01*
X100533402Y-61657701D01*
X100560500Y-61486611D01*
X100560500Y-61313389D01*
X100533402Y-61142299D01*
X100479873Y-60977555D01*
X100401232Y-60823212D01*
X100299414Y-60683072D01*
X100228523Y-60612181D01*
X100195038Y-60550858D01*
X100200022Y-60481166D01*
X100241894Y-60425233D01*
X100307358Y-60400816D01*
X100316204Y-60400500D01*
X101143796Y-60400500D01*
X101210835Y-60420185D01*
X101256590Y-60472989D01*
X101266534Y-60542147D01*
X101237509Y-60605703D01*
X101231477Y-60612181D01*
X101160588Y-60683069D01*
X101160588Y-60683070D01*
X101160586Y-60683072D01*
X101125831Y-60730908D01*
X101058768Y-60823211D01*
X100980128Y-60977552D01*
X100926597Y-61142302D01*
X100899500Y-61313389D01*
X100899500Y-61486610D01*
X100915166Y-61585526D01*
X100926598Y-61657701D01*
X100980127Y-61822445D01*
X101058768Y-61976788D01*
X101160586Y-62116928D01*
X101283072Y-62239414D01*
X101423212Y-62341232D01*
X101577555Y-62419873D01*
X101742299Y-62473402D01*
X101913389Y-62500500D01*
X101913390Y-62500500D01*
X102086610Y-62500500D01*
X102086611Y-62500500D01*
X102257701Y-62473402D01*
X102422445Y-62419873D01*
X102576788Y-62341232D01*
X102716928Y-62239414D01*
X102839414Y-62116928D01*
X102941232Y-61976788D01*
X103019873Y-61822445D01*
X103020896Y-61819294D01*
X103021610Y-61818250D01*
X103021734Y-61817952D01*
X103021796Y-61817977D01*
X103060327Y-61761618D01*
X103124683Y-61734415D01*
X103193530Y-61746323D01*
X103245011Y-61793562D01*
X103256760Y-61819287D01*
X103288904Y-61918217D01*
X103385375Y-62107550D01*
X103424728Y-62161716D01*
X104057036Y-61529407D01*
X104074075Y-61592993D01*
X104139901Y-61707007D01*
X104232993Y-61800099D01*
X104347007Y-61865925D01*
X104410590Y-61882962D01*
X103778282Y-62515269D01*
X103778282Y-62515270D01*
X103832449Y-62554624D01*
X104021782Y-62651095D01*
X104223870Y-62716757D01*
X104433754Y-62750000D01*
X104646246Y-62750000D01*
X104856127Y-62716757D01*
X104856130Y-62716757D01*
X105058217Y-62651095D01*
X105247554Y-62554622D01*
X105301716Y-62515270D01*
X105301717Y-62515270D01*
X104669408Y-61882962D01*
X104732993Y-61865925D01*
X104847007Y-61800099D01*
X104940099Y-61707007D01*
X105005925Y-61592993D01*
X105022962Y-61529409D01*
X105655270Y-62161717D01*
X105655270Y-62161716D01*
X105694622Y-62107554D01*
X105791095Y-61918217D01*
X105856757Y-61716130D01*
X105856757Y-61716127D01*
X105890000Y-61506246D01*
X105890000Y-61293754D01*
X105874074Y-61193204D01*
X105871529Y-61177135D01*
X108049500Y-61177135D01*
X108049500Y-62522870D01*
X108049501Y-62522876D01*
X108055908Y-62582483D01*
X108106202Y-62717328D01*
X108106206Y-62717335D01*
X108192452Y-62832544D01*
X108192455Y-62832547D01*
X108307664Y-62918793D01*
X108307671Y-62918797D01*
X108442517Y-62969091D01*
X108442516Y-62969091D01*
X108449444Y-62969835D01*
X108502127Y-62975500D01*
X109297872Y-62975499D01*
X109357483Y-62969091D01*
X109492331Y-62918796D01*
X109607546Y-62832546D01*
X109693796Y-62717331D01*
X109744091Y-62582483D01*
X109750500Y-62522873D01*
X109750499Y-61177128D01*
X109744091Y-61117517D01*
X109742918Y-61114373D01*
X109693797Y-60982671D01*
X109693793Y-60982664D01*
X109607547Y-60867455D01*
X109607544Y-60867452D01*
X109492335Y-60781206D01*
X109492328Y-60781202D01*
X109357482Y-60730908D01*
X109357483Y-60730908D01*
X109297883Y-60724501D01*
X109297881Y-60724500D01*
X109297873Y-60724500D01*
X109297864Y-60724500D01*
X108502129Y-60724500D01*
X108502123Y-60724501D01*
X108442516Y-60730908D01*
X108307671Y-60781202D01*
X108307664Y-60781206D01*
X108192455Y-60867452D01*
X108192452Y-60867455D01*
X108106206Y-60982664D01*
X108106202Y-60982671D01*
X108055908Y-61117517D01*
X108050036Y-61172139D01*
X108049501Y-61177123D01*
X108049500Y-61177135D01*
X105871529Y-61177135D01*
X105856757Y-61083872D01*
X105856757Y-61083869D01*
X105791095Y-60881782D01*
X105694620Y-60692442D01*
X105625558Y-60597385D01*
X105602078Y-60531579D01*
X105617904Y-60463525D01*
X105668009Y-60414830D01*
X105725876Y-60400500D01*
X107905890Y-60400500D01*
X107905892Y-60400500D01*
X108033186Y-60366392D01*
X108147314Y-60300500D01*
X109113455Y-59334357D01*
X109174776Y-59300874D01*
X109225325Y-59300423D01*
X109320356Y-59319325D01*
X109376532Y-59330499D01*
X109376534Y-59330500D01*
X109376535Y-59330500D01*
X109583466Y-59330500D01*
X109583467Y-59330499D01*
X109786420Y-59290130D01*
X109977598Y-59210941D01*
X110149655Y-59095977D01*
X110295977Y-58949655D01*
X110410941Y-58777598D01*
X110490130Y-58586420D01*
X110530500Y-58383465D01*
X110530500Y-58176535D01*
X110490130Y-57973580D01*
X110410941Y-57782402D01*
X110295977Y-57610345D01*
X110295975Y-57610342D01*
X110149657Y-57464024D01*
X110063626Y-57406541D01*
X109977598Y-57349059D01*
X109953461Y-57339061D01*
X109899058Y-57295220D01*
X109876993Y-57228926D01*
X109894272Y-57161227D01*
X109945409Y-57113616D01*
X110000914Y-57100500D01*
X111499086Y-57100500D01*
X111566125Y-57120185D01*
X111611880Y-57172989D01*
X111621824Y-57242147D01*
X111592799Y-57305703D01*
X111546539Y-57339061D01*
X111522403Y-57349058D01*
X111350342Y-57464024D01*
X111204024Y-57610342D01*
X111089058Y-57782403D01*
X111009870Y-57973579D01*
X111009868Y-57973587D01*
X110969500Y-58176530D01*
X110969500Y-58383469D01*
X111009868Y-58586412D01*
X111009870Y-58586420D01*
X111075939Y-58745925D01*
X111089059Y-58777598D01*
X111090664Y-58780000D01*
X111204024Y-58949657D01*
X111350342Y-59095975D01*
X111350345Y-59095977D01*
X111522402Y-59210941D01*
X111713580Y-59290130D01*
X111912352Y-59329668D01*
X111916530Y-59330499D01*
X111916534Y-59330500D01*
X111916535Y-59330500D01*
X112123466Y-59330500D01*
X112123467Y-59330499D01*
X112326420Y-59290130D01*
X112517598Y-59210941D01*
X112689655Y-59095977D01*
X112835977Y-58949655D01*
X112950941Y-58777598D01*
X113030130Y-58586420D01*
X113070500Y-58383465D01*
X113070500Y-58176535D01*
X113030130Y-57973580D01*
X112950941Y-57782402D01*
X112835977Y-57610345D01*
X112835975Y-57610342D01*
X112689657Y-57464024D01*
X112603626Y-57406541D01*
X112517598Y-57349059D01*
X112493461Y-57339061D01*
X112439058Y-57295220D01*
X112416993Y-57228926D01*
X112434272Y-57161227D01*
X112485409Y-57113616D01*
X112540914Y-57100500D01*
X114039086Y-57100500D01*
X114106125Y-57120185D01*
X114151880Y-57172989D01*
X114161824Y-57242147D01*
X114132799Y-57305703D01*
X114086539Y-57339061D01*
X114062403Y-57349058D01*
X113890342Y-57464024D01*
X113744024Y-57610342D01*
X113629058Y-57782403D01*
X113549870Y-57973579D01*
X113549868Y-57973587D01*
X113509500Y-58176530D01*
X113509500Y-58383469D01*
X113549868Y-58586412D01*
X113549870Y-58586420D01*
X113615939Y-58745925D01*
X113629059Y-58777598D01*
X113630664Y-58780000D01*
X113744024Y-58949657D01*
X113890342Y-59095975D01*
X113890345Y-59095977D01*
X114062402Y-59210941D01*
X114253580Y-59290130D01*
X114452352Y-59329668D01*
X114456530Y-59330499D01*
X114456534Y-59330500D01*
X114456535Y-59330500D01*
X114663466Y-59330500D01*
X114663467Y-59330499D01*
X114866420Y-59290130D01*
X115057598Y-59210941D01*
X115229655Y-59095977D01*
X115375977Y-58949655D01*
X115490941Y-58777598D01*
X115570130Y-58586420D01*
X115610500Y-58383465D01*
X115610500Y-58176535D01*
X115570130Y-57973580D01*
X115490941Y-57782402D01*
X115375977Y-57610345D01*
X115375975Y-57610342D01*
X115229657Y-57464024D01*
X115143626Y-57406541D01*
X115057598Y-57349059D01*
X115033461Y-57339061D01*
X114979058Y-57295220D01*
X114956993Y-57228926D01*
X114974272Y-57161227D01*
X115025409Y-57113616D01*
X115080914Y-57100500D01*
X116579086Y-57100500D01*
X116646125Y-57120185D01*
X116691880Y-57172989D01*
X116701824Y-57242147D01*
X116672799Y-57305703D01*
X116626539Y-57339061D01*
X116602403Y-57349058D01*
X116430342Y-57464024D01*
X116284024Y-57610342D01*
X116169058Y-57782403D01*
X116089870Y-57973579D01*
X116089868Y-57973587D01*
X116049500Y-58176530D01*
X116049500Y-58383469D01*
X116089868Y-58586412D01*
X116089870Y-58586420D01*
X116155939Y-58745925D01*
X116169059Y-58777598D01*
X116170664Y-58780000D01*
X116284024Y-58949657D01*
X116430342Y-59095975D01*
X116430345Y-59095977D01*
X116602402Y-59210941D01*
X116793580Y-59290130D01*
X116992352Y-59329668D01*
X116996530Y-59330499D01*
X116996534Y-59330500D01*
X116996535Y-59330500D01*
X117203466Y-59330500D01*
X117203467Y-59330499D01*
X117406420Y-59290130D01*
X117597598Y-59210941D01*
X117693220Y-59147048D01*
X117759897Y-59126171D01*
X117827277Y-59144656D01*
X117873967Y-59196634D01*
X117885143Y-59265604D01*
X117857257Y-59329668D01*
X117849791Y-59337832D01*
X117499443Y-59688181D01*
X117438120Y-59721666D01*
X117411762Y-59724500D01*
X113662601Y-59724500D01*
X113537399Y-59724500D01*
X113456775Y-59746103D01*
X113416463Y-59756905D01*
X113308037Y-59819504D01*
X113308034Y-59819506D01*
X111873293Y-61254247D01*
X111811970Y-61287732D01*
X111742278Y-61282748D01*
X111686345Y-61240876D01*
X111671051Y-61214018D01*
X111653705Y-61172141D01*
X111653704Y-61172139D01*
X111638490Y-61149370D01*
X111609428Y-61105875D01*
X111560626Y-61032837D01*
X111442162Y-60914373D01*
X111302860Y-60821295D01*
X111148082Y-60757184D01*
X111148074Y-60757182D01*
X110983771Y-60724500D01*
X110983767Y-60724500D01*
X110816233Y-60724500D01*
X110816228Y-60724500D01*
X110651925Y-60757182D01*
X110651917Y-60757184D01*
X110497139Y-60821295D01*
X110357837Y-60914373D01*
X110239373Y-61032837D01*
X110146295Y-61172139D01*
X110082184Y-61326917D01*
X110082182Y-61326925D01*
X110049500Y-61491228D01*
X110049500Y-62208771D01*
X110082182Y-62373074D01*
X110082184Y-62373082D01*
X110146295Y-62527860D01*
X110239373Y-62667162D01*
X110357837Y-62785626D01*
X110420801Y-62827697D01*
X110497137Y-62878703D01*
X110497138Y-62878703D01*
X110497139Y-62878704D01*
X110532201Y-62893227D01*
X110651918Y-62942816D01*
X110816223Y-62975498D01*
X110816228Y-62975499D01*
X110816232Y-62975500D01*
X110816233Y-62975500D01*
X110983768Y-62975500D01*
X110983769Y-62975499D01*
X111148082Y-62942816D01*
X111302863Y-62878703D01*
X111442162Y-62785626D01*
X111560626Y-62667162D01*
X111653703Y-62527863D01*
X111705818Y-62402046D01*
X111749659Y-62347644D01*
X111815953Y-62325579D01*
X111820379Y-62325500D01*
X112012599Y-62325500D01*
X112012601Y-62325500D01*
X112133536Y-62293095D01*
X112241964Y-62230495D01*
X113760640Y-60711819D01*
X113787567Y-60697115D01*
X113813386Y-60680523D01*
X113819586Y-60679631D01*
X113821963Y-60678334D01*
X113848321Y-60675500D01*
X113962520Y-60675500D01*
X114029559Y-60695185D01*
X114075314Y-60747989D01*
X114085258Y-60817147D01*
X114078702Y-60842832D01*
X114056403Y-60902617D01*
X114056401Y-60902627D01*
X114050000Y-60962155D01*
X114050000Y-61610000D01*
X114966988Y-61610000D01*
X114934075Y-61667007D01*
X114900000Y-61794174D01*
X114900000Y-61925826D01*
X114934075Y-62052993D01*
X114966988Y-62110000D01*
X114050000Y-62110000D01*
X114050000Y-62757844D01*
X114056401Y-62817372D01*
X114056403Y-62817379D01*
X114106645Y-62952086D01*
X114106649Y-62952093D01*
X114192809Y-63067187D01*
X114192812Y-63067190D01*
X114307906Y-63153350D01*
X114307913Y-63153354D01*
X114442620Y-63203596D01*
X114442627Y-63203598D01*
X114502155Y-63209999D01*
X114502172Y-63210000D01*
X114794949Y-63210000D01*
X114861988Y-63229685D01*
X114907743Y-63282489D01*
X114917687Y-63351647D01*
X114888662Y-63415203D01*
X114851244Y-63444485D01*
X114823211Y-63458768D01*
X114743256Y-63516859D01*
X114683072Y-63560586D01*
X114683070Y-63560588D01*
X114683069Y-63560588D01*
X114560588Y-63683069D01*
X114560588Y-63683070D01*
X114560586Y-63683072D01*
X114543650Y-63706383D01*
X114458768Y-63823211D01*
X114380128Y-63977552D01*
X114326597Y-64142302D01*
X114299500Y-64313389D01*
X114299500Y-64486610D01*
X114324161Y-64642318D01*
X114326598Y-64657701D01*
X114380127Y-64822445D01*
X114458768Y-64976788D01*
X114560586Y-65116928D01*
X114560588Y-65116930D01*
X114563182Y-65119967D01*
X114591753Y-65183727D01*
X114581318Y-65252813D01*
X114535188Y-65305290D01*
X114468893Y-65324500D01*
X110254386Y-65324500D01*
X110187347Y-65304815D01*
X110166705Y-65288181D01*
X110138017Y-65259493D01*
X110138011Y-65259488D01*
X110012488Y-65187017D01*
X110012489Y-65187017D01*
X109974784Y-65176914D01*
X109872475Y-65149500D01*
X109727525Y-65149500D01*
X109625216Y-65176914D01*
X109587511Y-65187017D01*
X109461988Y-65259488D01*
X109461982Y-65259493D01*
X109359493Y-65361982D01*
X109359488Y-65361988D01*
X109287017Y-65487511D01*
X109287016Y-65487515D01*
X109249500Y-65627525D01*
X109249500Y-65772475D01*
X109261412Y-65816929D01*
X109287017Y-65912488D01*
X109359488Y-66038011D01*
X109359490Y-66038013D01*
X109359491Y-66038015D01*
X109461985Y-66140509D01*
X109461986Y-66140510D01*
X109461988Y-66140511D01*
X109587511Y-66212982D01*
X109587512Y-66212982D01*
X109587515Y-66212984D01*
X109727525Y-66250500D01*
X109727528Y-66250500D01*
X109872472Y-66250500D01*
X109872475Y-66250500D01*
X110012485Y-66212984D01*
X110138015Y-66140509D01*
X110166705Y-66111819D01*
X110228028Y-66078334D01*
X110254386Y-66075500D01*
X114424440Y-66075500D01*
X114491479Y-66095185D01*
X114537234Y-66147989D01*
X114547178Y-66217147D01*
X114524759Y-66272383D01*
X114521034Y-66277511D01*
X114458768Y-66363211D01*
X114380128Y-66517552D01*
X114326597Y-66682302D01*
X114299500Y-66853389D01*
X114299500Y-67026610D01*
X114326598Y-67197702D01*
X114326598Y-67197705D01*
X114338244Y-67233546D01*
X114340239Y-67303387D01*
X114307994Y-67359545D01*
X110979360Y-70688181D01*
X110918037Y-70721666D01*
X110891679Y-70724500D01*
X109302601Y-70724500D01*
X109177399Y-70724500D01*
X109096775Y-70746103D01*
X109056463Y-70756905D01*
X108948037Y-70819504D01*
X108948034Y-70819506D01*
X107302670Y-72464869D01*
X107241347Y-72498354D01*
X107190798Y-72498806D01*
X107147157Y-72490125D01*
X107043465Y-72469500D01*
X106836535Y-72469500D01*
X106836530Y-72469500D01*
X106633587Y-72509868D01*
X106633579Y-72509870D01*
X106442403Y-72589058D01*
X106270342Y-72704024D01*
X106124024Y-72850342D01*
X106009058Y-73022403D01*
X105929870Y-73213579D01*
X105929868Y-73213587D01*
X105889500Y-73416530D01*
X105889500Y-73623469D01*
X105929868Y-73826412D01*
X105929870Y-73826420D01*
X105995939Y-73985925D01*
X106009059Y-74017598D01*
X106010664Y-74020000D01*
X106124024Y-74189657D01*
X106270342Y-74335975D01*
X106270345Y-74335977D01*
X106442402Y-74450941D01*
X106463191Y-74459552D01*
X106466539Y-74460939D01*
X106520942Y-74504780D01*
X106543007Y-74571074D01*
X106525728Y-74638773D01*
X106474591Y-74686384D01*
X106419086Y-74699500D01*
X104920914Y-74699500D01*
X104853875Y-74679815D01*
X104808120Y-74627011D01*
X104798176Y-74557853D01*
X104827201Y-74494297D01*
X104873461Y-74460939D01*
X104875259Y-74460194D01*
X104897598Y-74450941D01*
X105069655Y-74335977D01*
X105215977Y-74189655D01*
X105330941Y-74017598D01*
X105410130Y-73826420D01*
X105450500Y-73623465D01*
X105450500Y-73416535D01*
X105410130Y-73213580D01*
X105330941Y-73022402D01*
X105215977Y-72850345D01*
X105215975Y-72850342D01*
X105069655Y-72704022D01*
X104897604Y-72589062D01*
X104897598Y-72589059D01*
X104832046Y-72561906D01*
X104777643Y-72518064D01*
X104755579Y-72451770D01*
X104755500Y-72447345D01*
X104755500Y-68645275D01*
X104772113Y-68583274D01*
X104789186Y-68553703D01*
X104812984Y-68512485D01*
X104850500Y-68372475D01*
X104850500Y-68227525D01*
X104812984Y-68087515D01*
X104809341Y-68081206D01*
X104740511Y-67961988D01*
X104740506Y-67961982D01*
X104638017Y-67859493D01*
X104638011Y-67859488D01*
X104512488Y-67787017D01*
X104512489Y-67787017D01*
X104490802Y-67781206D01*
X104372475Y-67749500D01*
X104227525Y-67749500D01*
X104109198Y-67781206D01*
X104087511Y-67787017D01*
X103961988Y-67859488D01*
X103961982Y-67859493D01*
X103859493Y-67961982D01*
X103859488Y-67961988D01*
X103787017Y-68087511D01*
X103787016Y-68087515D01*
X103749500Y-68227525D01*
X103749500Y-68372475D01*
X103786220Y-68509513D01*
X103787017Y-68512488D01*
X103859488Y-68638011D01*
X103859493Y-68638017D01*
X103967732Y-68746256D01*
X103965301Y-68748686D01*
X103997158Y-68792246D01*
X104004500Y-68834281D01*
X104004500Y-72463914D01*
X103984815Y-72530953D01*
X103932011Y-72576708D01*
X103927953Y-72578475D01*
X103902404Y-72589057D01*
X103730342Y-72704024D01*
X103584024Y-72850342D01*
X103469058Y-73022403D01*
X103389870Y-73213579D01*
X103389868Y-73213587D01*
X103349500Y-73416530D01*
X103349500Y-73623469D01*
X103389868Y-73826412D01*
X103389870Y-73826420D01*
X103455939Y-73985925D01*
X103469059Y-74017598D01*
X103470664Y-74020000D01*
X103584024Y-74189657D01*
X103730342Y-74335975D01*
X103730345Y-74335977D01*
X103902402Y-74450941D01*
X103923191Y-74459552D01*
X103926539Y-74460939D01*
X103980942Y-74504780D01*
X104003007Y-74571074D01*
X103985728Y-74638773D01*
X103934591Y-74686384D01*
X103879086Y-74699500D01*
X102380914Y-74699500D01*
X102313875Y-74679815D01*
X102268120Y-74627011D01*
X102258176Y-74557853D01*
X102287201Y-74494297D01*
X102333461Y-74460939D01*
X102335259Y-74460194D01*
X102357598Y-74450941D01*
X102529655Y-74335977D01*
X102675977Y-74189655D01*
X102790941Y-74017598D01*
X102870130Y-73826420D01*
X102910500Y-73623465D01*
X102910500Y-73416535D01*
X102870130Y-73213580D01*
X102790941Y-73022402D01*
X102675977Y-72850345D01*
X102675975Y-72850342D01*
X102529657Y-72704024D01*
X102375313Y-72600896D01*
X102357598Y-72589059D01*
X102357593Y-72589057D01*
X102166420Y-72509870D01*
X102166412Y-72509868D01*
X101963469Y-72469500D01*
X101963465Y-72469500D01*
X101756535Y-72469500D01*
X101756530Y-72469500D01*
X101553587Y-72509868D01*
X101553579Y-72509870D01*
X101362403Y-72589058D01*
X101190342Y-72704024D01*
X101044024Y-72850342D01*
X100929058Y-73022403D01*
X100849870Y-73213579D01*
X100849868Y-73213587D01*
X100809500Y-73416530D01*
X100809500Y-73623469D01*
X100849868Y-73826412D01*
X100849870Y-73826420D01*
X100915939Y-73985925D01*
X100929059Y-74017598D01*
X100930664Y-74020000D01*
X101044024Y-74189657D01*
X101190342Y-74335975D01*
X101190345Y-74335977D01*
X101362402Y-74450941D01*
X101383191Y-74459552D01*
X101386539Y-74460939D01*
X101440942Y-74504780D01*
X101463007Y-74571074D01*
X101445728Y-74638773D01*
X101394591Y-74686384D01*
X101339086Y-74699500D01*
X99840914Y-74699500D01*
X99773875Y-74679815D01*
X99728120Y-74627011D01*
X99718176Y-74557853D01*
X99747201Y-74494297D01*
X99793461Y-74460939D01*
X99795259Y-74460194D01*
X99817598Y-74450941D01*
X99989655Y-74335977D01*
X100135977Y-74189655D01*
X100250941Y-74017598D01*
X100330130Y-73826420D01*
X100370500Y-73623465D01*
X100370500Y-73416535D01*
X100330130Y-73213580D01*
X100250941Y-73022402D01*
X100135977Y-72850345D01*
X100135975Y-72850342D01*
X99989655Y-72704022D01*
X99817604Y-72589062D01*
X99817598Y-72589059D01*
X99752046Y-72561906D01*
X99697643Y-72518064D01*
X99675579Y-72451770D01*
X99675500Y-72447345D01*
X99675500Y-71856898D01*
X99695185Y-71789859D01*
X99711814Y-71769222D01*
X101271515Y-70209520D01*
X101332836Y-70176037D01*
X101402528Y-70181021D01*
X101406636Y-70182638D01*
X101551918Y-70242816D01*
X101687723Y-70269829D01*
X101716228Y-70275499D01*
X101716232Y-70275500D01*
X101716233Y-70275500D01*
X101883768Y-70275500D01*
X101883769Y-70275499D01*
X102048082Y-70242816D01*
X102202863Y-70178703D01*
X102342162Y-70085626D01*
X102460626Y-69967162D01*
X102553703Y-69827863D01*
X102617816Y-69673082D01*
X102650500Y-69508767D01*
X102650500Y-68791233D01*
X102617816Y-68626918D01*
X102561613Y-68491233D01*
X102553704Y-68472139D01*
X102550546Y-68467413D01*
X102506978Y-68402208D01*
X102460626Y-68332837D01*
X102342162Y-68214373D01*
X102202860Y-68121295D01*
X102048082Y-68057184D01*
X102048074Y-68057182D01*
X101883771Y-68024500D01*
X101883767Y-68024500D01*
X101716233Y-68024500D01*
X101716228Y-68024500D01*
X101551925Y-68057182D01*
X101551917Y-68057184D01*
X101397139Y-68121295D01*
X101257837Y-68214373D01*
X101139373Y-68332837D01*
X101059252Y-68452748D01*
X101049454Y-68467413D01*
X101042913Y-68477202D01*
X101041904Y-68476528D01*
X100997417Y-68521804D01*
X100929277Y-68537254D01*
X100863601Y-68513412D01*
X100821241Y-68457848D01*
X100819588Y-68453177D01*
X100819411Y-68452748D01*
X100740804Y-68298475D01*
X100639032Y-68158397D01*
X100516602Y-68035967D01*
X100376524Y-67934195D01*
X100222257Y-67855591D01*
X100057589Y-67802087D01*
X100057581Y-67802085D01*
X100050000Y-67800884D01*
X100050000Y-68869670D01*
X100030255Y-68849925D01*
X99944745Y-68800556D01*
X99849370Y-68775000D01*
X99750630Y-68775000D01*
X99655255Y-68800556D01*
X99569745Y-68849925D01*
X99550000Y-68869670D01*
X99550000Y-67800884D01*
X99549999Y-67800884D01*
X99542418Y-67802085D01*
X99542410Y-67802087D01*
X99377742Y-67855591D01*
X99223475Y-67934195D01*
X99083397Y-68035967D01*
X98960965Y-68158399D01*
X98960961Y-68158404D01*
X98900318Y-68241873D01*
X98844988Y-68284539D01*
X98775375Y-68290518D01*
X98713580Y-68257912D01*
X98699682Y-68241873D01*
X98639038Y-68158404D01*
X98639034Y-68158399D01*
X98516602Y-68035967D01*
X98376524Y-67934195D01*
X98222257Y-67855591D01*
X98057589Y-67802087D01*
X98057581Y-67802085D01*
X98050000Y-67800884D01*
X98050000Y-68869670D01*
X98030255Y-68849925D01*
X97944745Y-68800556D01*
X97849370Y-68775000D01*
X97750630Y-68775000D01*
X97655255Y-68800556D01*
X97569745Y-68849925D01*
X97550000Y-68869670D01*
X97550000Y-67800884D01*
X97549999Y-67800884D01*
X97542418Y-67802085D01*
X97542410Y-67802087D01*
X97377742Y-67855591D01*
X97223475Y-67934195D01*
X97083397Y-68035967D01*
X96960967Y-68158397D01*
X96859195Y-68298475D01*
X96780588Y-68452748D01*
X96778729Y-68457240D01*
X96777531Y-68456743D01*
X96741428Y-68509513D01*
X96677061Y-68536693D01*
X96608218Y-68524759D01*
X96556756Y-68477501D01*
X96553742Y-68472196D01*
X96550546Y-68467413D01*
X96506978Y-68402208D01*
X96460626Y-68332837D01*
X96342162Y-68214373D01*
X96202860Y-68121295D01*
X96048082Y-68057184D01*
X96048074Y-68057182D01*
X95883771Y-68024500D01*
X95883767Y-68024500D01*
X95716233Y-68024500D01*
X95716228Y-68024500D01*
X95551925Y-68057182D01*
X95551917Y-68057184D01*
X95397139Y-68121295D01*
X95257837Y-68214373D01*
X95139373Y-68332837D01*
X95046295Y-68472139D01*
X94982184Y-68626917D01*
X94982182Y-68626925D01*
X94949500Y-68791228D01*
X94949500Y-69508771D01*
X94982182Y-69673074D01*
X94982184Y-69673082D01*
X95046295Y-69827860D01*
X95046296Y-69827862D01*
X95046297Y-69827863D01*
X95066217Y-69857676D01*
X95117143Y-69933891D01*
X95138021Y-70000569D01*
X95119536Y-70067949D01*
X95101722Y-70090463D01*
X94429005Y-70763181D01*
X94367682Y-70796666D01*
X94341324Y-70799500D01*
X93834107Y-70799500D01*
X93706812Y-70833608D01*
X93592686Y-70899500D01*
X93592683Y-70899502D01*
X92033181Y-72459003D01*
X91971858Y-72492488D01*
X91921310Y-72492940D01*
X91876530Y-72484033D01*
X91803465Y-72469500D01*
X91596535Y-72469500D01*
X91596530Y-72469500D01*
X91393587Y-72509868D01*
X91393579Y-72509870D01*
X91202403Y-72589058D01*
X91030342Y-72704024D01*
X90884024Y-72850342D01*
X90769058Y-73022403D01*
X90689870Y-73213579D01*
X90689868Y-73213584D01*
X90679366Y-73266383D01*
X90646980Y-73328293D01*
X90586264Y-73362867D01*
X90516495Y-73359126D01*
X90459823Y-73318259D01*
X90435275Y-73261586D01*
X90427988Y-73215577D01*
X90364755Y-73020968D01*
X90271859Y-72838650D01*
X90151582Y-72673105D01*
X90151582Y-72673104D01*
X90006895Y-72528417D01*
X89841349Y-72408140D01*
X89659029Y-72315244D01*
X89464413Y-72252009D01*
X89410000Y-72243390D01*
X89410000Y-73086988D01*
X89352993Y-73054075D01*
X89225826Y-73020000D01*
X89094174Y-73020000D01*
X88967007Y-73054075D01*
X88910000Y-73086988D01*
X88910000Y-72243390D01*
X88855586Y-72252009D01*
X88660970Y-72315244D01*
X88478650Y-72408140D01*
X88313105Y-72528417D01*
X88313104Y-72528417D01*
X88168417Y-72673104D01*
X88168417Y-72673105D01*
X88048140Y-72838650D01*
X87955244Y-73020968D01*
X87892010Y-73215581D01*
X87884723Y-73261589D01*
X87854793Y-73324723D01*
X87795481Y-73361654D01*
X87725619Y-73360656D01*
X87667386Y-73322046D01*
X87640633Y-73266381D01*
X87630131Y-73213587D01*
X87630130Y-73213580D01*
X87550941Y-73022402D01*
X87435977Y-72850345D01*
X87435975Y-72850342D01*
X87289657Y-72704024D01*
X87135313Y-72600896D01*
X87117598Y-72589059D01*
X87117593Y-72589057D01*
X86926420Y-72509870D01*
X86926412Y-72509868D01*
X86723469Y-72469500D01*
X86723465Y-72469500D01*
X86516535Y-72469500D01*
X86516530Y-72469500D01*
X86313587Y-72509868D01*
X86313579Y-72509870D01*
X86122403Y-72589058D01*
X85950342Y-72704024D01*
X85804024Y-72850342D01*
X85689058Y-73022403D01*
X85609870Y-73213579D01*
X85609868Y-73213587D01*
X85569500Y-73416530D01*
X85569500Y-73623469D01*
X85609868Y-73826412D01*
X85609870Y-73826420D01*
X85675939Y-73985925D01*
X85689059Y-74017598D01*
X85690664Y-74020000D01*
X85804024Y-74189657D01*
X85950342Y-74335975D01*
X85950345Y-74335977D01*
X86122402Y-74450941D01*
X86143191Y-74459552D01*
X86146539Y-74460939D01*
X86200942Y-74504780D01*
X86223007Y-74571074D01*
X86205728Y-74638773D01*
X86154591Y-74686384D01*
X86099086Y-74699500D01*
X84600914Y-74699500D01*
X84533875Y-74679815D01*
X84488120Y-74627011D01*
X84478176Y-74557853D01*
X84507201Y-74494297D01*
X84553461Y-74460939D01*
X84555259Y-74460194D01*
X84577598Y-74450941D01*
X84749655Y-74335977D01*
X84895977Y-74189655D01*
X85010941Y-74017598D01*
X85090130Y-73826420D01*
X85130500Y-73623465D01*
X85130500Y-73416535D01*
X85090130Y-73213580D01*
X85010941Y-73022402D01*
X84895977Y-72850345D01*
X84895975Y-72850342D01*
X84749657Y-72704024D01*
X84595313Y-72600896D01*
X84577598Y-72589059D01*
X84577593Y-72589057D01*
X84386420Y-72509870D01*
X84386412Y-72509868D01*
X84183469Y-72469500D01*
X84183465Y-72469500D01*
X83976535Y-72469500D01*
X83976530Y-72469500D01*
X83773587Y-72509868D01*
X83773579Y-72509870D01*
X83582403Y-72589058D01*
X83410342Y-72704024D01*
X83264024Y-72850342D01*
X83149058Y-73022403D01*
X83069870Y-73213579D01*
X83069868Y-73213587D01*
X83029500Y-73416530D01*
X83029500Y-73623469D01*
X83069868Y-73826412D01*
X83069870Y-73826420D01*
X83135939Y-73985925D01*
X83149059Y-74017598D01*
X83150664Y-74020000D01*
X83264024Y-74189657D01*
X83410342Y-74335975D01*
X83410345Y-74335977D01*
X83582402Y-74450941D01*
X83603191Y-74459552D01*
X83606539Y-74460939D01*
X83660942Y-74504780D01*
X83683007Y-74571074D01*
X83665728Y-74638773D01*
X83614591Y-74686384D01*
X83559086Y-74699500D01*
X82619688Y-74699500D01*
X82552649Y-74679815D01*
X82506894Y-74627011D01*
X82496950Y-74557853D01*
X82516586Y-74506610D01*
X82575964Y-74417743D01*
X82575964Y-74417742D01*
X82575966Y-74417740D01*
X82590500Y-74344674D01*
X82590500Y-72695326D01*
X82590500Y-72695323D01*
X82590499Y-72695321D01*
X82575967Y-72622264D01*
X82575966Y-72622260D01*
X82561691Y-72600896D01*
X82520601Y-72539399D01*
X82437740Y-72484034D01*
X82437739Y-72484033D01*
X82437735Y-72484032D01*
X82364677Y-72469500D01*
X82364674Y-72469500D01*
X80715326Y-72469500D01*
X80715323Y-72469500D01*
X80642264Y-72484032D01*
X80642260Y-72484033D01*
X80559399Y-72539399D01*
X80504033Y-72622260D01*
X80504032Y-72622264D01*
X80489500Y-72695321D01*
X80489500Y-74344678D01*
X80504032Y-74417735D01*
X80504035Y-74417743D01*
X80563414Y-74506610D01*
X80584292Y-74573287D01*
X80565807Y-74640667D01*
X80513828Y-74687357D01*
X80460312Y-74699500D01*
X77924500Y-74699500D01*
X77857461Y-74679815D01*
X77811706Y-74627011D01*
X77800500Y-74575500D01*
X77800500Y-69000983D01*
X77820185Y-68933944D01*
X77872989Y-68888189D01*
X77942147Y-68878245D01*
X78005703Y-68907270D01*
X78042431Y-68962665D01*
X78087634Y-69101789D01*
X78087635Y-69101792D01*
X78153091Y-69230255D01*
X78173602Y-69270509D01*
X78284903Y-69423702D01*
X78418798Y-69557597D01*
X78571991Y-69668898D01*
X78654741Y-69711061D01*
X78740707Y-69754864D01*
X78740710Y-69754865D01*
X78812557Y-69778209D01*
X78920797Y-69813378D01*
X79107822Y-69843000D01*
X79107823Y-69843000D01*
X79392177Y-69843000D01*
X79392178Y-69843000D01*
X79579203Y-69813378D01*
X79752796Y-69756974D01*
X79759289Y-69754865D01*
X79759292Y-69754864D01*
X79785622Y-69741448D01*
X79928009Y-69668898D01*
X80081202Y-69557597D01*
X80215097Y-69423702D01*
X80326398Y-69270509D01*
X80412364Y-69101792D01*
X80470878Y-68921703D01*
X80500500Y-68734678D01*
X80500500Y-68545322D01*
X80470878Y-68358297D01*
X80412364Y-68178208D01*
X80412364Y-68178207D01*
X80342198Y-68040500D01*
X80326398Y-68009491D01*
X80215097Y-67856298D01*
X80081202Y-67722403D01*
X80034134Y-67688206D01*
X79928143Y-67611199D01*
X79885477Y-67555869D01*
X79879498Y-67486256D01*
X79912104Y-67424461D01*
X79944734Y-67400396D01*
X80058774Y-67342290D01*
X80243742Y-67207902D01*
X80405402Y-67046242D01*
X80539788Y-66861276D01*
X80643582Y-66657570D01*
X80714234Y-66440128D01*
X80728509Y-66350000D01*
X79740748Y-66350000D01*
X79762518Y-66312292D01*
X79800000Y-66172409D01*
X79800000Y-66027591D01*
X79762518Y-65887708D01*
X79740748Y-65850000D01*
X80728509Y-65850000D01*
X80714234Y-65759871D01*
X80643582Y-65542429D01*
X80539788Y-65338723D01*
X80405402Y-65153757D01*
X80243741Y-64992096D01*
X80232188Y-64983703D01*
X80189521Y-64928374D01*
X80183540Y-64858760D01*
X80216145Y-64796965D01*
X80276983Y-64762606D01*
X80280880Y-64761766D01*
X80347735Y-64748467D01*
X80347735Y-64748466D01*
X80347740Y-64748466D01*
X80430601Y-64693101D01*
X80485966Y-64610240D01*
X80485966Y-64610238D01*
X80490640Y-64598956D01*
X80493057Y-64599957D01*
X80517289Y-64553618D01*
X80578001Y-64519036D01*
X80647771Y-64522767D01*
X80694214Y-64552028D01*
X85613181Y-69470995D01*
X85646666Y-69532318D01*
X85649500Y-69558675D01*
X85649500Y-69672869D01*
X85649501Y-69672876D01*
X85655908Y-69732483D01*
X85706202Y-69867328D01*
X85706206Y-69867335D01*
X85792452Y-69982544D01*
X85792455Y-69982547D01*
X85907664Y-70068793D01*
X85907671Y-70068797D01*
X86042517Y-70119091D01*
X86042516Y-70119091D01*
X86049444Y-70119835D01*
X86102127Y-70125500D01*
X86897872Y-70125499D01*
X86957483Y-70119091D01*
X87092331Y-70068796D01*
X87207546Y-69982546D01*
X87293796Y-69867331D01*
X87310778Y-69821800D01*
X87352648Y-69765866D01*
X87418112Y-69741448D01*
X87486385Y-69756299D01*
X87535791Y-69805703D01*
X87537444Y-69808836D01*
X87559194Y-69851521D01*
X87660967Y-69991602D01*
X87783397Y-70114032D01*
X87923475Y-70215804D01*
X88077744Y-70294408D01*
X88242415Y-70347914D01*
X88242414Y-70347914D01*
X88249999Y-70349115D01*
X88250000Y-70349114D01*
X88250000Y-69280330D01*
X88269745Y-69300075D01*
X88355255Y-69349444D01*
X88450630Y-69375000D01*
X88549370Y-69375000D01*
X88644745Y-69349444D01*
X88730255Y-69300075D01*
X88750000Y-69280330D01*
X88750000Y-70349115D01*
X88757584Y-70347914D01*
X88922255Y-70294408D01*
X89076524Y-70215804D01*
X89216602Y-70114032D01*
X89339032Y-69991602D01*
X89440804Y-69851524D01*
X89519408Y-69697257D01*
X89572914Y-69532584D01*
X89600000Y-69361571D01*
X89600000Y-69250000D01*
X88780330Y-69250000D01*
X88800075Y-69230255D01*
X88849444Y-69144745D01*
X88875000Y-69049370D01*
X88875000Y-68950630D01*
X88849444Y-68855255D01*
X88800075Y-68769745D01*
X88780330Y-68750000D01*
X89600000Y-68750000D01*
X89600000Y-68638428D01*
X89576999Y-68493204D01*
X89574453Y-68477135D01*
X92949500Y-68477135D01*
X92949500Y-69822870D01*
X92949501Y-69822876D01*
X92955908Y-69882483D01*
X93006202Y-70017328D01*
X93006206Y-70017335D01*
X93092452Y-70132544D01*
X93092455Y-70132547D01*
X93207664Y-70218793D01*
X93207671Y-70218797D01*
X93342517Y-70269091D01*
X93342516Y-70269091D01*
X93349381Y-70269829D01*
X93402127Y-70275500D01*
X94197872Y-70275499D01*
X94257483Y-70269091D01*
X94392331Y-70218796D01*
X94507546Y-70132546D01*
X94593796Y-70017331D01*
X94644091Y-69882483D01*
X94650500Y-69822873D01*
X94650499Y-68477128D01*
X94644091Y-68417517D01*
X94627291Y-68372475D01*
X94593797Y-68282671D01*
X94593793Y-68282664D01*
X94507547Y-68167455D01*
X94507544Y-68167452D01*
X94392335Y-68081206D01*
X94392328Y-68081202D01*
X94257482Y-68030908D01*
X94257483Y-68030908D01*
X94197883Y-68024501D01*
X94197881Y-68024500D01*
X94197873Y-68024500D01*
X94197864Y-68024500D01*
X93402129Y-68024500D01*
X93402123Y-68024501D01*
X93342516Y-68030908D01*
X93207671Y-68081202D01*
X93207664Y-68081206D01*
X93092455Y-68167452D01*
X93092452Y-68167455D01*
X93006206Y-68282664D01*
X93006202Y-68282671D01*
X92955908Y-68417517D01*
X92950036Y-68472139D01*
X92949501Y-68477123D01*
X92949500Y-68477135D01*
X89574453Y-68477135D01*
X89572913Y-68467413D01*
X89519408Y-68302742D01*
X89440804Y-68148475D01*
X89339032Y-68008397D01*
X89228190Y-67897555D01*
X89194705Y-67836232D01*
X89199689Y-67766540D01*
X89241561Y-67710607D01*
X89253854Y-67702497D01*
X89291964Y-67680495D01*
X89460640Y-67511819D01*
X89521963Y-67478334D01*
X89548321Y-67475500D01*
X105301679Y-67475500D01*
X105368718Y-67495185D01*
X105389360Y-67511819D01*
X106513181Y-68635640D01*
X106546666Y-68696963D01*
X106549500Y-68723321D01*
X106549500Y-69522870D01*
X106549501Y-69522876D01*
X106555908Y-69582483D01*
X106606202Y-69717328D01*
X106606206Y-69717335D01*
X106692452Y-69832544D01*
X106692455Y-69832547D01*
X106807664Y-69918793D01*
X106807671Y-69918797D01*
X106942517Y-69969091D01*
X106942516Y-69969091D01*
X106949444Y-69969835D01*
X107002127Y-69975500D01*
X107797872Y-69975499D01*
X107857483Y-69969091D01*
X107992331Y-69918796D01*
X108107546Y-69832546D01*
X108193796Y-69717331D01*
X108244091Y-69582483D01*
X108250500Y-69522873D01*
X108250499Y-68491228D01*
X108549500Y-68491228D01*
X108549500Y-69208771D01*
X108582182Y-69373074D01*
X108582184Y-69373082D01*
X108646295Y-69527860D01*
X108739373Y-69667162D01*
X108857837Y-69785626D01*
X108914481Y-69823474D01*
X108997137Y-69878703D01*
X108997138Y-69878703D01*
X108997139Y-69878704D01*
X109032201Y-69893227D01*
X109151918Y-69942816D01*
X109316223Y-69975498D01*
X109316228Y-69975499D01*
X109316232Y-69975500D01*
X109316233Y-69975500D01*
X109483768Y-69975500D01*
X109483769Y-69975499D01*
X109648082Y-69942816D01*
X109802863Y-69878703D01*
X109942162Y-69785626D01*
X110060626Y-69667162D01*
X110153703Y-69527863D01*
X110217816Y-69373082D01*
X110250500Y-69208767D01*
X110250500Y-68491233D01*
X110217816Y-68326918D01*
X110155771Y-68177129D01*
X110153704Y-68172139D01*
X110150574Y-68167455D01*
X110097160Y-68087515D01*
X110060626Y-68032837D01*
X109942162Y-67914373D01*
X109802860Y-67821295D01*
X109648082Y-67757184D01*
X109648074Y-67757182D01*
X109483771Y-67724500D01*
X109483767Y-67724500D01*
X109316233Y-67724500D01*
X109316228Y-67724500D01*
X109151925Y-67757182D01*
X109151917Y-67757184D01*
X108997139Y-67821295D01*
X108857837Y-67914373D01*
X108739373Y-68032837D01*
X108646295Y-68172139D01*
X108582184Y-68326917D01*
X108582182Y-68326925D01*
X108549500Y-68491228D01*
X108250499Y-68491228D01*
X108250499Y-68177128D01*
X108244091Y-68117517D01*
X108232899Y-68087511D01*
X108193797Y-67982671D01*
X108193793Y-67982664D01*
X108107547Y-67867455D01*
X108107544Y-67867452D01*
X107992335Y-67781206D01*
X107992328Y-67781202D01*
X107857482Y-67730908D01*
X107857483Y-67730908D01*
X107797883Y-67724501D01*
X107797881Y-67724500D01*
X107797873Y-67724500D01*
X107797864Y-67724500D01*
X106998808Y-67724501D01*
X106998808Y-67722936D01*
X106936808Y-67708178D01*
X106910665Y-67688206D01*
X105841965Y-66619506D01*
X105841964Y-66619505D01*
X105733536Y-66556905D01*
X105733537Y-66556905D01*
X105670857Y-66540110D01*
X105612601Y-66524500D01*
X99429240Y-66524500D01*
X99362201Y-66504815D01*
X99316446Y-66452011D01*
X99306502Y-66382853D01*
X99335527Y-66319297D01*
X99341559Y-66312819D01*
X99347190Y-66307187D01*
X99433350Y-66192093D01*
X99433354Y-66192086D01*
X99483596Y-66057379D01*
X99483598Y-66057372D01*
X99489999Y-65997844D01*
X99490000Y-65997827D01*
X99490000Y-65350000D01*
X98573012Y-65350000D01*
X98605925Y-65292993D01*
X98640000Y-65165826D01*
X98640000Y-65034174D01*
X98605925Y-64907007D01*
X98573012Y-64850000D01*
X99490000Y-64850000D01*
X99490000Y-64202172D01*
X99489999Y-64202155D01*
X99483598Y-64142627D01*
X99483596Y-64142620D01*
X99433354Y-64007913D01*
X99433350Y-64007906D01*
X99347190Y-63892812D01*
X99347187Y-63892809D01*
X99232093Y-63806649D01*
X99232086Y-63806645D01*
X99097379Y-63756403D01*
X99097372Y-63756401D01*
X99037844Y-63750000D01*
X98390000Y-63750000D01*
X98390000Y-64666988D01*
X98332993Y-64634075D01*
X98205826Y-64600000D01*
X98074174Y-64600000D01*
X97947007Y-64634075D01*
X97890000Y-64666988D01*
X97890000Y-63750000D01*
X97242155Y-63750000D01*
X97182627Y-63756401D01*
X97182620Y-63756403D01*
X97047913Y-63806645D01*
X97047906Y-63806649D01*
X96932812Y-63892809D01*
X96932809Y-63892812D01*
X96846649Y-64007906D01*
X96846645Y-64007913D01*
X96796403Y-64142620D01*
X96796401Y-64142627D01*
X96790000Y-64202155D01*
X96790000Y-64494949D01*
X96770315Y-64561988D01*
X96717511Y-64607743D01*
X96648353Y-64617687D01*
X96584797Y-64588662D01*
X96555515Y-64551244D01*
X96541231Y-64523211D01*
X96439414Y-64383072D01*
X96316928Y-64260586D01*
X96176788Y-64158768D01*
X96022445Y-64080127D01*
X95857701Y-64026598D01*
X95857699Y-64026597D01*
X95857698Y-64026597D01*
X95726271Y-64005781D01*
X95686611Y-63999500D01*
X95513389Y-63999500D01*
X95473728Y-64005781D01*
X95342302Y-64026597D01*
X95177552Y-64080128D01*
X95023211Y-64158768D01*
X94943256Y-64216859D01*
X94883072Y-64260586D01*
X94883070Y-64260588D01*
X94883069Y-64260588D01*
X94760588Y-64383069D01*
X94760588Y-64383070D01*
X94760586Y-64383072D01*
X94716859Y-64443256D01*
X94658768Y-64523211D01*
X94580128Y-64677552D01*
X94526597Y-64842302D01*
X94499500Y-65013389D01*
X94499500Y-65186610D01*
X94525392Y-65350091D01*
X94526598Y-65357701D01*
X94580127Y-65522445D01*
X94658768Y-65676788D01*
X94760586Y-65816928D01*
X94883072Y-65939414D01*
X95023212Y-66041232D01*
X95177555Y-66119873D01*
X95342299Y-66173402D01*
X95513389Y-66200500D01*
X95513390Y-66200500D01*
X95686610Y-66200500D01*
X95686611Y-66200500D01*
X95857701Y-66173402D01*
X96022445Y-66119873D01*
X96176788Y-66041232D01*
X96316928Y-65939414D01*
X96439414Y-65816928D01*
X96541232Y-65676788D01*
X96555515Y-65648756D01*
X96603489Y-65597960D01*
X96671309Y-65581164D01*
X96737445Y-65603701D01*
X96780897Y-65658415D01*
X96790000Y-65705050D01*
X96790000Y-65997844D01*
X96796401Y-66057372D01*
X96796403Y-66057379D01*
X96846645Y-66192086D01*
X96846649Y-66192093D01*
X96932809Y-66307187D01*
X96938441Y-66312819D01*
X96971926Y-66374142D01*
X96966942Y-66443834D01*
X96925070Y-66499767D01*
X96859606Y-66524184D01*
X96850760Y-66524500D01*
X89362601Y-66524500D01*
X89237399Y-66524500D01*
X89179143Y-66540110D01*
X89116463Y-66556905D01*
X89008037Y-66619504D01*
X89008034Y-66619506D01*
X88839360Y-66788181D01*
X88778037Y-66821666D01*
X88751679Y-66824500D01*
X87962601Y-66824500D01*
X87837399Y-66824500D01*
X87756775Y-66846103D01*
X87716463Y-66856905D01*
X87608037Y-66919504D01*
X87608034Y-66919506D01*
X86689358Y-67838181D01*
X86628035Y-67871666D01*
X86601677Y-67874500D01*
X86102129Y-67874500D01*
X86102123Y-67874501D01*
X86042516Y-67880908D01*
X85907671Y-67931202D01*
X85907664Y-67931206D01*
X85792455Y-68017452D01*
X85792451Y-68017456D01*
X85785227Y-68027106D01*
X85729290Y-68068974D01*
X85659598Y-68073953D01*
X85598284Y-68040470D01*
X82571203Y-65013389D01*
X91959500Y-65013389D01*
X91959500Y-65186610D01*
X91985392Y-65350091D01*
X91986598Y-65357701D01*
X92040127Y-65522445D01*
X92118768Y-65676788D01*
X92220586Y-65816928D01*
X92343072Y-65939414D01*
X92483212Y-66041232D01*
X92637555Y-66119873D01*
X92802299Y-66173402D01*
X92973389Y-66200500D01*
X92973390Y-66200500D01*
X93146610Y-66200500D01*
X93146611Y-66200500D01*
X93317701Y-66173402D01*
X93482445Y-66119873D01*
X93636788Y-66041232D01*
X93776928Y-65939414D01*
X93899414Y-65816928D01*
X94001232Y-65676788D01*
X94079873Y-65522445D01*
X94133402Y-65357701D01*
X94160500Y-65186611D01*
X94160500Y-65013389D01*
X94133402Y-64842299D01*
X94079873Y-64677555D01*
X94001232Y-64523212D01*
X93899414Y-64383072D01*
X93776928Y-64260586D01*
X93636788Y-64158768D01*
X93482445Y-64080127D01*
X93317701Y-64026598D01*
X93317699Y-64026597D01*
X93317698Y-64026597D01*
X93186271Y-64005781D01*
X93146611Y-63999500D01*
X92973389Y-63999500D01*
X92933728Y-64005781D01*
X92802302Y-64026597D01*
X92637552Y-64080128D01*
X92483211Y-64158768D01*
X92403256Y-64216859D01*
X92343072Y-64260586D01*
X92343070Y-64260588D01*
X92343069Y-64260588D01*
X92220588Y-64383069D01*
X92220588Y-64383070D01*
X92220586Y-64383072D01*
X92176859Y-64443256D01*
X92118768Y-64523211D01*
X92040128Y-64677552D01*
X91986597Y-64842302D01*
X91959500Y-65013389D01*
X82571203Y-65013389D01*
X80717316Y-63159502D01*
X80717314Y-63159500D01*
X80651421Y-63121456D01*
X80603185Y-63093607D01*
X80592400Y-63090717D01*
X80532741Y-63054349D01*
X80502216Y-62991500D01*
X80500500Y-62970944D01*
X80500500Y-62582823D01*
X80500499Y-62582821D01*
X80485967Y-62509764D01*
X80485966Y-62509760D01*
X80479778Y-62500499D01*
X80430601Y-62426899D01*
X80347740Y-62371534D01*
X80347739Y-62371533D01*
X80347735Y-62371532D01*
X80341314Y-62370255D01*
X80274677Y-62357000D01*
X80274674Y-62357000D01*
X78225326Y-62357000D01*
X78225323Y-62357000D01*
X78152264Y-62371532D01*
X78152260Y-62371533D01*
X78069398Y-62426899D01*
X78027602Y-62489453D01*
X77973990Y-62534258D01*
X77904665Y-62542965D01*
X77841637Y-62512811D01*
X77804918Y-62453368D01*
X77800500Y-62420562D01*
X77800500Y-57224500D01*
X77820185Y-57157461D01*
X77872989Y-57111706D01*
X77924500Y-57100500D01*
X81019086Y-57100500D01*
X81086125Y-57120185D01*
G37*
%TD.AperFunction*%
%TA.AperFunction,Conductor*%
G36*
X98050000Y-70499115D02*
G01*
X98057584Y-70497914D01*
X98222255Y-70444408D01*
X98376524Y-70365804D01*
X98516602Y-70264032D01*
X98639032Y-70141602D01*
X98699681Y-70058126D01*
X98755011Y-70015460D01*
X98824624Y-70009481D01*
X98886420Y-70042086D01*
X98900319Y-70058126D01*
X98960967Y-70141602D01*
X99083397Y-70264032D01*
X99223475Y-70365804D01*
X99377742Y-70444408D01*
X99542415Y-70497914D01*
X99628910Y-70511613D01*
X99692045Y-70541542D01*
X99728977Y-70600853D01*
X99727979Y-70670715D01*
X99697194Y-70721767D01*
X99069438Y-71349525D01*
X98999526Y-71419436D01*
X98950091Y-71505059D01*
X98950091Y-71505060D01*
X98950090Y-71505062D01*
X98924500Y-71600565D01*
X98924500Y-71600567D01*
X98924500Y-72463914D01*
X98904815Y-72530953D01*
X98852011Y-72576708D01*
X98847953Y-72578475D01*
X98822404Y-72589057D01*
X98650342Y-72704024D01*
X98504024Y-72850342D01*
X98389058Y-73022403D01*
X98309870Y-73213579D01*
X98309868Y-73213587D01*
X98269500Y-73416530D01*
X98269500Y-73623469D01*
X98309868Y-73826412D01*
X98309870Y-73826420D01*
X98375939Y-73985925D01*
X98389059Y-74017598D01*
X98390664Y-74020000D01*
X98504024Y-74189657D01*
X98650342Y-74335975D01*
X98650345Y-74335977D01*
X98822402Y-74450941D01*
X98843191Y-74459552D01*
X98846539Y-74460939D01*
X98900942Y-74504780D01*
X98923007Y-74571074D01*
X98905728Y-74638773D01*
X98854591Y-74686384D01*
X98799086Y-74699500D01*
X97300914Y-74699500D01*
X97233875Y-74679815D01*
X97188120Y-74627011D01*
X97178176Y-74557853D01*
X97207201Y-74494297D01*
X97253461Y-74460939D01*
X97255259Y-74460194D01*
X97277598Y-74450941D01*
X97449655Y-74335977D01*
X97595977Y-74189655D01*
X97710941Y-74017598D01*
X97790130Y-73826420D01*
X97830500Y-73623465D01*
X97830500Y-73416535D01*
X97790130Y-73213580D01*
X97710941Y-73022402D01*
X97595977Y-72850345D01*
X97595975Y-72850342D01*
X97449657Y-72704024D01*
X97295313Y-72600896D01*
X97277598Y-72589059D01*
X97277593Y-72589057D01*
X97086420Y-72509870D01*
X97086412Y-72509868D01*
X96883469Y-72469500D01*
X96883465Y-72469500D01*
X96676535Y-72469500D01*
X96676530Y-72469500D01*
X96473587Y-72509868D01*
X96473579Y-72509870D01*
X96282403Y-72589058D01*
X96110342Y-72704024D01*
X95964024Y-72850342D01*
X95849058Y-73022403D01*
X95769870Y-73213579D01*
X95769868Y-73213587D01*
X95729500Y-73416530D01*
X95729500Y-73623469D01*
X95769868Y-73826412D01*
X95769870Y-73826420D01*
X95835939Y-73985925D01*
X95849059Y-74017598D01*
X95850664Y-74020000D01*
X95964024Y-74189657D01*
X96110342Y-74335975D01*
X96110345Y-74335977D01*
X96282402Y-74450941D01*
X96303191Y-74459552D01*
X96306539Y-74460939D01*
X96360942Y-74504780D01*
X96383007Y-74571074D01*
X96365728Y-74638773D01*
X96314591Y-74686384D01*
X96259086Y-74699500D01*
X94760914Y-74699500D01*
X94693875Y-74679815D01*
X94648120Y-74627011D01*
X94638176Y-74557853D01*
X94667201Y-74494297D01*
X94713461Y-74460939D01*
X94715259Y-74460194D01*
X94737598Y-74450941D01*
X94909655Y-74335977D01*
X95055977Y-74189655D01*
X95170941Y-74017598D01*
X95250130Y-73826420D01*
X95290500Y-73623465D01*
X95290500Y-73416535D01*
X95250130Y-73213580D01*
X95170941Y-73022402D01*
X95055977Y-72850345D01*
X95055975Y-72850342D01*
X94909657Y-72704024D01*
X94755313Y-72600896D01*
X94737598Y-72589059D01*
X94737593Y-72589057D01*
X94546420Y-72509870D01*
X94546412Y-72509868D01*
X94343469Y-72469500D01*
X94343465Y-72469500D01*
X94136535Y-72469500D01*
X94136530Y-72469500D01*
X93933587Y-72509868D01*
X93933579Y-72509870D01*
X93742403Y-72589058D01*
X93570342Y-72704024D01*
X93424024Y-72850342D01*
X93309058Y-73022403D01*
X93229870Y-73213579D01*
X93229868Y-73213587D01*
X93189500Y-73416530D01*
X93189500Y-73623469D01*
X93229868Y-73826412D01*
X93229870Y-73826420D01*
X93295939Y-73985925D01*
X93309059Y-74017598D01*
X93310664Y-74020000D01*
X93424024Y-74189657D01*
X93570342Y-74335975D01*
X93570345Y-74335977D01*
X93742402Y-74450941D01*
X93763191Y-74459552D01*
X93766539Y-74460939D01*
X93820942Y-74504780D01*
X93843007Y-74571074D01*
X93825728Y-74638773D01*
X93774591Y-74686384D01*
X93719086Y-74699500D01*
X92220914Y-74699500D01*
X92153875Y-74679815D01*
X92108120Y-74627011D01*
X92098176Y-74557853D01*
X92127201Y-74494297D01*
X92173461Y-74460939D01*
X92175259Y-74460194D01*
X92197598Y-74450941D01*
X92369655Y-74335977D01*
X92515977Y-74189655D01*
X92630941Y-74017598D01*
X92710130Y-73826420D01*
X92750500Y-73623465D01*
X92750500Y-73416535D01*
X92731705Y-73322046D01*
X92720423Y-73265325D01*
X92726650Y-73195734D01*
X92754357Y-73153456D01*
X94070995Y-71836819D01*
X94132318Y-71803334D01*
X94158676Y-71800500D01*
X94665890Y-71800500D01*
X94665892Y-71800500D01*
X94793186Y-71766392D01*
X94907314Y-71700500D01*
X96097104Y-70510707D01*
X96097109Y-70510704D01*
X96107312Y-70500500D01*
X96107314Y-70500500D01*
X96200500Y-70407314D01*
X96266392Y-70293186D01*
X96272848Y-70269091D01*
X96300500Y-70165893D01*
X96300500Y-70160837D01*
X96303703Y-70148303D01*
X96317910Y-70124371D01*
X96329165Y-70098927D01*
X96338074Y-70090153D01*
X96337854Y-70089933D01*
X96339092Y-70088694D01*
X96339372Y-70088224D01*
X96339754Y-70088032D01*
X96342156Y-70085629D01*
X96342162Y-70085626D01*
X96460626Y-69967162D01*
X96553703Y-69827863D01*
X96553703Y-69827861D01*
X96557087Y-69822798D01*
X96558099Y-69823474D01*
X96602557Y-69778209D01*
X96670693Y-69762743D01*
X96736375Y-69786570D01*
X96778748Y-69842124D01*
X96780406Y-69846810D01*
X96780588Y-69847251D01*
X96859195Y-70001524D01*
X96960967Y-70141602D01*
X97083397Y-70264032D01*
X97223475Y-70365804D01*
X97377744Y-70444408D01*
X97542415Y-70497914D01*
X97542414Y-70497914D01*
X97549999Y-70499115D01*
X97550000Y-70499114D01*
X97550000Y-69430330D01*
X97569745Y-69450075D01*
X97655255Y-69499444D01*
X97750630Y-69525000D01*
X97849370Y-69525000D01*
X97944745Y-69499444D01*
X98030255Y-69450075D01*
X98050000Y-69430330D01*
X98050000Y-70499115D01*
G37*
%TD.AperFunction*%
%TA.AperFunction,Conductor*%
G36*
X121742539Y-57120185D02*
G01*
X121788294Y-57172989D01*
X121799500Y-57224500D01*
X121799500Y-63146296D01*
X121779815Y-63213335D01*
X121727011Y-63259090D01*
X121657853Y-63269034D01*
X121594297Y-63240009D01*
X121572399Y-63215188D01*
X121558304Y-63194094D01*
X121558299Y-63194088D01*
X121425911Y-63061700D01*
X121425907Y-63061697D01*
X121270237Y-62957681D01*
X121270228Y-62957676D01*
X121097251Y-62886027D01*
X121097243Y-62886025D01*
X120913620Y-62849500D01*
X120913616Y-62849500D01*
X120726384Y-62849500D01*
X120726379Y-62849500D01*
X120542756Y-62886025D01*
X120542748Y-62886027D01*
X120369771Y-62957676D01*
X120369762Y-62957681D01*
X120214092Y-63061697D01*
X120214088Y-63061700D01*
X120081700Y-63194088D01*
X120081697Y-63194092D01*
X119977681Y-63349762D01*
X119977676Y-63349771D01*
X119906027Y-63522748D01*
X119906025Y-63522756D01*
X119869500Y-63706379D01*
X119869500Y-63893620D01*
X119906025Y-64077243D01*
X119906027Y-64077251D01*
X119977676Y-64250228D01*
X119977681Y-64250237D01*
X120081697Y-64405907D01*
X120081700Y-64405911D01*
X120214088Y-64538299D01*
X120214092Y-64538302D01*
X120369762Y-64642318D01*
X120369768Y-64642321D01*
X120369769Y-64642322D01*
X120542749Y-64713973D01*
X120716158Y-64748466D01*
X120726379Y-64750499D01*
X120726383Y-64750500D01*
X120726384Y-64750500D01*
X120913617Y-64750500D01*
X120913618Y-64750499D01*
X121097251Y-64713973D01*
X121270231Y-64642322D01*
X121425908Y-64538302D01*
X121558302Y-64405908D01*
X121572397Y-64384812D01*
X121626009Y-64340007D01*
X121695334Y-64331300D01*
X121758362Y-64361454D01*
X121795082Y-64420897D01*
X121799500Y-64453703D01*
X121799500Y-67246296D01*
X121779815Y-67313335D01*
X121727011Y-67359090D01*
X121657853Y-67369034D01*
X121594297Y-67340009D01*
X121572399Y-67315188D01*
X121558304Y-67294094D01*
X121558299Y-67294088D01*
X121425911Y-67161700D01*
X121425907Y-67161697D01*
X121270237Y-67057681D01*
X121270228Y-67057676D01*
X121097251Y-66986027D01*
X121097243Y-66986025D01*
X120913620Y-66949500D01*
X120913616Y-66949500D01*
X120726384Y-66949500D01*
X120726379Y-66949500D01*
X120542756Y-66986025D01*
X120542748Y-66986027D01*
X120369771Y-67057676D01*
X120369762Y-67057681D01*
X120214092Y-67161697D01*
X120214088Y-67161700D01*
X120081700Y-67294088D01*
X120081697Y-67294092D01*
X119977681Y-67449762D01*
X119977676Y-67449771D01*
X119906027Y-67622748D01*
X119906025Y-67622756D01*
X119869500Y-67806379D01*
X119869500Y-67993620D01*
X119906025Y-68177243D01*
X119906027Y-68177251D01*
X119977676Y-68350228D01*
X119977681Y-68350237D01*
X120081697Y-68505907D01*
X120081700Y-68505911D01*
X120214088Y-68638299D01*
X120214092Y-68638302D01*
X120369762Y-68742318D01*
X120369768Y-68742321D01*
X120369769Y-68742322D01*
X120542749Y-68813973D01*
X120723493Y-68849925D01*
X120726379Y-68850499D01*
X120726383Y-68850500D01*
X120726384Y-68850500D01*
X120913617Y-68850500D01*
X120913618Y-68850499D01*
X121097251Y-68813973D01*
X121270231Y-68742322D01*
X121425908Y-68638302D01*
X121558302Y-68505908D01*
X121572397Y-68484812D01*
X121626009Y-68440007D01*
X121695334Y-68431300D01*
X121758362Y-68461454D01*
X121795082Y-68520897D01*
X121799500Y-68553703D01*
X121799500Y-74575500D01*
X121779815Y-74642539D01*
X121727011Y-74688294D01*
X121675500Y-74699500D01*
X117620914Y-74699500D01*
X117553875Y-74679815D01*
X117508120Y-74627011D01*
X117498176Y-74557853D01*
X117527201Y-74494297D01*
X117573461Y-74460939D01*
X117575259Y-74460194D01*
X117597598Y-74450941D01*
X117769655Y-74335977D01*
X117915977Y-74189655D01*
X118030941Y-74017598D01*
X118110130Y-73826420D01*
X118150500Y-73623465D01*
X118150500Y-73416535D01*
X118110130Y-73213580D01*
X118071368Y-73120000D01*
X118419647Y-73120000D01*
X119359670Y-73120000D01*
X119339925Y-73139745D01*
X119290556Y-73225255D01*
X119265000Y-73320630D01*
X119265000Y-73419370D01*
X119290556Y-73514745D01*
X119339925Y-73600255D01*
X119359670Y-73620000D01*
X118419647Y-73620000D01*
X118429387Y-73668974D01*
X118429390Y-73668983D01*
X118506652Y-73855513D01*
X118506659Y-73855526D01*
X118618829Y-74023399D01*
X118618832Y-74023403D01*
X118761596Y-74166167D01*
X118761600Y-74166170D01*
X118929473Y-74278340D01*
X118929486Y-74278347D01*
X119116016Y-74355609D01*
X119116025Y-74355612D01*
X119314041Y-74394999D01*
X119314045Y-74395000D01*
X119390000Y-74395000D01*
X119390000Y-73650330D01*
X119409745Y-73670075D01*
X119495255Y-73719444D01*
X119590630Y-73745000D01*
X119689370Y-73745000D01*
X119784745Y-73719444D01*
X119870255Y-73670075D01*
X119890000Y-73650330D01*
X119890000Y-74395000D01*
X119965955Y-74395000D01*
X119965958Y-74394999D01*
X120163974Y-74355612D01*
X120163983Y-74355609D01*
X120350513Y-74278347D01*
X120350526Y-74278340D01*
X120518399Y-74166170D01*
X120518403Y-74166167D01*
X120661167Y-74023403D01*
X120661170Y-74023399D01*
X120773340Y-73855526D01*
X120773347Y-73855513D01*
X120850609Y-73668983D01*
X120850612Y-73668974D01*
X120860353Y-73620000D01*
X119920330Y-73620000D01*
X119940075Y-73600255D01*
X119989444Y-73514745D01*
X120015000Y-73419370D01*
X120015000Y-73320630D01*
X119989444Y-73225255D01*
X119940075Y-73139745D01*
X119920330Y-73120000D01*
X120860353Y-73120000D01*
X120850612Y-73071025D01*
X120850609Y-73071016D01*
X120773347Y-72884486D01*
X120773340Y-72884473D01*
X120661170Y-72716600D01*
X120661167Y-72716596D01*
X120567988Y-72623417D01*
X120534503Y-72562094D01*
X120539487Y-72492402D01*
X120549524Y-72472793D01*
X120549367Y-72472710D01*
X120552233Y-72467344D01*
X120552239Y-72467337D01*
X120610698Y-72326205D01*
X120640500Y-72176380D01*
X120640500Y-72023620D01*
X120610698Y-71873795D01*
X120552239Y-71732663D01*
X120535765Y-71708009D01*
X120514888Y-71641332D01*
X120533372Y-71573952D01*
X120562007Y-71544279D01*
X120561965Y-71544237D01*
X120564331Y-71541870D01*
X120569983Y-71536013D01*
X120570601Y-71535601D01*
X120625966Y-71452740D01*
X120640500Y-71379674D01*
X120640500Y-70280326D01*
X120640500Y-70280323D01*
X120640499Y-70280321D01*
X120625967Y-70207264D01*
X120625966Y-70207260D01*
X120608434Y-70181021D01*
X120570601Y-70124399D01*
X120487740Y-70069034D01*
X120487739Y-70069033D01*
X120487735Y-70069032D01*
X120414677Y-70054500D01*
X120414674Y-70054500D01*
X118865326Y-70054500D01*
X118865323Y-70054500D01*
X118792264Y-70069032D01*
X118792260Y-70069033D01*
X118709399Y-70124399D01*
X118654033Y-70207260D01*
X118654032Y-70207264D01*
X118639500Y-70280321D01*
X118639500Y-71379678D01*
X118654032Y-71452735D01*
X118654033Y-71452739D01*
X118654034Y-71452740D01*
X118709399Y-71535601D01*
X118710016Y-71536013D01*
X118711058Y-71537260D01*
X118718035Y-71544237D01*
X118717411Y-71544860D01*
X118754824Y-71589621D01*
X118763536Y-71658945D01*
X118744234Y-71708007D01*
X118727766Y-71732653D01*
X118727759Y-71732665D01*
X118669302Y-71873794D01*
X118669300Y-71873802D01*
X118639500Y-72023615D01*
X118639500Y-72176384D01*
X118669300Y-72326197D01*
X118669302Y-72326205D01*
X118727760Y-72467335D01*
X118730630Y-72472704D01*
X118729461Y-72473328D01*
X118748311Y-72533515D01*
X118729831Y-72600896D01*
X118712012Y-72623417D01*
X118618832Y-72716596D01*
X118618829Y-72716600D01*
X118506659Y-72884473D01*
X118506652Y-72884486D01*
X118429390Y-73071016D01*
X118429387Y-73071025D01*
X118419647Y-73120000D01*
X118071368Y-73120000D01*
X118030941Y-73022402D01*
X117915977Y-72850345D01*
X117915975Y-72850342D01*
X117769657Y-72704024D01*
X117615313Y-72600896D01*
X117597598Y-72589059D01*
X117597593Y-72589057D01*
X117406420Y-72509870D01*
X117406412Y-72509868D01*
X117203469Y-72469500D01*
X117203465Y-72469500D01*
X116996535Y-72469500D01*
X116996530Y-72469500D01*
X116793587Y-72509868D01*
X116793579Y-72509870D01*
X116602403Y-72589058D01*
X116430342Y-72704024D01*
X116284024Y-72850342D01*
X116169058Y-73022403D01*
X116089870Y-73213579D01*
X116089868Y-73213587D01*
X116049500Y-73416530D01*
X116049500Y-73623469D01*
X116089868Y-73826412D01*
X116089870Y-73826420D01*
X116155939Y-73985925D01*
X116169059Y-74017598D01*
X116170664Y-74020000D01*
X116284024Y-74189657D01*
X116430342Y-74335975D01*
X116430345Y-74335977D01*
X116602402Y-74450941D01*
X116623191Y-74459552D01*
X116626539Y-74460939D01*
X116680942Y-74504780D01*
X116703007Y-74571074D01*
X116685728Y-74638773D01*
X116634591Y-74686384D01*
X116579086Y-74699500D01*
X115080914Y-74699500D01*
X115013875Y-74679815D01*
X114968120Y-74627011D01*
X114958176Y-74557853D01*
X114987201Y-74494297D01*
X115033461Y-74460939D01*
X115035259Y-74460194D01*
X115057598Y-74450941D01*
X115229655Y-74335977D01*
X115375977Y-74189655D01*
X115490941Y-74017598D01*
X115570130Y-73826420D01*
X115610500Y-73623465D01*
X115610500Y-73416535D01*
X115570130Y-73213580D01*
X115490941Y-73022402D01*
X115375977Y-72850345D01*
X115375975Y-72850342D01*
X115229657Y-72704024D01*
X115075313Y-72600896D01*
X115057598Y-72589059D01*
X115057593Y-72589057D01*
X114866420Y-72509870D01*
X114866412Y-72509868D01*
X114663469Y-72469500D01*
X114663465Y-72469500D01*
X114456535Y-72469500D01*
X114456530Y-72469500D01*
X114253587Y-72509868D01*
X114253579Y-72509870D01*
X114062403Y-72589058D01*
X113890342Y-72704024D01*
X113744024Y-72850342D01*
X113629058Y-73022403D01*
X113549870Y-73213579D01*
X113549868Y-73213587D01*
X113509500Y-73416530D01*
X113509500Y-73623469D01*
X113549868Y-73826412D01*
X113549870Y-73826420D01*
X113615939Y-73985925D01*
X113629059Y-74017598D01*
X113630664Y-74020000D01*
X113744024Y-74189657D01*
X113890342Y-74335975D01*
X113890345Y-74335977D01*
X114062402Y-74450941D01*
X114083191Y-74459552D01*
X114086539Y-74460939D01*
X114140942Y-74504780D01*
X114163007Y-74571074D01*
X114145728Y-74638773D01*
X114094591Y-74686384D01*
X114039086Y-74699500D01*
X112540914Y-74699500D01*
X112473875Y-74679815D01*
X112428120Y-74627011D01*
X112418176Y-74557853D01*
X112447201Y-74494297D01*
X112493461Y-74460939D01*
X112495259Y-74460194D01*
X112517598Y-74450941D01*
X112689655Y-74335977D01*
X112835977Y-74189655D01*
X112950941Y-74017598D01*
X113030130Y-73826420D01*
X113070500Y-73623465D01*
X113070500Y-73416535D01*
X113030130Y-73213580D01*
X112950941Y-73022402D01*
X112835977Y-72850345D01*
X112835975Y-72850342D01*
X112689657Y-72704024D01*
X112535313Y-72600896D01*
X112517598Y-72589059D01*
X112517593Y-72589057D01*
X112326420Y-72509870D01*
X112326412Y-72509868D01*
X112123469Y-72469500D01*
X112123465Y-72469500D01*
X111916535Y-72469500D01*
X111916530Y-72469500D01*
X111713587Y-72509868D01*
X111713579Y-72509870D01*
X111522403Y-72589058D01*
X111350342Y-72704024D01*
X111204024Y-72850342D01*
X111089058Y-73022403D01*
X111009870Y-73213579D01*
X111009868Y-73213587D01*
X110969500Y-73416530D01*
X110969500Y-73623469D01*
X111009868Y-73826412D01*
X111009870Y-73826420D01*
X111075939Y-73985925D01*
X111089059Y-74017598D01*
X111090664Y-74020000D01*
X111204024Y-74189657D01*
X111350342Y-74335975D01*
X111350345Y-74335977D01*
X111522402Y-74450941D01*
X111543191Y-74459552D01*
X111546539Y-74460939D01*
X111600942Y-74504780D01*
X111623007Y-74571074D01*
X111605728Y-74638773D01*
X111554591Y-74686384D01*
X111499086Y-74699500D01*
X110000914Y-74699500D01*
X109933875Y-74679815D01*
X109888120Y-74627011D01*
X109878176Y-74557853D01*
X109907201Y-74494297D01*
X109953461Y-74460939D01*
X109955259Y-74460194D01*
X109977598Y-74450941D01*
X110149655Y-74335977D01*
X110295977Y-74189655D01*
X110410941Y-74017598D01*
X110490130Y-73826420D01*
X110530500Y-73623465D01*
X110530500Y-73416535D01*
X110490130Y-73213580D01*
X110410941Y-73022402D01*
X110295977Y-72850345D01*
X110295975Y-72850342D01*
X110149657Y-72704024D01*
X109995313Y-72600896D01*
X109977598Y-72589059D01*
X109977593Y-72589057D01*
X109786420Y-72509870D01*
X109786412Y-72509868D01*
X109583469Y-72469500D01*
X109583465Y-72469500D01*
X109376535Y-72469500D01*
X109376530Y-72469500D01*
X109173587Y-72509868D01*
X109173579Y-72509870D01*
X108982403Y-72589058D01*
X108810342Y-72704024D01*
X108664024Y-72850342D01*
X108549058Y-73022403D01*
X108469870Y-73213579D01*
X108469868Y-73213587D01*
X108429500Y-73416530D01*
X108429500Y-73623469D01*
X108469868Y-73826412D01*
X108469870Y-73826420D01*
X108535939Y-73985925D01*
X108549059Y-74017598D01*
X108550664Y-74020000D01*
X108664024Y-74189657D01*
X108810342Y-74335975D01*
X108810345Y-74335977D01*
X108982402Y-74450941D01*
X109003191Y-74459552D01*
X109006539Y-74460939D01*
X109060942Y-74504780D01*
X109083007Y-74571074D01*
X109065728Y-74638773D01*
X109014591Y-74686384D01*
X108959086Y-74699500D01*
X107460914Y-74699500D01*
X107393875Y-74679815D01*
X107348120Y-74627011D01*
X107338176Y-74557853D01*
X107367201Y-74494297D01*
X107413461Y-74460939D01*
X107415259Y-74460194D01*
X107437598Y-74450941D01*
X107609655Y-74335977D01*
X107755977Y-74189655D01*
X107870941Y-74017598D01*
X107950130Y-73826420D01*
X107990500Y-73623465D01*
X107990500Y-73416535D01*
X107954557Y-73235836D01*
X107960784Y-73166245D01*
X107988491Y-73123967D01*
X109400640Y-71711819D01*
X109461963Y-71678334D01*
X109488321Y-71675500D01*
X111202599Y-71675500D01*
X111202601Y-71675500D01*
X111323536Y-71643095D01*
X111431964Y-71580495D01*
X112417819Y-70594638D01*
X112479142Y-70561154D01*
X112548833Y-70566138D01*
X112604767Y-70608010D01*
X112629184Y-70673474D01*
X112629500Y-70682320D01*
X112629500Y-70793620D01*
X112666025Y-70977243D01*
X112666027Y-70977251D01*
X112737676Y-71150228D01*
X112737681Y-71150237D01*
X112841697Y-71305907D01*
X112841700Y-71305911D01*
X112974088Y-71438299D01*
X112974092Y-71438302D01*
X113129762Y-71542318D01*
X113129771Y-71542323D01*
X113135896Y-71544860D01*
X113302749Y-71613973D01*
X113486379Y-71650499D01*
X113486383Y-71650500D01*
X113486384Y-71650500D01*
X113673617Y-71650500D01*
X113673618Y-71650499D01*
X113857251Y-71613973D01*
X114030231Y-71542322D01*
X114185908Y-71438302D01*
X114318302Y-71305908D01*
X114422322Y-71150231D01*
X114493973Y-70977251D01*
X114530500Y-70793616D01*
X114530500Y-70606384D01*
X114530499Y-70606379D01*
X115169500Y-70606379D01*
X115169500Y-70793620D01*
X115206025Y-70977243D01*
X115206027Y-70977251D01*
X115277676Y-71150228D01*
X115277681Y-71150237D01*
X115381697Y-71305907D01*
X115381700Y-71305911D01*
X115514088Y-71438299D01*
X115514092Y-71438302D01*
X115669762Y-71542318D01*
X115669771Y-71542323D01*
X115675896Y-71544860D01*
X115842749Y-71613973D01*
X116026379Y-71650499D01*
X116026383Y-71650500D01*
X116026384Y-71650500D01*
X116213617Y-71650500D01*
X116213618Y-71650499D01*
X116397251Y-71613973D01*
X116570231Y-71542322D01*
X116725908Y-71438302D01*
X116858302Y-71305908D01*
X116962322Y-71150231D01*
X117033973Y-70977251D01*
X117070500Y-70793616D01*
X117070500Y-70606384D01*
X117033973Y-70422749D01*
X116970631Y-70269829D01*
X116962323Y-70249771D01*
X116962318Y-70249762D01*
X116858302Y-70094092D01*
X116858299Y-70094088D01*
X116725911Y-69961700D01*
X116725907Y-69961697D01*
X116570237Y-69857681D01*
X116570228Y-69857676D01*
X116397251Y-69786027D01*
X116397243Y-69786025D01*
X116213620Y-69749500D01*
X116213616Y-69749500D01*
X116026384Y-69749500D01*
X116026379Y-69749500D01*
X115842756Y-69786025D01*
X115842748Y-69786027D01*
X115669771Y-69857676D01*
X115669762Y-69857681D01*
X115514092Y-69961697D01*
X115514088Y-69961700D01*
X115381700Y-70094088D01*
X115381697Y-70094092D01*
X115277681Y-70249762D01*
X115277676Y-70249771D01*
X115206027Y-70422748D01*
X115206025Y-70422756D01*
X115169500Y-70606379D01*
X114530499Y-70606379D01*
X114493973Y-70422749D01*
X114430631Y-70269829D01*
X114422323Y-70249771D01*
X114422318Y-70249762D01*
X114318302Y-70094092D01*
X114318299Y-70094088D01*
X114185911Y-69961700D01*
X114185907Y-69961697D01*
X114030237Y-69857681D01*
X114030228Y-69857676D01*
X113857251Y-69786027D01*
X113857243Y-69786025D01*
X113673620Y-69749500D01*
X113673616Y-69749500D01*
X113562320Y-69749500D01*
X113495281Y-69729815D01*
X113449526Y-69677011D01*
X113439582Y-69607853D01*
X113468607Y-69544297D01*
X113474639Y-69537819D01*
X114221230Y-68791228D01*
X114980455Y-68032002D01*
X115041776Y-67998519D01*
X115106450Y-68001753D01*
X115142299Y-68013402D01*
X115313389Y-68040500D01*
X115313390Y-68040500D01*
X115486610Y-68040500D01*
X115486611Y-68040500D01*
X115657701Y-68013402D01*
X115822445Y-67959873D01*
X115976788Y-67881232D01*
X116116928Y-67779414D01*
X116239414Y-67656928D01*
X116341232Y-67516788D01*
X116419873Y-67362445D01*
X116473402Y-67197701D01*
X116500500Y-67026611D01*
X116500500Y-66853389D01*
X116473402Y-66682299D01*
X116419873Y-66517555D01*
X116341232Y-66363212D01*
X116275241Y-66272383D01*
X116251762Y-66206580D01*
X116267587Y-66138526D01*
X116317692Y-66089831D01*
X116375560Y-66075500D01*
X116993101Y-66075500D01*
X117060140Y-66095185D01*
X117080782Y-66111819D01*
X117513181Y-66544218D01*
X117546666Y-66605541D01*
X117549500Y-66631899D01*
X117549500Y-66672475D01*
X117580504Y-66788181D01*
X117587017Y-66812488D01*
X117659488Y-66938011D01*
X117659493Y-66938017D01*
X117692587Y-66971111D01*
X117726072Y-67032434D01*
X117721088Y-67102126D01*
X117679216Y-67158059D01*
X117674203Y-67161605D01*
X117674088Y-67161700D01*
X117541700Y-67294088D01*
X117541697Y-67294092D01*
X117437681Y-67449762D01*
X117437676Y-67449771D01*
X117366027Y-67622748D01*
X117366025Y-67622756D01*
X117329500Y-67806379D01*
X117329500Y-67993620D01*
X117366025Y-68177243D01*
X117366027Y-68177251D01*
X117437676Y-68350228D01*
X117437681Y-68350237D01*
X117541697Y-68505907D01*
X117541700Y-68505911D01*
X117674088Y-68638299D01*
X117674092Y-68638302D01*
X117829762Y-68742318D01*
X117829768Y-68742321D01*
X117829769Y-68742322D01*
X118002749Y-68813973D01*
X118183493Y-68849925D01*
X118186379Y-68850499D01*
X118186383Y-68850500D01*
X118186384Y-68850500D01*
X118373617Y-68850500D01*
X118373618Y-68850499D01*
X118557251Y-68813973D01*
X118730231Y-68742322D01*
X118885908Y-68638302D01*
X119018302Y-68505908D01*
X119122322Y-68350231D01*
X119193973Y-68177251D01*
X119230500Y-67993616D01*
X119230500Y-67806384D01*
X119193973Y-67622749D01*
X119122322Y-67449769D01*
X119122321Y-67449768D01*
X119122318Y-67449762D01*
X119018302Y-67294092D01*
X119018299Y-67294088D01*
X118885911Y-67161700D01*
X118885907Y-67161697D01*
X118730237Y-67057681D01*
X118730228Y-67057676D01*
X118655229Y-67026611D01*
X118652000Y-67025273D01*
X118597598Y-66981433D01*
X118575533Y-66915139D01*
X118592066Y-66848714D01*
X118612984Y-66812485D01*
X118650500Y-66672475D01*
X118650500Y-66527525D01*
X118612984Y-66387515D01*
X118610292Y-66382853D01*
X118540511Y-66261988D01*
X118540506Y-66261982D01*
X118438017Y-66159493D01*
X118438011Y-66159488D01*
X118312488Y-66087017D01*
X118312489Y-66087017D01*
X118301006Y-66083940D01*
X118172475Y-66049500D01*
X118172472Y-66049500D01*
X118131899Y-66049500D01*
X118064860Y-66029815D01*
X118044218Y-66013181D01*
X117430563Y-65399526D01*
X117430562Y-65399525D01*
X117344940Y-65350091D01*
X117344939Y-65350090D01*
X117257993Y-65326793D01*
X117257993Y-65326792D01*
X117257990Y-65326792D01*
X117249437Y-65324500D01*
X117249436Y-65324500D01*
X117249435Y-65324500D01*
X116331107Y-65324500D01*
X116264068Y-65304815D01*
X116218313Y-65252011D01*
X116208369Y-65182853D01*
X116236818Y-65119967D01*
X116239405Y-65116936D01*
X116239414Y-65116928D01*
X116341232Y-64976788D01*
X116419873Y-64822445D01*
X116473402Y-64657701D01*
X116500500Y-64486611D01*
X116500500Y-64313389D01*
X116473402Y-64142299D01*
X116419873Y-63977555D01*
X116341232Y-63823212D01*
X116256348Y-63706379D01*
X117329500Y-63706379D01*
X117329500Y-63893620D01*
X117366025Y-64077243D01*
X117366027Y-64077251D01*
X117437676Y-64250228D01*
X117437681Y-64250237D01*
X117541697Y-64405907D01*
X117541700Y-64405911D01*
X117674088Y-64538299D01*
X117674092Y-64538302D01*
X117829762Y-64642318D01*
X117829768Y-64642321D01*
X117829769Y-64642322D01*
X118002749Y-64713973D01*
X118176158Y-64748466D01*
X118186379Y-64750499D01*
X118186383Y-64750500D01*
X118186384Y-64750500D01*
X118373617Y-64750500D01*
X118373618Y-64750499D01*
X118557251Y-64713973D01*
X118730231Y-64642322D01*
X118885908Y-64538302D01*
X119018302Y-64405908D01*
X119122322Y-64250231D01*
X119193973Y-64077251D01*
X119230500Y-63893616D01*
X119230500Y-63706384D01*
X119193973Y-63522749D01*
X119122322Y-63349769D01*
X119122321Y-63349768D01*
X119122318Y-63349762D01*
X119018302Y-63194092D01*
X119018299Y-63194088D01*
X118885911Y-63061700D01*
X118885907Y-63061697D01*
X118730237Y-62957681D01*
X118730228Y-62957676D01*
X118557251Y-62886027D01*
X118557243Y-62886025D01*
X118373620Y-62849500D01*
X118373616Y-62849500D01*
X118186384Y-62849500D01*
X118186379Y-62849500D01*
X118002756Y-62886025D01*
X118002748Y-62886027D01*
X117829771Y-62957676D01*
X117829762Y-62957681D01*
X117674092Y-63061697D01*
X117674088Y-63061700D01*
X117541700Y-63194088D01*
X117541697Y-63194092D01*
X117437681Y-63349762D01*
X117437676Y-63349771D01*
X117366027Y-63522748D01*
X117366025Y-63522756D01*
X117329500Y-63706379D01*
X116256348Y-63706379D01*
X116239414Y-63683072D01*
X116116928Y-63560586D01*
X115976788Y-63458768D01*
X115948756Y-63444485D01*
X115897960Y-63396510D01*
X115881165Y-63328689D01*
X115903703Y-63262554D01*
X115958418Y-63219103D01*
X116005051Y-63210000D01*
X116297828Y-63210000D01*
X116297844Y-63209999D01*
X116357372Y-63203598D01*
X116357379Y-63203596D01*
X116492086Y-63153354D01*
X116492093Y-63153350D01*
X116607187Y-63067190D01*
X116607190Y-63067187D01*
X116693350Y-62952093D01*
X116693354Y-62952086D01*
X116743596Y-62817379D01*
X116743598Y-62817372D01*
X116749999Y-62757844D01*
X116750000Y-62757827D01*
X116750000Y-62110000D01*
X115833012Y-62110000D01*
X115865925Y-62052993D01*
X115900000Y-61925826D01*
X115900000Y-61794174D01*
X115865925Y-61667007D01*
X115833012Y-61610000D01*
X116750000Y-61610000D01*
X116750000Y-60962172D01*
X116749999Y-60962155D01*
X116743598Y-60902627D01*
X116743596Y-60902617D01*
X116721298Y-60842832D01*
X116716314Y-60773141D01*
X116749800Y-60711818D01*
X116811123Y-60678334D01*
X116837480Y-60675500D01*
X117722682Y-60675500D01*
X117722684Y-60675500D01*
X117843619Y-60643095D01*
X117952047Y-60580495D01*
X118453277Y-60079263D01*
X118480971Y-60064141D01*
X118507771Y-60047469D01*
X118511407Y-60047522D01*
X118514598Y-60045780D01*
X118546073Y-60048030D01*
X118577633Y-60048494D01*
X118580663Y-60050504D01*
X118584289Y-60050764D01*
X118609550Y-60069674D01*
X118635851Y-60087127D01*
X118638342Y-60091227D01*
X118640223Y-60092635D01*
X118654494Y-60117096D01*
X118655023Y-60118302D01*
X118687761Y-60197337D01*
X118693488Y-60205908D01*
X118697869Y-60215886D01*
X118700996Y-60240159D01*
X118708311Y-60263515D01*
X118705381Y-60274196D01*
X118706797Y-60285183D01*
X118696304Y-60307293D01*
X118689831Y-60330896D01*
X118678018Y-60345825D01*
X118676842Y-60348305D01*
X118675295Y-60349267D01*
X118672012Y-60353417D01*
X118578832Y-60446596D01*
X118578829Y-60446600D01*
X118466659Y-60614473D01*
X118466652Y-60614486D01*
X118389390Y-60801016D01*
X118389387Y-60801025D01*
X118379647Y-60850000D01*
X119319670Y-60850000D01*
X119299925Y-60869745D01*
X119250556Y-60955255D01*
X119225000Y-61050630D01*
X119225000Y-61149370D01*
X119250556Y-61244745D01*
X119299925Y-61330255D01*
X119319670Y-61350000D01*
X118379647Y-61350000D01*
X118389387Y-61398974D01*
X118389390Y-61398983D01*
X118466652Y-61585513D01*
X118466659Y-61585526D01*
X118578829Y-61753399D01*
X118578832Y-61753403D01*
X118721596Y-61896167D01*
X118721600Y-61896170D01*
X118889473Y-62008340D01*
X118889486Y-62008347D01*
X119076016Y-62085609D01*
X119076025Y-62085612D01*
X119274041Y-62124999D01*
X119274045Y-62125000D01*
X119350000Y-62125000D01*
X119350000Y-61380330D01*
X119369745Y-61400075D01*
X119455255Y-61449444D01*
X119550630Y-61475000D01*
X119649370Y-61475000D01*
X119744745Y-61449444D01*
X119830255Y-61400075D01*
X119850000Y-61380330D01*
X119850000Y-62125000D01*
X119925955Y-62125000D01*
X119925958Y-62124999D01*
X120123974Y-62085612D01*
X120123983Y-62085609D01*
X120310513Y-62008347D01*
X120310526Y-62008340D01*
X120478399Y-61896170D01*
X120478403Y-61896167D01*
X120621167Y-61753403D01*
X120621170Y-61753399D01*
X120733340Y-61585526D01*
X120733347Y-61585513D01*
X120810609Y-61398983D01*
X120810612Y-61398974D01*
X120820353Y-61350000D01*
X119880330Y-61350000D01*
X119900075Y-61330255D01*
X119949444Y-61244745D01*
X119975000Y-61149370D01*
X119975000Y-61050630D01*
X119949444Y-60955255D01*
X119900075Y-60869745D01*
X119880330Y-60850000D01*
X120820353Y-60850000D01*
X120810612Y-60801025D01*
X120810609Y-60801016D01*
X120733347Y-60614486D01*
X120733340Y-60614473D01*
X120621170Y-60446600D01*
X120621167Y-60446596D01*
X120527988Y-60353417D01*
X120494503Y-60292094D01*
X120499487Y-60222402D01*
X120509524Y-60202793D01*
X120509367Y-60202710D01*
X120512233Y-60197344D01*
X120512239Y-60197337D01*
X120570698Y-60056205D01*
X120600500Y-59906380D01*
X120600500Y-59753620D01*
X120570698Y-59603795D01*
X120512239Y-59462663D01*
X120495765Y-59438009D01*
X120474888Y-59371332D01*
X120493372Y-59303952D01*
X120522007Y-59274279D01*
X120521965Y-59274237D01*
X120524331Y-59271870D01*
X120529983Y-59266013D01*
X120530601Y-59265601D01*
X120585966Y-59182740D01*
X120600500Y-59109674D01*
X120600500Y-58010326D01*
X120600500Y-58010323D01*
X120600499Y-58010321D01*
X120585967Y-57937264D01*
X120585966Y-57937260D01*
X120530601Y-57854399D01*
X120447740Y-57799034D01*
X120447739Y-57799033D01*
X120447735Y-57799032D01*
X120374677Y-57784500D01*
X120374674Y-57784500D01*
X118825326Y-57784500D01*
X118825323Y-57784500D01*
X118752264Y-57799032D01*
X118752260Y-57799033D01*
X118669399Y-57854399D01*
X118614033Y-57937260D01*
X118614032Y-57937264D01*
X118599500Y-58010321D01*
X118599500Y-58536762D01*
X118579815Y-58603801D01*
X118563181Y-58624443D01*
X118157832Y-59029791D01*
X118096509Y-59063276D01*
X118026817Y-59058292D01*
X117970884Y-59016420D01*
X117946467Y-58950956D01*
X117961319Y-58882683D01*
X117967043Y-58873227D01*
X118030941Y-58777598D01*
X118110130Y-58586420D01*
X118150500Y-58383465D01*
X118150500Y-58176535D01*
X118110130Y-57973580D01*
X118030941Y-57782402D01*
X117915977Y-57610345D01*
X117915975Y-57610342D01*
X117769657Y-57464024D01*
X117683626Y-57406541D01*
X117597598Y-57349059D01*
X117573461Y-57339061D01*
X117519058Y-57295220D01*
X117496993Y-57228926D01*
X117514272Y-57161227D01*
X117565409Y-57113616D01*
X117620914Y-57100500D01*
X121675500Y-57100500D01*
X121742539Y-57120185D01*
G37*
%TD.AperFunction*%
%TA.AperFunction,Conductor*%
G36*
X99499925Y-68919745D02*
G01*
X99450556Y-69005255D01*
X99425000Y-69100630D01*
X99425000Y-69199370D01*
X99450556Y-69294745D01*
X99499925Y-69380255D01*
X99519670Y-69400000D01*
X98080330Y-69400000D01*
X98100075Y-69380255D01*
X98149444Y-69294745D01*
X98175000Y-69199370D01*
X98175000Y-69100630D01*
X98149444Y-69005255D01*
X98100075Y-68919745D01*
X98080330Y-68900000D01*
X99519670Y-68900000D01*
X99499925Y-68919745D01*
G37*
%TD.AperFunction*%
%TD*%
M02*
