M48
; DRILL file KiCad 10.0.0 date 2026-05-15T13:26:55
; FORMAT={-:-/ absolute / metric / decimal}
; #@! TF.CreationDate,2026-05-15T13:26:55+02:00
; #@! TF.GenerationSoftware,Kicad,Pcbnew,10.0.0
; #@! TF.FileFunction,Plated,1,2,PTH
FMAT,2
METRIC
; #@! TA.AperFunction,Plated,PTH,ViaDrill
T1C0.300
; #@! TA.AperFunction,Plated,PTH,ComponentDrill
T2C0.700
; #@! TA.AperFunction,Plated,PTH,ComponentDrill
T3C0.750
; #@! TA.AperFunction,Plated,PTH,ComponentDrill
T4C1.000
; #@! TA.AperFunction,Plated,PTH,ComponentDrill
T5C1.100
%
G90
G05
T1
X81.5Y-60.25
X81.5Y-71.75
X90.75Y-69.75
X91.25Y-60.25
X91.25Y-67.25
X98.75Y-65.0
X104.5Y-69.75
X114.75Y-67.75
T2
X113.5Y-70.25
X115.951Y-61.18
X115.951Y-63.72
X116.04Y-70.25
X118.28Y-63.754
X118.287Y-65.964
X118.287Y-68.097
X120.82Y-63.754
X120.827Y-65.964
X120.827Y-68.097
T3
X85.106Y-61.934
X85.106Y-68.741
X87.106Y-61.934
X87.106Y-68.741
X94.965Y-69.173
X96.965Y-69.173
X98.965Y-69.173
X100.965Y-69.173
X102.965Y-69.173
X107.966Y-69.173
X109.966Y-69.173
X110.379Y-61.934
X112.379Y-61.934
X120.39Y-58.06
X120.39Y-59.83
X120.39Y-61.56
X120.39Y-70.366
X120.39Y-72.136
X120.39Y-73.866
T4
X81.54Y-58.28
X81.54Y-73.52
X84.08Y-58.28
X84.08Y-73.52
X86.62Y-58.28
X86.62Y-73.52
X89.16Y-58.28
X89.16Y-73.52
X91.7Y-58.28
X91.7Y-73.52
X91.71Y-65.0
X94.24Y-58.28
X94.24Y-73.52
X94.25Y-65.0
X95.885Y-61.468
X96.78Y-58.28
X96.78Y-73.52
X96.79Y-65.0
X98.425Y-61.468
X99.32Y-58.28
X99.32Y-73.52
X100.71Y-65.0
X100.965Y-61.468
X101.86Y-58.28
X101.86Y-73.52
X103.25Y-65.0
X103.505Y-61.468
X104.4Y-58.28
X104.4Y-73.52
X105.79Y-65.0
X106.045Y-61.468
X106.94Y-58.28
X106.94Y-73.52
X109.48Y-58.28
X109.48Y-73.52
X112.02Y-58.28
X112.02Y-73.52
X114.56Y-58.28
X114.56Y-73.52
X117.1Y-58.28
X117.1Y-73.52
T5
X79.25Y-63.56
X79.25Y-66.1
X79.25Y-68.64
M30
