%TF.GenerationSoftware,KiCad,Pcbnew,10.0.0*%
%TF.CreationDate,2026-05-15T13:26:57+02:00*%
%TF.ProjectId,TankIR_Breaker,54616e6b-4952-45f4-9272-65616b65722e,rev?*%
%TF.SameCoordinates,Original*%
%TF.FileFunction,Soldermask,Top*%
%TF.FilePolarity,Negative*%
%FSLAX46Y46*%
G04 Gerber Fmt 4.6, Leading zero omitted, Abs format (unit mm)*
G04 Created by KiCad (PCBNEW 10.0.0) date 2026-05-15 13:26:57*
%MOMM*%
%LPD*%
G01*
G04 APERTURE LIST*
G04 Aperture macros list*
%AMRoundRect*
0 Rectangle with rounded corners*
0 $1 Rounding radius*
0 $2 $3 $4 $5 $6 $7 $8 $9 X,Y pos of 4 corners*
0 Add a 4 corners polygon primitive as box body*
4,1,4,$2,$3,$4,$5,$6,$7,$8,$9,$2,$3,0*
0 Add four circle primitives for the rounded corners*
1,1,$1+$1,$2,$3*
1,1,$1+$1,$4,$5*
1,1,$1+$1,$6,$7*
1,1,$1+$1,$8,$9*
0 Add four rect primitives between the rounded corners*
20,1,$1+$1,$2,$3,$4,$5,0*
20,1,$1+$1,$4,$5,$6,$7,0*
20,1,$1+$1,$6,$7,$8,$9,0*
20,1,$1+$1,$8,$9,$2,$3,0*%
G04 Aperture macros list end*
%ADD10R,1.700000X1.700000*%
%ADD11C,1.700000*%
%ADD12RoundRect,0.250000X-0.350000X-0.625000X0.350000X-0.625000X0.350000X0.625000X-0.350000X0.625000X0*%
%ADD13O,1.200000X1.750000*%
%ADD14R,2.000000X1.905000*%
%ADD15O,2.000000X1.905000*%
%ADD16R,1.600000X1.600000*%
%ADD17O,1.600000X1.600000*%
%ADD18C,1.400000*%
%ADD19R,1.500000X1.050000*%
%ADD20O,1.500000X1.050000*%
G04 APERTURE END LIST*
D10*
%TO.C,J6*%
X95885000Y-61468000D03*
D11*
X98425000Y-61468000D03*
X100965000Y-61468000D03*
X103505000Y-61468000D03*
X106045000Y-61468000D03*
%TD*%
D10*
%TO.C,J3*%
X100710000Y-65000000D03*
D11*
X103250000Y-65000000D03*
X105790000Y-65000000D03*
%TD*%
D10*
%TO.C,J4*%
X91710000Y-65000000D03*
D11*
X94250000Y-65000000D03*
X96790000Y-65000000D03*
%TD*%
D12*
%TO.C,J5*%
X94965000Y-69173000D03*
D13*
X96965000Y-69173000D03*
X98965000Y-69173000D03*
X100965000Y-69173000D03*
X102965000Y-69173000D03*
%TD*%
D12*
%TO.C,J2*%
X85106000Y-61934000D03*
D13*
X87106000Y-61934000D03*
%TD*%
D12*
%TO.C,J7*%
X107966000Y-69173000D03*
D13*
X109966000Y-69173000D03*
%TD*%
D12*
%TO.C,J1*%
X85106000Y-68741200D03*
D13*
X87106000Y-68741200D03*
%TD*%
D12*
%TO.C,J8*%
X110379000Y-61934000D03*
D13*
X112379000Y-61934000D03*
%TD*%
D14*
%TO.C,U1*%
X79250000Y-63560000D03*
D15*
X79250000Y-66100000D03*
X79250000Y-68640000D03*
%TD*%
D16*
%TO.C,A1*%
X81540000Y-73520000D03*
D17*
X84080000Y-73520000D03*
X86620000Y-73520000D03*
X89160000Y-73520000D03*
X91700000Y-73520000D03*
X94240000Y-73520000D03*
X96780000Y-73520000D03*
X99320000Y-73520000D03*
X101860000Y-73520000D03*
X104400000Y-73520000D03*
X106940000Y-73520000D03*
X109480000Y-73520000D03*
X112020000Y-73520000D03*
X114560000Y-73520000D03*
X117100000Y-73520000D03*
X117100000Y-58280000D03*
X114560000Y-58280000D03*
X112020000Y-58280000D03*
X109480000Y-58280000D03*
X106940000Y-58280000D03*
X104400000Y-58280000D03*
X101860000Y-58280000D03*
X99320000Y-58280000D03*
X96780000Y-58280000D03*
X94240000Y-58280000D03*
X91700000Y-58280000D03*
X89160000Y-58280000D03*
X86620000Y-58280000D03*
X84080000Y-58280000D03*
X81540000Y-58280000D03*
%TD*%
D18*
%TO.C,R4*%
X118287000Y-65963800D03*
X120827000Y-65963800D03*
%TD*%
%TO.C,R1*%
X118287000Y-68097400D03*
X120827000Y-68097400D03*
%TD*%
D19*
%TO.C,Q2*%
X120390000Y-58060000D03*
D20*
X120390000Y-59830000D03*
X120390000Y-61560000D03*
%TD*%
D18*
%TO.C,R2*%
X118280000Y-63754000D03*
X120820000Y-63754000D03*
%TD*%
%TO.C,R3*%
X116040000Y-70250000D03*
X113500000Y-70250000D03*
%TD*%
%TO.C,R5*%
X115951000Y-63720000D03*
X115951000Y-61180000D03*
%TD*%
D19*
%TO.C,Q1*%
X120390000Y-70366000D03*
D20*
X120390000Y-72136000D03*
X120390000Y-73866000D03*
%TD*%
M02*
