%TF.GenerationSoftware,KiCad,Pcbnew,10.0.0*%
%TF.CreationDate,2026-05-15T00:10:17+02:00*%
%TF.ProjectId,TankIR_Breaker,54616e6b-4952-45f4-9272-65616b65722e,rev?*%
%TF.SameCoordinates,Original*%
%TF.FileFunction,Legend,Bot*%
%TF.FilePolarity,Positive*%
%FSLAX46Y46*%
G04 Gerber Fmt 4.6, Leading zero omitted, Abs format (unit mm)*
G04 Created by KiCad (PCBNEW 10.0.0) date 2026-05-15 00:10:17*
%MOMM*%
%LPD*%
G01*
G04 APERTURE LIST*
%ADD10C,0.150000*%
%ADD11C,0.200000*%
%ADD12C,0.124370*%
G04 APERTURE END LIST*
D10*
X79096009Y-57670112D02*
X79096009Y-57336779D01*
X79619819Y-57336779D02*
X78619819Y-57336779D01*
X78619819Y-57336779D02*
X78619819Y-57812969D01*
X79619819Y-58193922D02*
X78619819Y-58193922D01*
X79096009Y-58193922D02*
X79096009Y-58765350D01*
X79619819Y-58765350D02*
X78619819Y-58765350D01*
X79619819Y-59241541D02*
X78619819Y-59241541D01*
X78619819Y-59241541D02*
X78619819Y-59479636D01*
X78619819Y-59479636D02*
X78667438Y-59622493D01*
X78667438Y-59622493D02*
X78762676Y-59717731D01*
X78762676Y-59717731D02*
X78857914Y-59765350D01*
X78857914Y-59765350D02*
X79048390Y-59812969D01*
X79048390Y-59812969D02*
X79191247Y-59812969D01*
X79191247Y-59812969D02*
X79381723Y-59765350D01*
X79381723Y-59765350D02*
X79476961Y-59717731D01*
X79476961Y-59717731D02*
X79572200Y-59622493D01*
X79572200Y-59622493D02*
X79619819Y-59479636D01*
X79619819Y-59479636D02*
X79619819Y-59241541D01*
X79524580Y-60241541D02*
X79572200Y-60289160D01*
X79572200Y-60289160D02*
X79619819Y-60241541D01*
X79619819Y-60241541D02*
X79572200Y-60193922D01*
X79572200Y-60193922D02*
X79524580Y-60241541D01*
X79524580Y-60241541D02*
X79619819Y-60241541D01*
X78715057Y-60670112D02*
X78667438Y-60717731D01*
X78667438Y-60717731D02*
X78619819Y-60812969D01*
X78619819Y-60812969D02*
X78619819Y-61051064D01*
X78619819Y-61051064D02*
X78667438Y-61146302D01*
X78667438Y-61146302D02*
X78715057Y-61193921D01*
X78715057Y-61193921D02*
X78810295Y-61241540D01*
X78810295Y-61241540D02*
X78905533Y-61241540D01*
X78905533Y-61241540D02*
X79048390Y-61193921D01*
X79048390Y-61193921D02*
X79619819Y-60622493D01*
X79619819Y-60622493D02*
X79619819Y-61241540D01*
X78619819Y-62098683D02*
X78619819Y-61908207D01*
X78619819Y-61908207D02*
X78667438Y-61812969D01*
X78667438Y-61812969D02*
X78715057Y-61765350D01*
X78715057Y-61765350D02*
X78857914Y-61670112D01*
X78857914Y-61670112D02*
X79048390Y-61622493D01*
X79048390Y-61622493D02*
X79429342Y-61622493D01*
X79429342Y-61622493D02*
X79524580Y-61670112D01*
X79524580Y-61670112D02*
X79572200Y-61717731D01*
X79572200Y-61717731D02*
X79619819Y-61812969D01*
X79619819Y-61812969D02*
X79619819Y-62003445D01*
X79619819Y-62003445D02*
X79572200Y-62098683D01*
X79572200Y-62098683D02*
X79524580Y-62146302D01*
X79524580Y-62146302D02*
X79429342Y-62193921D01*
X79429342Y-62193921D02*
X79191247Y-62193921D01*
X79191247Y-62193921D02*
X79096009Y-62146302D01*
X79096009Y-62146302D02*
X79048390Y-62098683D01*
X79048390Y-62098683D02*
X79000771Y-62003445D01*
X79000771Y-62003445D02*
X79000771Y-61812969D01*
X79000771Y-61812969D02*
X79048390Y-61717731D01*
X79048390Y-61717731D02*
X79096009Y-61670112D01*
X79096009Y-61670112D02*
X79191247Y-61622493D01*
X79619819Y-71158207D02*
X79143628Y-70824874D01*
X79619819Y-70586779D02*
X78619819Y-70586779D01*
X78619819Y-70586779D02*
X78619819Y-70967731D01*
X78619819Y-70967731D02*
X78667438Y-71062969D01*
X78667438Y-71062969D02*
X78715057Y-71110588D01*
X78715057Y-71110588D02*
X78810295Y-71158207D01*
X78810295Y-71158207D02*
X78953152Y-71158207D01*
X78953152Y-71158207D02*
X79048390Y-71110588D01*
X79048390Y-71110588D02*
X79096009Y-71062969D01*
X79096009Y-71062969D02*
X79143628Y-70967731D01*
X79143628Y-70967731D02*
X79143628Y-70586779D01*
X79096009Y-71586779D02*
X79096009Y-71920112D01*
X79619819Y-72062969D02*
X79619819Y-71586779D01*
X79619819Y-71586779D02*
X78619819Y-71586779D01*
X78619819Y-71586779D02*
X78619819Y-72062969D01*
X78619819Y-72348684D02*
X79619819Y-72682017D01*
X79619819Y-72682017D02*
X78619819Y-73015350D01*
X79524580Y-73348684D02*
X79572200Y-73396303D01*
X79572200Y-73396303D02*
X79619819Y-73348684D01*
X79619819Y-73348684D02*
X79572200Y-73301065D01*
X79572200Y-73301065D02*
X79524580Y-73348684D01*
X79524580Y-73348684D02*
X79619819Y-73348684D01*
X78715057Y-73777255D02*
X78667438Y-73824874D01*
X78667438Y-73824874D02*
X78619819Y-73920112D01*
X78619819Y-73920112D02*
X78619819Y-74158207D01*
X78619819Y-74158207D02*
X78667438Y-74253445D01*
X78667438Y-74253445D02*
X78715057Y-74301064D01*
X78715057Y-74301064D02*
X78810295Y-74348683D01*
X78810295Y-74348683D02*
X78905533Y-74348683D01*
X78905533Y-74348683D02*
X79048390Y-74301064D01*
X79048390Y-74301064D02*
X79619819Y-73729636D01*
X79619819Y-73729636D02*
X79619819Y-74348683D01*
X81119819Y-61943922D02*
X81119819Y-62515350D01*
X82119819Y-62229636D02*
X81119819Y-62229636D01*
X82119819Y-63277255D02*
X81596009Y-63277255D01*
X81596009Y-63277255D02*
X81500771Y-63229636D01*
X81500771Y-63229636D02*
X81453152Y-63134398D01*
X81453152Y-63134398D02*
X81453152Y-62943922D01*
X81453152Y-62943922D02*
X81500771Y-62848684D01*
X82072200Y-63277255D02*
X82119819Y-63182017D01*
X82119819Y-63182017D02*
X82119819Y-62943922D01*
X82119819Y-62943922D02*
X82072200Y-62848684D01*
X82072200Y-62848684D02*
X81976961Y-62801065D01*
X81976961Y-62801065D02*
X81881723Y-62801065D01*
X81881723Y-62801065D02*
X81786485Y-62848684D01*
X81786485Y-62848684D02*
X81738866Y-62943922D01*
X81738866Y-62943922D02*
X81738866Y-63182017D01*
X81738866Y-63182017D02*
X81691247Y-63277255D01*
X81453152Y-63753446D02*
X82119819Y-63753446D01*
X81548390Y-63753446D02*
X81500771Y-63801065D01*
X81500771Y-63801065D02*
X81453152Y-63896303D01*
X81453152Y-63896303D02*
X81453152Y-64039160D01*
X81453152Y-64039160D02*
X81500771Y-64134398D01*
X81500771Y-64134398D02*
X81596009Y-64182017D01*
X81596009Y-64182017D02*
X82119819Y-64182017D01*
X82119819Y-64658208D02*
X81119819Y-64658208D01*
X81738866Y-64753446D02*
X82119819Y-65039160D01*
X81453152Y-65039160D02*
X81834104Y-64658208D01*
X82119819Y-65467732D02*
X81119819Y-65467732D01*
X82119819Y-66515350D02*
X81643628Y-66182017D01*
X82119819Y-65943922D02*
X81119819Y-65943922D01*
X81119819Y-65943922D02*
X81119819Y-66324874D01*
X81119819Y-66324874D02*
X81167438Y-66420112D01*
X81167438Y-66420112D02*
X81215057Y-66467731D01*
X81215057Y-66467731D02*
X81310295Y-66515350D01*
X81310295Y-66515350D02*
X81453152Y-66515350D01*
X81453152Y-66515350D02*
X81548390Y-66467731D01*
X81548390Y-66467731D02*
X81596009Y-66420112D01*
X81596009Y-66420112D02*
X81643628Y-66324874D01*
X81643628Y-66324874D02*
X81643628Y-65943922D01*
X82215057Y-66705827D02*
X82215057Y-67467731D01*
X82119819Y-67705827D02*
X81119819Y-67705827D01*
X81596009Y-67705827D02*
X81596009Y-68277255D01*
X82119819Y-68277255D02*
X81119819Y-68277255D01*
X81834104Y-68705827D02*
X81834104Y-69182017D01*
X82119819Y-68610589D02*
X81119819Y-68943922D01*
X81119819Y-68943922D02*
X82119819Y-69277255D01*
X81119819Y-69467732D02*
X81119819Y-70039160D01*
X82119819Y-69753446D02*
X81119819Y-69753446D01*
D11*
X96367219Y-63191101D02*
X95891028Y-62857768D01*
X96367219Y-62619673D02*
X95367219Y-62619673D01*
X95367219Y-62619673D02*
X95367219Y-63000625D01*
X95367219Y-63000625D02*
X95414838Y-63095863D01*
X95414838Y-63095863D02*
X95462457Y-63143482D01*
X95462457Y-63143482D02*
X95557695Y-63191101D01*
X95557695Y-63191101D02*
X95700552Y-63191101D01*
X95700552Y-63191101D02*
X95795790Y-63143482D01*
X95795790Y-63143482D02*
X95843409Y-63095863D01*
X95843409Y-63095863D02*
X95891028Y-63000625D01*
X95891028Y-63000625D02*
X95891028Y-62619673D01*
X96414838Y-66643482D02*
X96367219Y-66548244D01*
X96367219Y-66548244D02*
X96367219Y-66405387D01*
X96367219Y-66405387D02*
X96414838Y-66262530D01*
X96414838Y-66262530D02*
X96510076Y-66167292D01*
X96510076Y-66167292D02*
X96605314Y-66119673D01*
X96605314Y-66119673D02*
X96795790Y-66072054D01*
X96795790Y-66072054D02*
X96938647Y-66072054D01*
X96938647Y-66072054D02*
X97129123Y-66119673D01*
X97129123Y-66119673D02*
X97224361Y-66167292D01*
X97224361Y-66167292D02*
X97319600Y-66262530D01*
X97319600Y-66262530D02*
X97367219Y-66405387D01*
X97367219Y-66405387D02*
X97367219Y-66500625D01*
X97367219Y-66500625D02*
X97319600Y-66643482D01*
X97319600Y-66643482D02*
X97271980Y-66691101D01*
X97271980Y-66691101D02*
X96938647Y-66691101D01*
X96938647Y-66691101D02*
X96938647Y-66500625D01*
X98867219Y-62619673D02*
X97867219Y-62619673D01*
X97867219Y-62619673D02*
X97867219Y-62857768D01*
X97867219Y-62857768D02*
X97914838Y-63000625D01*
X97914838Y-63000625D02*
X98010076Y-63095863D01*
X98010076Y-63095863D02*
X98105314Y-63143482D01*
X98105314Y-63143482D02*
X98295790Y-63191101D01*
X98295790Y-63191101D02*
X98438647Y-63191101D01*
X98438647Y-63191101D02*
X98629123Y-63143482D01*
X98629123Y-63143482D02*
X98724361Y-63095863D01*
X98724361Y-63095863D02*
X98819600Y-63000625D01*
X98819600Y-63000625D02*
X98867219Y-62857768D01*
X98867219Y-62857768D02*
X98867219Y-62619673D01*
X100164838Y-66643482D02*
X100117219Y-66548244D01*
X100117219Y-66548244D02*
X100117219Y-66405387D01*
X100117219Y-66405387D02*
X100164838Y-66262530D01*
X100164838Y-66262530D02*
X100260076Y-66167292D01*
X100260076Y-66167292D02*
X100355314Y-66119673D01*
X100355314Y-66119673D02*
X100545790Y-66072054D01*
X100545790Y-66072054D02*
X100688647Y-66072054D01*
X100688647Y-66072054D02*
X100879123Y-66119673D01*
X100879123Y-66119673D02*
X100974361Y-66167292D01*
X100974361Y-66167292D02*
X101069600Y-66262530D01*
X101069600Y-66262530D02*
X101117219Y-66405387D01*
X101117219Y-66405387D02*
X101117219Y-66500625D01*
X101117219Y-66500625D02*
X101069600Y-66643482D01*
X101069600Y-66643482D02*
X101021980Y-66691101D01*
X101021980Y-66691101D02*
X100688647Y-66691101D01*
X100688647Y-66691101D02*
X100688647Y-66500625D01*
X101617219Y-62619673D02*
X100617219Y-62619673D01*
X101093409Y-62619673D02*
X101093409Y-63191101D01*
X101617219Y-63191101D02*
X100617219Y-63191101D01*
X103593409Y-62953006D02*
X103593409Y-62619673D01*
X104117219Y-62619673D02*
X103117219Y-62619673D01*
X103117219Y-62619673D02*
X103117219Y-63095863D01*
X110119673Y-63513733D02*
X110881578Y-63513733D01*
X110500625Y-63132780D02*
X110500625Y-63894685D01*
X91180400Y-66677945D02*
X91132780Y-66535088D01*
X91132780Y-66535088D02*
X91132780Y-66296993D01*
X91132780Y-66296993D02*
X91180400Y-66201755D01*
X91180400Y-66201755D02*
X91228019Y-66154136D01*
X91228019Y-66154136D02*
X91323257Y-66106517D01*
X91323257Y-66106517D02*
X91418495Y-66106517D01*
X91418495Y-66106517D02*
X91513733Y-66154136D01*
X91513733Y-66154136D02*
X91561352Y-66201755D01*
X91561352Y-66201755D02*
X91608971Y-66296993D01*
X91608971Y-66296993D02*
X91656590Y-66487469D01*
X91656590Y-66487469D02*
X91704209Y-66582707D01*
X91704209Y-66582707D02*
X91751828Y-66630326D01*
X91751828Y-66630326D02*
X91847066Y-66677945D01*
X91847066Y-66677945D02*
X91942304Y-66677945D01*
X91942304Y-66677945D02*
X92037542Y-66630326D01*
X92037542Y-66630326D02*
X92085161Y-66582707D01*
X92085161Y-66582707D02*
X92132780Y-66487469D01*
X92132780Y-66487469D02*
X92132780Y-66249374D01*
X92132780Y-66249374D02*
X92085161Y-66106517D01*
X94632780Y-66773183D02*
X93632780Y-66439850D01*
X93632780Y-66439850D02*
X94632780Y-66106517D01*
X103882780Y-66773183D02*
X102882780Y-66439850D01*
X102882780Y-66439850D02*
X103882780Y-66106517D01*
X105430400Y-66677945D02*
X105382780Y-66535088D01*
X105382780Y-66535088D02*
X105382780Y-66296993D01*
X105382780Y-66296993D02*
X105430400Y-66201755D01*
X105430400Y-66201755D02*
X105478019Y-66154136D01*
X105478019Y-66154136D02*
X105573257Y-66106517D01*
X105573257Y-66106517D02*
X105668495Y-66106517D01*
X105668495Y-66106517D02*
X105763733Y-66154136D01*
X105763733Y-66154136D02*
X105811352Y-66201755D01*
X105811352Y-66201755D02*
X105858971Y-66296993D01*
X105858971Y-66296993D02*
X105906590Y-66487469D01*
X105906590Y-66487469D02*
X105954209Y-66582707D01*
X105954209Y-66582707D02*
X106001828Y-66630326D01*
X106001828Y-66630326D02*
X106097066Y-66677945D01*
X106097066Y-66677945D02*
X106192304Y-66677945D01*
X106192304Y-66677945D02*
X106287542Y-66630326D01*
X106287542Y-66630326D02*
X106335161Y-66582707D01*
X106335161Y-66582707D02*
X106382780Y-66487469D01*
X106382780Y-66487469D02*
X106382780Y-66249374D01*
X106382780Y-66249374D02*
X106335161Y-66106517D01*
X106585161Y-62606517D02*
X106632780Y-62701755D01*
X106632780Y-62701755D02*
X106632780Y-62844612D01*
X106632780Y-62844612D02*
X106585161Y-62987469D01*
X106585161Y-62987469D02*
X106489923Y-63082707D01*
X106489923Y-63082707D02*
X106394685Y-63130326D01*
X106394685Y-63130326D02*
X106204209Y-63177945D01*
X106204209Y-63177945D02*
X106061352Y-63177945D01*
X106061352Y-63177945D02*
X105870876Y-63130326D01*
X105870876Y-63130326D02*
X105775638Y-63082707D01*
X105775638Y-63082707D02*
X105680400Y-62987469D01*
X105680400Y-62987469D02*
X105632780Y-62844612D01*
X105632780Y-62844612D02*
X105632780Y-62749374D01*
X105632780Y-62749374D02*
X105680400Y-62606517D01*
X105680400Y-62606517D02*
X105728019Y-62558898D01*
X105728019Y-62558898D02*
X106061352Y-62558898D01*
X106061352Y-62558898D02*
X106061352Y-62749374D01*
X108013733Y-67880326D02*
X108013733Y-67118422D01*
X107632780Y-67499374D02*
X108394685Y-67499374D01*
D10*
X122704819Y-65833333D02*
X122228628Y-65500000D01*
X122704819Y-65261905D02*
X121704819Y-65261905D01*
X121704819Y-65261905D02*
X121704819Y-65642857D01*
X121704819Y-65642857D02*
X121752438Y-65738095D01*
X121752438Y-65738095D02*
X121800057Y-65785714D01*
X121800057Y-65785714D02*
X121895295Y-65833333D01*
X121895295Y-65833333D02*
X122038152Y-65833333D01*
X122038152Y-65833333D02*
X122133390Y-65785714D01*
X122133390Y-65785714D02*
X122181009Y-65738095D01*
X122181009Y-65738095D02*
X122228628Y-65642857D01*
X122228628Y-65642857D02*
X122228628Y-65261905D01*
X122038152Y-66690476D02*
X122704819Y-66690476D01*
X121657200Y-66452381D02*
X122371485Y-66214286D01*
X122371485Y-66214286D02*
X122371485Y-66833333D01*
X122704819Y-68083333D02*
X122228628Y-67750000D01*
X122704819Y-67511905D02*
X121704819Y-67511905D01*
X121704819Y-67511905D02*
X121704819Y-67892857D01*
X121704819Y-67892857D02*
X121752438Y-67988095D01*
X121752438Y-67988095D02*
X121800057Y-68035714D01*
X121800057Y-68035714D02*
X121895295Y-68083333D01*
X121895295Y-68083333D02*
X122038152Y-68083333D01*
X122038152Y-68083333D02*
X122133390Y-68035714D01*
X122133390Y-68035714D02*
X122181009Y-67988095D01*
X122181009Y-67988095D02*
X122228628Y-67892857D01*
X122228628Y-67892857D02*
X122228628Y-67511905D01*
X122704819Y-69035714D02*
X122704819Y-68464286D01*
X122704819Y-68750000D02*
X121704819Y-68750000D01*
X121704819Y-68750000D02*
X121847676Y-68654762D01*
X121847676Y-68654762D02*
X121942914Y-68559524D01*
X121942914Y-68559524D02*
X121990533Y-68464286D01*
X119340057Y-60904761D02*
X119292438Y-60809523D01*
X119292438Y-60809523D02*
X119197200Y-60714285D01*
X119197200Y-60714285D02*
X119054342Y-60571428D01*
X119054342Y-60571428D02*
X119006723Y-60476190D01*
X119006723Y-60476190D02*
X119006723Y-60380952D01*
X119244819Y-60428571D02*
X119197200Y-60333333D01*
X119197200Y-60333333D02*
X119101961Y-60238095D01*
X119101961Y-60238095D02*
X118911485Y-60190476D01*
X118911485Y-60190476D02*
X118578152Y-60190476D01*
X118578152Y-60190476D02*
X118387676Y-60238095D01*
X118387676Y-60238095D02*
X118292438Y-60333333D01*
X118292438Y-60333333D02*
X118244819Y-60428571D01*
X118244819Y-60428571D02*
X118244819Y-60619047D01*
X118244819Y-60619047D02*
X118292438Y-60714285D01*
X118292438Y-60714285D02*
X118387676Y-60809523D01*
X118387676Y-60809523D02*
X118578152Y-60857142D01*
X118578152Y-60857142D02*
X118911485Y-60857142D01*
X118911485Y-60857142D02*
X119101961Y-60809523D01*
X119101961Y-60809523D02*
X119197200Y-60714285D01*
X119197200Y-60714285D02*
X119244819Y-60619047D01*
X119244819Y-60619047D02*
X119244819Y-60428571D01*
X118340057Y-61238095D02*
X118292438Y-61285714D01*
X118292438Y-61285714D02*
X118244819Y-61380952D01*
X118244819Y-61380952D02*
X118244819Y-61619047D01*
X118244819Y-61619047D02*
X118292438Y-61714285D01*
X118292438Y-61714285D02*
X118340057Y-61761904D01*
X118340057Y-61761904D02*
X118435295Y-61809523D01*
X118435295Y-61809523D02*
X118530533Y-61809523D01*
X118530533Y-61809523D02*
X118673390Y-61761904D01*
X118673390Y-61761904D02*
X119244819Y-61190476D01*
X119244819Y-61190476D02*
X119244819Y-61809523D01*
X122704819Y-63583333D02*
X122228628Y-63250000D01*
X122704819Y-63011905D02*
X121704819Y-63011905D01*
X121704819Y-63011905D02*
X121704819Y-63392857D01*
X121704819Y-63392857D02*
X121752438Y-63488095D01*
X121752438Y-63488095D02*
X121800057Y-63535714D01*
X121800057Y-63535714D02*
X121895295Y-63583333D01*
X121895295Y-63583333D02*
X122038152Y-63583333D01*
X122038152Y-63583333D02*
X122133390Y-63535714D01*
X122133390Y-63535714D02*
X122181009Y-63488095D01*
X122181009Y-63488095D02*
X122228628Y-63392857D01*
X122228628Y-63392857D02*
X122228628Y-63011905D01*
X121800057Y-63964286D02*
X121752438Y-64011905D01*
X121752438Y-64011905D02*
X121704819Y-64107143D01*
X121704819Y-64107143D02*
X121704819Y-64345238D01*
X121704819Y-64345238D02*
X121752438Y-64440476D01*
X121752438Y-64440476D02*
X121800057Y-64488095D01*
X121800057Y-64488095D02*
X121895295Y-64535714D01*
X121895295Y-64535714D02*
X121990533Y-64535714D01*
X121990533Y-64535714D02*
X122133390Y-64488095D01*
X122133390Y-64488095D02*
X122704819Y-63916667D01*
X122704819Y-63916667D02*
X122704819Y-64535714D01*
X114916666Y-71954819D02*
X115249999Y-71478628D01*
X115488094Y-71954819D02*
X115488094Y-70954819D01*
X115488094Y-70954819D02*
X115107142Y-70954819D01*
X115107142Y-70954819D02*
X115011904Y-71002438D01*
X115011904Y-71002438D02*
X114964285Y-71050057D01*
X114964285Y-71050057D02*
X114916666Y-71145295D01*
X114916666Y-71145295D02*
X114916666Y-71288152D01*
X114916666Y-71288152D02*
X114964285Y-71383390D01*
X114964285Y-71383390D02*
X115011904Y-71431009D01*
X115011904Y-71431009D02*
X115107142Y-71478628D01*
X115107142Y-71478628D02*
X115488094Y-71478628D01*
X114583332Y-70954819D02*
X113964285Y-70954819D01*
X113964285Y-70954819D02*
X114297618Y-71335771D01*
X114297618Y-71335771D02*
X114154761Y-71335771D01*
X114154761Y-71335771D02*
X114059523Y-71383390D01*
X114059523Y-71383390D02*
X114011904Y-71431009D01*
X114011904Y-71431009D02*
X113964285Y-71526247D01*
X113964285Y-71526247D02*
X113964285Y-71764342D01*
X113964285Y-71764342D02*
X114011904Y-71859580D01*
X114011904Y-71859580D02*
X114059523Y-71907200D01*
X114059523Y-71907200D02*
X114154761Y-71954819D01*
X114154761Y-71954819D02*
X114440475Y-71954819D01*
X114440475Y-71954819D02*
X114535713Y-71907200D01*
X114535713Y-71907200D02*
X114583332Y-71859580D01*
X115204819Y-62333333D02*
X114728628Y-62000000D01*
X115204819Y-61761905D02*
X114204819Y-61761905D01*
X114204819Y-61761905D02*
X114204819Y-62142857D01*
X114204819Y-62142857D02*
X114252438Y-62238095D01*
X114252438Y-62238095D02*
X114300057Y-62285714D01*
X114300057Y-62285714D02*
X114395295Y-62333333D01*
X114395295Y-62333333D02*
X114538152Y-62333333D01*
X114538152Y-62333333D02*
X114633390Y-62285714D01*
X114633390Y-62285714D02*
X114681009Y-62238095D01*
X114681009Y-62238095D02*
X114728628Y-62142857D01*
X114728628Y-62142857D02*
X114728628Y-61761905D01*
X114204819Y-63238095D02*
X114204819Y-62761905D01*
X114204819Y-62761905D02*
X114681009Y-62714286D01*
X114681009Y-62714286D02*
X114633390Y-62761905D01*
X114633390Y-62761905D02*
X114585771Y-62857143D01*
X114585771Y-62857143D02*
X114585771Y-63095238D01*
X114585771Y-63095238D02*
X114633390Y-63190476D01*
X114633390Y-63190476D02*
X114681009Y-63238095D01*
X114681009Y-63238095D02*
X114776247Y-63285714D01*
X114776247Y-63285714D02*
X115014342Y-63285714D01*
X115014342Y-63285714D02*
X115109580Y-63238095D01*
X115109580Y-63238095D02*
X115157200Y-63190476D01*
X115157200Y-63190476D02*
X115204819Y-63095238D01*
X115204819Y-63095238D02*
X115204819Y-62857143D01*
X115204819Y-62857143D02*
X115157200Y-62761905D01*
X115157200Y-62761905D02*
X115109580Y-62714286D01*
%TO.C,*%
D12*
X84559249Y-66753035D02*
X85571301Y-65820268D01*
X85571301Y-65198400D02*
X84559249Y-64265620D01*
X85571301Y-65198400D02*
X85571301Y-65820268D01*
X86113870Y-64265620D02*
X84559249Y-64265620D01*
X86113870Y-64265620D02*
X88134887Y-65353870D01*
X86113870Y-64732008D02*
X86424793Y-65198400D01*
X86113870Y-66286645D02*
X86424793Y-65820268D01*
X86113870Y-66753035D02*
X84559249Y-66753035D01*
X87195897Y-67535013D02*
X87354472Y-66425008D01*
X87345144Y-64574992D02*
X87186567Y-63464987D01*
X87662279Y-66286645D02*
X87820848Y-67396648D01*
X87811524Y-63649994D02*
X87652939Y-64760000D01*
X88134887Y-65664788D02*
X86113870Y-66753035D01*
X87747794Y-65820268D02*
G75*
G02*
X87747794Y-65198400I621779J310934D01*
G01*
X88134887Y-65353870D02*
G75*
G02*
X88134887Y-65664788I-103669J-155459D01*
G01*
%TD*%
M02*
