M48
; DRILL file {KiCad 9.0.6} date 2026-02-19T20:59:20+0100
; FORMAT={-:-/ absolute / inch / decimal}
; #@! TF.CreationDate,2026-02-19T20:59:20+01:00
; #@! TF.GenerationSoftware,Kicad,Pcbnew,9.0.6
; #@! TF.FileFunction,Plated,1,2,PTH
FMAT,2
INCH
; #@! TA.AperFunction,Plated,PTH,ViaDrill
T1C0.0118
; #@! TA.AperFunction,Plated,PTH,ComponentDrill
T2C0.0276
; #@! TA.AperFunction,Plated,PTH,ComponentDrill
T3C0.0295
; #@! TA.AperFunction,Plated,PTH,ComponentDrill
T4C0.0394
; #@! TA.AperFunction,Plated,PTH,ComponentDrill
T5C0.0433
%
G90
G05
T1
X4.1063Y-2.689
X4.3228Y-2.5866
X4.6496Y-2.622
T2
X4.4717Y-2.7756
X4.5717Y-2.7756
X4.6567Y-2.5118
X4.6567Y-2.6732
X4.7567Y-2.5118
X4.7567Y-2.6732
T3
X3.4094Y-2.4429
X3.4094Y-2.7402
X3.4882Y-2.4429
X3.4882Y-2.7402
X3.6929Y-2.7224
X3.7717Y-2.7224
X3.8504Y-2.7224
X3.9291Y-2.7224
X4.0079Y-2.7224
X4.2283Y-2.7106
X4.2874Y-2.435
X4.3071Y-2.7106
X4.3661Y-2.435
X4.7087Y-2.3055
X4.7087Y-2.3555
X4.7087Y-2.4055
X4.7102Y-2.7886
X4.7102Y-2.8386
X4.7102Y-2.8886
T4
X3.2094Y-2.2945
X3.2094Y-2.8945
X3.3094Y-2.2945
X3.3094Y-2.8945
X3.4094Y-2.2945
X3.4094Y-2.8945
X3.5094Y-2.2945
X3.5094Y-2.8945
X3.6094Y-2.2945
X3.6094Y-2.8945
X3.6638Y-2.563
X3.7094Y-2.2945
X3.7094Y-2.8945
X3.7157Y-2.4173
X3.7638Y-2.563
X3.8094Y-2.2945
X3.8094Y-2.8945
X3.8157Y-2.4173
X3.8638Y-2.563
X3.9094Y-2.2945
X3.9094Y-2.8945
X3.9157Y-2.4173
X4.0094Y-2.2945
X4.0094Y-2.8945
X4.0157Y-2.4173
X4.1094Y-2.2945
X4.1094Y-2.8945
X4.1157Y-2.4173
X4.2094Y-2.2945
X4.2094Y-2.8945
X4.3094Y-2.2945
X4.3094Y-2.8945
X4.4094Y-2.2945
X4.4094Y-2.8945
X4.5094Y-2.2945
X4.5094Y-2.8945
X4.5433Y-2.4354
X4.5433Y-2.5354
X4.5433Y-2.6354
X4.6094Y-2.2945
X4.6094Y-2.8945
T5
X3.1201Y-2.5024
X3.1201Y-2.6024
X3.1201Y-2.7024
M30
