%TF.GenerationSoftware,KiCad,Pcbnew,10.0.0*%
%TF.CreationDate,2026-05-15T13:26:57+02:00*%
%TF.ProjectId,TankIR_Breaker,54616e6b-4952-45f4-9272-65616b65722e,rev?*%
%TF.SameCoordinates,Original*%
%TF.FileFunction,Copper,L1,Top*%
%TF.FilePolarity,Positive*%
%FSLAX46Y46*%
G04 Gerber Fmt 4.6, Leading zero omitted, Abs format (unit mm)*
G04 Created by KiCad (PCBNEW 10.0.0) date 2026-05-15 13:26:57*
%MOMM*%
%LPD*%
G01*
G04 APERTURE LIST*
G04 Aperture macros list*
%AMRoundRect*
0 Rectangle with rounded corners*
0 $1 Rounding radius*
0 $2 $3 $4 $5 $6 $7 $8 $9 X,Y pos of 4 corners*
0 Add a 4 corners polygon primitive as box body*
4,1,4,$2,$3,$4,$5,$6,$7,$8,$9,$2,$3,0*
0 Add four circle primitives for the rounded corners*
1,1,$1+$1,$2,$3*
1,1,$1+$1,$4,$5*
1,1,$1+$1,$6,$7*
1,1,$1+$1,$8,$9*
0 Add four rect primitives between the rounded corners*
20,1,$1+$1,$2,$3,$4,$5,0*
20,1,$1+$1,$4,$5,$6,$7,0*
20,1,$1+$1,$6,$7,$8,$9,0*
20,1,$1+$1,$8,$9,$2,$3,0*%
G04 Aperture macros list end*
%TA.AperFunction,ComponentPad*%
%ADD10R,1.700000X1.700000*%
%TD*%
%TA.AperFunction,ComponentPad*%
%ADD11C,1.700000*%
%TD*%
%TA.AperFunction,ComponentPad*%
%ADD12RoundRect,0.250000X-0.350000X-0.625000X0.350000X-0.625000X0.350000X0.625000X-0.350000X0.625000X0*%
%TD*%
%TA.AperFunction,ComponentPad*%
%ADD13O,1.200000X1.750000*%
%TD*%
%TA.AperFunction,ComponentPad*%
%ADD14R,2.000000X1.905000*%
%TD*%
%TA.AperFunction,ComponentPad*%
%ADD15O,2.000000X1.905000*%
%TD*%
%TA.AperFunction,ComponentPad*%
%ADD16R,1.600000X1.600000*%
%TD*%
%TA.AperFunction,ComponentPad*%
%ADD17O,1.600000X1.600000*%
%TD*%
%TA.AperFunction,ComponentPad*%
%ADD18C,1.400000*%
%TD*%
%TA.AperFunction,ComponentPad*%
%ADD19R,1.500000X1.050000*%
%TD*%
%TA.AperFunction,ComponentPad*%
%ADD20O,1.500000X1.050000*%
%TD*%
%TA.AperFunction,ViaPad*%
%ADD21C,0.650000*%
%TD*%
%TA.AperFunction,Conductor*%
%ADD22C,0.450000*%
%TD*%
%TA.AperFunction,Conductor*%
%ADD23C,0.500000*%
%TD*%
G04 APERTURE END LIST*
D10*
%TO.P,J6,1,Pin_1_1*%
%TO.N,/SOUND_REP*%
X95885000Y-61468000D03*
D11*
%TO.P,J6,2,Pin_2_2*%
%TO.N,/SOUND_DES*%
X98425000Y-61468000D03*
%TO.P,J6,3,Pin_3_3*%
%TO.N,/SOUND_HIT*%
X100965000Y-61468000D03*
%TO.P,J6,4,Pin_4_4*%
%TO.N,/SOUND_FIRE*%
X103505000Y-61468000D03*
%TO.P,J6,5,Pin_5_5*%
%TO.N,GND*%
X106045000Y-61468000D03*
%TD*%
D10*
%TO.P,J3,1,Pin_1_1*%
%TO.N,GND*%
X100710000Y-65000000D03*
D11*
%TO.P,J3,2,Pin_2_2*%
%TO.N,5V*%
X103250000Y-65000000D03*
%TO.P,J3,3,Pin_3_3*%
%TO.N,/Recoil_OUT*%
X105790000Y-65000000D03*
%TD*%
D10*
%TO.P,J4,1,Pin_1_1*%
%TO.N,GND*%
X91710000Y-65000000D03*
D11*
%TO.P,J4,2,Pin_2_2*%
%TO.N,5V*%
X94250000Y-65000000D03*
%TO.P,J4,3,Pin_3_3*%
%TO.N,/RC_IN*%
X96790000Y-65000000D03*
%TD*%
D12*
%TO.P,J5,1,Pin_1_1*%
%TO.N,5V*%
X94965000Y-69173000D03*
D13*
%TO.P,J5,2,Pin_2_2*%
%TO.N,/IR_IN*%
X96965000Y-69173000D03*
%TO.P,J5,3,Pin_3_3*%
%TO.N,GND*%
X98965000Y-69173000D03*
%TO.P,J5,4,Pin_4_4*%
X100965000Y-69173000D03*
%TO.P,J5,5,Pin_5_5*%
%TO.N,/HIT*%
X102965000Y-69173000D03*
%TD*%
D12*
%TO.P,J2,1,Pin_1_1*%
%TO.N,GND*%
X85106000Y-61934000D03*
D13*
%TO.P,J2,2,Pin_2_2*%
%TO.N,/Trigger*%
X87106000Y-61934000D03*
%TD*%
D12*
%TO.P,J7,1,Pin_1_1*%
%TO.N,+BATT*%
X107966000Y-69173000D03*
D13*
%TO.P,J7,2,Pin_2_2*%
%TO.N,Net-(J7-Pin_2)*%
X109966000Y-69173000D03*
%TD*%
D12*
%TO.P,J1,1,Pin_1_1*%
%TO.N,+BATT*%
X85106000Y-68741200D03*
D13*
%TO.P,J1,2,Pin_2_2*%
%TO.N,GND*%
X87106000Y-68741200D03*
%TD*%
D12*
%TO.P,J8,1,Pin_1_1*%
%TO.N,5V*%
X110379000Y-61934000D03*
D13*
%TO.P,J8,2,Pin_2_2*%
%TO.N,Net-(J8-Pin_2)*%
X112379000Y-61934000D03*
%TD*%
D14*
%TO.P,U1,1,VI_1*%
%TO.N,+BATT*%
X79250000Y-63560000D03*
D15*
%TO.P,U1,2,GND_2*%
%TO.N,GND*%
X79250000Y-66100000D03*
%TO.P,U1,3,VO_3*%
%TO.N,5V*%
X79250000Y-68640000D03*
%TD*%
D16*
%TO.P,A1,1,D1/TX_1*%
%TO.N,unconnected-(A1-D1{slash}TX-Pad1)*%
X81540000Y-73520000D03*
D17*
%TO.P,A1,2,D0/RX_2*%
%TO.N,unconnected-(A1-D0{slash}RX-Pad2)*%
X84080000Y-73520000D03*
%TO.P,A1,3,~{RESET}_3*%
%TO.N,unconnected-(A1-~{RESET}-Pad3)*%
X86620000Y-73520000D03*
%TO.P,A1,4,GND_4*%
%TO.N,GND*%
X89160000Y-73520000D03*
%TO.P,A1,5,D2_5*%
%TO.N,/IR_IN*%
X91700000Y-73520000D03*
%TO.P,A1,6,D3_6*%
%TO.N,/IR OUT*%
X94240000Y-73520000D03*
%TO.P,A1,7,D4_7*%
%TO.N,unconnected-(A1-D4-Pad7)*%
X96780000Y-73520000D03*
%TO.P,A1,8,D5_8*%
%TO.N,/HIT*%
X99320000Y-73520000D03*
%TO.P,A1,9,D6_9*%
%TO.N,/MUZZLE*%
X101860000Y-73520000D03*
%TO.P,A1,10,D7_10*%
%TO.N,/RC_IN*%
X104400000Y-73520000D03*
%TO.P,A1,11,D8_11*%
%TO.N,/Recoil_OUT*%
X106940000Y-73520000D03*
%TO.P,A1,12,D9_12*%
%TO.N,unconnected-(A1-D9-Pad12)*%
X109480000Y-73520000D03*
%TO.P,A1,13,D10_13*%
%TO.N,unconnected-(A1-D10-Pad13)*%
X112020000Y-73520000D03*
%TO.P,A1,14,D11_14*%
%TO.N,unconnected-(A1-D11-Pad14)*%
X114560000Y-73520000D03*
%TO.P,A1,15,D12_15*%
%TO.N,unconnected-(A1-D12-Pad15)*%
X117100000Y-73520000D03*
%TO.P,A1,16,D13_16*%
%TO.N,unconnected-(A1-D13-Pad16)*%
X117100000Y-58280000D03*
%TO.P,A1,17,3V3_17*%
%TO.N,unconnected-(A1-3V3-Pad17)*%
X114560000Y-58280000D03*
%TO.P,A1,18,AREF_18*%
%TO.N,unconnected-(A1-AREF-Pad18)*%
X112020000Y-58280000D03*
%TO.P,A1,19,A0_19*%
%TO.N,/Trigger*%
X109480000Y-58280000D03*
%TO.P,A1,20,A1_20*%
%TO.N,/SOUND_FIRE*%
X106940000Y-58280000D03*
%TO.P,A1,21,A2_21*%
%TO.N,/SOUND_HIT*%
X104400000Y-58280000D03*
%TO.P,A1,22,A3_22*%
%TO.N,/SOUND_DES*%
X101860000Y-58280000D03*
%TO.P,A1,23,A4_23*%
%TO.N,/SOUND_REP*%
X99320000Y-58280000D03*
%TO.P,A1,24,A5_24*%
%TO.N,unconnected-(A1-A5-Pad24)*%
X96780000Y-58280000D03*
%TO.P,A1,25,A6_25*%
%TO.N,unconnected-(A1-A6-Pad25)*%
X94240000Y-58280000D03*
%TO.P,A1,26,A7_26*%
%TO.N,unconnected-(A1-A7-Pad26)*%
X91700000Y-58280000D03*
%TO.P,A1,27,+5V_27*%
%TO.N,5V*%
X89160000Y-58280000D03*
%TO.P,A1,28,~{RESET}_28*%
%TO.N,unconnected-(A1-~{RESET}-Pad28)*%
X86620000Y-58280000D03*
%TO.P,A1,29,GND_29*%
%TO.N,GND*%
X84080000Y-58280000D03*
%TO.P,A1,30,VIN_30*%
%TO.N,unconnected-(A1-VIN-Pad30)*%
X81540000Y-58280000D03*
%TD*%
D18*
%TO.P,R4,1*%
%TO.N,GND*%
X118287000Y-65963800D03*
%TO.P,R4,2*%
%TO.N,/IR OUT*%
X120827000Y-65963800D03*
%TD*%
%TO.P,R1,1*%
%TO.N,/IR OUT*%
X118287000Y-68097400D03*
%TO.P,R1,2*%
%TO.N,Net-(Q1-B)*%
X120827000Y-68097400D03*
%TD*%
D19*
%TO.P,Q2,1,C_1*%
%TO.N,Net-(J8-Pin_2)*%
X120390000Y-58060000D03*
D20*
%TO.P,Q2,2,B_2*%
%TO.N,Net-(Q2-B)*%
X120390000Y-59830000D03*
%TO.P,Q2,3,E_3*%
%TO.N,GND*%
X120390000Y-61560000D03*
%TD*%
D18*
%TO.P,R2,1*%
%TO.N,/MUZZLE*%
X118280000Y-63754000D03*
%TO.P,R2,2*%
%TO.N,Net-(Q2-B)*%
X120820000Y-63754000D03*
%TD*%
%TO.P,R3,1*%
%TO.N,Net-(Q1-C)*%
X116040000Y-70250000D03*
%TO.P,R3,2*%
%TO.N,Net-(J7-Pin_2)*%
X113500000Y-70250000D03*
%TD*%
%TO.P,R5,1*%
%TO.N,GND*%
X115951000Y-63720000D03*
%TO.P,R5,2*%
%TO.N,/MUZZLE*%
X115951000Y-61180000D03*
%TD*%
D19*
%TO.P,Q1,1,C_1*%
%TO.N,Net-(Q1-C)*%
X120390000Y-70366000D03*
D20*
%TO.P,Q1,2,B_2*%
%TO.N,Net-(Q1-B)*%
X120390000Y-72136000D03*
%TO.P,Q1,3,E_3*%
%TO.N,GND*%
X120390000Y-73866000D03*
%TD*%
D21*
%TO.N,GND*%
X98750000Y-65000000D03*
X91250000Y-60250000D03*
X90750000Y-69750000D03*
X81500000Y-60250000D03*
X81500000Y-71750000D03*
X114750000Y-67750000D03*
X91250000Y-67250000D03*
%TO.N,/MUZZLE*%
X104500000Y-69750000D03*
%TD*%
%TO.N,Net-(J8-Pin_2)*%
D22*
X114563000Y-59750000D02*
X112379000Y-61934000D01*
X118000000Y-59750000D02*
X114563000Y-59750000D01*
X119600000Y-58150000D02*
X118000000Y-59750000D01*
X120300000Y-58150000D02*
X119600000Y-58150000D01*
X120390000Y-58060000D02*
X120300000Y-58150000D01*
%TO.N,/IR OUT*%
X120827000Y-65963800D02*
X120420600Y-65963800D01*
X120420600Y-65963800D02*
X118287000Y-68097400D01*
%TO.N,Net-(Q2-B)*%
X122250000Y-60500000D02*
X122250000Y-63000000D01*
X121580000Y-59830000D02*
X122250000Y-60500000D01*
X120390000Y-59830000D02*
X121580000Y-59830000D01*
X122250000Y-63000000D02*
X121496000Y-63754000D01*
X121496000Y-63754000D02*
X120820000Y-63754000D01*
%TO.N,/MUZZLE*%
X118280000Y-63030000D02*
X118280000Y-63754000D01*
X116430000Y-61180000D02*
X118280000Y-63030000D01*
X115951000Y-61180000D02*
X116430000Y-61180000D01*
X107554000Y-66000000D02*
X116034000Y-66000000D01*
X116034000Y-66000000D02*
X118280000Y-63754000D01*
X104500000Y-69054000D02*
X107554000Y-66000000D01*
X104500000Y-69750000D02*
X104500000Y-69054000D01*
%TO.N,/IR OUT*%
X94240000Y-73520000D02*
X95736000Y-72024000D01*
X95736000Y-72024000D02*
X116726000Y-72024000D01*
X116726000Y-72024000D02*
X118287000Y-70463000D01*
X118287000Y-70463000D02*
X118287000Y-68097400D01*
%TO.N,/SOUND_FIRE*%
X103752000Y-61468000D02*
X103505000Y-61468000D01*
X106940000Y-58280000D02*
X103752000Y-61468000D01*
%TO.N,/SOUND_HIT*%
X104400000Y-58280000D02*
X101212000Y-61468000D01*
X101212000Y-61468000D02*
X100965000Y-61468000D01*
%TO.N,/SOUND_DES*%
X101860000Y-58280000D02*
X98672000Y-61468000D01*
X98672000Y-61468000D02*
X98425000Y-61468000D01*
%TO.N,/SOUND_REP*%
X96132000Y-61468000D02*
X95885000Y-61468000D01*
X99320000Y-58280000D02*
X96132000Y-61468000D01*
%TO.N,5V*%
X93000000Y-63000000D02*
X94234000Y-64234000D01*
X89160000Y-59910000D02*
X89500000Y-60250000D01*
X89500000Y-61750000D02*
X90750000Y-63000000D01*
X89500000Y-60250000D02*
X89500000Y-61750000D01*
X89160000Y-58280000D02*
X89160000Y-59910000D01*
X94234000Y-64234000D02*
X94234000Y-68442000D01*
X90750000Y-63000000D02*
X93000000Y-63000000D01*
X94234000Y-68442000D02*
X94965000Y-69173000D01*
%TO.N,Net-(J7-Pin_2)*%
X113284000Y-70231000D02*
X111024000Y-70231000D01*
X111024000Y-70231000D02*
X109966000Y-69173000D01*
X113538000Y-69977000D02*
X113284000Y-70231000D01*
%TO.N,+BATT*%
X79250000Y-63560000D02*
X81594000Y-63560000D01*
D23*
X85732000Y-71000000D02*
X85106000Y-70374000D01*
X106139000Y-71000000D02*
X85732000Y-71000000D01*
X107966000Y-69173000D02*
X106139000Y-71000000D01*
X85106000Y-70374000D02*
X85106000Y-68741200D01*
D22*
X85106000Y-67072000D02*
X85106000Y-68741200D01*
X81594000Y-63560000D02*
X85106000Y-67072000D01*
%TD*%
%TA.AperFunction,Conductor*%
%TO.N,GND*%
G36*
X81306270Y-64305462D02*
G01*
X81337129Y-64329141D01*
X84305286Y-67297298D01*
X84343850Y-67364093D01*
X84343850Y-67441221D01*
X84305286Y-67508016D01*
X84292353Y-67519526D01*
X84287351Y-67523481D01*
X84163288Y-67647543D01*
X84071186Y-67796866D01*
X84016001Y-67963401D01*
X84016001Y-67963403D01*
X84006278Y-68058583D01*
X84005500Y-68066195D01*
X84005500Y-69416203D01*
X84012583Y-69485538D01*
X84016001Y-69518997D01*
X84071186Y-69685534D01*
X84137550Y-69793128D01*
X84163288Y-69834856D01*
X84287347Y-69958915D01*
X84294150Y-69964294D01*
X84292860Y-69965924D01*
X84337641Y-70013377D01*
X84355500Y-70084110D01*
X84355500Y-70447921D01*
X84384341Y-70592911D01*
X84396131Y-70621374D01*
X84433181Y-70710822D01*
X84440917Y-70729497D01*
X84440918Y-70729499D01*
X84473811Y-70778726D01*
X84473812Y-70778729D01*
X84523043Y-70852410D01*
X84523047Y-70852414D01*
X84523048Y-70852416D01*
X85253584Y-71582952D01*
X85327270Y-71632186D01*
X85376505Y-71665084D01*
X85433080Y-71688518D01*
X85439750Y-71691281D01*
X85439756Y-71691284D01*
X85478608Y-71707376D01*
X85513088Y-71721659D01*
X85629241Y-71744763D01*
X85658082Y-71750500D01*
X85658083Y-71750500D01*
X85805918Y-71750500D01*
X94623769Y-71750500D01*
X94698269Y-71770462D01*
X94752807Y-71825000D01*
X94772769Y-71899500D01*
X94752807Y-71974000D01*
X94729128Y-72004859D01*
X94544634Y-72189352D01*
X94477839Y-72227916D01*
X94415968Y-72231159D01*
X94364351Y-72222984D01*
X94342352Y-72219500D01*
X94137648Y-72219500D01*
X93986809Y-72243391D01*
X93935465Y-72251523D01*
X93740787Y-72314778D01*
X93740775Y-72314782D01*
X93558387Y-72407714D01*
X93392787Y-72528028D01*
X93392779Y-72528035D01*
X93248035Y-72672779D01*
X93248028Y-72672787D01*
X93127714Y-72838388D01*
X93102760Y-72887363D01*
X93051151Y-72944680D01*
X92977797Y-72968514D01*
X92902355Y-72952478D01*
X92845038Y-72900869D01*
X92837240Y-72887363D01*
X92812287Y-72838390D01*
X92693801Y-72675306D01*
X92691971Y-72672787D01*
X92691964Y-72672779D01*
X92547220Y-72528035D01*
X92547212Y-72528028D01*
X92381612Y-72407714D01*
X92199224Y-72314782D01*
X92199220Y-72314780D01*
X92199219Y-72314780D01*
X92004534Y-72251523D01*
X91802352Y-72219500D01*
X91597648Y-72219500D01*
X91446809Y-72243391D01*
X91395465Y-72251523D01*
X91200787Y-72314778D01*
X91200775Y-72314782D01*
X91018387Y-72407714D01*
X90852787Y-72528028D01*
X90852779Y-72528035D01*
X90708035Y-72672779D01*
X90708028Y-72672787D01*
X90587714Y-72838388D01*
X90562478Y-72887915D01*
X90510868Y-72945231D01*
X90437515Y-72969064D01*
X90362072Y-72953027D01*
X90304756Y-72901417D01*
X90296959Y-72887912D01*
X90271858Y-72838647D01*
X90151587Y-72673110D01*
X90006889Y-72528412D01*
X89841354Y-72408143D01*
X89659032Y-72315246D01*
X89659020Y-72315241D01*
X89464417Y-72252010D01*
X89410000Y-72243391D01*
X89410000Y-73086988D01*
X89352993Y-73054075D01*
X89225826Y-73020000D01*
X89094174Y-73020000D01*
X88967007Y-73054075D01*
X88910000Y-73086988D01*
X88910000Y-72243391D01*
X88855582Y-72252010D01*
X88660979Y-72315241D01*
X88660967Y-72315246D01*
X88478645Y-72408143D01*
X88313110Y-72528412D01*
X88168412Y-72673110D01*
X88048141Y-72838648D01*
X88023039Y-72887914D01*
X87971430Y-72945231D01*
X87898077Y-72969064D01*
X87822634Y-72953027D01*
X87765317Y-72901418D01*
X87757520Y-72887913D01*
X87732287Y-72838390D01*
X87732285Y-72838387D01*
X87611971Y-72672787D01*
X87611964Y-72672779D01*
X87467220Y-72528035D01*
X87467212Y-72528028D01*
X87301612Y-72407714D01*
X87119224Y-72314782D01*
X87119220Y-72314780D01*
X87119219Y-72314780D01*
X86924534Y-72251523D01*
X86722352Y-72219500D01*
X86517648Y-72219500D01*
X86366809Y-72243391D01*
X86315465Y-72251523D01*
X86120787Y-72314778D01*
X86120775Y-72314782D01*
X85938387Y-72407714D01*
X85772787Y-72528028D01*
X85772779Y-72528035D01*
X85628035Y-72672779D01*
X85628028Y-72672787D01*
X85507714Y-72838388D01*
X85482760Y-72887363D01*
X85431151Y-72944680D01*
X85357797Y-72968514D01*
X85282355Y-72952478D01*
X85225038Y-72900869D01*
X85217240Y-72887363D01*
X85192287Y-72838390D01*
X85073801Y-72675306D01*
X85071971Y-72672787D01*
X85071964Y-72672779D01*
X84927220Y-72528035D01*
X84927212Y-72528028D01*
X84761612Y-72407714D01*
X84579224Y-72314782D01*
X84579220Y-72314780D01*
X84579219Y-72314780D01*
X84384534Y-72251523D01*
X84182352Y-72219500D01*
X83977648Y-72219500D01*
X83826809Y-72243391D01*
X83775465Y-72251523D01*
X83580787Y-72314778D01*
X83580775Y-72314782D01*
X83398387Y-72407714D01*
X83232787Y-72528028D01*
X83232779Y-72528035D01*
X83083894Y-72676921D01*
X83082279Y-72675306D01*
X83027375Y-72712984D01*
X82950480Y-72718981D01*
X82880889Y-72685727D01*
X82837248Y-72622133D01*
X82835652Y-72616704D01*
X82834091Y-72612519D01*
X82834091Y-72612517D01*
X82802579Y-72528028D01*
X82783797Y-72477670D01*
X82783795Y-72477666D01*
X82697547Y-72362455D01*
X82697544Y-72362452D01*
X82582333Y-72276204D01*
X82582329Y-72276202D01*
X82447482Y-72225908D01*
X82387876Y-72219500D01*
X80692136Y-72219500D01*
X80692111Y-72219502D01*
X80632521Y-72225908D01*
X80632515Y-72225909D01*
X80497670Y-72276202D01*
X80497666Y-72276204D01*
X80382455Y-72362452D01*
X80382452Y-72362455D01*
X80296204Y-72477666D01*
X80296202Y-72477670D01*
X80245908Y-72612517D01*
X80239500Y-72672114D01*
X80239500Y-74367863D01*
X80239502Y-74367888D01*
X80245908Y-74427478D01*
X80245909Y-74427484D01*
X80272371Y-74498431D01*
X80279702Y-74575209D01*
X80247661Y-74645367D01*
X80184834Y-74690106D01*
X80132765Y-74699500D01*
X77949500Y-74699500D01*
X77875000Y-74679538D01*
X77820462Y-74625000D01*
X77800500Y-74550500D01*
X77800500Y-69640877D01*
X77820462Y-69566377D01*
X77875000Y-69511839D01*
X77949500Y-69491877D01*
X78024000Y-69511839D01*
X78070042Y-69553296D01*
X78094214Y-69586566D01*
X78255934Y-69748286D01*
X78285810Y-69769992D01*
X78440957Y-69882714D01*
X78440958Y-69882714D01*
X78440962Y-69882717D01*
X78644742Y-69986548D01*
X78644750Y-69986550D01*
X78644751Y-69986551D01*
X78689067Y-70000950D01*
X78862255Y-70057222D01*
X79088146Y-70093000D01*
X79088151Y-70093000D01*
X79411849Y-70093000D01*
X79411854Y-70093000D01*
X79637745Y-70057222D01*
X79855258Y-69986548D01*
X80059038Y-69882717D01*
X80244066Y-69748286D01*
X80405786Y-69586566D01*
X80540217Y-69401538D01*
X80644048Y-69197758D01*
X80714722Y-68980245D01*
X80750500Y-68754354D01*
X80750500Y-68525646D01*
X80714722Y-68299755D01*
X80644048Y-68082242D01*
X80540217Y-67878462D01*
X80540214Y-67878458D01*
X80540214Y-67878457D01*
X80405788Y-67693437D01*
X80405786Y-67693434D01*
X80244066Y-67531714D01*
X80186974Y-67490234D01*
X80138436Y-67430294D01*
X80126370Y-67354116D01*
X80154011Y-67282111D01*
X80186975Y-67249147D01*
X80243734Y-67207909D01*
X80405407Y-67046236D01*
X80539787Y-66861277D01*
X80539790Y-66861272D01*
X80643578Y-66657576D01*
X80643585Y-66657559D01*
X80714233Y-66440128D01*
X80728509Y-66350000D01*
X79740748Y-66350000D01*
X79762518Y-66312292D01*
X79800000Y-66172409D01*
X79800000Y-66027591D01*
X79762518Y-65887708D01*
X79740748Y-65850000D01*
X80728508Y-65850000D01*
X80714233Y-65759871D01*
X80643585Y-65542440D01*
X80643578Y-65542423D01*
X80539790Y-65338727D01*
X80539782Y-65338713D01*
X80426330Y-65182560D01*
X80398689Y-65110555D01*
X80410755Y-65034376D01*
X80459293Y-64974437D01*
X80483111Y-64961650D01*
X80482977Y-64961404D01*
X80492333Y-64956295D01*
X80568868Y-64899000D01*
X80607546Y-64870046D01*
X80693796Y-64754831D01*
X80700775Y-64736121D01*
X80720305Y-64683756D01*
X80744091Y-64619983D01*
X80750500Y-64560373D01*
X80750500Y-64434500D01*
X80770462Y-64360000D01*
X80825000Y-64305462D01*
X80899500Y-64285500D01*
X81231770Y-64285500D01*
X81306270Y-64305462D01*
G37*
%TD.AperFunction*%
%TA.AperFunction,Conductor*%
G36*
X119076735Y-70855129D02*
G01*
X119127591Y-70913116D01*
X119142104Y-70963093D01*
X119145908Y-70998478D01*
X119145909Y-70998484D01*
X119196202Y-71133329D01*
X119196204Y-71133333D01*
X119282452Y-71248544D01*
X119282453Y-71248544D01*
X119282454Y-71248546D01*
X119320143Y-71276760D01*
X119330819Y-71284752D01*
X119378495Y-71345380D01*
X119389471Y-71421723D01*
X119365414Y-71486811D01*
X119256219Y-71650233D01*
X119256211Y-71650248D01*
X119178908Y-71836875D01*
X119139500Y-72034996D01*
X119139500Y-72237003D01*
X119178908Y-72435124D01*
X119256211Y-72621751D01*
X119256216Y-72621761D01*
X119317170Y-72712984D01*
X119368442Y-72789718D01*
X119368445Y-72789721D01*
X119474718Y-72895994D01*
X119513282Y-72962789D01*
X119513282Y-73039917D01*
X119474718Y-73106712D01*
X119368833Y-73212596D01*
X119368829Y-73212601D01*
X119256656Y-73380478D01*
X119256655Y-73380481D01*
X119179391Y-73567014D01*
X119179389Y-73567020D01*
X119169647Y-73615999D01*
X119169647Y-73616000D01*
X120109670Y-73616000D01*
X120089925Y-73635745D01*
X120040556Y-73721255D01*
X120015000Y-73816630D01*
X120015000Y-73915370D01*
X120040556Y-74010745D01*
X120089925Y-74096255D01*
X120109670Y-74116000D01*
X119169647Y-74116000D01*
X119179389Y-74164979D01*
X119179391Y-74164985D01*
X119256655Y-74351518D01*
X119256658Y-74351524D01*
X119334298Y-74467719D01*
X119359091Y-74540754D01*
X119344044Y-74616400D01*
X119293191Y-74674388D01*
X119220156Y-74699181D01*
X119210410Y-74699500D01*
X118119403Y-74699500D01*
X118044903Y-74679538D01*
X117990365Y-74625000D01*
X117970403Y-74550500D01*
X117990365Y-74476000D01*
X118014044Y-74445141D01*
X118031707Y-74427478D01*
X118091966Y-74367219D01*
X118212287Y-74201610D01*
X118305220Y-74019219D01*
X118368477Y-73824534D01*
X118400500Y-73622352D01*
X118400500Y-73417648D01*
X118368477Y-73215466D01*
X118305220Y-73020781D01*
X118212287Y-72838390D01*
X118212285Y-72838387D01*
X118091971Y-72672787D01*
X118091964Y-72672779D01*
X117947220Y-72528035D01*
X117947212Y-72528028D01*
X117781612Y-72407714D01*
X117690535Y-72361308D01*
X117633218Y-72309699D01*
X117609384Y-72236346D01*
X117625420Y-72160903D01*
X117652818Y-72123193D01*
X118850532Y-70925480D01*
X118870067Y-70896242D01*
X118928054Y-70845387D01*
X119003700Y-70830339D01*
X119076735Y-70855129D01*
G37*
%TD.AperFunction*%
%TA.AperFunction,Conductor*%
G36*
X122655859Y-63830871D02*
G01*
X122694423Y-63897666D01*
X122699500Y-63936230D01*
X122699500Y-74550500D01*
X122679538Y-74625000D01*
X122625000Y-74679538D01*
X122550500Y-74699500D01*
X121569590Y-74699500D01*
X121495090Y-74679538D01*
X121440552Y-74625000D01*
X121420590Y-74550500D01*
X121440552Y-74476000D01*
X121445702Y-74467719D01*
X121523341Y-74351524D01*
X121523344Y-74351518D01*
X121600608Y-74164985D01*
X121600610Y-74164979D01*
X121610353Y-74116000D01*
X120670330Y-74116000D01*
X120690075Y-74096255D01*
X120739444Y-74010745D01*
X120765000Y-73915370D01*
X120765000Y-73816630D01*
X120739444Y-73721255D01*
X120690075Y-73635745D01*
X120670330Y-73616000D01*
X121610353Y-73616000D01*
X121610352Y-73615999D01*
X121600610Y-73567020D01*
X121600608Y-73567014D01*
X121523344Y-73380481D01*
X121523343Y-73380478D01*
X121411170Y-73212601D01*
X121411166Y-73212596D01*
X121305282Y-73106712D01*
X121266718Y-73039917D01*
X121266718Y-72962789D01*
X121305282Y-72895994D01*
X121313913Y-72887363D01*
X121411558Y-72789718D01*
X121523786Y-72621756D01*
X121601091Y-72435127D01*
X121640500Y-72237003D01*
X121640500Y-72034997D01*
X121601091Y-71836873D01*
X121546428Y-71704907D01*
X121523788Y-71650248D01*
X121523783Y-71650238D01*
X121463948Y-71560691D01*
X121414583Y-71486809D01*
X121389792Y-71413777D01*
X121404839Y-71338131D01*
X121449178Y-71284753D01*
X121497546Y-71248546D01*
X121559572Y-71165690D01*
X121583795Y-71133333D01*
X121583797Y-71133329D01*
X121605552Y-71075000D01*
X121634091Y-70998483D01*
X121640500Y-70938873D01*
X121640499Y-69793128D01*
X121634091Y-69733517D01*
X121616194Y-69685533D01*
X121583797Y-69598670D01*
X121583795Y-69598666D01*
X121497547Y-69483455D01*
X121476804Y-69467927D01*
X121444205Y-69443523D01*
X121386784Y-69400537D01*
X121339108Y-69339909D01*
X121328132Y-69263566D01*
X121356798Y-69191963D01*
X121408432Y-69148498D01*
X121456199Y-69124160D01*
X121609073Y-69013090D01*
X121742690Y-68879473D01*
X121853760Y-68726599D01*
X121939547Y-68558232D01*
X121997940Y-68378518D01*
X122027500Y-68191881D01*
X122027500Y-68002919D01*
X121997940Y-67816282D01*
X121939547Y-67636568D01*
X121853760Y-67468201D01*
X121742690Y-67315327D01*
X121609073Y-67181710D01*
X121566998Y-67151140D01*
X121518463Y-67091204D01*
X121506397Y-67015025D01*
X121534037Y-66943020D01*
X121566996Y-66910060D01*
X121609073Y-66879490D01*
X121742690Y-66745873D01*
X121853760Y-66592999D01*
X121939547Y-66424632D01*
X121997940Y-66244918D01*
X122027500Y-66058281D01*
X122027500Y-65869319D01*
X121997940Y-65682682D01*
X121939547Y-65502968D01*
X121853760Y-65334601D01*
X121742690Y-65181727D01*
X121609073Y-65048110D01*
X121511060Y-64976899D01*
X121462523Y-64916961D01*
X121450457Y-64840782D01*
X121478098Y-64768777D01*
X121511055Y-64735818D01*
X121602073Y-64669690D01*
X121735690Y-64536073D01*
X121818436Y-64422181D01*
X121856197Y-64385874D01*
X121958480Y-64317532D01*
X122445141Y-63830871D01*
X122511936Y-63792307D01*
X122589064Y-63792307D01*
X122655859Y-63830871D01*
G37*
%TD.AperFunction*%
%TA.AperFunction,Conductor*%
G36*
X117937000Y-66009878D02*
G01*
X117960852Y-66098895D01*
X118006930Y-66178705D01*
X118072095Y-66243870D01*
X118151905Y-66289948D01*
X118240922Y-66313800D01*
X118290554Y-66313800D01*
X117632669Y-66971683D01*
X117634849Y-66999373D01*
X117620793Y-67075210D01*
X117573889Y-67131606D01*
X117504931Y-67181707D01*
X117504925Y-67181712D01*
X117371312Y-67315325D01*
X117371303Y-67315336D01*
X117260241Y-67468199D01*
X117260238Y-67468204D01*
X117174458Y-67636557D01*
X117174455Y-67636563D01*
X117174453Y-67636568D01*
X117116060Y-67816282D01*
X117086500Y-68002919D01*
X117086500Y-68191881D01*
X117116060Y-68378518D01*
X117174453Y-68558232D01*
X117174457Y-68558241D01*
X117174458Y-68558242D01*
X117203327Y-68614901D01*
X117260240Y-68726599D01*
X117371310Y-68879473D01*
X117463075Y-68971238D01*
X117504925Y-69013088D01*
X117509260Y-69016790D01*
X117552950Y-69080350D01*
X117561500Y-69130097D01*
X117561500Y-70100769D01*
X117541538Y-70175269D01*
X117517857Y-70206130D01*
X117492118Y-70231868D01*
X117425322Y-70270431D01*
X117348194Y-70270429D01*
X117281400Y-70231864D01*
X117242837Y-70165068D01*
X117239600Y-70149840D01*
X117210940Y-69968882D01*
X117152547Y-69789168D01*
X117066760Y-69620801D01*
X116955690Y-69467927D01*
X116822073Y-69334310D01*
X116669199Y-69223240D01*
X116545535Y-69160230D01*
X116500842Y-69137458D01*
X116500841Y-69137457D01*
X116500832Y-69137453D01*
X116321118Y-69079060D01*
X116134481Y-69049500D01*
X115945519Y-69049500D01*
X115758882Y-69079060D01*
X115620086Y-69124158D01*
X115579168Y-69137453D01*
X115579163Y-69137455D01*
X115579157Y-69137458D01*
X115410804Y-69223238D01*
X115410799Y-69223241D01*
X115257936Y-69334303D01*
X115257925Y-69334312D01*
X115124312Y-69467925D01*
X115124303Y-69467936D01*
X115013241Y-69620799D01*
X115013238Y-69620804D01*
X114927458Y-69789157D01*
X114927451Y-69789174D01*
X114911707Y-69837629D01*
X114869700Y-69902314D01*
X114800978Y-69937329D01*
X114723956Y-69933292D01*
X114659271Y-69891285D01*
X114628293Y-69837629D01*
X114626238Y-69831305D01*
X114612547Y-69789168D01*
X114526760Y-69620801D01*
X114415690Y-69467927D01*
X114282073Y-69334310D01*
X114129199Y-69223240D01*
X114005535Y-69160230D01*
X113960842Y-69137458D01*
X113960841Y-69137457D01*
X113960832Y-69137453D01*
X113781118Y-69079060D01*
X113594481Y-69049500D01*
X113405519Y-69049500D01*
X113218882Y-69079060D01*
X113080086Y-69124158D01*
X113039168Y-69137453D01*
X113039163Y-69137455D01*
X113039157Y-69137458D01*
X112870804Y-69223238D01*
X112870799Y-69223241D01*
X112717936Y-69334303D01*
X112717931Y-69334306D01*
X112717927Y-69334310D01*
X112717925Y-69334312D01*
X112717924Y-69334313D01*
X112590378Y-69461859D01*
X112523582Y-69500423D01*
X112485019Y-69505500D01*
X111386230Y-69505500D01*
X111311730Y-69485538D01*
X111280871Y-69461859D01*
X111110141Y-69291129D01*
X111071577Y-69224334D01*
X111066500Y-69185770D01*
X111066500Y-68811392D01*
X111063202Y-68790570D01*
X111039402Y-68640299D01*
X110985873Y-68475555D01*
X110907232Y-68321212D01*
X110907228Y-68321207D01*
X110907228Y-68321206D01*
X110813267Y-68191881D01*
X110805414Y-68181072D01*
X110682928Y-68058586D01*
X110606315Y-68002923D01*
X110542793Y-67956771D01*
X110542790Y-67956769D01*
X110542788Y-67956768D01*
X110388445Y-67878127D01*
X110340821Y-67862653D01*
X110223700Y-67824597D01*
X110126086Y-67809137D01*
X110052611Y-67797500D01*
X109879389Y-67797500D01*
X109813088Y-67808001D01*
X109708299Y-67824597D01*
X109543561Y-67878125D01*
X109543555Y-67878127D01*
X109543549Y-67878129D01*
X109543549Y-67878130D01*
X109389206Y-67956771D01*
X109249075Y-68058583D01*
X109163886Y-68143772D01*
X109097091Y-68182335D01*
X109019963Y-68182335D01*
X108953168Y-68143770D01*
X108931715Y-68116639D01*
X108908712Y-68079344D01*
X108784656Y-67955288D01*
X108635334Y-67863186D01*
X108520356Y-67825086D01*
X108468798Y-67808001D01*
X108451665Y-67806250D01*
X108366009Y-67797500D01*
X108366004Y-67797500D01*
X107565996Y-67797500D01*
X107463202Y-67808001D01*
X107296666Y-67863186D01*
X107147343Y-67955288D01*
X107023288Y-68079343D01*
X106931186Y-68228666D01*
X106876001Y-68395201D01*
X106876001Y-68395203D01*
X106866955Y-68483755D01*
X106865500Y-68497995D01*
X106865500Y-69150414D01*
X106845538Y-69224914D01*
X106821859Y-69255773D01*
X105871773Y-70205859D01*
X105804978Y-70244423D01*
X105766414Y-70249500D01*
X105409608Y-70249500D01*
X105335108Y-70229538D01*
X105280570Y-70175000D01*
X105260608Y-70100500D01*
X105271948Y-70043484D01*
X105293776Y-69990789D01*
X105325500Y-69831305D01*
X105325500Y-69668695D01*
X105293776Y-69509211D01*
X105266566Y-69443522D01*
X105256500Y-69367054D01*
X105286016Y-69295797D01*
X105298858Y-69281152D01*
X107810871Y-66769141D01*
X107877666Y-66730577D01*
X107916230Y-66725500D01*
X116105451Y-66725500D01*
X116105455Y-66725500D01*
X116245620Y-66697619D01*
X116377653Y-66642929D01*
X116427652Y-66609521D01*
X116496480Y-66563532D01*
X116870719Y-66189291D01*
X116937513Y-66150729D01*
X117014641Y-66150729D01*
X117081436Y-66189293D01*
X117117784Y-66248608D01*
X117174916Y-66424442D01*
X117260668Y-66592737D01*
X117279115Y-66618128D01*
X117937000Y-65960245D01*
X117937000Y-66009878D01*
G37*
%TD.AperFunction*%
%TA.AperFunction,Conductor*%
G36*
X80595097Y-57120462D02*
G01*
X80649635Y-57175000D01*
X80669597Y-57249500D01*
X80649635Y-57324000D01*
X80625956Y-57354859D01*
X80548035Y-57432779D01*
X80548028Y-57432787D01*
X80427714Y-57598387D01*
X80334782Y-57780775D01*
X80334778Y-57780787D01*
X80272327Y-57972993D01*
X80271523Y-57975466D01*
X80239500Y-58177648D01*
X80239500Y-58382352D01*
X80271523Y-58584534D01*
X80306597Y-58692482D01*
X80334778Y-58779212D01*
X80334782Y-58779224D01*
X80427714Y-58961612D01*
X80548028Y-59127212D01*
X80548035Y-59127220D01*
X80692779Y-59271964D01*
X80692787Y-59271971D01*
X80835576Y-59375712D01*
X80858390Y-59392287D01*
X81040781Y-59485220D01*
X81235466Y-59548477D01*
X81437648Y-59580500D01*
X81437653Y-59580500D01*
X81642347Y-59580500D01*
X81642352Y-59580500D01*
X81844534Y-59548477D01*
X82039219Y-59485220D01*
X82221610Y-59392287D01*
X82387219Y-59271966D01*
X82531966Y-59127219D01*
X82652287Y-58961610D01*
X82677520Y-58912086D01*
X82729128Y-58854770D01*
X82802481Y-58830935D01*
X82877924Y-58846971D01*
X82935241Y-58898579D01*
X82943040Y-58912086D01*
X82968143Y-58961354D01*
X83088412Y-59126889D01*
X83233110Y-59271587D01*
X83398645Y-59391856D01*
X83580967Y-59484753D01*
X83580979Y-59484759D01*
X83775577Y-59547988D01*
X83830000Y-59556607D01*
X83830000Y-58713012D01*
X83887007Y-58745925D01*
X84014174Y-58780000D01*
X84145826Y-58780000D01*
X84272993Y-58745925D01*
X84330000Y-58713012D01*
X84330000Y-59556606D01*
X84384422Y-59547988D01*
X84579020Y-59484759D01*
X84579032Y-59484753D01*
X84761354Y-59391856D01*
X84926889Y-59271587D01*
X85071587Y-59126889D01*
X85191856Y-58961354D01*
X85216958Y-58912088D01*
X85268566Y-58854770D01*
X85341919Y-58830935D01*
X85417362Y-58846970D01*
X85474680Y-58898578D01*
X85482478Y-58912085D01*
X85507712Y-58961609D01*
X85628028Y-59127212D01*
X85628035Y-59127220D01*
X85772779Y-59271964D01*
X85772787Y-59271971D01*
X85915576Y-59375712D01*
X85938390Y-59392287D01*
X86120781Y-59485220D01*
X86315466Y-59548477D01*
X86517648Y-59580500D01*
X86517653Y-59580500D01*
X86722347Y-59580500D01*
X86722352Y-59580500D01*
X86924534Y-59548477D01*
X87119219Y-59485220D01*
X87301610Y-59392287D01*
X87467219Y-59271966D01*
X87611966Y-59127219D01*
X87732287Y-58961610D01*
X87757240Y-58912636D01*
X87808848Y-58855319D01*
X87882202Y-58831485D01*
X87957644Y-58847521D01*
X88014962Y-58899129D01*
X88022760Y-58912637D01*
X88047712Y-58961609D01*
X88168028Y-59127212D01*
X88168033Y-59127218D01*
X88168034Y-59127219D01*
X88312781Y-59271966D01*
X88373079Y-59315775D01*
X88421617Y-59375712D01*
X88434500Y-59436318D01*
X88434500Y-59981455D01*
X88455171Y-60085374D01*
X88462380Y-60121618D01*
X88517068Y-60253647D01*
X88517072Y-60253655D01*
X88596467Y-60372478D01*
X88596468Y-60372480D01*
X88730859Y-60506871D01*
X88769423Y-60573666D01*
X88774500Y-60612230D01*
X88774500Y-61821458D01*
X88785672Y-61877619D01*
X88802380Y-61961618D01*
X88857068Y-62093647D01*
X88857071Y-62093653D01*
X88936468Y-62212480D01*
X90287520Y-63563532D01*
X90306946Y-63576512D01*
X90332373Y-63593502D01*
X90332557Y-63593624D01*
X90406347Y-63642929D01*
X90407526Y-63643417D01*
X90414551Y-63648083D01*
X90435506Y-63671845D01*
X90458634Y-63693501D01*
X90460748Y-63700468D01*
X90465565Y-63705930D01*
X90471831Y-63736983D01*
X90481034Y-63767305D01*
X90479381Y-63774398D01*
X90480821Y-63781534D01*
X90470721Y-63811557D01*
X90463530Y-63842420D01*
X90456763Y-63853055D01*
X90456231Y-63854637D01*
X90455150Y-63855590D01*
X90451395Y-63861492D01*
X90416650Y-63907905D01*
X90416645Y-63907915D01*
X90366401Y-64042622D01*
X90360001Y-64102157D01*
X90360000Y-64102177D01*
X90360000Y-64750000D01*
X91276988Y-64750000D01*
X91244075Y-64807007D01*
X91210000Y-64934174D01*
X91210000Y-65065826D01*
X91244075Y-65192993D01*
X91276988Y-65250000D01*
X90360000Y-65250000D01*
X90360000Y-65897822D01*
X90360001Y-65897842D01*
X90366401Y-65957377D01*
X90416645Y-66092084D01*
X90416650Y-66092094D01*
X90502809Y-66207187D01*
X90502812Y-66207190D01*
X90617905Y-66293349D01*
X90617915Y-66293354D01*
X90752623Y-66343598D01*
X90752621Y-66343598D01*
X90812157Y-66349998D01*
X90812177Y-66350000D01*
X91460000Y-66350000D01*
X91460000Y-65433012D01*
X91517007Y-65465925D01*
X91644174Y-65500000D01*
X91775826Y-65500000D01*
X91902993Y-65465925D01*
X91960000Y-65433012D01*
X91960000Y-66350000D01*
X92607823Y-66350000D01*
X92607842Y-66349998D01*
X92667377Y-66343598D01*
X92802084Y-66293354D01*
X92802094Y-66293349D01*
X92917187Y-66207190D01*
X92917190Y-66207187D01*
X93003349Y-66092094D01*
X93003351Y-66092090D01*
X93038827Y-65996977D01*
X93083566Y-65934150D01*
X93153724Y-65902110D01*
X93230503Y-65909441D01*
X93276204Y-65936611D01*
X93280121Y-65940017D01*
X93370208Y-66030104D01*
X93452358Y-66089789D01*
X93457271Y-66094061D01*
X93475311Y-66120816D01*
X93495617Y-66145891D01*
X93497181Y-66153251D01*
X93500390Y-66158010D01*
X93501463Y-66173394D01*
X93508500Y-66206497D01*
X93508500Y-68513455D01*
X93528679Y-68614901D01*
X93536380Y-68653617D01*
X93591068Y-68785647D01*
X93591071Y-68785653D01*
X93658083Y-68885945D01*
X93670467Y-68904478D01*
X93670468Y-68904480D01*
X93820859Y-69054871D01*
X93859423Y-69121666D01*
X93864500Y-69160230D01*
X93864500Y-69848003D01*
X93868922Y-69891285D01*
X93875001Y-69950797D01*
X93909078Y-70053634D01*
X93913563Y-70130629D01*
X93878949Y-70199554D01*
X93814509Y-70241937D01*
X93767641Y-70249500D01*
X87729099Y-70249500D01*
X87654599Y-70229538D01*
X87600061Y-70175000D01*
X87580099Y-70100500D01*
X87600061Y-70026000D01*
X87654599Y-69971462D01*
X87661454Y-69967740D01*
X87682526Y-69957002D01*
X87682527Y-69957002D01*
X87822600Y-69855233D01*
X87822603Y-69855231D01*
X87945031Y-69732803D01*
X87945033Y-69732800D01*
X88046802Y-69592727D01*
X88046802Y-69592726D01*
X88125409Y-69438453D01*
X88178913Y-69273786D01*
X88206000Y-69102767D01*
X88206000Y-68991200D01*
X87386330Y-68991200D01*
X87406075Y-68971455D01*
X87455444Y-68885945D01*
X87481000Y-68790570D01*
X87481000Y-68691830D01*
X87455444Y-68596455D01*
X87406075Y-68510945D01*
X87386330Y-68491200D01*
X88206000Y-68491200D01*
X88206000Y-68379632D01*
X88178913Y-68208613D01*
X88125409Y-68043946D01*
X88046802Y-67889673D01*
X88046802Y-67889672D01*
X87945033Y-67749599D01*
X87945031Y-67749596D01*
X87822603Y-67627168D01*
X87822600Y-67627166D01*
X87682526Y-67525397D01*
X87528253Y-67446790D01*
X87363586Y-67393286D01*
X87356000Y-67392084D01*
X87356000Y-68460870D01*
X87336255Y-68441125D01*
X87250745Y-68391756D01*
X87155370Y-68366200D01*
X87056630Y-68366200D01*
X86961255Y-68391756D01*
X86875745Y-68441125D01*
X86856000Y-68460870D01*
X86856000Y-67392084D01*
X86855999Y-67392084D01*
X86848414Y-67393286D01*
X86848412Y-67393286D01*
X86683746Y-67446790D01*
X86529473Y-67525397D01*
X86529472Y-67525397D01*
X86389399Y-67627166D01*
X86389396Y-67627168D01*
X86304157Y-67712408D01*
X86237362Y-67750972D01*
X86160234Y-67750972D01*
X86093439Y-67712408D01*
X86071981Y-67685270D01*
X86049301Y-67648500D01*
X86048712Y-67647544D01*
X85924656Y-67523488D01*
X85924653Y-67523486D01*
X85924652Y-67523485D01*
X85902276Y-67509683D01*
X85849348Y-67453581D01*
X85831500Y-67382868D01*
X85831500Y-67000549D01*
X85831499Y-67000541D01*
X85828378Y-66984853D01*
X85803619Y-66860380D01*
X85748929Y-66728347D01*
X85722839Y-66689300D01*
X85669532Y-66609520D01*
X82056480Y-62996468D01*
X81997066Y-62956769D01*
X81937655Y-62917072D01*
X81937647Y-62917068D01*
X81843620Y-62878121D01*
X81805620Y-62862381D01*
X81805618Y-62862380D01*
X81805619Y-62862380D01*
X81665458Y-62834500D01*
X81665455Y-62834500D01*
X80899499Y-62834500D01*
X80824999Y-62814538D01*
X80770461Y-62760000D01*
X80750499Y-62685500D01*
X80750499Y-62559636D01*
X80750499Y-62559628D01*
X80744091Y-62500017D01*
X80720389Y-62436468D01*
X80693797Y-62365170D01*
X80693795Y-62365166D01*
X80607547Y-62249955D01*
X80607544Y-62249952D01*
X80596336Y-62241562D01*
X80492333Y-62163704D01*
X80492329Y-62163702D01*
X80357482Y-62113408D01*
X80297876Y-62107000D01*
X78202136Y-62107000D01*
X78202111Y-62107002D01*
X78142521Y-62113408D01*
X78142512Y-62113410D01*
X78001568Y-62165978D01*
X77924789Y-62173309D01*
X77854632Y-62141268D01*
X77809894Y-62078440D01*
X77800500Y-62026372D01*
X77800500Y-61259010D01*
X84006000Y-61259010D01*
X84006000Y-61684000D01*
X84825670Y-61684000D01*
X84805925Y-61703745D01*
X84756556Y-61789255D01*
X84731000Y-61884630D01*
X84731000Y-61983370D01*
X84756556Y-62078745D01*
X84805925Y-62164255D01*
X84825670Y-62184000D01*
X84006001Y-62184000D01*
X84006001Y-62608973D01*
X84016494Y-62711696D01*
X84071642Y-62878121D01*
X84163680Y-63027340D01*
X84287659Y-63151319D01*
X84436878Y-63243357D01*
X84603302Y-63298505D01*
X84603311Y-63298507D01*
X84706015Y-63308999D01*
X84856000Y-63308999D01*
X84856000Y-62214330D01*
X84875745Y-62234075D01*
X84961255Y-62283444D01*
X85056630Y-62309000D01*
X85155370Y-62309000D01*
X85250745Y-62283444D01*
X85336255Y-62234075D01*
X85356000Y-62214330D01*
X85356000Y-63308999D01*
X85505974Y-63308999D01*
X85608696Y-63298505D01*
X85775121Y-63243357D01*
X85924340Y-63151319D01*
X86048319Y-63027340D01*
X86048322Y-63027336D01*
X86071347Y-62990006D01*
X86127446Y-62937076D01*
X86202495Y-62919287D01*
X86276383Y-62941406D01*
X86303519Y-62962861D01*
X86389072Y-63048414D01*
X86389075Y-63048416D01*
X86494206Y-63124799D01*
X86529212Y-63150232D01*
X86683555Y-63228873D01*
X86848299Y-63282402D01*
X87019389Y-63309500D01*
X87019393Y-63309500D01*
X87192607Y-63309500D01*
X87192611Y-63309500D01*
X87363701Y-63282402D01*
X87528445Y-63228873D01*
X87682788Y-63150232D01*
X87822928Y-63048414D01*
X87945414Y-62925928D01*
X88047232Y-62785788D01*
X88125873Y-62631445D01*
X88179402Y-62466701D01*
X88206500Y-62295611D01*
X88206500Y-61572389D01*
X88179402Y-61401299D01*
X88125873Y-61236555D01*
X88047232Y-61082212D01*
X88042621Y-61075866D01*
X87946595Y-60943698D01*
X87945414Y-60942072D01*
X87822928Y-60819586D01*
X87818118Y-60816091D01*
X87682793Y-60717771D01*
X87682790Y-60717769D01*
X87682788Y-60717768D01*
X87528445Y-60639127D01*
X87459429Y-60616702D01*
X87363700Y-60585597D01*
X87262012Y-60569492D01*
X87192611Y-60558500D01*
X87019389Y-60558500D01*
X86953088Y-60569001D01*
X86848299Y-60585597D01*
X86683561Y-60639125D01*
X86683555Y-60639127D01*
X86683549Y-60639129D01*
X86683549Y-60639130D01*
X86529206Y-60717771D01*
X86389075Y-60819583D01*
X86389062Y-60819595D01*
X86303523Y-60905134D01*
X86236728Y-60943698D01*
X86159600Y-60943698D01*
X86092806Y-60905133D01*
X86071347Y-60877994D01*
X86048320Y-60840660D01*
X85924340Y-60716680D01*
X85775121Y-60624642D01*
X85608697Y-60569494D01*
X85608688Y-60569492D01*
X85505989Y-60559000D01*
X85356000Y-60559000D01*
X85356000Y-61653670D01*
X85336255Y-61633925D01*
X85250745Y-61584556D01*
X85155370Y-61559000D01*
X85056630Y-61559000D01*
X84961255Y-61584556D01*
X84875745Y-61633925D01*
X84856000Y-61653670D01*
X84856000Y-60559000D01*
X84706026Y-60559000D01*
X84603303Y-60569494D01*
X84436878Y-60624642D01*
X84287659Y-60716680D01*
X84163680Y-60840659D01*
X84071642Y-60989878D01*
X84016494Y-61156302D01*
X84016492Y-61156311D01*
X84006000Y-61259010D01*
X77800500Y-61259010D01*
X77800500Y-57249500D01*
X77820462Y-57175000D01*
X77875000Y-57120462D01*
X77949500Y-57100500D01*
X80520597Y-57100500D01*
X80595097Y-57120462D01*
G37*
%TD.AperFunction*%
%TA.AperFunction,Conductor*%
G36*
X100664925Y-68942745D02*
G01*
X100615556Y-69028255D01*
X100590000Y-69123630D01*
X100590000Y-69222370D01*
X100615556Y-69317745D01*
X100664925Y-69403255D01*
X100684670Y-69423000D01*
X99245330Y-69423000D01*
X99265075Y-69403255D01*
X99314444Y-69317745D01*
X99340000Y-69222370D01*
X99340000Y-69123630D01*
X99314444Y-69028255D01*
X99265075Y-68942745D01*
X99245330Y-68923000D01*
X100684670Y-68923000D01*
X100664925Y-68942745D01*
G37*
%TD.AperFunction*%
%TA.AperFunction,Conductor*%
G36*
X113357644Y-58847521D02*
G01*
X113414962Y-58899129D01*
X113422760Y-58912637D01*
X113447712Y-58961609D01*
X113568028Y-59127212D01*
X113568035Y-59127220D01*
X113712779Y-59271964D01*
X113712787Y-59271971D01*
X113746696Y-59296607D01*
X113795235Y-59356546D01*
X113807301Y-59432725D01*
X113779661Y-59504730D01*
X113764476Y-59522510D01*
X112746227Y-60540759D01*
X112679432Y-60579323D01*
X112617560Y-60582566D01*
X112556504Y-60572896D01*
X112465611Y-60558500D01*
X112292389Y-60558500D01*
X112226088Y-60569001D01*
X112121299Y-60585597D01*
X111956561Y-60639125D01*
X111956555Y-60639127D01*
X111956549Y-60639129D01*
X111956549Y-60639130D01*
X111802206Y-60717771D01*
X111662075Y-60819583D01*
X111576886Y-60904772D01*
X111510091Y-60943335D01*
X111432963Y-60943335D01*
X111366168Y-60904770D01*
X111344715Y-60877639D01*
X111321712Y-60840344D01*
X111197656Y-60716288D01*
X111048334Y-60624186D01*
X110945150Y-60589994D01*
X110881798Y-60569001D01*
X110864665Y-60567250D01*
X110779009Y-60558500D01*
X110779004Y-60558500D01*
X109978996Y-60558500D01*
X109876202Y-60569001D01*
X109709666Y-60624186D01*
X109560343Y-60716288D01*
X109436288Y-60840343D01*
X109344186Y-60989666D01*
X109289001Y-61156201D01*
X109286059Y-61185000D01*
X109280792Y-61236561D01*
X109278500Y-61258995D01*
X109278500Y-62609003D01*
X109280792Y-62631438D01*
X109289001Y-62711797D01*
X109344186Y-62878334D01*
X109436288Y-63027656D01*
X109560344Y-63151712D01*
X109709666Y-63243814D01*
X109876203Y-63298999D01*
X109978991Y-63309500D01*
X110779008Y-63309499D01*
X110881797Y-63298999D01*
X111048334Y-63243814D01*
X111197656Y-63151712D01*
X111321712Y-63027656D01*
X111344711Y-62990367D01*
X111400809Y-62937439D01*
X111475858Y-62919650D01*
X111549746Y-62941769D01*
X111576882Y-62963224D01*
X111662072Y-63048414D01*
X111662075Y-63048416D01*
X111767206Y-63124799D01*
X111802212Y-63150232D01*
X111956555Y-63228873D01*
X112121299Y-63282402D01*
X112292389Y-63309500D01*
X112292393Y-63309500D01*
X112465607Y-63309500D01*
X112465611Y-63309500D01*
X112636701Y-63282402D01*
X112801445Y-63228873D01*
X112955788Y-63150232D01*
X113095928Y-63048414D01*
X113218414Y-62925928D01*
X113320232Y-62785788D01*
X113398873Y-62631445D01*
X113452402Y-62466701D01*
X113479500Y-62295611D01*
X113479500Y-61921230D01*
X113499462Y-61846730D01*
X113523141Y-61815871D01*
X114009267Y-61329745D01*
X114519772Y-60819239D01*
X114586565Y-60780677D01*
X114663693Y-60780677D01*
X114730488Y-60819241D01*
X114769052Y-60886036D01*
X114772295Y-60947908D01*
X114750500Y-61085519D01*
X114750500Y-61274481D01*
X114780060Y-61461118D01*
X114838453Y-61640832D01*
X114838457Y-61640841D01*
X114838458Y-61640842D01*
X114848729Y-61661000D01*
X114924240Y-61809199D01*
X115035310Y-61962073D01*
X115168927Y-62095690D01*
X115321801Y-62206760D01*
X115490168Y-62292547D01*
X115539439Y-62308556D01*
X115604121Y-62350561D01*
X115639137Y-62419282D01*
X115635101Y-62496305D01*
X115593094Y-62560990D01*
X115539439Y-62591969D01*
X115490354Y-62607918D01*
X115322065Y-62693666D01*
X115322061Y-62693668D01*
X115296670Y-62712115D01*
X115296670Y-62712116D01*
X115954554Y-63370000D01*
X115904922Y-63370000D01*
X115815905Y-63393852D01*
X115736095Y-63439930D01*
X115670930Y-63505095D01*
X115624852Y-63584905D01*
X115601000Y-63673922D01*
X115601000Y-63766078D01*
X115624852Y-63855095D01*
X115670930Y-63934905D01*
X115736095Y-64000070D01*
X115815905Y-64046148D01*
X115904922Y-64070000D01*
X115954552Y-64070000D01*
X115296670Y-64727882D01*
X115296670Y-64727884D01*
X115322052Y-64746325D01*
X115322061Y-64746330D01*
X115490357Y-64832083D01*
X115669993Y-64890450D01*
X115669995Y-64890451D01*
X115767514Y-64905896D01*
X115837975Y-64937266D01*
X115883310Y-64999664D01*
X115891373Y-65076369D01*
X115860003Y-65146830D01*
X115849567Y-65158420D01*
X115777130Y-65230858D01*
X115710335Y-65269423D01*
X115671770Y-65274500D01*
X107482541Y-65274500D01*
X107342380Y-65302380D01*
X107342372Y-65302383D01*
X107338879Y-65303830D01*
X107336627Y-65304126D01*
X107335379Y-65304505D01*
X107335316Y-65304298D01*
X107262410Y-65313890D01*
X107191156Y-65284368D01*
X107144209Y-65223174D01*
X107134149Y-65146705D01*
X107134694Y-65142940D01*
X107140500Y-65106287D01*
X107140500Y-64893713D01*
X107107246Y-64683757D01*
X107041557Y-64481588D01*
X106945051Y-64292184D01*
X106820104Y-64120208D01*
X106669792Y-63969896D01*
X106520586Y-63861492D01*
X106497818Y-63844950D01*
X106497812Y-63844947D01*
X106492852Y-63842420D01*
X106394500Y-63792307D01*
X106316304Y-63752464D01*
X106316303Y-63752463D01*
X106316302Y-63752463D01*
X106308422Y-63748447D01*
X106308415Y-63748444D01*
X106308412Y-63748443D01*
X106106243Y-63682754D01*
X105896287Y-63649500D01*
X105683713Y-63649500D01*
X105529520Y-63673922D01*
X105473756Y-63682754D01*
X105271594Y-63748441D01*
X105271588Y-63748443D01*
X105271582Y-63748445D01*
X105271582Y-63748446D01*
X105082182Y-63844950D01*
X105082181Y-63844950D01*
X104910209Y-63969895D01*
X104910206Y-63969897D01*
X104759897Y-64120206D01*
X104759895Y-64120209D01*
X104640544Y-64284482D01*
X104580604Y-64333020D01*
X104504425Y-64345086D01*
X104432420Y-64317446D01*
X104399456Y-64284482D01*
X104327729Y-64185759D01*
X104280104Y-64120208D01*
X104129792Y-63969896D01*
X103957816Y-63844949D01*
X103768412Y-63748443D01*
X103566243Y-63682754D01*
X103356287Y-63649500D01*
X103143713Y-63649500D01*
X102989520Y-63673922D01*
X102933756Y-63682754D01*
X102731594Y-63748441D01*
X102731588Y-63748443D01*
X102731582Y-63748445D01*
X102731582Y-63748446D01*
X102542182Y-63844950D01*
X102542181Y-63844950D01*
X102370209Y-63969895D01*
X102370198Y-63969904D01*
X102283791Y-64056311D01*
X102216996Y-64094875D01*
X102139868Y-64094875D01*
X102073074Y-64056310D01*
X102038828Y-64003022D01*
X102003354Y-63907915D01*
X102003349Y-63907905D01*
X101917190Y-63792812D01*
X101917187Y-63792809D01*
X101802094Y-63706650D01*
X101802084Y-63706645D01*
X101667376Y-63656401D01*
X101667378Y-63656401D01*
X101607842Y-63650001D01*
X101607823Y-63650000D01*
X100960000Y-63650000D01*
X100960000Y-64566988D01*
X100902993Y-64534075D01*
X100775826Y-64500000D01*
X100644174Y-64500000D01*
X100517007Y-64534075D01*
X100460000Y-64566988D01*
X100460000Y-63650000D01*
X99812177Y-63650000D01*
X99812157Y-63650001D01*
X99752622Y-63656401D01*
X99617915Y-63706645D01*
X99617905Y-63706650D01*
X99502812Y-63792809D01*
X99502809Y-63792812D01*
X99416650Y-63907905D01*
X99416645Y-63907915D01*
X99366401Y-64042622D01*
X99360001Y-64102157D01*
X99360000Y-64102177D01*
X99360000Y-64750000D01*
X100276988Y-64750000D01*
X100244075Y-64807007D01*
X100210000Y-64934174D01*
X100210000Y-65065826D01*
X100244075Y-65192993D01*
X100276988Y-65250000D01*
X99360000Y-65250000D01*
X99360000Y-65897822D01*
X99360001Y-65897842D01*
X99366401Y-65957377D01*
X99416645Y-66092084D01*
X99416650Y-66092094D01*
X99502809Y-66207187D01*
X99502812Y-66207190D01*
X99617905Y-66293349D01*
X99617915Y-66293354D01*
X99752623Y-66343598D01*
X99752621Y-66343598D01*
X99812157Y-66349998D01*
X99812177Y-66350000D01*
X100460000Y-66350000D01*
X100460000Y-65433012D01*
X100517007Y-65465925D01*
X100644174Y-65500000D01*
X100775826Y-65500000D01*
X100902993Y-65465925D01*
X100960000Y-65433012D01*
X100960000Y-66350000D01*
X101607823Y-66350000D01*
X101607842Y-66349998D01*
X101667377Y-66343598D01*
X101802084Y-66293354D01*
X101802094Y-66293349D01*
X101917187Y-66207190D01*
X101917190Y-66207187D01*
X102003349Y-66092094D01*
X102003351Y-66092090D01*
X102038827Y-65996977D01*
X102083566Y-65934150D01*
X102153724Y-65902110D01*
X102230503Y-65909441D01*
X102283792Y-65943688D01*
X102370208Y-66030104D01*
X102542184Y-66155051D01*
X102731588Y-66251557D01*
X102933757Y-66317246D01*
X103143713Y-66350500D01*
X103143718Y-66350500D01*
X103356282Y-66350500D01*
X103356287Y-66350500D01*
X103566243Y-66317246D01*
X103768412Y-66251557D01*
X103957816Y-66155051D01*
X104129792Y-66030104D01*
X104280104Y-65879792D01*
X104399456Y-65715517D01*
X104459396Y-65666979D01*
X104535574Y-65654913D01*
X104607580Y-65682553D01*
X104640544Y-65715517D01*
X104759896Y-65879792D01*
X104910208Y-66030104D01*
X105082184Y-66155051D01*
X105271588Y-66251557D01*
X105473757Y-66317246D01*
X105683713Y-66350500D01*
X105683718Y-66350500D01*
X105817769Y-66350500D01*
X105892269Y-66370462D01*
X105946807Y-66425000D01*
X105966769Y-66499500D01*
X105946807Y-66574000D01*
X105923128Y-66604859D01*
X104152691Y-68375295D01*
X104085896Y-68413859D01*
X104008768Y-68413859D01*
X103941973Y-68375295D01*
X103914573Y-68337583D01*
X103906232Y-68321212D01*
X103804414Y-68181072D01*
X103681928Y-68058586D01*
X103605315Y-68002923D01*
X103541793Y-67956771D01*
X103541790Y-67956769D01*
X103541788Y-67956768D01*
X103387445Y-67878127D01*
X103339821Y-67862653D01*
X103222700Y-67824597D01*
X103125086Y-67809137D01*
X103051611Y-67797500D01*
X102878389Y-67797500D01*
X102812088Y-67808001D01*
X102707299Y-67824597D01*
X102542561Y-67878125D01*
X102542555Y-67878127D01*
X102542549Y-67878129D01*
X102542549Y-67878130D01*
X102388206Y-67956771D01*
X102248075Y-68058583D01*
X102125588Y-68181070D01*
X102125583Y-68181076D01*
X102085234Y-68236612D01*
X102025294Y-68285150D01*
X101949115Y-68297215D01*
X101877110Y-68269574D01*
X101844147Y-68236610D01*
X101804038Y-68181404D01*
X101804031Y-68181396D01*
X101681603Y-68058968D01*
X101681600Y-68058966D01*
X101541526Y-67957197D01*
X101387253Y-67878590D01*
X101222586Y-67825086D01*
X101215000Y-67823884D01*
X101215000Y-68892670D01*
X101195255Y-68872925D01*
X101109745Y-68823556D01*
X101014370Y-68798000D01*
X100915630Y-68798000D01*
X100820255Y-68823556D01*
X100734745Y-68872925D01*
X100715000Y-68892670D01*
X100715000Y-67823884D01*
X100707414Y-67825086D01*
X100707412Y-67825086D01*
X100542746Y-67878590D01*
X100388473Y-67957197D01*
X100388472Y-67957197D01*
X100248399Y-68058966D01*
X100248396Y-68058968D01*
X100125968Y-68181396D01*
X100125966Y-68181399D01*
X100085544Y-68237036D01*
X100025604Y-68285574D01*
X99949426Y-68297640D01*
X99877420Y-68270000D01*
X99844456Y-68237036D01*
X99804033Y-68181399D01*
X99804031Y-68181396D01*
X99681603Y-68058968D01*
X99681600Y-68058966D01*
X99541526Y-67957197D01*
X99387253Y-67878590D01*
X99222586Y-67825086D01*
X99215000Y-67823884D01*
X99215000Y-68892670D01*
X99195255Y-68872925D01*
X99109745Y-68823556D01*
X99014370Y-68798000D01*
X98915630Y-68798000D01*
X98820255Y-68823556D01*
X98734745Y-68872925D01*
X98715000Y-68892670D01*
X98715000Y-67823884D01*
X98707414Y-67825086D01*
X98707412Y-67825086D01*
X98542746Y-67878590D01*
X98388473Y-67957197D01*
X98388472Y-67957197D01*
X98248399Y-68058966D01*
X98248396Y-68058968D01*
X98125968Y-68181396D01*
X98125961Y-68181404D01*
X98085850Y-68236612D01*
X98025910Y-68285149D01*
X97949731Y-68297214D01*
X97877726Y-68269572D01*
X97844765Y-68236610D01*
X97812267Y-68191881D01*
X97804414Y-68181072D01*
X97681928Y-68058586D01*
X97605315Y-68002923D01*
X97541793Y-67956771D01*
X97541790Y-67956769D01*
X97541788Y-67956768D01*
X97387445Y-67878127D01*
X97339821Y-67862653D01*
X97222700Y-67824597D01*
X97125086Y-67809137D01*
X97051611Y-67797500D01*
X96878389Y-67797500D01*
X96812088Y-67808001D01*
X96707299Y-67824597D01*
X96542561Y-67878125D01*
X96542555Y-67878127D01*
X96542549Y-67878129D01*
X96542549Y-67878130D01*
X96388206Y-67956771D01*
X96248075Y-68058583D01*
X96162886Y-68143772D01*
X96096091Y-68182335D01*
X96018963Y-68182335D01*
X95952168Y-68143770D01*
X95930715Y-68116639D01*
X95907712Y-68079344D01*
X95783656Y-67955288D01*
X95634334Y-67863186D01*
X95519356Y-67825086D01*
X95467798Y-67808001D01*
X95447239Y-67805900D01*
X95365009Y-67797500D01*
X95365005Y-67797500D01*
X95108500Y-67797500D01*
X95034000Y-67777538D01*
X94979462Y-67723000D01*
X94959500Y-67648500D01*
X94959500Y-66229746D01*
X94979462Y-66155246D01*
X95020917Y-66109205D01*
X95129792Y-66030104D01*
X95280104Y-65879792D01*
X95399456Y-65715517D01*
X95459396Y-65666979D01*
X95535574Y-65654913D01*
X95607580Y-65682553D01*
X95640544Y-65715517D01*
X95759896Y-65879792D01*
X95910208Y-66030104D01*
X96082184Y-66155051D01*
X96271588Y-66251557D01*
X96473757Y-66317246D01*
X96683713Y-66350500D01*
X96683718Y-66350500D01*
X96896282Y-66350500D01*
X96896287Y-66350500D01*
X97106243Y-66317246D01*
X97308412Y-66251557D01*
X97497816Y-66155051D01*
X97669792Y-66030104D01*
X97820104Y-65879792D01*
X97945051Y-65707816D01*
X98041557Y-65518412D01*
X98107246Y-65316243D01*
X98140500Y-65106287D01*
X98140500Y-64893713D01*
X98107246Y-64683757D01*
X98041557Y-64481588D01*
X97945051Y-64292184D01*
X97867730Y-64185760D01*
X97867730Y-64185759D01*
X97820109Y-64120214D01*
X97820102Y-64120206D01*
X97669793Y-63969897D01*
X97669792Y-63969896D01*
X97497816Y-63844949D01*
X97308412Y-63748443D01*
X97106243Y-63682754D01*
X96896287Y-63649500D01*
X96683713Y-63649500D01*
X96529520Y-63673922D01*
X96473756Y-63682754D01*
X96271594Y-63748441D01*
X96271588Y-63748443D01*
X96271582Y-63748445D01*
X96271582Y-63748446D01*
X96082182Y-63844950D01*
X96082181Y-63844950D01*
X95910209Y-63969895D01*
X95910206Y-63969897D01*
X95759897Y-64120206D01*
X95759895Y-64120209D01*
X95640544Y-64284482D01*
X95580604Y-64333020D01*
X95504425Y-64345086D01*
X95432420Y-64317446D01*
X95399456Y-64284482D01*
X95327729Y-64185759D01*
X95280104Y-64120208D01*
X95129792Y-63969896D01*
X94957816Y-63844949D01*
X94855486Y-63792809D01*
X94801758Y-63765433D01*
X94764044Y-63738032D01*
X94651573Y-63625561D01*
X114751000Y-63625561D01*
X114751000Y-63814438D01*
X114780548Y-64001006D01*
X114838916Y-64180642D01*
X114924668Y-64348937D01*
X114943115Y-64374328D01*
X115597445Y-63719999D01*
X114943116Y-63065670D01*
X114943115Y-63065670D01*
X114924668Y-63091061D01*
X114924666Y-63091065D01*
X114838916Y-63259357D01*
X114780549Y-63438993D01*
X114780548Y-63438993D01*
X114751000Y-63625561D01*
X94651573Y-63625561D01*
X93462480Y-62436468D01*
X93378717Y-62380500D01*
X93343655Y-62357072D01*
X93343647Y-62357068D01*
X93253917Y-62319901D01*
X93211620Y-62302381D01*
X93211618Y-62302380D01*
X93211619Y-62302380D01*
X93071458Y-62274500D01*
X93071455Y-62274500D01*
X91112230Y-62274500D01*
X91037730Y-62254538D01*
X91006871Y-62230859D01*
X90269141Y-61493129D01*
X90230577Y-61426334D01*
X90225500Y-61387770D01*
X90225500Y-60178549D01*
X90225499Y-60178541D01*
X90224636Y-60174204D01*
X90197619Y-60038380D01*
X90142929Y-59906347D01*
X90142928Y-59906345D01*
X90110004Y-59857070D01*
X90110003Y-59857069D01*
X90063537Y-59787526D01*
X90063532Y-59787520D01*
X89929141Y-59653129D01*
X89890577Y-59586334D01*
X89885500Y-59547770D01*
X89885500Y-59436318D01*
X89905462Y-59361818D01*
X89946919Y-59315775D01*
X90007219Y-59271966D01*
X90151966Y-59127219D01*
X90272287Y-58961610D01*
X90297240Y-58912636D01*
X90348848Y-58855319D01*
X90422202Y-58831485D01*
X90497644Y-58847521D01*
X90554962Y-58899129D01*
X90562760Y-58912637D01*
X90587712Y-58961609D01*
X90708028Y-59127212D01*
X90708035Y-59127220D01*
X90852779Y-59271964D01*
X90852787Y-59271971D01*
X90995576Y-59375712D01*
X91018390Y-59392287D01*
X91200781Y-59485220D01*
X91395466Y-59548477D01*
X91597648Y-59580500D01*
X91597653Y-59580500D01*
X91802347Y-59580500D01*
X91802352Y-59580500D01*
X92004534Y-59548477D01*
X92199219Y-59485220D01*
X92381610Y-59392287D01*
X92547219Y-59271966D01*
X92691966Y-59127219D01*
X92812287Y-58961610D01*
X92837240Y-58912636D01*
X92888848Y-58855319D01*
X92962202Y-58831485D01*
X93037644Y-58847521D01*
X93094962Y-58899129D01*
X93102760Y-58912637D01*
X93127712Y-58961609D01*
X93248028Y-59127212D01*
X93248035Y-59127220D01*
X93392779Y-59271964D01*
X93392787Y-59271971D01*
X93535576Y-59375712D01*
X93558390Y-59392287D01*
X93740781Y-59485220D01*
X93935466Y-59548477D01*
X94137648Y-59580500D01*
X94137653Y-59580500D01*
X94342347Y-59580500D01*
X94342352Y-59580500D01*
X94544534Y-59548477D01*
X94739219Y-59485220D01*
X94921610Y-59392287D01*
X95087219Y-59271966D01*
X95231966Y-59127219D01*
X95352287Y-58961610D01*
X95377240Y-58912636D01*
X95428848Y-58855319D01*
X95502202Y-58831485D01*
X95577644Y-58847521D01*
X95634962Y-58899129D01*
X95642760Y-58912637D01*
X95667712Y-58961609D01*
X95788028Y-59127212D01*
X95788035Y-59127220D01*
X95932779Y-59271964D01*
X95932787Y-59271971D01*
X96075576Y-59375712D01*
X96098390Y-59392287D01*
X96280781Y-59485220D01*
X96475466Y-59548477D01*
X96661476Y-59577938D01*
X96731933Y-59609308D01*
X96777268Y-59671706D01*
X96785331Y-59748411D01*
X96753960Y-59818871D01*
X96743524Y-59830462D01*
X96500127Y-60073859D01*
X96433332Y-60112423D01*
X96394768Y-60117500D01*
X94987136Y-60117500D01*
X94987111Y-60117502D01*
X94927521Y-60123908D01*
X94927515Y-60123909D01*
X94792670Y-60174202D01*
X94792666Y-60174204D01*
X94677455Y-60260452D01*
X94677452Y-60260455D01*
X94591204Y-60375666D01*
X94591202Y-60375670D01*
X94540908Y-60510517D01*
X94534500Y-60570114D01*
X94534500Y-62365863D01*
X94534502Y-62365888D01*
X94540908Y-62425478D01*
X94540909Y-62425484D01*
X94591202Y-62560329D01*
X94591204Y-62560333D01*
X94677452Y-62675544D01*
X94677455Y-62675547D01*
X94792666Y-62761795D01*
X94792670Y-62761797D01*
X94927517Y-62812091D01*
X94987114Y-62818499D01*
X94987118Y-62818499D01*
X94987127Y-62818500D01*
X96782872Y-62818499D01*
X96842483Y-62812091D01*
X96938447Y-62776298D01*
X96977329Y-62761797D01*
X96977333Y-62761795D01*
X97044256Y-62711696D01*
X97092546Y-62675546D01*
X97143172Y-62607918D01*
X97178795Y-62560333D01*
X97178798Y-62560327D01*
X97213105Y-62468343D01*
X97214215Y-62465366D01*
X97258953Y-62402540D01*
X97329110Y-62370498D01*
X97405889Y-62377829D01*
X97459180Y-62412076D01*
X97545208Y-62498104D01*
X97717184Y-62623051D01*
X97906588Y-62719557D01*
X98108757Y-62785246D01*
X98318713Y-62818500D01*
X98318718Y-62818500D01*
X98531282Y-62818500D01*
X98531287Y-62818500D01*
X98741243Y-62785246D01*
X98943412Y-62719557D01*
X99132816Y-62623051D01*
X99304792Y-62498104D01*
X99455104Y-62347792D01*
X99574456Y-62183517D01*
X99634396Y-62134979D01*
X99710574Y-62122913D01*
X99782580Y-62150553D01*
X99815544Y-62183517D01*
X99934896Y-62347792D01*
X100085208Y-62498104D01*
X100257184Y-62623051D01*
X100446588Y-62719557D01*
X100648757Y-62785246D01*
X100858713Y-62818500D01*
X100858718Y-62818500D01*
X101071282Y-62818500D01*
X101071287Y-62818500D01*
X101281243Y-62785246D01*
X101483412Y-62719557D01*
X101672816Y-62623051D01*
X101844792Y-62498104D01*
X101995104Y-62347792D01*
X102114456Y-62183517D01*
X102174396Y-62134979D01*
X102250574Y-62122913D01*
X102322580Y-62150553D01*
X102355544Y-62183517D01*
X102474896Y-62347792D01*
X102625208Y-62498104D01*
X102797184Y-62623051D01*
X102986588Y-62719557D01*
X103188757Y-62785246D01*
X103398713Y-62818500D01*
X103398718Y-62818500D01*
X103611282Y-62818500D01*
X103611287Y-62818500D01*
X103821243Y-62785246D01*
X104023412Y-62719557D01*
X104212816Y-62623051D01*
X104384792Y-62498104D01*
X104535104Y-62347792D01*
X104654767Y-62183089D01*
X104714704Y-62134552D01*
X104790883Y-62122486D01*
X104862888Y-62150126D01*
X104895852Y-62183089D01*
X104929729Y-62229716D01*
X105562037Y-61597408D01*
X105579075Y-61660993D01*
X105644901Y-61775007D01*
X105737993Y-61868099D01*
X105852007Y-61933925D01*
X105915590Y-61950962D01*
X105283282Y-62583270D01*
X105337444Y-62622621D01*
X105337444Y-62622622D01*
X105526779Y-62719093D01*
X105728871Y-62784757D01*
X105938758Y-62818000D01*
X106151242Y-62818000D01*
X106361128Y-62784757D01*
X106563220Y-62719093D01*
X106752555Y-62622622D01*
X106752557Y-62622620D01*
X106806716Y-62583270D01*
X106806716Y-62583269D01*
X106174409Y-61950962D01*
X106237993Y-61933925D01*
X106352007Y-61868099D01*
X106445099Y-61775007D01*
X106510925Y-61660993D01*
X106527962Y-61597409D01*
X107160269Y-62229716D01*
X107160270Y-62229716D01*
X107199620Y-62175557D01*
X107199622Y-62175555D01*
X107296093Y-61986220D01*
X107361757Y-61784128D01*
X107395000Y-61574242D01*
X107395000Y-61361757D01*
X107361757Y-61151871D01*
X107296093Y-60949779D01*
X107199621Y-60760444D01*
X107160270Y-60706282D01*
X106527962Y-61338589D01*
X106510925Y-61275007D01*
X106445099Y-61160993D01*
X106352007Y-61067901D01*
X106237993Y-61002075D01*
X106174408Y-60985037D01*
X106806716Y-60352729D01*
X106806716Y-60352728D01*
X106752555Y-60313378D01*
X106752555Y-60313377D01*
X106563222Y-60216906D01*
X106391334Y-60161057D01*
X106326649Y-60119050D01*
X106291634Y-60050329D01*
X106295671Y-59973306D01*
X106332017Y-59913994D01*
X106635366Y-59610644D01*
X106702159Y-59572082D01*
X106764033Y-59568840D01*
X106837648Y-59580500D01*
X107042347Y-59580500D01*
X107042352Y-59580500D01*
X107244534Y-59548477D01*
X107439219Y-59485220D01*
X107621610Y-59392287D01*
X107787219Y-59271966D01*
X107931966Y-59127219D01*
X108052287Y-58961610D01*
X108077240Y-58912636D01*
X108128848Y-58855319D01*
X108202202Y-58831485D01*
X108277644Y-58847521D01*
X108334962Y-58899129D01*
X108342760Y-58912637D01*
X108367712Y-58961609D01*
X108488028Y-59127212D01*
X108488035Y-59127220D01*
X108632779Y-59271964D01*
X108632787Y-59271971D01*
X108775576Y-59375712D01*
X108798390Y-59392287D01*
X108980781Y-59485220D01*
X109175466Y-59548477D01*
X109377648Y-59580500D01*
X109377653Y-59580500D01*
X109582347Y-59580500D01*
X109582352Y-59580500D01*
X109784534Y-59548477D01*
X109979219Y-59485220D01*
X110161610Y-59392287D01*
X110327219Y-59271966D01*
X110471966Y-59127219D01*
X110592287Y-58961610D01*
X110617240Y-58912636D01*
X110668848Y-58855319D01*
X110742202Y-58831485D01*
X110817644Y-58847521D01*
X110874962Y-58899129D01*
X110882760Y-58912637D01*
X110907712Y-58961609D01*
X111028028Y-59127212D01*
X111028035Y-59127220D01*
X111172779Y-59271964D01*
X111172787Y-59271971D01*
X111315576Y-59375712D01*
X111338390Y-59392287D01*
X111520781Y-59485220D01*
X111715466Y-59548477D01*
X111917648Y-59580500D01*
X111917653Y-59580500D01*
X112122347Y-59580500D01*
X112122352Y-59580500D01*
X112324534Y-59548477D01*
X112519219Y-59485220D01*
X112701610Y-59392287D01*
X112867219Y-59271966D01*
X113011966Y-59127219D01*
X113132287Y-58961610D01*
X113157240Y-58912636D01*
X113208848Y-58855319D01*
X113282202Y-58831485D01*
X113357644Y-58847521D01*
G37*
%TD.AperFunction*%
%TA.AperFunction,Conductor*%
G36*
X119596043Y-64070707D02*
G01*
X119660728Y-64112713D01*
X119691707Y-64166371D01*
X119707449Y-64214822D01*
X119707451Y-64214828D01*
X119707453Y-64214832D01*
X119793240Y-64383199D01*
X119904310Y-64536073D01*
X120037927Y-64669690D01*
X120135940Y-64740901D01*
X120184476Y-64800838D01*
X120196542Y-64877017D01*
X120168902Y-64949022D01*
X120135939Y-64981984D01*
X120044939Y-65048100D01*
X120044925Y-65048112D01*
X119911312Y-65181725D01*
X119911303Y-65181736D01*
X119800241Y-65334599D01*
X119800238Y-65334604D01*
X119714458Y-65502957D01*
X119714452Y-65502971D01*
X119698444Y-65552238D01*
X119656436Y-65616923D01*
X119587714Y-65651937D01*
X119510692Y-65647900D01*
X119446007Y-65605892D01*
X119415030Y-65552237D01*
X119399083Y-65503157D01*
X119313330Y-65334861D01*
X119313325Y-65334852D01*
X119294884Y-65309470D01*
X119294882Y-65309470D01*
X118637000Y-65967353D01*
X118637000Y-65917722D01*
X118613148Y-65828705D01*
X118567070Y-65748895D01*
X118501905Y-65683730D01*
X118422095Y-65637652D01*
X118333078Y-65613800D01*
X118283445Y-65613800D01*
X118941328Y-64955915D01*
X118940029Y-64939411D01*
X118922099Y-64917269D01*
X118910033Y-64841091D01*
X118937673Y-64769086D01*
X118970631Y-64736126D01*
X119062073Y-64669690D01*
X119195690Y-64536073D01*
X119306760Y-64383199D01*
X119392547Y-64214832D01*
X119408293Y-64166370D01*
X119450299Y-64101686D01*
X119519021Y-64066670D01*
X119596043Y-64070707D01*
G37*
%TD.AperFunction*%
%TA.AperFunction,Conductor*%
G36*
X119003599Y-59843919D02*
G01*
X119037450Y-59843919D01*
X119041784Y-59846421D01*
X119046780Y-59846749D01*
X119074929Y-59865557D01*
X119104245Y-59882483D01*
X119106747Y-59886817D01*
X119110910Y-59889599D01*
X119126889Y-59921704D01*
X119142809Y-59949278D01*
X119144744Y-59957578D01*
X119144806Y-59957702D01*
X119144933Y-59958319D01*
X119178909Y-60129127D01*
X119181513Y-60135413D01*
X119256211Y-60315751D01*
X119256216Y-60315761D01*
X119344322Y-60447619D01*
X119368442Y-60483718D01*
X119368445Y-60483721D01*
X119474718Y-60589994D01*
X119513282Y-60656789D01*
X119513282Y-60733917D01*
X119474718Y-60800712D01*
X119368833Y-60906596D01*
X119368829Y-60906601D01*
X119256656Y-61074478D01*
X119256655Y-61074481D01*
X119179391Y-61261014D01*
X119179389Y-61261020D01*
X119169647Y-61309999D01*
X119169647Y-61310000D01*
X120109670Y-61310000D01*
X120089925Y-61329745D01*
X120040556Y-61415255D01*
X120015000Y-61510630D01*
X120015000Y-61609370D01*
X120040556Y-61704745D01*
X120089925Y-61790255D01*
X120109670Y-61810000D01*
X119169647Y-61810000D01*
X119179389Y-61858979D01*
X119179391Y-61858985D01*
X119256655Y-62045518D01*
X119256656Y-62045521D01*
X119368829Y-62213398D01*
X119368833Y-62213403D01*
X119511596Y-62356166D01*
X119511601Y-62356170D01*
X119679478Y-62468343D01*
X119679481Y-62468344D01*
X119866014Y-62545608D01*
X119866020Y-62545610D01*
X119983158Y-62568910D01*
X120052332Y-62603022D01*
X120095182Y-62667152D01*
X120100227Y-62744115D01*
X120066115Y-62813289D01*
X120041676Y-62835586D01*
X120037936Y-62838303D01*
X120037925Y-62838312D01*
X119904312Y-62971925D01*
X119904303Y-62971936D01*
X119793241Y-63124799D01*
X119793238Y-63124804D01*
X119707458Y-63293157D01*
X119707451Y-63293174D01*
X119691707Y-63341629D01*
X119649700Y-63406314D01*
X119580978Y-63441329D01*
X119503956Y-63437292D01*
X119439271Y-63395285D01*
X119408293Y-63341629D01*
X119392547Y-63293168D01*
X119306760Y-63124801D01*
X119195690Y-62971927D01*
X119062073Y-62838310D01*
X119062069Y-62838307D01*
X119062066Y-62838304D01*
X118987067Y-62783814D01*
X118944805Y-62736361D01*
X118940415Y-62728563D01*
X118922929Y-62686347D01*
X118886245Y-62631445D01*
X118843532Y-62567520D01*
X117121746Y-60845734D01*
X117088036Y-60793863D01*
X117086622Y-60790189D01*
X117063547Y-60719168D01*
X117046253Y-60685226D01*
X117043469Y-60677988D01*
X117040201Y-60647089D01*
X117033742Y-60616702D01*
X117036190Y-60609166D01*
X117035357Y-60601287D01*
X117047975Y-60572896D01*
X117057576Y-60543348D01*
X117063464Y-60538046D01*
X117066682Y-60530807D01*
X117091806Y-60512527D01*
X117114894Y-60491740D01*
X117123079Y-60489774D01*
X117129050Y-60485431D01*
X117150717Y-60483139D01*
X117182538Y-60475500D01*
X118071451Y-60475500D01*
X118071455Y-60475500D01*
X118211620Y-60447619D01*
X118343653Y-60392929D01*
X118350882Y-60388099D01*
X118462480Y-60313532D01*
X118893530Y-59882481D01*
X118897861Y-59879980D01*
X118900643Y-59875818D01*
X118931005Y-59860844D01*
X118960322Y-59843919D01*
X118965327Y-59843919D01*
X118969817Y-59841705D01*
X119003599Y-59843919D01*
G37*
%TD.AperFunction*%
%TD*%
M02*
