%TF.GenerationSoftware,KiCad,Pcbnew,9.0.6*%
%TF.CreationDate,2026-02-19T20:59:12+01:00*%
%TF.ProjectId,TankIR_Breaker,54616e6b-4952-45f4-9272-65616b65722e,rev?*%
%TF.SameCoordinates,Original*%
%TF.FileFunction,Legend,Top*%
%TF.FilePolarity,Positive*%
%FSLAX46Y46*%
G04 Gerber Fmt 4.6, Leading zero omitted, Abs format (unit mm)*
G04 Created by KiCad (PCBNEW 9.0.6) date 2026-02-19 20:59:12*
%MOMM*%
%LPD*%
G01*
G04 APERTURE LIST*
%ADD10C,0.100000*%
%ADD11C,0.150000*%
%ADD12C,0.120000*%
G04 APERTURE END LIST*
D10*
X85137217Y-65848609D02*
X85280074Y-65896228D01*
X85280074Y-65896228D02*
X85327693Y-65943847D01*
X85327693Y-65943847D02*
X85375312Y-66039085D01*
X85375312Y-66039085D02*
X85375312Y-66181942D01*
X85375312Y-66181942D02*
X85327693Y-66277180D01*
X85327693Y-66277180D02*
X85280074Y-66324800D01*
X85280074Y-66324800D02*
X85184836Y-66372419D01*
X85184836Y-66372419D02*
X84803884Y-66372419D01*
X84803884Y-66372419D02*
X84803884Y-65372419D01*
X84803884Y-65372419D02*
X85137217Y-65372419D01*
X85137217Y-65372419D02*
X85232455Y-65420038D01*
X85232455Y-65420038D02*
X85280074Y-65467657D01*
X85280074Y-65467657D02*
X85327693Y-65562895D01*
X85327693Y-65562895D02*
X85327693Y-65658133D01*
X85327693Y-65658133D02*
X85280074Y-65753371D01*
X85280074Y-65753371D02*
X85232455Y-65800990D01*
X85232455Y-65800990D02*
X85137217Y-65848609D01*
X85137217Y-65848609D02*
X84803884Y-65848609D01*
X85756265Y-66086704D02*
X86232455Y-66086704D01*
X85661027Y-66372419D02*
X85994360Y-65372419D01*
X85994360Y-65372419D02*
X86327693Y-66372419D01*
X86518170Y-65372419D02*
X87089598Y-65372419D01*
X86803884Y-66372419D02*
X86803884Y-65372419D01*
X87280075Y-65372419D02*
X87851503Y-65372419D01*
X87565789Y-66372419D02*
X87565789Y-65372419D01*
X88184837Y-65848609D02*
X88518170Y-65848609D01*
X88661027Y-66372419D02*
X88184837Y-66372419D01*
X88184837Y-66372419D02*
X88184837Y-65372419D01*
X88184837Y-65372419D02*
X88661027Y-65372419D01*
X89661027Y-66372419D02*
X89327694Y-65896228D01*
X89089599Y-66372419D02*
X89089599Y-65372419D01*
X89089599Y-65372419D02*
X89470551Y-65372419D01*
X89470551Y-65372419D02*
X89565789Y-65420038D01*
X89565789Y-65420038D02*
X89613408Y-65467657D01*
X89613408Y-65467657D02*
X89661027Y-65562895D01*
X89661027Y-65562895D02*
X89661027Y-65705752D01*
X89661027Y-65705752D02*
X89613408Y-65800990D01*
X89613408Y-65800990D02*
X89565789Y-65848609D01*
X89565789Y-65848609D02*
X89470551Y-65896228D01*
X89470551Y-65896228D02*
X89089599Y-65896228D01*
X90280075Y-65896228D02*
X90280075Y-66372419D01*
X89946742Y-65372419D02*
X90280075Y-65896228D01*
X90280075Y-65896228D02*
X90613408Y-65372419D01*
X107903884Y-65972419D02*
X107903884Y-64972419D01*
X107903884Y-64972419D02*
X108237217Y-65686704D01*
X108237217Y-65686704D02*
X108570550Y-64972419D01*
X108570550Y-64972419D02*
X108570550Y-65972419D01*
X109046741Y-64972419D02*
X109046741Y-65781942D01*
X109046741Y-65781942D02*
X109094360Y-65877180D01*
X109094360Y-65877180D02*
X109141979Y-65924800D01*
X109141979Y-65924800D02*
X109237217Y-65972419D01*
X109237217Y-65972419D02*
X109427693Y-65972419D01*
X109427693Y-65972419D02*
X109522931Y-65924800D01*
X109522931Y-65924800D02*
X109570550Y-65877180D01*
X109570550Y-65877180D02*
X109618169Y-65781942D01*
X109618169Y-65781942D02*
X109618169Y-64972419D01*
X109999122Y-64972419D02*
X110665788Y-64972419D01*
X110665788Y-64972419D02*
X109999122Y-65972419D01*
X109999122Y-65972419D02*
X110665788Y-65972419D01*
X110951503Y-64972419D02*
X111618169Y-64972419D01*
X111618169Y-64972419D02*
X110951503Y-65972419D01*
X110951503Y-65972419D02*
X111618169Y-65972419D01*
X112475312Y-65972419D02*
X111999122Y-65972419D01*
X111999122Y-65972419D02*
X111999122Y-64972419D01*
X112808646Y-65448609D02*
X113141979Y-65448609D01*
X113284836Y-65972419D02*
X112808646Y-65972419D01*
X112808646Y-65972419D02*
X112808646Y-64972419D01*
X112808646Y-64972419D02*
X113284836Y-64972419D01*
X106003884Y-66372419D02*
X106003884Y-65372419D01*
X107051502Y-66372419D02*
X106718169Y-65896228D01*
X106480074Y-66372419D02*
X106480074Y-65372419D01*
X106480074Y-65372419D02*
X106861026Y-65372419D01*
X106861026Y-65372419D02*
X106956264Y-65420038D01*
X106956264Y-65420038D02*
X107003883Y-65467657D01*
X107003883Y-65467657D02*
X107051502Y-65562895D01*
X107051502Y-65562895D02*
X107051502Y-65705752D01*
X107051502Y-65705752D02*
X107003883Y-65800990D01*
X107003883Y-65800990D02*
X106956264Y-65848609D01*
X106956264Y-65848609D02*
X106861026Y-65896228D01*
X106861026Y-65896228D02*
X106480074Y-65896228D01*
X100656265Y-66586704D02*
X101132455Y-66586704D01*
X100561027Y-66872419D02*
X100894360Y-65872419D01*
X100894360Y-65872419D02*
X101227693Y-66872419D01*
X101561027Y-66872419D02*
X101561027Y-65872419D01*
X101561027Y-65872419D02*
X101941979Y-65872419D01*
X101941979Y-65872419D02*
X102037217Y-65920038D01*
X102037217Y-65920038D02*
X102084836Y-65967657D01*
X102084836Y-65967657D02*
X102132455Y-66062895D01*
X102132455Y-66062895D02*
X102132455Y-66205752D01*
X102132455Y-66205752D02*
X102084836Y-66300990D01*
X102084836Y-66300990D02*
X102037217Y-66348609D01*
X102037217Y-66348609D02*
X101941979Y-66396228D01*
X101941979Y-66396228D02*
X101561027Y-66396228D01*
X102561027Y-66872419D02*
X102561027Y-65872419D01*
X102561027Y-65872419D02*
X102941979Y-65872419D01*
X102941979Y-65872419D02*
X103037217Y-65920038D01*
X103037217Y-65920038D02*
X103084836Y-65967657D01*
X103084836Y-65967657D02*
X103132455Y-66062895D01*
X103132455Y-66062895D02*
X103132455Y-66205752D01*
X103132455Y-66205752D02*
X103084836Y-66300990D01*
X103084836Y-66300990D02*
X103037217Y-66348609D01*
X103037217Y-66348609D02*
X102941979Y-66396228D01*
X102941979Y-66396228D02*
X102561027Y-66396228D01*
X104037217Y-66872419D02*
X103561027Y-66872419D01*
X103561027Y-66872419D02*
X103561027Y-65872419D01*
X104370551Y-66348609D02*
X104703884Y-66348609D01*
X104846741Y-66872419D02*
X104370551Y-66872419D01*
X104370551Y-66872419D02*
X104370551Y-65872419D01*
X104370551Y-65872419D02*
X104846741Y-65872419D01*
X100575312Y-65372419D02*
X100241979Y-64896228D01*
X100003884Y-65372419D02*
X100003884Y-64372419D01*
X100003884Y-64372419D02*
X100384836Y-64372419D01*
X100384836Y-64372419D02*
X100480074Y-64420038D01*
X100480074Y-64420038D02*
X100527693Y-64467657D01*
X100527693Y-64467657D02*
X100575312Y-64562895D01*
X100575312Y-64562895D02*
X100575312Y-64705752D01*
X100575312Y-64705752D02*
X100527693Y-64800990D01*
X100527693Y-64800990D02*
X100480074Y-64848609D01*
X100480074Y-64848609D02*
X100384836Y-64896228D01*
X100384836Y-64896228D02*
X100003884Y-64896228D01*
X101575312Y-65277180D02*
X101527693Y-65324800D01*
X101527693Y-65324800D02*
X101384836Y-65372419D01*
X101384836Y-65372419D02*
X101289598Y-65372419D01*
X101289598Y-65372419D02*
X101146741Y-65324800D01*
X101146741Y-65324800D02*
X101051503Y-65229561D01*
X101051503Y-65229561D02*
X101003884Y-65134323D01*
X101003884Y-65134323D02*
X100956265Y-64943847D01*
X100956265Y-64943847D02*
X100956265Y-64800990D01*
X100956265Y-64800990D02*
X101003884Y-64610514D01*
X101003884Y-64610514D02*
X101051503Y-64515276D01*
X101051503Y-64515276D02*
X101146741Y-64420038D01*
X101146741Y-64420038D02*
X101289598Y-64372419D01*
X101289598Y-64372419D02*
X101384836Y-64372419D01*
X101384836Y-64372419D02*
X101527693Y-64420038D01*
X101527693Y-64420038D02*
X101575312Y-64467657D01*
X101765789Y-65467657D02*
X102527693Y-65467657D01*
X102765789Y-65372419D02*
X102765789Y-64372419D01*
X103241979Y-65372419D02*
X103241979Y-64372419D01*
X103241979Y-64372419D02*
X103813407Y-65372419D01*
X103813407Y-65372419D02*
X103813407Y-64372419D01*
X101256265Y-63924800D02*
X101399122Y-63972419D01*
X101399122Y-63972419D02*
X101637217Y-63972419D01*
X101637217Y-63972419D02*
X101732455Y-63924800D01*
X101732455Y-63924800D02*
X101780074Y-63877180D01*
X101780074Y-63877180D02*
X101827693Y-63781942D01*
X101827693Y-63781942D02*
X101827693Y-63686704D01*
X101827693Y-63686704D02*
X101780074Y-63591466D01*
X101780074Y-63591466D02*
X101732455Y-63543847D01*
X101732455Y-63543847D02*
X101637217Y-63496228D01*
X101637217Y-63496228D02*
X101446741Y-63448609D01*
X101446741Y-63448609D02*
X101351503Y-63400990D01*
X101351503Y-63400990D02*
X101303884Y-63353371D01*
X101303884Y-63353371D02*
X101256265Y-63258133D01*
X101256265Y-63258133D02*
X101256265Y-63162895D01*
X101256265Y-63162895D02*
X101303884Y-63067657D01*
X101303884Y-63067657D02*
X101351503Y-63020038D01*
X101351503Y-63020038D02*
X101446741Y-62972419D01*
X101446741Y-62972419D02*
X101684836Y-62972419D01*
X101684836Y-62972419D02*
X101827693Y-63020038D01*
X102446741Y-62972419D02*
X102637217Y-62972419D01*
X102637217Y-62972419D02*
X102732455Y-63020038D01*
X102732455Y-63020038D02*
X102827693Y-63115276D01*
X102827693Y-63115276D02*
X102875312Y-63305752D01*
X102875312Y-63305752D02*
X102875312Y-63639085D01*
X102875312Y-63639085D02*
X102827693Y-63829561D01*
X102827693Y-63829561D02*
X102732455Y-63924800D01*
X102732455Y-63924800D02*
X102637217Y-63972419D01*
X102637217Y-63972419D02*
X102446741Y-63972419D01*
X102446741Y-63972419D02*
X102351503Y-63924800D01*
X102351503Y-63924800D02*
X102256265Y-63829561D01*
X102256265Y-63829561D02*
X102208646Y-63639085D01*
X102208646Y-63639085D02*
X102208646Y-63305752D01*
X102208646Y-63305752D02*
X102256265Y-63115276D01*
X102256265Y-63115276D02*
X102351503Y-63020038D01*
X102351503Y-63020038D02*
X102446741Y-62972419D01*
X103303884Y-62972419D02*
X103303884Y-63781942D01*
X103303884Y-63781942D02*
X103351503Y-63877180D01*
X103351503Y-63877180D02*
X103399122Y-63924800D01*
X103399122Y-63924800D02*
X103494360Y-63972419D01*
X103494360Y-63972419D02*
X103684836Y-63972419D01*
X103684836Y-63972419D02*
X103780074Y-63924800D01*
X103780074Y-63924800D02*
X103827693Y-63877180D01*
X103827693Y-63877180D02*
X103875312Y-63781942D01*
X103875312Y-63781942D02*
X103875312Y-62972419D01*
X104351503Y-63972419D02*
X104351503Y-62972419D01*
X104351503Y-62972419D02*
X104922931Y-63972419D01*
X104922931Y-63972419D02*
X104922931Y-62972419D01*
X105399122Y-63972419D02*
X105399122Y-62972419D01*
X105399122Y-62972419D02*
X105637217Y-62972419D01*
X105637217Y-62972419D02*
X105780074Y-63020038D01*
X105780074Y-63020038D02*
X105875312Y-63115276D01*
X105875312Y-63115276D02*
X105922931Y-63210514D01*
X105922931Y-63210514D02*
X105970550Y-63400990D01*
X105970550Y-63400990D02*
X105970550Y-63543847D01*
X105970550Y-63543847D02*
X105922931Y-63734323D01*
X105922931Y-63734323D02*
X105875312Y-63829561D01*
X105875312Y-63829561D02*
X105780074Y-63924800D01*
X105780074Y-63924800D02*
X105637217Y-63972419D01*
X105637217Y-63972419D02*
X105399122Y-63972419D01*
X90972419Y-62938972D02*
X90972419Y-62367544D01*
X91972419Y-62653258D02*
X90972419Y-62653258D01*
X91972419Y-61462782D02*
X91496228Y-61796115D01*
X91972419Y-62034210D02*
X90972419Y-62034210D01*
X90972419Y-62034210D02*
X90972419Y-61653258D01*
X90972419Y-61653258D02*
X91020038Y-61558020D01*
X91020038Y-61558020D02*
X91067657Y-61510401D01*
X91067657Y-61510401D02*
X91162895Y-61462782D01*
X91162895Y-61462782D02*
X91305752Y-61462782D01*
X91305752Y-61462782D02*
X91400990Y-61510401D01*
X91400990Y-61510401D02*
X91448609Y-61558020D01*
X91448609Y-61558020D02*
X91496228Y-61653258D01*
X91496228Y-61653258D02*
X91496228Y-62034210D01*
X91972419Y-61034210D02*
X90972419Y-61034210D01*
X91020038Y-60034211D02*
X90972419Y-60129449D01*
X90972419Y-60129449D02*
X90972419Y-60272306D01*
X90972419Y-60272306D02*
X91020038Y-60415163D01*
X91020038Y-60415163D02*
X91115276Y-60510401D01*
X91115276Y-60510401D02*
X91210514Y-60558020D01*
X91210514Y-60558020D02*
X91400990Y-60605639D01*
X91400990Y-60605639D02*
X91543847Y-60605639D01*
X91543847Y-60605639D02*
X91734323Y-60558020D01*
X91734323Y-60558020D02*
X91829561Y-60510401D01*
X91829561Y-60510401D02*
X91924800Y-60415163D01*
X91924800Y-60415163D02*
X91972419Y-60272306D01*
X91972419Y-60272306D02*
X91972419Y-60177068D01*
X91972419Y-60177068D02*
X91924800Y-60034211D01*
X91924800Y-60034211D02*
X91877180Y-59986592D01*
X91877180Y-59986592D02*
X91543847Y-59986592D01*
X91543847Y-59986592D02*
X91543847Y-60177068D01*
D11*
X113354819Y-68666666D02*
X112878628Y-68999999D01*
X113354819Y-69238094D02*
X112354819Y-69238094D01*
X112354819Y-69238094D02*
X112354819Y-68857142D01*
X112354819Y-68857142D02*
X112402438Y-68761904D01*
X112402438Y-68761904D02*
X112450057Y-68714285D01*
X112450057Y-68714285D02*
X112545295Y-68666666D01*
X112545295Y-68666666D02*
X112688152Y-68666666D01*
X112688152Y-68666666D02*
X112783390Y-68714285D01*
X112783390Y-68714285D02*
X112831009Y-68761904D01*
X112831009Y-68761904D02*
X112878628Y-68857142D01*
X112878628Y-68857142D02*
X112878628Y-69238094D01*
X112354819Y-68333332D02*
X112354819Y-67714285D01*
X112354819Y-67714285D02*
X112735771Y-68047618D01*
X112735771Y-68047618D02*
X112735771Y-67904761D01*
X112735771Y-67904761D02*
X112783390Y-67809523D01*
X112783390Y-67809523D02*
X112831009Y-67761904D01*
X112831009Y-67761904D02*
X112926247Y-67714285D01*
X112926247Y-67714285D02*
X113164342Y-67714285D01*
X113164342Y-67714285D02*
X113259580Y-67761904D01*
X113259580Y-67761904D02*
X113307200Y-67809523D01*
X113307200Y-67809523D02*
X113354819Y-67904761D01*
X113354819Y-67904761D02*
X113354819Y-68190475D01*
X113354819Y-68190475D02*
X113307200Y-68285713D01*
X113307200Y-68285713D02*
X113259580Y-68333332D01*
X120533333Y-65954819D02*
X120200000Y-65478628D01*
X119961905Y-65954819D02*
X119961905Y-64954819D01*
X119961905Y-64954819D02*
X120342857Y-64954819D01*
X120342857Y-64954819D02*
X120438095Y-65002438D01*
X120438095Y-65002438D02*
X120485714Y-65050057D01*
X120485714Y-65050057D02*
X120533333Y-65145295D01*
X120533333Y-65145295D02*
X120533333Y-65288152D01*
X120533333Y-65288152D02*
X120485714Y-65383390D01*
X120485714Y-65383390D02*
X120438095Y-65431009D01*
X120438095Y-65431009D02*
X120342857Y-65478628D01*
X120342857Y-65478628D02*
X119961905Y-65478628D01*
X120914286Y-65050057D02*
X120961905Y-65002438D01*
X120961905Y-65002438D02*
X121057143Y-64954819D01*
X121057143Y-64954819D02*
X121295238Y-64954819D01*
X121295238Y-64954819D02*
X121390476Y-65002438D01*
X121390476Y-65002438D02*
X121438095Y-65050057D01*
X121438095Y-65050057D02*
X121485714Y-65145295D01*
X121485714Y-65145295D02*
X121485714Y-65240533D01*
X121485714Y-65240533D02*
X121438095Y-65383390D01*
X121438095Y-65383390D02*
X120866667Y-65954819D01*
X120866667Y-65954819D02*
X121485714Y-65954819D01*
X117933333Y-66654819D02*
X117600000Y-66178628D01*
X117361905Y-66654819D02*
X117361905Y-65654819D01*
X117361905Y-65654819D02*
X117742857Y-65654819D01*
X117742857Y-65654819D02*
X117838095Y-65702438D01*
X117838095Y-65702438D02*
X117885714Y-65750057D01*
X117885714Y-65750057D02*
X117933333Y-65845295D01*
X117933333Y-65845295D02*
X117933333Y-65988152D01*
X117933333Y-65988152D02*
X117885714Y-66083390D01*
X117885714Y-66083390D02*
X117838095Y-66131009D01*
X117838095Y-66131009D02*
X117742857Y-66178628D01*
X117742857Y-66178628D02*
X117361905Y-66178628D01*
X118885714Y-66654819D02*
X118314286Y-66654819D01*
X118600000Y-66654819D02*
X118600000Y-65654819D01*
X118600000Y-65654819D02*
X118504762Y-65797676D01*
X118504762Y-65797676D02*
X118409524Y-65892914D01*
X118409524Y-65892914D02*
X118314286Y-65940533D01*
X116704761Y-60380057D02*
X116609523Y-60332438D01*
X116609523Y-60332438D02*
X116514285Y-60237200D01*
X116514285Y-60237200D02*
X116371428Y-60094342D01*
X116371428Y-60094342D02*
X116276190Y-60046723D01*
X116276190Y-60046723D02*
X116180952Y-60046723D01*
X116228571Y-60284819D02*
X116133333Y-60237200D01*
X116133333Y-60237200D02*
X116038095Y-60141961D01*
X116038095Y-60141961D02*
X115990476Y-59951485D01*
X115990476Y-59951485D02*
X115990476Y-59618152D01*
X115990476Y-59618152D02*
X116038095Y-59427676D01*
X116038095Y-59427676D02*
X116133333Y-59332438D01*
X116133333Y-59332438D02*
X116228571Y-59284819D01*
X116228571Y-59284819D02*
X116419047Y-59284819D01*
X116419047Y-59284819D02*
X116514285Y-59332438D01*
X116514285Y-59332438D02*
X116609523Y-59427676D01*
X116609523Y-59427676D02*
X116657142Y-59618152D01*
X116657142Y-59618152D02*
X116657142Y-59951485D01*
X116657142Y-59951485D02*
X116609523Y-60141961D01*
X116609523Y-60141961D02*
X116514285Y-60237200D01*
X116514285Y-60237200D02*
X116419047Y-60284819D01*
X116419047Y-60284819D02*
X116228571Y-60284819D01*
X117038095Y-59380057D02*
X117085714Y-59332438D01*
X117085714Y-59332438D02*
X117180952Y-59284819D01*
X117180952Y-59284819D02*
X117419047Y-59284819D01*
X117419047Y-59284819D02*
X117514285Y-59332438D01*
X117514285Y-59332438D02*
X117561904Y-59380057D01*
X117561904Y-59380057D02*
X117609523Y-59475295D01*
X117609523Y-59475295D02*
X117609523Y-59570533D01*
X117609523Y-59570533D02*
X117561904Y-59713390D01*
X117561904Y-59713390D02*
X116990476Y-60284819D01*
X116990476Y-60284819D02*
X117609523Y-60284819D01*
X116804761Y-72650057D02*
X116709523Y-72602438D01*
X116709523Y-72602438D02*
X116614285Y-72507200D01*
X116614285Y-72507200D02*
X116471428Y-72364342D01*
X116471428Y-72364342D02*
X116376190Y-72316723D01*
X116376190Y-72316723D02*
X116280952Y-72316723D01*
X116328571Y-72554819D02*
X116233333Y-72507200D01*
X116233333Y-72507200D02*
X116138095Y-72411961D01*
X116138095Y-72411961D02*
X116090476Y-72221485D01*
X116090476Y-72221485D02*
X116090476Y-71888152D01*
X116090476Y-71888152D02*
X116138095Y-71697676D01*
X116138095Y-71697676D02*
X116233333Y-71602438D01*
X116233333Y-71602438D02*
X116328571Y-71554819D01*
X116328571Y-71554819D02*
X116519047Y-71554819D01*
X116519047Y-71554819D02*
X116614285Y-71602438D01*
X116614285Y-71602438D02*
X116709523Y-71697676D01*
X116709523Y-71697676D02*
X116757142Y-71888152D01*
X116757142Y-71888152D02*
X116757142Y-72221485D01*
X116757142Y-72221485D02*
X116709523Y-72411961D01*
X116709523Y-72411961D02*
X116614285Y-72507200D01*
X116614285Y-72507200D02*
X116519047Y-72554819D01*
X116519047Y-72554819D02*
X116328571Y-72554819D01*
X117709523Y-72554819D02*
X117138095Y-72554819D01*
X117423809Y-72554819D02*
X117423809Y-71554819D01*
X117423809Y-71554819D02*
X117328571Y-71697676D01*
X117328571Y-71697676D02*
X117233333Y-71792914D01*
X117233333Y-71792914D02*
X117138095Y-71840533D01*
X78054819Y-60661904D02*
X78864342Y-60661904D01*
X78864342Y-60661904D02*
X78959580Y-60614285D01*
X78959580Y-60614285D02*
X79007200Y-60566666D01*
X79007200Y-60566666D02*
X79054819Y-60471428D01*
X79054819Y-60471428D02*
X79054819Y-60280952D01*
X79054819Y-60280952D02*
X79007200Y-60185714D01*
X79007200Y-60185714D02*
X78959580Y-60138095D01*
X78959580Y-60138095D02*
X78864342Y-60090476D01*
X78864342Y-60090476D02*
X78054819Y-60090476D01*
X79054819Y-59090476D02*
X79054819Y-59661904D01*
X79054819Y-59376190D02*
X78054819Y-59376190D01*
X78054819Y-59376190D02*
X78197676Y-59471428D01*
X78197676Y-59471428D02*
X78292914Y-59566666D01*
X78292914Y-59566666D02*
X78340533Y-59661904D01*
D12*
%TO.C,A1*%
X121020000Y-74920000D02*
X121020000Y-69840000D01*
X121020000Y-56880000D02*
X121020000Y-61960000D01*
X121020000Y-56880000D02*
X77580000Y-56880000D01*
X118350000Y-72250000D02*
X118350000Y-74920000D01*
X118350000Y-59550000D02*
X118350000Y-56880000D01*
X82790000Y-74920000D02*
X121020000Y-74920000D01*
X82790000Y-72250000D02*
X118350000Y-72250000D01*
X82790000Y-72250000D02*
X82790000Y-74920000D01*
X82790000Y-72250000D02*
X80250000Y-72250000D01*
X80250000Y-72250000D02*
X80250000Y-74920000D01*
X80250000Y-59550000D02*
X118350000Y-59550000D01*
X80250000Y-59550000D02*
X80250000Y-56880000D01*
X77580000Y-74920000D02*
X80250000Y-74920000D01*
X77580000Y-56880000D02*
X77580000Y-74920000D01*
%TO.C,R3*%
X115200000Y-70500000D02*
X114580000Y-70500000D01*
X117040000Y-70500000D02*
G75*
G02*
X115200000Y-70500000I-920000J0D01*
G01*
X115200000Y-70500000D02*
G75*
G02*
X117040000Y-70500000I920000J0D01*
G01*
%TO.C,R2*%
X119200000Y-63800000D02*
X119820000Y-63800000D01*
X119200000Y-63800000D02*
G75*
G02*
X117360000Y-63800000I-920000J0D01*
G01*
X117360000Y-63800000D02*
G75*
G02*
X119200000Y-63800000I920000J0D01*
G01*
%TO.C,R1*%
X119200000Y-67900000D02*
X119820000Y-67900000D01*
X119200000Y-67900000D02*
G75*
G02*
X117360000Y-67900000I-920000J0D01*
G01*
X117360000Y-67900000D02*
G75*
G02*
X119200000Y-67900000I920000J0D01*
G01*
%TO.C,J2*%
X84240000Y-59940000D02*
X84240000Y-61190000D01*
X84540000Y-60240000D02*
X84540000Y-64960000D01*
X84540000Y-61550000D02*
X85150000Y-61550000D01*
X84540000Y-62850000D02*
X85150000Y-62850000D01*
X84540000Y-64960000D02*
X90660000Y-64960000D01*
X85150000Y-60850000D02*
X85150000Y-64350000D01*
X85150000Y-64350000D02*
X90050000Y-64350000D01*
X85490000Y-59940000D02*
X84240000Y-59940000D01*
X86000000Y-60040000D02*
X86000000Y-60240000D01*
X86300000Y-60040000D02*
X86000000Y-60040000D01*
X86300000Y-60140000D02*
X86000000Y-60140000D01*
X86300000Y-60240000D02*
X86300000Y-60040000D01*
X87100000Y-60240000D02*
X87100000Y-60850000D01*
X87100000Y-60850000D02*
X85150000Y-60850000D01*
X87500000Y-63850000D02*
X87700000Y-63850000D01*
X87500000Y-64350000D02*
X87500000Y-63850000D01*
X87600000Y-64350000D02*
X87600000Y-63850000D01*
X87700000Y-63850000D02*
X87700000Y-64350000D01*
X88100000Y-60850000D02*
X88100000Y-60240000D01*
X90050000Y-60850000D02*
X88100000Y-60850000D01*
X90050000Y-64350000D02*
X90050000Y-60850000D01*
X90660000Y-60240000D02*
X84540000Y-60240000D01*
X90660000Y-61550000D02*
X90050000Y-61550000D01*
X90660000Y-62850000D02*
X90050000Y-62850000D01*
X90660000Y-64960000D02*
X90660000Y-60240000D01*
%TO.C,Q2*%
X117750000Y-58030000D02*
X117750000Y-61630000D01*
X117761522Y-57991522D02*
G75*
G02*
X122200001Y-59830000I1838478J-1838478D01*
G01*
X122200000Y-59830000D02*
G75*
G02*
X117761522Y-61668478I-2600000J0D01*
G01*
%TO.C,J6*%
X93000000Y-62780000D02*
X93000000Y-61400000D01*
X94380000Y-62780000D02*
X93000000Y-62780000D01*
X95650000Y-60020000D02*
X105920000Y-60020000D01*
X95650000Y-62780000D02*
X95650000Y-60020000D01*
X95650000Y-62780000D02*
X105920000Y-62780000D01*
X105920000Y-62780000D02*
X105920000Y-60020000D01*
%TO.C,J7*%
X105040000Y-66740000D02*
X105040000Y-67990000D01*
X105340000Y-67040000D02*
X105340000Y-71760000D01*
X105340000Y-68350000D02*
X105950000Y-68350000D01*
X105340000Y-69650000D02*
X105950000Y-69650000D01*
X105340000Y-71760000D02*
X111460000Y-71760000D01*
X105950000Y-67650000D02*
X105950000Y-71150000D01*
X105950000Y-71150000D02*
X110850000Y-71150000D01*
X106290000Y-66740000D02*
X105040000Y-66740000D01*
X106800000Y-66840000D02*
X106800000Y-67040000D01*
X107100000Y-66840000D02*
X106800000Y-66840000D01*
X107100000Y-66940000D02*
X106800000Y-66940000D01*
X107100000Y-67040000D02*
X107100000Y-66840000D01*
X107900000Y-67040000D02*
X107900000Y-67650000D01*
X107900000Y-67650000D02*
X105950000Y-67650000D01*
X108300000Y-70650000D02*
X108500000Y-70650000D01*
X108300000Y-71150000D02*
X108300000Y-70650000D01*
X108400000Y-71150000D02*
X108400000Y-70650000D01*
X108500000Y-70650000D02*
X108500000Y-71150000D01*
X108900000Y-67650000D02*
X108900000Y-67040000D01*
X110850000Y-67650000D02*
X108900000Y-67650000D01*
X110850000Y-71150000D02*
X110850000Y-67650000D01*
X111460000Y-67040000D02*
X105340000Y-67040000D01*
X111460000Y-68350000D02*
X110850000Y-68350000D01*
X111460000Y-69650000D02*
X110850000Y-69650000D01*
X111460000Y-71760000D02*
X111460000Y-67040000D01*
%TO.C,J1*%
X84540000Y-66690000D02*
X84540000Y-71410000D01*
X84540000Y-68800000D02*
X85150000Y-68800000D01*
X84540000Y-70100000D02*
X85150000Y-70100000D01*
X84540000Y-71410000D02*
X90660000Y-71410000D01*
X85150000Y-67300000D02*
X85150000Y-70800000D01*
X85150000Y-70800000D02*
X87100000Y-70800000D01*
X87100000Y-70800000D02*
X87100000Y-71410000D01*
X87500000Y-67800000D02*
X87500000Y-67300000D01*
X87600000Y-67300000D02*
X87600000Y-67800000D01*
X87700000Y-67300000D02*
X87700000Y-67800000D01*
X87700000Y-67800000D02*
X87500000Y-67800000D01*
X88100000Y-70800000D02*
X90050000Y-70800000D01*
X88100000Y-71410000D02*
X88100000Y-70800000D01*
X88900000Y-71410000D02*
X88900000Y-71610000D01*
X88900000Y-71510000D02*
X89200000Y-71510000D01*
X88900000Y-71610000D02*
X89200000Y-71610000D01*
X89200000Y-71610000D02*
X89200000Y-71410000D01*
X89710000Y-71710000D02*
X90960000Y-71710000D01*
X90050000Y-67300000D02*
X85150000Y-67300000D01*
X90050000Y-70800000D02*
X90050000Y-67300000D01*
X90660000Y-66690000D02*
X84540000Y-66690000D01*
X90660000Y-68800000D02*
X90050000Y-68800000D01*
X90660000Y-70100000D02*
X90050000Y-70100000D01*
X90660000Y-71410000D02*
X90660000Y-66690000D01*
X90960000Y-71710000D02*
X90960000Y-70460000D01*
%TO.C,J5*%
X91440000Y-67040000D02*
X91440000Y-68290000D01*
X91740000Y-67340000D02*
X91740000Y-72060000D01*
X91740000Y-68650000D02*
X92350000Y-68650000D01*
X91740000Y-69950000D02*
X92350000Y-69950000D01*
X91740000Y-72060000D02*
X103860000Y-72060000D01*
X92350000Y-67950000D02*
X92350000Y-71450000D01*
X92350000Y-71450000D02*
X103250000Y-71450000D01*
X92690000Y-67040000D02*
X91440000Y-67040000D01*
X93200000Y-67140000D02*
X93200000Y-67340000D01*
X93500000Y-67140000D02*
X93200000Y-67140000D01*
X93500000Y-67240000D02*
X93200000Y-67240000D01*
X93500000Y-67340000D02*
X93500000Y-67140000D01*
X94300000Y-67340000D02*
X94300000Y-67950000D01*
X94300000Y-67950000D02*
X92350000Y-67950000D01*
X94700000Y-70950000D02*
X94900000Y-70950000D01*
X94700000Y-71450000D02*
X94700000Y-70950000D01*
X94800000Y-71450000D02*
X94800000Y-70950000D01*
X94900000Y-70950000D02*
X94900000Y-71450000D01*
X96700000Y-70950000D02*
X96900000Y-70950000D01*
X96700000Y-71450000D02*
X96700000Y-70950000D01*
X96800000Y-71450000D02*
X96800000Y-70950000D01*
X96900000Y-70950000D02*
X96900000Y-71450000D01*
X98700000Y-70950000D02*
X98900000Y-70950000D01*
X98700000Y-71450000D02*
X98700000Y-70950000D01*
X98800000Y-71450000D02*
X98800000Y-70950000D01*
X98900000Y-70950000D02*
X98900000Y-71450000D01*
X100700000Y-70950000D02*
X100900000Y-70950000D01*
X100700000Y-71450000D02*
X100700000Y-70950000D01*
X100800000Y-71450000D02*
X100800000Y-70950000D01*
X100900000Y-70950000D02*
X100900000Y-71450000D01*
X101300000Y-67950000D02*
X101300000Y-67340000D01*
X103250000Y-67950000D02*
X101300000Y-67950000D01*
X103250000Y-71450000D02*
X103250000Y-67950000D01*
X103860000Y-67340000D02*
X91740000Y-67340000D01*
X103860000Y-68650000D02*
X103250000Y-68650000D01*
X103860000Y-69950000D02*
X103250000Y-69950000D01*
X103860000Y-72060000D02*
X103860000Y-67340000D01*
%TO.C,J8*%
X106540000Y-59740000D02*
X106540000Y-60990000D01*
X106840000Y-60040000D02*
X106840000Y-64760000D01*
X106840000Y-61350000D02*
X107450000Y-61350000D01*
X106840000Y-62650000D02*
X107450000Y-62650000D01*
X106840000Y-64760000D02*
X112960000Y-64760000D01*
X107450000Y-60650000D02*
X107450000Y-64150000D01*
X107450000Y-64150000D02*
X112350000Y-64150000D01*
X107790000Y-59740000D02*
X106540000Y-59740000D01*
X108300000Y-59840000D02*
X108300000Y-60040000D01*
X108600000Y-59840000D02*
X108300000Y-59840000D01*
X108600000Y-59940000D02*
X108300000Y-59940000D01*
X108600000Y-60040000D02*
X108600000Y-59840000D01*
X109400000Y-60040000D02*
X109400000Y-60650000D01*
X109400000Y-60650000D02*
X107450000Y-60650000D01*
X109800000Y-63650000D02*
X110000000Y-63650000D01*
X109800000Y-64150000D02*
X109800000Y-63650000D01*
X109900000Y-64150000D02*
X109900000Y-63650000D01*
X110000000Y-63650000D02*
X110000000Y-64150000D01*
X110400000Y-60650000D02*
X110400000Y-60040000D01*
X112350000Y-60650000D02*
X110400000Y-60650000D01*
X112350000Y-64150000D02*
X112350000Y-60650000D01*
X112960000Y-60040000D02*
X106840000Y-60040000D01*
X112960000Y-61350000D02*
X112350000Y-61350000D01*
X112960000Y-62650000D02*
X112350000Y-62650000D01*
X112960000Y-64760000D02*
X112960000Y-60040000D01*
%TO.C,Q1*%
X117790000Y-70300000D02*
X117790000Y-73900000D01*
X117801522Y-70261522D02*
G75*
G02*
X122240001Y-72100000I1838478J-1838478D01*
G01*
X122240000Y-72100000D02*
G75*
G02*
X117801522Y-73938478I-2600000J0D01*
G01*
%TO.C,J3*%
X114020000Y-60480000D02*
X115400000Y-60480000D01*
X114020000Y-61860000D02*
X114020000Y-60480000D01*
X114020000Y-63130000D02*
X114020000Y-68320000D01*
X114020000Y-63130000D02*
X116780000Y-63130000D01*
X114020000Y-68320000D02*
X116780000Y-68320000D01*
X116780000Y-63130000D02*
X116780000Y-68320000D01*
%TO.C,U1*%
X77890000Y-60990000D02*
X82510000Y-60990000D01*
X77890000Y-71210000D02*
X77890000Y-60990000D01*
X81130000Y-60990000D02*
X81130000Y-71210000D01*
X82510000Y-60990000D02*
X82510000Y-71210000D01*
X82510000Y-64250000D02*
X81130000Y-64250000D01*
X82510000Y-67950000D02*
X81130000Y-67950000D01*
X82510000Y-71210000D02*
X77890000Y-71210000D01*
%TO.C,J4*%
X91680000Y-63720000D02*
X91680000Y-66480000D01*
X96870000Y-63720000D02*
X91680000Y-63720000D01*
X96870000Y-63720000D02*
X96870000Y-66480000D01*
X96870000Y-66480000D02*
X91680000Y-66480000D01*
X98140000Y-63720000D02*
X99520000Y-63720000D01*
X99520000Y-63720000D02*
X99520000Y-65100000D01*
%TD*%
M02*
