%TF.GenerationSoftware,KiCad,Pcbnew,10.0.0*%
%TF.CreationDate,2026-05-15T13:26:57+02:00*%
%TF.ProjectId,TankIR_Breaker,54616e6b-4952-45f4-9272-65616b65722e,rev?*%
%TF.SameCoordinates,Original*%
%TF.FileFunction,Copper,L2,Bot*%
%TF.FilePolarity,Positive*%
%FSLAX46Y46*%
G04 Gerber Fmt 4.6, Leading zero omitted, Abs format (unit mm)*
G04 Created by KiCad (PCBNEW 10.0.0) date 2026-05-15 13:26:57*
%MOMM*%
%LPD*%
G01*
G04 APERTURE LIST*
G04 Aperture macros list*
%AMRoundRect*
0 Rectangle with rounded corners*
0 $1 Rounding radius*
0 $2 $3 $4 $5 $6 $7 $8 $9 X,Y pos of 4 corners*
0 Add a 4 corners polygon primitive as box body*
4,1,4,$2,$3,$4,$5,$6,$7,$8,$9,$2,$3,0*
0 Add four circle primitives for the rounded corners*
1,1,$1+$1,$2,$3*
1,1,$1+$1,$4,$5*
1,1,$1+$1,$6,$7*
1,1,$1+$1,$8,$9*
0 Add four rect primitives between the rounded corners*
20,1,$1+$1,$2,$3,$4,$5,0*
20,1,$1+$1,$4,$5,$6,$7,0*
20,1,$1+$1,$6,$7,$8,$9,0*
20,1,$1+$1,$8,$9,$2,$3,0*%
G04 Aperture macros list end*
%TA.AperFunction,ComponentPad*%
%ADD10R,1.700000X1.700000*%
%TD*%
%TA.AperFunction,ComponentPad*%
%ADD11C,1.700000*%
%TD*%
%TA.AperFunction,ComponentPad*%
%ADD12RoundRect,0.250000X-0.350000X-0.625000X0.350000X-0.625000X0.350000X0.625000X-0.350000X0.625000X0*%
%TD*%
%TA.AperFunction,ComponentPad*%
%ADD13O,1.200000X1.750000*%
%TD*%
%TA.AperFunction,ComponentPad*%
%ADD14R,2.000000X1.905000*%
%TD*%
%TA.AperFunction,ComponentPad*%
%ADD15O,2.000000X1.905000*%
%TD*%
%TA.AperFunction,ComponentPad*%
%ADD16R,1.600000X1.600000*%
%TD*%
%TA.AperFunction,ComponentPad*%
%ADD17O,1.600000X1.600000*%
%TD*%
%TA.AperFunction,ComponentPad*%
%ADD18C,1.400000*%
%TD*%
%TA.AperFunction,ComponentPad*%
%ADD19R,1.500000X1.050000*%
%TD*%
%TA.AperFunction,ComponentPad*%
%ADD20O,1.500000X1.050000*%
%TD*%
%TA.AperFunction,ViaPad*%
%ADD21C,0.650000*%
%TD*%
%TA.AperFunction,Conductor*%
%ADD22C,0.450000*%
%TD*%
G04 APERTURE END LIST*
D10*
%TO.P,J6,1,Pin_1_1*%
%TO.N,/SOUND_REP*%
X95885000Y-61468000D03*
D11*
%TO.P,J6,2,Pin_2_2*%
%TO.N,/SOUND_DES*%
X98425000Y-61468000D03*
%TO.P,J6,3,Pin_3_3*%
%TO.N,/SOUND_HIT*%
X100965000Y-61468000D03*
%TO.P,J6,4,Pin_4_4*%
%TO.N,/SOUND_FIRE*%
X103505000Y-61468000D03*
%TO.P,J6,5,Pin_5_5*%
%TO.N,GND*%
X106045000Y-61468000D03*
%TD*%
D10*
%TO.P,J3,1,Pin_1_1*%
%TO.N,GND*%
X100710000Y-65000000D03*
D11*
%TO.P,J3,2,Pin_2_2*%
%TO.N,5V*%
X103250000Y-65000000D03*
%TO.P,J3,3,Pin_3_3*%
%TO.N,/Recoil_OUT*%
X105790000Y-65000000D03*
%TD*%
D10*
%TO.P,J4,1,Pin_1_1*%
%TO.N,GND*%
X91710000Y-65000000D03*
D11*
%TO.P,J4,2,Pin_2_2*%
%TO.N,5V*%
X94250000Y-65000000D03*
%TO.P,J4,3,Pin_3_3*%
%TO.N,/RC_IN*%
X96790000Y-65000000D03*
%TD*%
D12*
%TO.P,J5,1,Pin_1_1*%
%TO.N,5V*%
X94965000Y-69173000D03*
D13*
%TO.P,J5,2,Pin_2_2*%
%TO.N,/IR_IN*%
X96965000Y-69173000D03*
%TO.P,J5,3,Pin_3_3*%
%TO.N,GND*%
X98965000Y-69173000D03*
%TO.P,J5,4,Pin_4_4*%
X100965000Y-69173000D03*
%TO.P,J5,5,Pin_5_5*%
%TO.N,/HIT*%
X102965000Y-69173000D03*
%TD*%
D12*
%TO.P,J2,1,Pin_1_1*%
%TO.N,GND*%
X85106000Y-61934000D03*
D13*
%TO.P,J2,2,Pin_2_2*%
%TO.N,/Trigger*%
X87106000Y-61934000D03*
%TD*%
D12*
%TO.P,J7,1,Pin_1_1*%
%TO.N,+BATT*%
X107966000Y-69173000D03*
D13*
%TO.P,J7,2,Pin_2_2*%
%TO.N,Net-(J7-Pin_2)*%
X109966000Y-69173000D03*
%TD*%
D12*
%TO.P,J1,1,Pin_1_1*%
%TO.N,+BATT*%
X85106000Y-68741200D03*
D13*
%TO.P,J1,2,Pin_2_2*%
%TO.N,GND*%
X87106000Y-68741200D03*
%TD*%
D12*
%TO.P,J8,1,Pin_1_1*%
%TO.N,5V*%
X110379000Y-61934000D03*
D13*
%TO.P,J8,2,Pin_2_2*%
%TO.N,Net-(J8-Pin_2)*%
X112379000Y-61934000D03*
%TD*%
D14*
%TO.P,U1,1,VI_1*%
%TO.N,+BATT*%
X79250000Y-63560000D03*
D15*
%TO.P,U1,2,GND_2*%
%TO.N,GND*%
X79250000Y-66100000D03*
%TO.P,U1,3,VO_3*%
%TO.N,5V*%
X79250000Y-68640000D03*
%TD*%
D16*
%TO.P,A1,1,D1/TX_1*%
%TO.N,unconnected-(A1-D1{slash}TX-Pad1)*%
X81540000Y-73520000D03*
D17*
%TO.P,A1,2,D0/RX_2*%
%TO.N,unconnected-(A1-D0{slash}RX-Pad2)*%
X84080000Y-73520000D03*
%TO.P,A1,3,~{RESET}_3*%
%TO.N,unconnected-(A1-~{RESET}-Pad3)*%
X86620000Y-73520000D03*
%TO.P,A1,4,GND_4*%
%TO.N,GND*%
X89160000Y-73520000D03*
%TO.P,A1,5,D2_5*%
%TO.N,/IR_IN*%
X91700000Y-73520000D03*
%TO.P,A1,6,D3_6*%
%TO.N,/IR OUT*%
X94240000Y-73520000D03*
%TO.P,A1,7,D4_7*%
%TO.N,unconnected-(A1-D4-Pad7)*%
X96780000Y-73520000D03*
%TO.P,A1,8,D5_8*%
%TO.N,/HIT*%
X99320000Y-73520000D03*
%TO.P,A1,9,D6_9*%
%TO.N,/MUZZLE*%
X101860000Y-73520000D03*
%TO.P,A1,10,D7_10*%
%TO.N,/RC_IN*%
X104400000Y-73520000D03*
%TO.P,A1,11,D8_11*%
%TO.N,/Recoil_OUT*%
X106940000Y-73520000D03*
%TO.P,A1,12,D9_12*%
%TO.N,unconnected-(A1-D9-Pad12)*%
X109480000Y-73520000D03*
%TO.P,A1,13,D10_13*%
%TO.N,unconnected-(A1-D10-Pad13)*%
X112020000Y-73520000D03*
%TO.P,A1,14,D11_14*%
%TO.N,unconnected-(A1-D11-Pad14)*%
X114560000Y-73520000D03*
%TO.P,A1,15,D12_15*%
%TO.N,unconnected-(A1-D12-Pad15)*%
X117100000Y-73520000D03*
%TO.P,A1,16,D13_16*%
%TO.N,unconnected-(A1-D13-Pad16)*%
X117100000Y-58280000D03*
%TO.P,A1,17,3V3_17*%
%TO.N,unconnected-(A1-3V3-Pad17)*%
X114560000Y-58280000D03*
%TO.P,A1,18,AREF_18*%
%TO.N,unconnected-(A1-AREF-Pad18)*%
X112020000Y-58280000D03*
%TO.P,A1,19,A0_19*%
%TO.N,/Trigger*%
X109480000Y-58280000D03*
%TO.P,A1,20,A1_20*%
%TO.N,/SOUND_FIRE*%
X106940000Y-58280000D03*
%TO.P,A1,21,A2_21*%
%TO.N,/SOUND_HIT*%
X104400000Y-58280000D03*
%TO.P,A1,22,A3_22*%
%TO.N,/SOUND_DES*%
X101860000Y-58280000D03*
%TO.P,A1,23,A4_23*%
%TO.N,/SOUND_REP*%
X99320000Y-58280000D03*
%TO.P,A1,24,A5_24*%
%TO.N,unconnected-(A1-A5-Pad24)*%
X96780000Y-58280000D03*
%TO.P,A1,25,A6_25*%
%TO.N,unconnected-(A1-A6-Pad25)*%
X94240000Y-58280000D03*
%TO.P,A1,26,A7_26*%
%TO.N,unconnected-(A1-A7-Pad26)*%
X91700000Y-58280000D03*
%TO.P,A1,27,+5V_27*%
%TO.N,5V*%
X89160000Y-58280000D03*
%TO.P,A1,28,~{RESET}_28*%
%TO.N,unconnected-(A1-~{RESET}-Pad28)*%
X86620000Y-58280000D03*
%TO.P,A1,29,GND_29*%
%TO.N,GND*%
X84080000Y-58280000D03*
%TO.P,A1,30,VIN_30*%
%TO.N,unconnected-(A1-VIN-Pad30)*%
X81540000Y-58280000D03*
%TD*%
D18*
%TO.P,R4,1*%
%TO.N,GND*%
X118287000Y-65963800D03*
%TO.P,R4,2*%
%TO.N,/IR OUT*%
X120827000Y-65963800D03*
%TD*%
%TO.P,R1,1*%
%TO.N,/IR OUT*%
X118287000Y-68097400D03*
%TO.P,R1,2*%
%TO.N,Net-(Q1-B)*%
X120827000Y-68097400D03*
%TD*%
D19*
%TO.P,Q2,1,C_1*%
%TO.N,Net-(J8-Pin_2)*%
X120390000Y-58060000D03*
D20*
%TO.P,Q2,2,B_2*%
%TO.N,Net-(Q2-B)*%
X120390000Y-59830000D03*
%TO.P,Q2,3,E_3*%
%TO.N,GND*%
X120390000Y-61560000D03*
%TD*%
D18*
%TO.P,R2,1*%
%TO.N,/MUZZLE*%
X118280000Y-63754000D03*
%TO.P,R2,2*%
%TO.N,Net-(Q2-B)*%
X120820000Y-63754000D03*
%TD*%
%TO.P,R3,1*%
%TO.N,Net-(Q1-C)*%
X116040000Y-70250000D03*
%TO.P,R3,2*%
%TO.N,Net-(J7-Pin_2)*%
X113500000Y-70250000D03*
%TD*%
%TO.P,R5,1*%
%TO.N,GND*%
X115951000Y-63720000D03*
%TO.P,R5,2*%
%TO.N,/MUZZLE*%
X115951000Y-61180000D03*
%TD*%
D19*
%TO.P,Q1,1,C_1*%
%TO.N,Net-(Q1-C)*%
X120390000Y-70366000D03*
D20*
%TO.P,Q1,2,B_2*%
%TO.N,Net-(Q1-B)*%
X120390000Y-72136000D03*
%TO.P,Q1,3,E_3*%
%TO.N,GND*%
X120390000Y-73866000D03*
%TD*%
D21*
%TO.N,GND*%
X98750000Y-65000000D03*
X91250000Y-60250000D03*
X90750000Y-69750000D03*
X81500000Y-60250000D03*
X81500000Y-71750000D03*
X114750000Y-67750000D03*
X91250000Y-67250000D03*
%TO.N,/MUZZLE*%
X104500000Y-69750000D03*
%TD*%
%TO.N,/RC_IN*%
D22*
X105500000Y-70903000D02*
X104400000Y-72003000D01*
X105500000Y-68000000D02*
X105500000Y-70903000D01*
X104400000Y-72003000D02*
X104400000Y-73520000D01*
X104683000Y-67183000D02*
X105500000Y-68000000D01*
X98973000Y-67183000D02*
X104683000Y-67183000D01*
X96790000Y-65000000D02*
X98973000Y-67183000D01*
%TO.N,/Trigger*%
X91736000Y-61934000D02*
X87106000Y-61934000D01*
X93853000Y-59817000D02*
X91736000Y-61934000D01*
X109480000Y-58280000D02*
X107943000Y-59817000D01*
X107943000Y-59817000D02*
X93853000Y-59817000D01*
%TO.N,/IR_IN*%
X96965000Y-70548000D02*
X96965000Y-69173000D01*
X94100000Y-71120000D02*
X96393000Y-71120000D01*
X96393000Y-71120000D02*
X96965000Y-70548000D01*
X91700000Y-73520000D02*
X94100000Y-71120000D01*
%TO.N,/HIT*%
X102965000Y-69875000D02*
X99320000Y-73520000D01*
X102965000Y-69173000D02*
X102965000Y-69875000D01*
%TO.N,/MUZZLE*%
X102750000Y-72630000D02*
X101860000Y-73520000D01*
X104500000Y-69750000D02*
X104500000Y-70250000D01*
X102750000Y-72000000D02*
X102750000Y-72630000D01*
X104500000Y-70250000D02*
X102750000Y-72000000D01*
%TO.N,/Recoil_OUT*%
X106500000Y-65860000D02*
X106500000Y-71194000D01*
X106940000Y-71634000D02*
X106940000Y-73520000D01*
X105664000Y-65024000D02*
X106500000Y-65860000D01*
X106500000Y-71194000D02*
X106940000Y-71634000D01*
%TO.N,5V*%
X79250000Y-68640000D02*
X81360000Y-68640000D01*
X103124000Y-64374000D02*
X102000000Y-63250000D01*
X84500000Y-65500000D02*
X87750000Y-65500000D01*
X90750000Y-68500000D02*
X94292000Y-68500000D01*
X94234000Y-64516000D02*
X94234000Y-65100000D01*
X102000000Y-63250000D02*
X95500000Y-63250000D01*
X109063000Y-63250000D02*
X104898000Y-63250000D01*
X95500000Y-63250000D02*
X94234000Y-64516000D01*
X87750000Y-65500000D02*
X90750000Y-68500000D01*
X81360000Y-68640000D02*
X84500000Y-65500000D01*
X94292000Y-68500000D02*
X94965000Y-69173000D01*
X110379000Y-61934000D02*
X109063000Y-63250000D01*
X104898000Y-63250000D02*
X103124000Y-65024000D01*
X103124000Y-65024000D02*
X103124000Y-64374000D01*
%TO.N,Net-(Q1-B)*%
X122000000Y-71250000D02*
X121114000Y-72136000D01*
X122000000Y-69270400D02*
X122000000Y-71250000D01*
X121114000Y-72136000D02*
X120010600Y-72136000D01*
X120827000Y-68097400D02*
X122000000Y-69270400D01*
%TO.N,Net-(Q1-C)*%
X115959000Y-70366000D02*
X115951000Y-70358000D01*
X120010600Y-70366000D02*
X115959000Y-70366000D01*
%TD*%
%TA.AperFunction,Conductor*%
%TO.N,GND*%
G36*
X87462270Y-66245462D02*
G01*
X87493129Y-66269141D01*
X90287521Y-69063533D01*
X90406347Y-69142929D01*
X90538380Y-69197619D01*
X90678545Y-69225500D01*
X90821455Y-69225500D01*
X93715501Y-69225500D01*
X93790001Y-69245462D01*
X93844539Y-69300000D01*
X93864501Y-69374500D01*
X93864501Y-69848008D01*
X93875001Y-69950797D01*
X93930186Y-70117334D01*
X93980630Y-70199118D01*
X94002750Y-70273004D01*
X93984963Y-70348053D01*
X93932034Y-70404154D01*
X93894930Y-70418746D01*
X93895388Y-70420255D01*
X93888382Y-70422380D01*
X93756352Y-70477068D01*
X93756344Y-70477073D01*
X93637522Y-70556466D01*
X93637520Y-70556467D01*
X92004634Y-72189352D01*
X91937839Y-72227916D01*
X91875968Y-72231159D01*
X91824351Y-72222984D01*
X91802352Y-72219500D01*
X91597648Y-72219500D01*
X91446809Y-72243391D01*
X91395465Y-72251523D01*
X91200787Y-72314778D01*
X91200775Y-72314782D01*
X91018387Y-72407714D01*
X90852787Y-72528028D01*
X90852779Y-72528035D01*
X90708035Y-72672779D01*
X90708028Y-72672787D01*
X90587714Y-72838388D01*
X90562478Y-72887915D01*
X90510868Y-72945231D01*
X90437515Y-72969064D01*
X90362072Y-72953027D01*
X90304756Y-72901417D01*
X90296959Y-72887912D01*
X90271858Y-72838647D01*
X90151587Y-72673110D01*
X90006889Y-72528412D01*
X89841354Y-72408143D01*
X89659032Y-72315246D01*
X89659020Y-72315241D01*
X89464417Y-72252010D01*
X89410000Y-72243391D01*
X89410000Y-73086988D01*
X89352993Y-73054075D01*
X89225826Y-73020000D01*
X89094174Y-73020000D01*
X88967007Y-73054075D01*
X88910000Y-73086988D01*
X88910000Y-72243391D01*
X88855582Y-72252010D01*
X88660979Y-72315241D01*
X88660967Y-72315246D01*
X88478645Y-72408143D01*
X88313110Y-72528412D01*
X88168412Y-72673110D01*
X88048141Y-72838648D01*
X88023039Y-72887914D01*
X87971430Y-72945231D01*
X87898077Y-72969064D01*
X87822634Y-72953027D01*
X87765317Y-72901418D01*
X87757520Y-72887913D01*
X87732287Y-72838390D01*
X87722450Y-72824850D01*
X87611971Y-72672787D01*
X87611964Y-72672779D01*
X87467220Y-72528035D01*
X87467212Y-72528028D01*
X87301612Y-72407714D01*
X87119224Y-72314782D01*
X87119220Y-72314780D01*
X87119219Y-72314780D01*
X86924534Y-72251523D01*
X86722352Y-72219500D01*
X86517648Y-72219500D01*
X86366809Y-72243391D01*
X86315465Y-72251523D01*
X86120787Y-72314778D01*
X86120775Y-72314782D01*
X85938387Y-72407714D01*
X85772787Y-72528028D01*
X85772779Y-72528035D01*
X85628035Y-72672779D01*
X85628028Y-72672787D01*
X85507714Y-72838388D01*
X85482760Y-72887363D01*
X85431151Y-72944680D01*
X85357797Y-72968514D01*
X85282355Y-72952478D01*
X85225038Y-72900869D01*
X85217240Y-72887363D01*
X85192287Y-72838390D01*
X85136881Y-72762130D01*
X85071971Y-72672787D01*
X85071964Y-72672779D01*
X84927220Y-72528035D01*
X84927212Y-72528028D01*
X84761612Y-72407714D01*
X84579224Y-72314782D01*
X84579220Y-72314780D01*
X84579219Y-72314780D01*
X84384534Y-72251523D01*
X84182352Y-72219500D01*
X83977648Y-72219500D01*
X83826809Y-72243391D01*
X83775465Y-72251523D01*
X83580787Y-72314778D01*
X83580775Y-72314782D01*
X83398387Y-72407714D01*
X83232787Y-72528028D01*
X83232779Y-72528035D01*
X83083894Y-72676921D01*
X83082279Y-72675306D01*
X83027375Y-72712984D01*
X82950480Y-72718981D01*
X82880889Y-72685727D01*
X82837248Y-72622133D01*
X82835652Y-72616704D01*
X82834091Y-72612519D01*
X82834091Y-72612517D01*
X82802579Y-72528028D01*
X82783797Y-72477670D01*
X82783795Y-72477666D01*
X82697547Y-72362455D01*
X82697544Y-72362452D01*
X82582333Y-72276204D01*
X82582329Y-72276202D01*
X82447482Y-72225908D01*
X82387876Y-72219500D01*
X80692136Y-72219500D01*
X80692111Y-72219502D01*
X80632521Y-72225908D01*
X80632515Y-72225909D01*
X80497670Y-72276202D01*
X80497666Y-72276204D01*
X80382455Y-72362452D01*
X80382452Y-72362455D01*
X80296204Y-72477666D01*
X80296202Y-72477670D01*
X80245908Y-72612517D01*
X80239500Y-72672114D01*
X80239500Y-74367863D01*
X80239502Y-74367888D01*
X80245908Y-74427478D01*
X80245909Y-74427484D01*
X80272371Y-74498431D01*
X80279702Y-74575209D01*
X80247661Y-74645367D01*
X80184834Y-74690106D01*
X80132765Y-74699500D01*
X77949500Y-74699500D01*
X77875000Y-74679538D01*
X77820462Y-74625000D01*
X77800500Y-74550500D01*
X77800500Y-69640877D01*
X77820462Y-69566377D01*
X77875000Y-69511839D01*
X77949500Y-69491877D01*
X78024000Y-69511839D01*
X78070042Y-69553296D01*
X78094214Y-69586566D01*
X78255934Y-69748286D01*
X78285810Y-69769992D01*
X78440957Y-69882714D01*
X78440958Y-69882714D01*
X78440962Y-69882717D01*
X78644742Y-69986548D01*
X78862255Y-70057222D01*
X79088146Y-70093000D01*
X79088151Y-70093000D01*
X79411849Y-70093000D01*
X79411854Y-70093000D01*
X79637745Y-70057222D01*
X79855258Y-69986548D01*
X80059038Y-69882717D01*
X80244066Y-69748286D01*
X80405786Y-69586566D01*
X80491980Y-69467931D01*
X80521777Y-69426919D01*
X80581717Y-69378381D01*
X80642320Y-69365500D01*
X81431451Y-69365500D01*
X81431455Y-69365500D01*
X81571620Y-69337619D01*
X81703653Y-69282929D01*
X81760831Y-69244724D01*
X81812888Y-69209941D01*
X81822473Y-69203537D01*
X81822474Y-69203535D01*
X81822480Y-69203532D01*
X82959817Y-68066195D01*
X84005500Y-68066195D01*
X84005500Y-69416203D01*
X84010785Y-69467936D01*
X84016001Y-69518997D01*
X84071186Y-69685534D01*
X84163288Y-69834856D01*
X84287344Y-69958912D01*
X84436666Y-70051014D01*
X84603203Y-70106199D01*
X84705991Y-70116700D01*
X85506008Y-70116699D01*
X85608797Y-70106199D01*
X85775334Y-70051014D01*
X85924656Y-69958912D01*
X86048712Y-69834856D01*
X86071982Y-69797128D01*
X86128082Y-69744202D01*
X86203130Y-69726414D01*
X86277019Y-69748534D01*
X86304157Y-69769992D01*
X86389396Y-69855231D01*
X86389399Y-69855233D01*
X86529473Y-69957002D01*
X86683744Y-70035609D01*
X86848411Y-70089112D01*
X86856000Y-70090314D01*
X86856000Y-69021530D01*
X86875745Y-69041275D01*
X86961255Y-69090644D01*
X87056630Y-69116200D01*
X87155370Y-69116200D01*
X87250745Y-69090644D01*
X87336255Y-69041275D01*
X87356000Y-69021530D01*
X87356000Y-70090314D01*
X87363588Y-70089112D01*
X87528255Y-70035609D01*
X87682526Y-69957002D01*
X87682527Y-69957002D01*
X87822600Y-69855233D01*
X87822603Y-69855231D01*
X87945031Y-69732803D01*
X87945033Y-69732800D01*
X88046802Y-69592727D01*
X88046802Y-69592726D01*
X88125409Y-69438453D01*
X88178913Y-69273786D01*
X88206000Y-69102767D01*
X88206000Y-68991200D01*
X87386330Y-68991200D01*
X87406075Y-68971455D01*
X87455444Y-68885945D01*
X87481000Y-68790570D01*
X87481000Y-68691830D01*
X87455444Y-68596455D01*
X87406075Y-68510945D01*
X87386330Y-68491200D01*
X88206000Y-68491200D01*
X88206000Y-68379632D01*
X88178913Y-68208613D01*
X88125409Y-68043946D01*
X88046802Y-67889673D01*
X88046802Y-67889672D01*
X87945033Y-67749599D01*
X87945031Y-67749596D01*
X87822603Y-67627168D01*
X87822600Y-67627166D01*
X87682526Y-67525397D01*
X87528253Y-67446790D01*
X87363586Y-67393286D01*
X87356000Y-67392084D01*
X87356000Y-68460870D01*
X87336255Y-68441125D01*
X87250745Y-68391756D01*
X87155370Y-68366200D01*
X87056630Y-68366200D01*
X86961255Y-68391756D01*
X86875745Y-68441125D01*
X86856000Y-68460870D01*
X86856000Y-67392084D01*
X86855999Y-67392084D01*
X86848414Y-67393286D01*
X86848412Y-67393286D01*
X86683746Y-67446790D01*
X86529473Y-67525397D01*
X86529472Y-67525397D01*
X86389399Y-67627166D01*
X86389396Y-67627168D01*
X86304157Y-67712408D01*
X86237362Y-67750972D01*
X86160234Y-67750972D01*
X86093439Y-67712408D01*
X86071981Y-67685270D01*
X86071832Y-67685029D01*
X86048712Y-67647544D01*
X85924656Y-67523488D01*
X85775334Y-67431386D01*
X85656729Y-67392084D01*
X85608798Y-67376201D01*
X85591665Y-67374450D01*
X85506009Y-67365700D01*
X85506004Y-67365700D01*
X84705996Y-67365700D01*
X84603202Y-67376201D01*
X84436666Y-67431386D01*
X84287343Y-67523488D01*
X84163288Y-67647543D01*
X84071186Y-67796866D01*
X84016001Y-67963401D01*
X84016001Y-67963403D01*
X84006278Y-68058583D01*
X84005500Y-68066195D01*
X82959817Y-68066195D01*
X84756871Y-66269141D01*
X84823666Y-66230577D01*
X84862230Y-66225500D01*
X87387770Y-66225500D01*
X87462270Y-66245462D01*
G37*
%TD.AperFunction*%
%TA.AperFunction,Conductor*%
G36*
X119127778Y-57120462D02*
G01*
X119182316Y-57175000D01*
X119202278Y-57249500D01*
X119192884Y-57301569D01*
X119145908Y-57427517D01*
X119139500Y-57487114D01*
X119139500Y-58632863D01*
X119139502Y-58632888D01*
X119145908Y-58692478D01*
X119145909Y-58692484D01*
X119196202Y-58827329D01*
X119196204Y-58827333D01*
X119282452Y-58942544D01*
X119282453Y-58942544D01*
X119282454Y-58942546D01*
X119307923Y-58961612D01*
X119330819Y-58978752D01*
X119378495Y-59039380D01*
X119389471Y-59115723D01*
X119365414Y-59180811D01*
X119256219Y-59344233D01*
X119256211Y-59344248D01*
X119178908Y-59530875D01*
X119139500Y-59728996D01*
X119139500Y-59931003D01*
X119149146Y-59979500D01*
X119178909Y-60129127D01*
X119194918Y-60167777D01*
X119256211Y-60315751D01*
X119256216Y-60315761D01*
X119345935Y-60450034D01*
X119368442Y-60483718D01*
X119368445Y-60483721D01*
X119474718Y-60589994D01*
X119513282Y-60656789D01*
X119513282Y-60733917D01*
X119474718Y-60800712D01*
X119368833Y-60906596D01*
X119368829Y-60906601D01*
X119256656Y-61074478D01*
X119256655Y-61074481D01*
X119179391Y-61261014D01*
X119179389Y-61261020D01*
X119169647Y-61309999D01*
X119169647Y-61310000D01*
X120109670Y-61310000D01*
X120089925Y-61329745D01*
X120040556Y-61415255D01*
X120015000Y-61510630D01*
X120015000Y-61609370D01*
X120040556Y-61704745D01*
X120089925Y-61790255D01*
X120109670Y-61810000D01*
X119169647Y-61810000D01*
X119179389Y-61858979D01*
X119179391Y-61858985D01*
X119256655Y-62045518D01*
X119256656Y-62045521D01*
X119368829Y-62213398D01*
X119368833Y-62213403D01*
X119511596Y-62356166D01*
X119511601Y-62356170D01*
X119679478Y-62468343D01*
X119679481Y-62468344D01*
X119866014Y-62545608D01*
X119866020Y-62545610D01*
X119983158Y-62568910D01*
X120052332Y-62603022D01*
X120095182Y-62667152D01*
X120100227Y-62744115D01*
X120066115Y-62813289D01*
X120041676Y-62835586D01*
X120037936Y-62838303D01*
X120037925Y-62838312D01*
X119904312Y-62971925D01*
X119904303Y-62971936D01*
X119793241Y-63124799D01*
X119793238Y-63124804D01*
X119707458Y-63293157D01*
X119707451Y-63293174D01*
X119691707Y-63341629D01*
X119649700Y-63406314D01*
X119580978Y-63441329D01*
X119503956Y-63437292D01*
X119439271Y-63395285D01*
X119408293Y-63341629D01*
X119392547Y-63293168D01*
X119306760Y-63124801D01*
X119195690Y-62971927D01*
X119062073Y-62838310D01*
X118909199Y-62727240D01*
X118823431Y-62683539D01*
X118740842Y-62641458D01*
X118740841Y-62641457D01*
X118740832Y-62641453D01*
X118561118Y-62583060D01*
X118374481Y-62553500D01*
X118185519Y-62553500D01*
X117998882Y-62583060D01*
X117822640Y-62640325D01*
X117819168Y-62641453D01*
X117819163Y-62641455D01*
X117819157Y-62641458D01*
X117650804Y-62727238D01*
X117650799Y-62727241D01*
X117497936Y-62838303D01*
X117497925Y-62838312D01*
X117364312Y-62971925D01*
X117364303Y-62971936D01*
X117253235Y-63124806D01*
X117250983Y-63128482D01*
X117195031Y-63181567D01*
X117120031Y-63199563D01*
X117046082Y-63177649D01*
X116992997Y-63121697D01*
X116991189Y-63118259D01*
X116977333Y-63091065D01*
X116977325Y-63091052D01*
X116958884Y-63065670D01*
X116958882Y-63065670D01*
X116304553Y-63719999D01*
X116958882Y-64374328D01*
X116958883Y-64374328D01*
X116977329Y-64348940D01*
X116979426Y-64345519D01*
X116980681Y-64344327D01*
X116980774Y-64344200D01*
X116980797Y-64344217D01*
X117035368Y-64292422D01*
X117110363Y-64274411D01*
X117184317Y-64296310D01*
X117237414Y-64352252D01*
X117239235Y-64355714D01*
X117253237Y-64383195D01*
X117253239Y-64383198D01*
X117253240Y-64383199D01*
X117364310Y-64536073D01*
X117497927Y-64669690D01*
X117531943Y-64694404D01*
X117596361Y-64741207D01*
X117644900Y-64801147D01*
X117656965Y-64877325D01*
X117634185Y-64936664D01*
X117632670Y-64955916D01*
X118286999Y-65610245D01*
X118941328Y-64955915D01*
X118940029Y-64939411D01*
X118922099Y-64917269D01*
X118910033Y-64841091D01*
X118937673Y-64769086D01*
X118970631Y-64736126D01*
X119062073Y-64669690D01*
X119195690Y-64536073D01*
X119306760Y-64383199D01*
X119392547Y-64214832D01*
X119408293Y-64166370D01*
X119450299Y-64101686D01*
X119519021Y-64066670D01*
X119596043Y-64070707D01*
X119660728Y-64112713D01*
X119691707Y-64166371D01*
X119707449Y-64214822D01*
X119707451Y-64214828D01*
X119707453Y-64214832D01*
X119793240Y-64383199D01*
X119904310Y-64536073D01*
X120037927Y-64669690D01*
X120135940Y-64740901D01*
X120184476Y-64800838D01*
X120196542Y-64877017D01*
X120168902Y-64949022D01*
X120135939Y-64981984D01*
X120044939Y-65048100D01*
X120044925Y-65048112D01*
X119911312Y-65181725D01*
X119911303Y-65181736D01*
X119800241Y-65334599D01*
X119800238Y-65334604D01*
X119714458Y-65502957D01*
X119714452Y-65502971D01*
X119698444Y-65552238D01*
X119656436Y-65616923D01*
X119587714Y-65651937D01*
X119510692Y-65647900D01*
X119446007Y-65605892D01*
X119415030Y-65552237D01*
X119399083Y-65503157D01*
X119313330Y-65334861D01*
X119313325Y-65334852D01*
X119294884Y-65309470D01*
X119294882Y-65309470D01*
X118640553Y-65963799D01*
X119294882Y-66618128D01*
X119294883Y-66618128D01*
X119313329Y-66592740D01*
X119313331Y-66592738D01*
X119399081Y-66424446D01*
X119415029Y-66375363D01*
X119457036Y-66310678D01*
X119525758Y-66275662D01*
X119602780Y-66279698D01*
X119667465Y-66321705D01*
X119698444Y-66375362D01*
X119714450Y-66424625D01*
X119714458Y-66424642D01*
X119728613Y-66452423D01*
X119800240Y-66592999D01*
X119911310Y-66745873D01*
X120044927Y-66879490D01*
X120086999Y-66910057D01*
X120135537Y-66969998D01*
X120147602Y-67046176D01*
X120119961Y-67118181D01*
X120086999Y-67151142D01*
X120056573Y-67173248D01*
X120044931Y-67181707D01*
X120044925Y-67181712D01*
X119911312Y-67315325D01*
X119911303Y-67315336D01*
X119800241Y-67468199D01*
X119800238Y-67468204D01*
X119714458Y-67636557D01*
X119714451Y-67636574D01*
X119698707Y-67685029D01*
X119656700Y-67749714D01*
X119587978Y-67784729D01*
X119510956Y-67780692D01*
X119446271Y-67738685D01*
X119415293Y-67685029D01*
X119403113Y-67647544D01*
X119399547Y-67636568D01*
X119313760Y-67468201D01*
X119202690Y-67315327D01*
X119069073Y-67181710D01*
X119000107Y-67131603D01*
X118951571Y-67071665D01*
X118939149Y-66999371D01*
X118941328Y-66971682D01*
X118287000Y-66317353D01*
X117632669Y-66971683D01*
X117634849Y-66999373D01*
X117620793Y-67075210D01*
X117573889Y-67131606D01*
X117504931Y-67181707D01*
X117504925Y-67181712D01*
X117371312Y-67315325D01*
X117371303Y-67315336D01*
X117260241Y-67468199D01*
X117260238Y-67468204D01*
X117174458Y-67636557D01*
X117174455Y-67636563D01*
X117174453Y-67636568D01*
X117116060Y-67816282D01*
X117086500Y-68002919D01*
X117086500Y-68191881D01*
X117116060Y-68378518D01*
X117174453Y-68558232D01*
X117174457Y-68558241D01*
X117174458Y-68558242D01*
X117216268Y-68640299D01*
X117260240Y-68726599D01*
X117371310Y-68879473D01*
X117504927Y-69013090D01*
X117657801Y-69124160D01*
X117826168Y-69209947D01*
X118005882Y-69268340D01*
X118192519Y-69297900D01*
X118192524Y-69297900D01*
X118381476Y-69297900D01*
X118381481Y-69297900D01*
X118568118Y-69268340D01*
X118747832Y-69209947D01*
X118916199Y-69124160D01*
X119069073Y-69013090D01*
X119202690Y-68879473D01*
X119313760Y-68726599D01*
X119399547Y-68558232D01*
X119415293Y-68509770D01*
X119457299Y-68445086D01*
X119526021Y-68410070D01*
X119603043Y-68414107D01*
X119667728Y-68456113D01*
X119698707Y-68509771D01*
X119714449Y-68558222D01*
X119714451Y-68558228D01*
X119714453Y-68558232D01*
X119714457Y-68558240D01*
X119714458Y-68558242D01*
X119756268Y-68640299D01*
X119800240Y-68726599D01*
X119911310Y-68879473D01*
X120044927Y-69013090D01*
X120120829Y-69068236D01*
X120124574Y-69070957D01*
X120173112Y-69130896D01*
X120185178Y-69207075D01*
X120157537Y-69279080D01*
X120097598Y-69327618D01*
X120036994Y-69340500D01*
X119592136Y-69340500D01*
X119592111Y-69340502D01*
X119532521Y-69346908D01*
X119532515Y-69346909D01*
X119397670Y-69397202D01*
X119397666Y-69397204D01*
X119282455Y-69483452D01*
X119209585Y-69580794D01*
X119148957Y-69628470D01*
X119090305Y-69640500D01*
X117156992Y-69640500D01*
X117082492Y-69620538D01*
X117036449Y-69579081D01*
X116995299Y-69522444D01*
X116955690Y-69467927D01*
X116822073Y-69334310D01*
X116669199Y-69223240D01*
X116511579Y-69142929D01*
X116500842Y-69137458D01*
X116500841Y-69137457D01*
X116500832Y-69137453D01*
X116321118Y-69079060D01*
X116134481Y-69049500D01*
X115945519Y-69049500D01*
X115758882Y-69079060D01*
X115620086Y-69124158D01*
X115579168Y-69137453D01*
X115579163Y-69137455D01*
X115579157Y-69137458D01*
X115410804Y-69223238D01*
X115410799Y-69223241D01*
X115257936Y-69334303D01*
X115257925Y-69334312D01*
X115124312Y-69467925D01*
X115124303Y-69467936D01*
X115013241Y-69620799D01*
X115013238Y-69620804D01*
X114927458Y-69789157D01*
X114927451Y-69789174D01*
X114911707Y-69837629D01*
X114869700Y-69902314D01*
X114800978Y-69937329D01*
X114723956Y-69933292D01*
X114659271Y-69891285D01*
X114628293Y-69837629D01*
X114627392Y-69834856D01*
X114612547Y-69789168D01*
X114526760Y-69620801D01*
X114415690Y-69467927D01*
X114282073Y-69334310D01*
X114129199Y-69223240D01*
X113971579Y-69142929D01*
X113960842Y-69137458D01*
X113960841Y-69137457D01*
X113960832Y-69137453D01*
X113781118Y-69079060D01*
X113594481Y-69049500D01*
X113405519Y-69049500D01*
X113218882Y-69079060D01*
X113080086Y-69124158D01*
X113039168Y-69137453D01*
X113039163Y-69137455D01*
X113039157Y-69137458D01*
X112870804Y-69223238D01*
X112870799Y-69223241D01*
X112717936Y-69334303D01*
X112717925Y-69334312D01*
X112584312Y-69467925D01*
X112584303Y-69467936D01*
X112473241Y-69620799D01*
X112473238Y-69620804D01*
X112387458Y-69789157D01*
X112387455Y-69789163D01*
X112387453Y-69789168D01*
X112329060Y-69968882D01*
X112299500Y-70155519D01*
X112299500Y-70344481D01*
X112329060Y-70531118D01*
X112387453Y-70710832D01*
X112473240Y-70879199D01*
X112584310Y-71032073D01*
X112717927Y-71165690D01*
X112870801Y-71276760D01*
X113039168Y-71362547D01*
X113218882Y-71420940D01*
X113405519Y-71450500D01*
X113405524Y-71450500D01*
X113594476Y-71450500D01*
X113594481Y-71450500D01*
X113781118Y-71420940D01*
X113960832Y-71362547D01*
X114129199Y-71276760D01*
X114282073Y-71165690D01*
X114415690Y-71032073D01*
X114526760Y-70879199D01*
X114612547Y-70710832D01*
X114628293Y-70662370D01*
X114670299Y-70597686D01*
X114739021Y-70562670D01*
X114816043Y-70566707D01*
X114880728Y-70608713D01*
X114911707Y-70662371D01*
X114927449Y-70710822D01*
X114927451Y-70710828D01*
X114927453Y-70710832D01*
X115013240Y-70879199D01*
X115124310Y-71032073D01*
X115257927Y-71165690D01*
X115410801Y-71276760D01*
X115579168Y-71362547D01*
X115758882Y-71420940D01*
X115945519Y-71450500D01*
X115945524Y-71450500D01*
X116134476Y-71450500D01*
X116134481Y-71450500D01*
X116321118Y-71420940D01*
X116500832Y-71362547D01*
X116669199Y-71276760D01*
X116822073Y-71165690D01*
X116852623Y-71135139D01*
X116919416Y-71096577D01*
X116957980Y-71091500D01*
X119090305Y-71091500D01*
X119164805Y-71111462D01*
X119199702Y-71139340D01*
X119204954Y-71145020D01*
X119282454Y-71248546D01*
X119341695Y-71292894D01*
X119350922Y-71302872D01*
X119362771Y-71325384D01*
X119378495Y-71345380D01*
X119380449Y-71358971D01*
X119386845Y-71371123D01*
X119385850Y-71396543D01*
X119389471Y-71421723D01*
X119384321Y-71435656D01*
X119383831Y-71448192D01*
X119373823Y-71464059D01*
X119365414Y-71486811D01*
X119256219Y-71650233D01*
X119256211Y-71650248D01*
X119178908Y-71836875D01*
X119139500Y-72034996D01*
X119139500Y-72237003D01*
X119178908Y-72435124D01*
X119256211Y-72621751D01*
X119256216Y-72621761D01*
X119317170Y-72712984D01*
X119368442Y-72789718D01*
X119368445Y-72789721D01*
X119474718Y-72895994D01*
X119513282Y-72962789D01*
X119513282Y-73039917D01*
X119474718Y-73106712D01*
X119368833Y-73212596D01*
X119368829Y-73212601D01*
X119256656Y-73380478D01*
X119256655Y-73380481D01*
X119179391Y-73567014D01*
X119179389Y-73567020D01*
X119169647Y-73615999D01*
X119169647Y-73616000D01*
X120109670Y-73616000D01*
X120089925Y-73635745D01*
X120040556Y-73721255D01*
X120015000Y-73816630D01*
X120015000Y-73915370D01*
X120040556Y-74010745D01*
X120089925Y-74096255D01*
X120109670Y-74116000D01*
X119169647Y-74116000D01*
X119179389Y-74164979D01*
X119179391Y-74164985D01*
X119256655Y-74351518D01*
X119256658Y-74351524D01*
X119334298Y-74467719D01*
X119359091Y-74540754D01*
X119344044Y-74616400D01*
X119293191Y-74674388D01*
X119220156Y-74699181D01*
X119210410Y-74699500D01*
X118119403Y-74699500D01*
X118044903Y-74679538D01*
X117990365Y-74625000D01*
X117970403Y-74550500D01*
X117990365Y-74476000D01*
X118014044Y-74445141D01*
X118031707Y-74427478D01*
X118091966Y-74367219D01*
X118212287Y-74201610D01*
X118305220Y-74019219D01*
X118368477Y-73824534D01*
X118400500Y-73622352D01*
X118400500Y-73417648D01*
X118368477Y-73215466D01*
X118305220Y-73020781D01*
X118212287Y-72838390D01*
X118202450Y-72824850D01*
X118091971Y-72672787D01*
X118091964Y-72672779D01*
X117947220Y-72528035D01*
X117947212Y-72528028D01*
X117781612Y-72407714D01*
X117599224Y-72314782D01*
X117599220Y-72314780D01*
X117599219Y-72314780D01*
X117404534Y-72251523D01*
X117202352Y-72219500D01*
X116997648Y-72219500D01*
X116846809Y-72243391D01*
X116795465Y-72251523D01*
X116600787Y-72314778D01*
X116600775Y-72314782D01*
X116418387Y-72407714D01*
X116252787Y-72528028D01*
X116252779Y-72528035D01*
X116108035Y-72672779D01*
X116108028Y-72672787D01*
X115987714Y-72838388D01*
X115962760Y-72887363D01*
X115911151Y-72944680D01*
X115837797Y-72968514D01*
X115762355Y-72952478D01*
X115705038Y-72900869D01*
X115697240Y-72887363D01*
X115672287Y-72838390D01*
X115616881Y-72762130D01*
X115551971Y-72672787D01*
X115551964Y-72672779D01*
X115407220Y-72528035D01*
X115407212Y-72528028D01*
X115241612Y-72407714D01*
X115059224Y-72314782D01*
X115059220Y-72314780D01*
X115059219Y-72314780D01*
X114864534Y-72251523D01*
X114662352Y-72219500D01*
X114457648Y-72219500D01*
X114306809Y-72243391D01*
X114255465Y-72251523D01*
X114060787Y-72314778D01*
X114060775Y-72314782D01*
X113878387Y-72407714D01*
X113712787Y-72528028D01*
X113712779Y-72528035D01*
X113568035Y-72672779D01*
X113568028Y-72672787D01*
X113447714Y-72838388D01*
X113422760Y-72887363D01*
X113371151Y-72944680D01*
X113297797Y-72968514D01*
X113222355Y-72952478D01*
X113165038Y-72900869D01*
X113157240Y-72887363D01*
X113132287Y-72838390D01*
X113076881Y-72762130D01*
X113011971Y-72672787D01*
X113011964Y-72672779D01*
X112867220Y-72528035D01*
X112867212Y-72528028D01*
X112701612Y-72407714D01*
X112519224Y-72314782D01*
X112519220Y-72314780D01*
X112519219Y-72314780D01*
X112324534Y-72251523D01*
X112122352Y-72219500D01*
X111917648Y-72219500D01*
X111766809Y-72243391D01*
X111715465Y-72251523D01*
X111520787Y-72314778D01*
X111520775Y-72314782D01*
X111338387Y-72407714D01*
X111172787Y-72528028D01*
X111172779Y-72528035D01*
X111028035Y-72672779D01*
X111028028Y-72672787D01*
X110907714Y-72838388D01*
X110882760Y-72887363D01*
X110831151Y-72944680D01*
X110757797Y-72968514D01*
X110682355Y-72952478D01*
X110625038Y-72900869D01*
X110617240Y-72887363D01*
X110592287Y-72838390D01*
X110536881Y-72762130D01*
X110471971Y-72672787D01*
X110471964Y-72672779D01*
X110327220Y-72528035D01*
X110327212Y-72528028D01*
X110161612Y-72407714D01*
X109979224Y-72314782D01*
X109979220Y-72314780D01*
X109979219Y-72314780D01*
X109784534Y-72251523D01*
X109582352Y-72219500D01*
X109377648Y-72219500D01*
X109226809Y-72243391D01*
X109175465Y-72251523D01*
X108980787Y-72314778D01*
X108980775Y-72314782D01*
X108798387Y-72407714D01*
X108632787Y-72528028D01*
X108632779Y-72528035D01*
X108488035Y-72672779D01*
X108488028Y-72672787D01*
X108367714Y-72838388D01*
X108342760Y-72887363D01*
X108291151Y-72944680D01*
X108217797Y-72968514D01*
X108142355Y-72952478D01*
X108085038Y-72900869D01*
X108077240Y-72887363D01*
X108052287Y-72838390D01*
X107996881Y-72762130D01*
X107931971Y-72672787D01*
X107931964Y-72672779D01*
X107864500Y-72605315D01*
X107787219Y-72528034D01*
X107787215Y-72528031D01*
X107787212Y-72528028D01*
X107726920Y-72484223D01*
X107678382Y-72424283D01*
X107665500Y-72363680D01*
X107665500Y-71562549D01*
X107665499Y-71562541D01*
X107645909Y-71464059D01*
X107637619Y-71422380D01*
X107582929Y-71290347D01*
X107574345Y-71277500D01*
X107503532Y-71171520D01*
X107269141Y-70937129D01*
X107230577Y-70870334D01*
X107225500Y-70831770D01*
X107225500Y-70665573D01*
X107245462Y-70591073D01*
X107300000Y-70536535D01*
X107374500Y-70516573D01*
X107421365Y-70524135D01*
X107463203Y-70537999D01*
X107565991Y-70548500D01*
X108366008Y-70548499D01*
X108468797Y-70537999D01*
X108635334Y-70482814D01*
X108784656Y-70390712D01*
X108908712Y-70266656D01*
X108931711Y-70229367D01*
X108987809Y-70176439D01*
X109062858Y-70158650D01*
X109136746Y-70180769D01*
X109163882Y-70202224D01*
X109249072Y-70287414D01*
X109249075Y-70287416D01*
X109322219Y-70340559D01*
X109389212Y-70389232D01*
X109543555Y-70467873D01*
X109708299Y-70521402D01*
X109879389Y-70548500D01*
X109879393Y-70548500D01*
X110052607Y-70548500D01*
X110052611Y-70548500D01*
X110223701Y-70521402D01*
X110388445Y-70467873D01*
X110542788Y-70389232D01*
X110682928Y-70287414D01*
X110805414Y-70164928D01*
X110907232Y-70024788D01*
X110985873Y-69870445D01*
X111039402Y-69705701D01*
X111066500Y-69534611D01*
X111066500Y-68811389D01*
X111039402Y-68640299D01*
X110985873Y-68475555D01*
X110907232Y-68321212D01*
X110902621Y-68314866D01*
X110813267Y-68191881D01*
X110805414Y-68181072D01*
X110682928Y-68058586D01*
X110606315Y-68002923D01*
X110542793Y-67956771D01*
X110542790Y-67956769D01*
X110542788Y-67956768D01*
X110388445Y-67878127D01*
X110311362Y-67853081D01*
X110223700Y-67824597D01*
X110126086Y-67809137D01*
X110052611Y-67797500D01*
X109879389Y-67797500D01*
X109813088Y-67808001D01*
X109708299Y-67824597D01*
X109565923Y-67870859D01*
X109543555Y-67878127D01*
X109543549Y-67878129D01*
X109543549Y-67878130D01*
X109389206Y-67956771D01*
X109249075Y-68058583D01*
X109163886Y-68143772D01*
X109097091Y-68182335D01*
X109019963Y-68182335D01*
X108953168Y-68143770D01*
X108931715Y-68116639D01*
X108908712Y-68079344D01*
X108784656Y-67955288D01*
X108635334Y-67863186D01*
X108552065Y-67835593D01*
X108468798Y-67808001D01*
X108451665Y-67806250D01*
X108366009Y-67797500D01*
X108366004Y-67797500D01*
X107565996Y-67797500D01*
X107463202Y-67808001D01*
X107438415Y-67816214D01*
X107421367Y-67821864D01*
X107344370Y-67826349D01*
X107275446Y-67791734D01*
X107233063Y-67727295D01*
X107225500Y-67680427D01*
X107225500Y-65869361D01*
X117087000Y-65869361D01*
X117087000Y-66058238D01*
X117116548Y-66244806D01*
X117174916Y-66424442D01*
X117260668Y-66592737D01*
X117279115Y-66618128D01*
X117933445Y-65963799D01*
X117887368Y-65917722D01*
X117937000Y-65917722D01*
X117937000Y-66009878D01*
X117960852Y-66098895D01*
X118006930Y-66178705D01*
X118072095Y-66243870D01*
X118151905Y-66289948D01*
X118240922Y-66313800D01*
X118333078Y-66313800D01*
X118422095Y-66289948D01*
X118501905Y-66243870D01*
X118567070Y-66178705D01*
X118613148Y-66098895D01*
X118637000Y-66009878D01*
X118637000Y-65917722D01*
X118613148Y-65828705D01*
X118567070Y-65748895D01*
X118501905Y-65683730D01*
X118422095Y-65637652D01*
X118333078Y-65613800D01*
X118240922Y-65613800D01*
X118151905Y-65637652D01*
X118072095Y-65683730D01*
X118006930Y-65748895D01*
X117960852Y-65828705D01*
X117937000Y-65917722D01*
X117887368Y-65917722D01*
X117279116Y-65309470D01*
X117279115Y-65309470D01*
X117260668Y-65334861D01*
X117260666Y-65334865D01*
X117174916Y-65503157D01*
X117116549Y-65682793D01*
X117116548Y-65682793D01*
X117087000Y-65869361D01*
X107225500Y-65869361D01*
X107225500Y-65788549D01*
X107225499Y-65788541D01*
X107210973Y-65715517D01*
X107197619Y-65648380D01*
X107142929Y-65516347D01*
X107142925Y-65516342D01*
X107142923Y-65516337D01*
X107115326Y-65475035D01*
X107090534Y-65402000D01*
X107097507Y-65346214D01*
X107107246Y-65316243D01*
X107140500Y-65106287D01*
X107140500Y-64893713D01*
X107114235Y-64727882D01*
X115296670Y-64727882D01*
X115296670Y-64727884D01*
X115322052Y-64746325D01*
X115322061Y-64746330D01*
X115490357Y-64832083D01*
X115669993Y-64890450D01*
X115669993Y-64890451D01*
X115856562Y-64920000D01*
X116045438Y-64920000D01*
X116232006Y-64890451D01*
X116232006Y-64890450D01*
X116411642Y-64832083D01*
X116579938Y-64746331D01*
X116579940Y-64746329D01*
X116605328Y-64727883D01*
X116605328Y-64727882D01*
X115951000Y-64073553D01*
X115296670Y-64727882D01*
X107114235Y-64727882D01*
X107107246Y-64683757D01*
X107041557Y-64481588D01*
X106945051Y-64292184D01*
X106945047Y-64292178D01*
X106945044Y-64292173D01*
X106886853Y-64212080D01*
X106859212Y-64140075D01*
X106871278Y-64063896D01*
X106919816Y-64003957D01*
X106991821Y-63976316D01*
X107007396Y-63975500D01*
X109134451Y-63975500D01*
X109134455Y-63975500D01*
X109274620Y-63947619D01*
X109406653Y-63892929D01*
X109446327Y-63866420D01*
X109525480Y-63813532D01*
X109713450Y-63625561D01*
X114751000Y-63625561D01*
X114751000Y-63814438D01*
X114780548Y-64001006D01*
X114838916Y-64180642D01*
X114924668Y-64348937D01*
X114943115Y-64374328D01*
X115597445Y-63719999D01*
X115551368Y-63673922D01*
X115601000Y-63673922D01*
X115601000Y-63766078D01*
X115624852Y-63855095D01*
X115670930Y-63934905D01*
X115736095Y-64000070D01*
X115815905Y-64046148D01*
X115904922Y-64070000D01*
X115997078Y-64070000D01*
X116086095Y-64046148D01*
X116165905Y-64000070D01*
X116231070Y-63934905D01*
X116277148Y-63855095D01*
X116301000Y-63766078D01*
X116301000Y-63673922D01*
X116277148Y-63584905D01*
X116231070Y-63505095D01*
X116165905Y-63439930D01*
X116086095Y-63393852D01*
X115997078Y-63370000D01*
X115904922Y-63370000D01*
X115815905Y-63393852D01*
X115736095Y-63439930D01*
X115670930Y-63505095D01*
X115624852Y-63584905D01*
X115601000Y-63673922D01*
X115551368Y-63673922D01*
X114943116Y-63065670D01*
X114943115Y-63065670D01*
X114924668Y-63091061D01*
X114924666Y-63091065D01*
X114838916Y-63259357D01*
X114780549Y-63438993D01*
X114780548Y-63438993D01*
X114751000Y-63625561D01*
X109713450Y-63625561D01*
X109985871Y-63353139D01*
X110052666Y-63314576D01*
X110091230Y-63309499D01*
X110779004Y-63309499D01*
X110779008Y-63309499D01*
X110881797Y-63298999D01*
X111048334Y-63243814D01*
X111197656Y-63151712D01*
X111321712Y-63027656D01*
X111344711Y-62990367D01*
X111400809Y-62937439D01*
X111475858Y-62919650D01*
X111549746Y-62941769D01*
X111576882Y-62963224D01*
X111662072Y-63048414D01*
X111662075Y-63048416D01*
X111772275Y-63128482D01*
X111802212Y-63150232D01*
X111956555Y-63228873D01*
X112121299Y-63282402D01*
X112292389Y-63309500D01*
X112292393Y-63309500D01*
X112465607Y-63309500D01*
X112465611Y-63309500D01*
X112636701Y-63282402D01*
X112801445Y-63228873D01*
X112955788Y-63150232D01*
X113095928Y-63048414D01*
X113218414Y-62925928D01*
X113320232Y-62785788D01*
X113398873Y-62631445D01*
X113452402Y-62466701D01*
X113479500Y-62295611D01*
X113479500Y-61572389D01*
X113452402Y-61401299D01*
X113398873Y-61236555D01*
X113321917Y-61085519D01*
X114750500Y-61085519D01*
X114750500Y-61274481D01*
X114780060Y-61461118D01*
X114838453Y-61640832D01*
X114838457Y-61640841D01*
X114838458Y-61640842D01*
X114860448Y-61684000D01*
X114924240Y-61809199D01*
X115035310Y-61962073D01*
X115168927Y-62095690D01*
X115321801Y-62206760D01*
X115490168Y-62292547D01*
X115539439Y-62308556D01*
X115604121Y-62350561D01*
X115639137Y-62419282D01*
X115635101Y-62496305D01*
X115593094Y-62560990D01*
X115539439Y-62591969D01*
X115490354Y-62607918D01*
X115322065Y-62693666D01*
X115322061Y-62693668D01*
X115296670Y-62712115D01*
X115296670Y-62712116D01*
X115950999Y-63366445D01*
X116605328Y-62712115D01*
X116579937Y-62693668D01*
X116411643Y-62607917D01*
X116362561Y-62591969D01*
X116297876Y-62549961D01*
X116262862Y-62481239D01*
X116266899Y-62404217D01*
X116308907Y-62339532D01*
X116362559Y-62308556D01*
X116411832Y-62292547D01*
X116580199Y-62206760D01*
X116733073Y-62095690D01*
X116866690Y-61962073D01*
X116977760Y-61809199D01*
X117063547Y-61640832D01*
X117121940Y-61461118D01*
X117151500Y-61274481D01*
X117151500Y-61085519D01*
X117121940Y-60898882D01*
X117063547Y-60719168D01*
X116977760Y-60550801D01*
X116866690Y-60397927D01*
X116733073Y-60264310D01*
X116580199Y-60153240D01*
X116411832Y-60067453D01*
X116232118Y-60009060D01*
X116045481Y-59979500D01*
X115856519Y-59979500D01*
X115669882Y-60009060D01*
X115490168Y-60067453D01*
X115490163Y-60067455D01*
X115490157Y-60067458D01*
X115321804Y-60153238D01*
X115321799Y-60153241D01*
X115168936Y-60264303D01*
X115168930Y-60264307D01*
X115168927Y-60264310D01*
X115035310Y-60397927D01*
X115035307Y-60397930D01*
X115035303Y-60397936D01*
X114924241Y-60550799D01*
X114924238Y-60550804D01*
X114838458Y-60719157D01*
X114838455Y-60719163D01*
X114838453Y-60719168D01*
X114780060Y-60898882D01*
X114750500Y-61085519D01*
X113321917Y-61085519D01*
X113320232Y-61082212D01*
X113320230Y-61082208D01*
X113219595Y-60943698D01*
X113218414Y-60942072D01*
X113095928Y-60819586D01*
X113091118Y-60816091D01*
X112955793Y-60717771D01*
X112955790Y-60717769D01*
X112955788Y-60717768D01*
X112801445Y-60639127D01*
X112733346Y-60617000D01*
X112636700Y-60585597D01*
X112535012Y-60569492D01*
X112465611Y-60558500D01*
X112292389Y-60558500D01*
X112226088Y-60569001D01*
X112121299Y-60585597D01*
X111956561Y-60639125D01*
X111956555Y-60639127D01*
X111956549Y-60639129D01*
X111956549Y-60639130D01*
X111802206Y-60717771D01*
X111662075Y-60819583D01*
X111576886Y-60904772D01*
X111510091Y-60943335D01*
X111432963Y-60943335D01*
X111366168Y-60904770D01*
X111344715Y-60877639D01*
X111321712Y-60840344D01*
X111197656Y-60716288D01*
X111048334Y-60624186D01*
X110933522Y-60586141D01*
X110881798Y-60569001D01*
X110864665Y-60567250D01*
X110779009Y-60558500D01*
X110779004Y-60558500D01*
X109978996Y-60558500D01*
X109876202Y-60569001D01*
X109709666Y-60624186D01*
X109560343Y-60716288D01*
X109436288Y-60840343D01*
X109344186Y-60989666D01*
X109289001Y-61156201D01*
X109288117Y-61164859D01*
X109280792Y-61236561D01*
X109278500Y-61258995D01*
X109278500Y-61946769D01*
X109258538Y-62021269D01*
X109234859Y-62052128D01*
X108806129Y-62480859D01*
X108739334Y-62519423D01*
X108700770Y-62524500D01*
X107238529Y-62524500D01*
X107164029Y-62504538D01*
X107109491Y-62450000D01*
X107089529Y-62375500D01*
X107109491Y-62301000D01*
X107117985Y-62287920D01*
X107199621Y-62175556D01*
X107199621Y-62175555D01*
X107296093Y-61986220D01*
X107361757Y-61784128D01*
X107395000Y-61574242D01*
X107395000Y-61361757D01*
X107361757Y-61151871D01*
X107296093Y-60949779D01*
X107198960Y-60759145D01*
X107182924Y-60683703D01*
X107206758Y-60610349D01*
X107264075Y-60558740D01*
X107331720Y-60542500D01*
X108014451Y-60542500D01*
X108014455Y-60542500D01*
X108154620Y-60514619D01*
X108286653Y-60459929D01*
X108379446Y-60397927D01*
X108405480Y-60380532D01*
X109175366Y-59610644D01*
X109242159Y-59572082D01*
X109304033Y-59568840D01*
X109377648Y-59580500D01*
X109582347Y-59580500D01*
X109582352Y-59580500D01*
X109784534Y-59548477D01*
X109979219Y-59485220D01*
X110161610Y-59392287D01*
X110327219Y-59271966D01*
X110471966Y-59127219D01*
X110592287Y-58961610D01*
X110617240Y-58912636D01*
X110668848Y-58855319D01*
X110742202Y-58831485D01*
X110817644Y-58847521D01*
X110874962Y-58899129D01*
X110882760Y-58912637D01*
X110907712Y-58961609D01*
X111028028Y-59127212D01*
X111028035Y-59127220D01*
X111172779Y-59271964D01*
X111172787Y-59271971D01*
X111272269Y-59344248D01*
X111338390Y-59392287D01*
X111520781Y-59485220D01*
X111715466Y-59548477D01*
X111917648Y-59580500D01*
X111917653Y-59580500D01*
X112122347Y-59580500D01*
X112122352Y-59580500D01*
X112324534Y-59548477D01*
X112519219Y-59485220D01*
X112701610Y-59392287D01*
X112867219Y-59271966D01*
X113011966Y-59127219D01*
X113132287Y-58961610D01*
X113157240Y-58912636D01*
X113208848Y-58855319D01*
X113282202Y-58831485D01*
X113357644Y-58847521D01*
X113414962Y-58899129D01*
X113422760Y-58912637D01*
X113447712Y-58961609D01*
X113568028Y-59127212D01*
X113568035Y-59127220D01*
X113712779Y-59271964D01*
X113712787Y-59271971D01*
X113812269Y-59344248D01*
X113878390Y-59392287D01*
X114060781Y-59485220D01*
X114255466Y-59548477D01*
X114457648Y-59580500D01*
X114457653Y-59580500D01*
X114662347Y-59580500D01*
X114662352Y-59580500D01*
X114864534Y-59548477D01*
X115059219Y-59485220D01*
X115241610Y-59392287D01*
X115407219Y-59271966D01*
X115551966Y-59127219D01*
X115672287Y-58961610D01*
X115697240Y-58912636D01*
X115748848Y-58855319D01*
X115822202Y-58831485D01*
X115897644Y-58847521D01*
X115954962Y-58899129D01*
X115962760Y-58912637D01*
X115987712Y-58961609D01*
X116108028Y-59127212D01*
X116108035Y-59127220D01*
X116252779Y-59271964D01*
X116252787Y-59271971D01*
X116352269Y-59344248D01*
X116418390Y-59392287D01*
X116600781Y-59485220D01*
X116795466Y-59548477D01*
X116997648Y-59580500D01*
X116997653Y-59580500D01*
X117202347Y-59580500D01*
X117202352Y-59580500D01*
X117404534Y-59548477D01*
X117599219Y-59485220D01*
X117781610Y-59392287D01*
X117947219Y-59271966D01*
X118091966Y-59127219D01*
X118212287Y-58961610D01*
X118305220Y-58779219D01*
X118368477Y-58584534D01*
X118400500Y-58382352D01*
X118400500Y-58177648D01*
X118368477Y-57975466D01*
X118305220Y-57780781D01*
X118212287Y-57598390D01*
X118131457Y-57487136D01*
X118091971Y-57432787D01*
X118091964Y-57432779D01*
X118014044Y-57354859D01*
X117975480Y-57288064D01*
X117975480Y-57210936D01*
X118014044Y-57144141D01*
X118080839Y-57105577D01*
X118119403Y-57100500D01*
X119053278Y-57100500D01*
X119127778Y-57120462D01*
G37*
%TD.AperFunction*%
%TA.AperFunction,Conductor*%
G36*
X122655859Y-71830871D02*
G01*
X122694423Y-71897666D01*
X122699500Y-71936230D01*
X122699500Y-74550500D01*
X122679538Y-74625000D01*
X122625000Y-74679538D01*
X122550500Y-74699500D01*
X121569590Y-74699500D01*
X121495090Y-74679538D01*
X121440552Y-74625000D01*
X121420590Y-74550500D01*
X121440552Y-74476000D01*
X121445702Y-74467719D01*
X121523341Y-74351524D01*
X121523344Y-74351518D01*
X121600608Y-74164985D01*
X121600610Y-74164979D01*
X121610353Y-74116000D01*
X120670330Y-74116000D01*
X120690075Y-74096255D01*
X120739444Y-74010745D01*
X120765000Y-73915370D01*
X120765000Y-73816630D01*
X120739444Y-73721255D01*
X120690075Y-73635745D01*
X120670330Y-73616000D01*
X121610353Y-73616000D01*
X121610352Y-73615999D01*
X121600610Y-73567020D01*
X121600608Y-73567014D01*
X121523344Y-73380481D01*
X121523343Y-73380478D01*
X121411170Y-73212601D01*
X121411166Y-73212596D01*
X121305281Y-73106711D01*
X121266717Y-73039916D01*
X121266717Y-72962788D01*
X121305278Y-72895997D01*
X121376427Y-72824847D01*
X121424760Y-72792553D01*
X121457653Y-72778929D01*
X121457662Y-72778923D01*
X121537617Y-72725500D01*
X121537617Y-72725499D01*
X121547372Y-72718981D01*
X121576480Y-72699532D01*
X122445141Y-71830871D01*
X122511936Y-71792307D01*
X122589064Y-71792307D01*
X122655859Y-71830871D01*
G37*
%TD.AperFunction*%
%TA.AperFunction,Conductor*%
G36*
X101215000Y-70537268D02*
G01*
X101195038Y-70611768D01*
X101171359Y-70642627D01*
X99624634Y-72189352D01*
X99557839Y-72227916D01*
X99495968Y-72231159D01*
X99444351Y-72222984D01*
X99422352Y-72219500D01*
X99217648Y-72219500D01*
X99066809Y-72243391D01*
X99015465Y-72251523D01*
X98820787Y-72314778D01*
X98820775Y-72314782D01*
X98638387Y-72407714D01*
X98472787Y-72528028D01*
X98472779Y-72528035D01*
X98328035Y-72672779D01*
X98328028Y-72672787D01*
X98207714Y-72838388D01*
X98182760Y-72887363D01*
X98131151Y-72944680D01*
X98057797Y-72968514D01*
X97982355Y-72952478D01*
X97925038Y-72900869D01*
X97917240Y-72887363D01*
X97892287Y-72838390D01*
X97836881Y-72762130D01*
X97771971Y-72672787D01*
X97771964Y-72672779D01*
X97627220Y-72528035D01*
X97627212Y-72528028D01*
X97461612Y-72407714D01*
X97279224Y-72314782D01*
X97279220Y-72314780D01*
X97279219Y-72314780D01*
X97084534Y-72251523D01*
X96882352Y-72219500D01*
X96677648Y-72219500D01*
X96526809Y-72243391D01*
X96475465Y-72251523D01*
X96280787Y-72314778D01*
X96280775Y-72314782D01*
X96098387Y-72407714D01*
X95932787Y-72528028D01*
X95932779Y-72528035D01*
X95788035Y-72672779D01*
X95788028Y-72672787D01*
X95667714Y-72838388D01*
X95642760Y-72887363D01*
X95591151Y-72944680D01*
X95517797Y-72968514D01*
X95442355Y-72952478D01*
X95385038Y-72900869D01*
X95377240Y-72887363D01*
X95352287Y-72838390D01*
X95296881Y-72762130D01*
X95231971Y-72672787D01*
X95231964Y-72672779D01*
X95087220Y-72528035D01*
X95087212Y-72528028D01*
X94921612Y-72407714D01*
X94739224Y-72314782D01*
X94739220Y-72314780D01*
X94739219Y-72314780D01*
X94544534Y-72251523D01*
X94358522Y-72222061D01*
X94288064Y-72190691D01*
X94242729Y-72128293D01*
X94234667Y-72051587D01*
X94266038Y-71981127D01*
X94276468Y-71969542D01*
X94356872Y-71889140D01*
X94423667Y-71850577D01*
X94462230Y-71845500D01*
X96464451Y-71845500D01*
X96464455Y-71845500D01*
X96604620Y-71817619D01*
X96736653Y-71762929D01*
X96798963Y-71721295D01*
X96855480Y-71683532D01*
X97528532Y-71010480D01*
X97607929Y-70891653D01*
X97662619Y-70759620D01*
X97690500Y-70619455D01*
X97690500Y-70340559D01*
X97710462Y-70266059D01*
X97727431Y-70242368D01*
X97730664Y-70238677D01*
X97804414Y-70164928D01*
X97848764Y-70103884D01*
X97853239Y-70098778D01*
X97879834Y-70080989D01*
X97904704Y-70060851D01*
X97911570Y-70059763D01*
X97917348Y-70055899D01*
X97949271Y-70053791D01*
X97980882Y-70048785D01*
X97987373Y-70051276D01*
X97994309Y-70050819D01*
X98023008Y-70064955D01*
X98052888Y-70076425D01*
X98059289Y-70082826D01*
X98063499Y-70084900D01*
X98067813Y-70091350D01*
X98085851Y-70109388D01*
X98125963Y-70164598D01*
X98248396Y-70287031D01*
X98248399Y-70287033D01*
X98388473Y-70388802D01*
X98542744Y-70467409D01*
X98707411Y-70520912D01*
X98715000Y-70522114D01*
X98715000Y-69453330D01*
X98734745Y-69473075D01*
X98820255Y-69522444D01*
X98915630Y-69548000D01*
X99014370Y-69548000D01*
X99109745Y-69522444D01*
X99195255Y-69473075D01*
X99215000Y-69453330D01*
X99215000Y-70522114D01*
X99222588Y-70520912D01*
X99387255Y-70467409D01*
X99541526Y-70388802D01*
X99541527Y-70388802D01*
X99681600Y-70287033D01*
X99681603Y-70287031D01*
X99804031Y-70164603D01*
X99804038Y-70164595D01*
X99844456Y-70108964D01*
X99904395Y-70060425D01*
X99980573Y-70048359D01*
X100052579Y-70075999D01*
X100085544Y-70108964D01*
X100125961Y-70164595D01*
X100125968Y-70164603D01*
X100248396Y-70287031D01*
X100248399Y-70287033D01*
X100388473Y-70388802D01*
X100542744Y-70467409D01*
X100707411Y-70520912D01*
X100715000Y-70522114D01*
X100715000Y-69453330D01*
X100734745Y-69473075D01*
X100820255Y-69522444D01*
X100915630Y-69548000D01*
X101014370Y-69548000D01*
X101109745Y-69522444D01*
X101195255Y-69473075D01*
X101215000Y-69453330D01*
X101215000Y-70537268D01*
G37*
%TD.AperFunction*%
%TA.AperFunction,Conductor*%
G36*
X100664925Y-68942745D02*
G01*
X100615556Y-69028255D01*
X100590000Y-69123630D01*
X100590000Y-69222370D01*
X100615556Y-69317745D01*
X100664925Y-69403255D01*
X100684670Y-69423000D01*
X99245330Y-69423000D01*
X99265075Y-69403255D01*
X99314444Y-69317745D01*
X99340000Y-69222370D01*
X99340000Y-69123630D01*
X99314444Y-69028255D01*
X99265075Y-68942745D01*
X99245330Y-68923000D01*
X100684670Y-68923000D01*
X100664925Y-68942745D01*
G37*
%TD.AperFunction*%
%TA.AperFunction,Conductor*%
G36*
X122625000Y-57120462D02*
G01*
X122679538Y-57175000D01*
X122699500Y-57249500D01*
X122699500Y-68584170D01*
X122679538Y-68658670D01*
X122625000Y-68713208D01*
X122550500Y-68733170D01*
X122476000Y-68713208D01*
X122445141Y-68689529D01*
X122070233Y-68314621D01*
X122031669Y-68247826D01*
X122027052Y-68197560D01*
X122027498Y-68191888D01*
X122027500Y-68191881D01*
X122027500Y-68002919D01*
X121997940Y-67816282D01*
X121939547Y-67636568D01*
X121853760Y-67468201D01*
X121742690Y-67315327D01*
X121609073Y-67181710D01*
X121566998Y-67151140D01*
X121518463Y-67091204D01*
X121506397Y-67015025D01*
X121534037Y-66943020D01*
X121566996Y-66910060D01*
X121609073Y-66879490D01*
X121742690Y-66745873D01*
X121853760Y-66592999D01*
X121939547Y-66424632D01*
X121997940Y-66244918D01*
X122027500Y-66058281D01*
X122027500Y-65869319D01*
X121997940Y-65682682D01*
X121939547Y-65502968D01*
X121853760Y-65334601D01*
X121742690Y-65181727D01*
X121609073Y-65048110D01*
X121511060Y-64976899D01*
X121462523Y-64916961D01*
X121450457Y-64840782D01*
X121478098Y-64768777D01*
X121511055Y-64735818D01*
X121602073Y-64669690D01*
X121735690Y-64536073D01*
X121846760Y-64383199D01*
X121932547Y-64214832D01*
X121990940Y-64035118D01*
X122020500Y-63848481D01*
X122020500Y-63659519D01*
X121990940Y-63472882D01*
X121932547Y-63293168D01*
X121846760Y-63124801D01*
X121735690Y-62971927D01*
X121602073Y-62838310D01*
X121449199Y-62727240D01*
X121363431Y-62683539D01*
X121280842Y-62641458D01*
X121280841Y-62641457D01*
X121280832Y-62641453D01*
X121277359Y-62640324D01*
X121276045Y-62639471D01*
X121275429Y-62639216D01*
X121275476Y-62639101D01*
X121212675Y-62598318D01*
X121177660Y-62529596D01*
X121181697Y-62452574D01*
X121223704Y-62387889D01*
X121240624Y-62374729D01*
X121268398Y-62356170D01*
X121268403Y-62356166D01*
X121411166Y-62213403D01*
X121411170Y-62213398D01*
X121523343Y-62045521D01*
X121523344Y-62045518D01*
X121600608Y-61858985D01*
X121600610Y-61858979D01*
X121610353Y-61810000D01*
X120670330Y-61810000D01*
X120690075Y-61790255D01*
X120739444Y-61704745D01*
X120765000Y-61609370D01*
X120765000Y-61510630D01*
X120739444Y-61415255D01*
X120690075Y-61329745D01*
X120670330Y-61310000D01*
X121610353Y-61310000D01*
X121610352Y-61309999D01*
X121600610Y-61261020D01*
X121600608Y-61261014D01*
X121523344Y-61074481D01*
X121523343Y-61074478D01*
X121411170Y-60906601D01*
X121411166Y-60906596D01*
X121305282Y-60800712D01*
X121266718Y-60733917D01*
X121266718Y-60656789D01*
X121305282Y-60589994D01*
X121352777Y-60542499D01*
X121411558Y-60483718D01*
X121523786Y-60315756D01*
X121601091Y-60129127D01*
X121640500Y-59931003D01*
X121640500Y-59728997D01*
X121601091Y-59530873D01*
X121523786Y-59344244D01*
X121523783Y-59344238D01*
X121442788Y-59223022D01*
X121414583Y-59180809D01*
X121389792Y-59107777D01*
X121404839Y-59032131D01*
X121449178Y-58978753D01*
X121497546Y-58942546D01*
X121568682Y-58847521D01*
X121583795Y-58827333D01*
X121583797Y-58827329D01*
X121614158Y-58745925D01*
X121634091Y-58692483D01*
X121635823Y-58676370D01*
X121640499Y-58632885D01*
X121640499Y-58632882D01*
X121640500Y-58632873D01*
X121640499Y-57487128D01*
X121634091Y-57427517D01*
X121618634Y-57386074D01*
X121587116Y-57301569D01*
X121579785Y-57224790D01*
X121611826Y-57154632D01*
X121674653Y-57109894D01*
X121726722Y-57100500D01*
X122550500Y-57100500D01*
X122625000Y-57120462D01*
G37*
%TD.AperFunction*%
%TA.AperFunction,Conductor*%
G36*
X80595097Y-57120462D02*
G01*
X80649635Y-57175000D01*
X80669597Y-57249500D01*
X80649635Y-57324000D01*
X80625956Y-57354859D01*
X80548035Y-57432779D01*
X80548028Y-57432787D01*
X80427714Y-57598387D01*
X80334782Y-57780775D01*
X80334778Y-57780787D01*
X80272327Y-57972993D01*
X80271523Y-57975466D01*
X80239500Y-58177648D01*
X80239500Y-58382352D01*
X80271523Y-58584534D01*
X80306597Y-58692482D01*
X80334778Y-58779212D01*
X80334782Y-58779224D01*
X80427714Y-58961612D01*
X80548028Y-59127212D01*
X80548035Y-59127220D01*
X80692779Y-59271964D01*
X80692787Y-59271971D01*
X80792269Y-59344248D01*
X80858390Y-59392287D01*
X81040781Y-59485220D01*
X81235466Y-59548477D01*
X81437648Y-59580500D01*
X81437653Y-59580500D01*
X81642347Y-59580500D01*
X81642352Y-59580500D01*
X81844534Y-59548477D01*
X82039219Y-59485220D01*
X82221610Y-59392287D01*
X82387219Y-59271966D01*
X82531966Y-59127219D01*
X82652287Y-58961610D01*
X82677520Y-58912086D01*
X82729128Y-58854770D01*
X82802481Y-58830935D01*
X82877924Y-58846971D01*
X82935241Y-58898579D01*
X82943040Y-58912086D01*
X82968143Y-58961354D01*
X83088412Y-59126889D01*
X83233110Y-59271587D01*
X83398645Y-59391856D01*
X83580967Y-59484753D01*
X83580979Y-59484759D01*
X83775577Y-59547988D01*
X83830000Y-59556607D01*
X83830000Y-58713012D01*
X83887007Y-58745925D01*
X84014174Y-58780000D01*
X84145826Y-58780000D01*
X84272993Y-58745925D01*
X84330000Y-58713012D01*
X84330000Y-59556606D01*
X84384422Y-59547988D01*
X84579020Y-59484759D01*
X84579032Y-59484753D01*
X84761354Y-59391856D01*
X84926889Y-59271587D01*
X85071587Y-59126889D01*
X85191856Y-58961354D01*
X85216958Y-58912088D01*
X85268566Y-58854770D01*
X85341919Y-58830935D01*
X85417362Y-58846970D01*
X85474680Y-58898578D01*
X85482478Y-58912085D01*
X85507712Y-58961609D01*
X85628028Y-59127212D01*
X85628035Y-59127220D01*
X85772779Y-59271964D01*
X85772787Y-59271971D01*
X85872269Y-59344248D01*
X85938390Y-59392287D01*
X86120781Y-59485220D01*
X86315466Y-59548477D01*
X86517648Y-59580500D01*
X86517653Y-59580500D01*
X86722347Y-59580500D01*
X86722352Y-59580500D01*
X86924534Y-59548477D01*
X87119219Y-59485220D01*
X87301610Y-59392287D01*
X87467219Y-59271966D01*
X87611966Y-59127219D01*
X87732287Y-58961610D01*
X87757240Y-58912636D01*
X87808848Y-58855319D01*
X87882202Y-58831485D01*
X87957644Y-58847521D01*
X88014962Y-58899129D01*
X88022760Y-58912637D01*
X88047712Y-58961609D01*
X88168028Y-59127212D01*
X88168035Y-59127220D01*
X88312779Y-59271964D01*
X88312787Y-59271971D01*
X88412269Y-59344248D01*
X88478390Y-59392287D01*
X88660781Y-59485220D01*
X88855466Y-59548477D01*
X89057648Y-59580500D01*
X89057653Y-59580500D01*
X89262347Y-59580500D01*
X89262352Y-59580500D01*
X89464534Y-59548477D01*
X89659219Y-59485220D01*
X89841610Y-59392287D01*
X90007219Y-59271966D01*
X90151966Y-59127219D01*
X90272287Y-58961610D01*
X90297240Y-58912636D01*
X90348848Y-58855319D01*
X90422202Y-58831485D01*
X90497644Y-58847521D01*
X90554962Y-58899129D01*
X90562760Y-58912637D01*
X90587712Y-58961609D01*
X90708028Y-59127212D01*
X90708035Y-59127220D01*
X90852779Y-59271964D01*
X90852787Y-59271971D01*
X90952269Y-59344248D01*
X91018390Y-59392287D01*
X91200781Y-59485220D01*
X91395466Y-59548477D01*
X91597648Y-59580500D01*
X91597653Y-59580500D01*
X91802347Y-59580500D01*
X91802352Y-59580500D01*
X92004534Y-59548477D01*
X92199219Y-59485220D01*
X92381610Y-59392287D01*
X92547219Y-59271966D01*
X92691966Y-59127219D01*
X92812287Y-58961610D01*
X92837240Y-58912636D01*
X92888848Y-58855319D01*
X92962202Y-58831485D01*
X93037644Y-58847521D01*
X93094962Y-58899129D01*
X93102760Y-58912637D01*
X93127712Y-58961609D01*
X93248028Y-59127212D01*
X93248035Y-59127220D01*
X93277042Y-59156227D01*
X93315606Y-59223022D01*
X93315606Y-59300150D01*
X93277042Y-59366945D01*
X91479129Y-61164859D01*
X91412334Y-61203423D01*
X91373770Y-61208500D01*
X88202886Y-61208500D01*
X88128386Y-61188538D01*
X88073848Y-61134000D01*
X88070125Y-61127143D01*
X88047231Y-61082211D01*
X87946331Y-60943335D01*
X87945414Y-60942072D01*
X87822928Y-60819586D01*
X87818118Y-60816091D01*
X87682793Y-60717771D01*
X87682790Y-60717769D01*
X87682788Y-60717768D01*
X87528445Y-60639127D01*
X87460346Y-60617000D01*
X87363700Y-60585597D01*
X87262012Y-60569492D01*
X87192611Y-60558500D01*
X87019389Y-60558500D01*
X86953088Y-60569001D01*
X86848299Y-60585597D01*
X86683561Y-60639125D01*
X86683555Y-60639127D01*
X86683549Y-60639129D01*
X86683549Y-60639130D01*
X86529206Y-60717771D01*
X86389075Y-60819583D01*
X86389062Y-60819595D01*
X86303523Y-60905134D01*
X86236728Y-60943698D01*
X86159600Y-60943698D01*
X86092806Y-60905133D01*
X86071347Y-60877994D01*
X86048320Y-60840660D01*
X85924340Y-60716680D01*
X85775121Y-60624642D01*
X85608697Y-60569494D01*
X85608688Y-60569492D01*
X85505989Y-60559000D01*
X85356000Y-60559000D01*
X85356000Y-61653670D01*
X85336255Y-61633925D01*
X85250745Y-61584556D01*
X85155370Y-61559000D01*
X85056630Y-61559000D01*
X84961255Y-61584556D01*
X84875745Y-61633925D01*
X84856000Y-61653670D01*
X84856000Y-60559000D01*
X84706026Y-60559000D01*
X84603303Y-60569494D01*
X84436878Y-60624642D01*
X84287659Y-60716680D01*
X84163680Y-60840659D01*
X84071642Y-60989878D01*
X84016494Y-61156302D01*
X84016492Y-61156311D01*
X84006000Y-61259010D01*
X84006000Y-61684000D01*
X84825670Y-61684000D01*
X84805925Y-61703745D01*
X84756556Y-61789255D01*
X84731000Y-61884630D01*
X84731000Y-61983370D01*
X84756556Y-62078745D01*
X84805925Y-62164255D01*
X84825670Y-62184000D01*
X84006001Y-62184000D01*
X84006001Y-62608973D01*
X84016494Y-62711696D01*
X84071642Y-62878121D01*
X84163680Y-63027340D01*
X84287659Y-63151319D01*
X84436878Y-63243357D01*
X84603302Y-63298505D01*
X84603311Y-63298507D01*
X84706015Y-63308999D01*
X84856000Y-63308999D01*
X84856000Y-62214330D01*
X84875745Y-62234075D01*
X84961255Y-62283444D01*
X85056630Y-62309000D01*
X85155370Y-62309000D01*
X85250745Y-62283444D01*
X85336255Y-62234075D01*
X85356000Y-62214330D01*
X85356000Y-63308999D01*
X85505974Y-63308999D01*
X85608696Y-63298505D01*
X85775121Y-63243357D01*
X85924340Y-63151319D01*
X86048319Y-63027340D01*
X86048322Y-63027336D01*
X86071347Y-62990006D01*
X86127446Y-62937076D01*
X86202495Y-62919287D01*
X86276383Y-62941406D01*
X86303519Y-62962861D01*
X86389072Y-63048414D01*
X86389075Y-63048416D01*
X86499275Y-63128482D01*
X86529212Y-63150232D01*
X86683555Y-63228873D01*
X86848299Y-63282402D01*
X87019389Y-63309500D01*
X87019393Y-63309500D01*
X87192607Y-63309500D01*
X87192611Y-63309500D01*
X87363701Y-63282402D01*
X87528445Y-63228873D01*
X87682788Y-63150232D01*
X87822928Y-63048414D01*
X87945414Y-62925928D01*
X88047232Y-62785788D01*
X88070125Y-62740856D01*
X88121733Y-62683539D01*
X88195086Y-62659704D01*
X88202886Y-62659500D01*
X91807451Y-62659500D01*
X91807455Y-62659500D01*
X91947620Y-62631619D01*
X92079653Y-62576929D01*
X92120150Y-62549870D01*
X92198480Y-62497532D01*
X94109871Y-60586141D01*
X94176666Y-60547577D01*
X94215230Y-60542500D01*
X94385500Y-60542500D01*
X94460000Y-60562462D01*
X94514538Y-60617000D01*
X94534500Y-60691500D01*
X94534500Y-62365863D01*
X94534502Y-62365888D01*
X94540908Y-62425478D01*
X94540909Y-62425484D01*
X94591202Y-62560329D01*
X94591204Y-62560333D01*
X94677452Y-62675544D01*
X94677454Y-62675546D01*
X94736246Y-62719558D01*
X94751960Y-62731321D01*
X94799637Y-62791947D01*
X94810613Y-62868290D01*
X94781947Y-62939894D01*
X94768026Y-62955960D01*
X94095692Y-63628294D01*
X94028897Y-63666858D01*
X94013643Y-63670100D01*
X93933762Y-63682752D01*
X93819129Y-63719999D01*
X93731588Y-63748443D01*
X93731582Y-63748445D01*
X93731582Y-63748446D01*
X93542182Y-63844950D01*
X93542181Y-63844950D01*
X93370209Y-63969895D01*
X93370198Y-63969904D01*
X93283791Y-64056311D01*
X93216996Y-64094875D01*
X93139868Y-64094875D01*
X93073074Y-64056310D01*
X93038828Y-64003022D01*
X93003354Y-63907915D01*
X93003349Y-63907905D01*
X92917190Y-63792812D01*
X92917187Y-63792809D01*
X92802094Y-63706650D01*
X92802084Y-63706645D01*
X92667376Y-63656401D01*
X92667378Y-63656401D01*
X92607842Y-63650001D01*
X92607823Y-63650000D01*
X91960000Y-63650000D01*
X91960000Y-64566988D01*
X91902993Y-64534075D01*
X91775826Y-64500000D01*
X91644174Y-64500000D01*
X91517007Y-64534075D01*
X91460000Y-64566988D01*
X91460000Y-63650000D01*
X90812177Y-63650000D01*
X90812157Y-63650001D01*
X90752622Y-63656401D01*
X90617915Y-63706645D01*
X90617905Y-63706650D01*
X90502812Y-63792809D01*
X90502809Y-63792812D01*
X90416650Y-63907905D01*
X90416645Y-63907915D01*
X90366401Y-64042622D01*
X90360001Y-64102157D01*
X90360000Y-64102177D01*
X90360000Y-64750000D01*
X91276988Y-64750000D01*
X91244075Y-64807007D01*
X91210000Y-64934174D01*
X91210000Y-65065826D01*
X91244075Y-65192993D01*
X91276988Y-65250000D01*
X90360000Y-65250000D01*
X90360000Y-65897822D01*
X90360001Y-65897842D01*
X90366401Y-65957377D01*
X90416645Y-66092084D01*
X90416650Y-66092094D01*
X90502809Y-66207187D01*
X90502812Y-66207190D01*
X90617905Y-66293349D01*
X90617915Y-66293354D01*
X90752623Y-66343598D01*
X90752621Y-66343598D01*
X90812157Y-66349998D01*
X90812177Y-66350000D01*
X91460000Y-66350000D01*
X91460000Y-65433012D01*
X91517007Y-65465925D01*
X91644174Y-65500000D01*
X91775826Y-65500000D01*
X91902993Y-65465925D01*
X91960000Y-65433012D01*
X91960000Y-66350000D01*
X92607823Y-66350000D01*
X92607842Y-66349998D01*
X92667377Y-66343598D01*
X92802084Y-66293354D01*
X92802094Y-66293349D01*
X92917187Y-66207190D01*
X92917190Y-66207187D01*
X93003349Y-66092094D01*
X93003351Y-66092090D01*
X93038827Y-65996977D01*
X93083566Y-65934150D01*
X93153724Y-65902110D01*
X93230503Y-65909441D01*
X93283792Y-65943688D01*
X93370208Y-66030104D01*
X93542184Y-66155051D01*
X93731588Y-66251557D01*
X93933757Y-66317246D01*
X94143713Y-66350500D01*
X94143718Y-66350500D01*
X94356282Y-66350500D01*
X94356287Y-66350500D01*
X94566243Y-66317246D01*
X94768412Y-66251557D01*
X94957816Y-66155051D01*
X95129792Y-66030104D01*
X95280104Y-65879792D01*
X95399456Y-65715517D01*
X95459396Y-65666979D01*
X95535574Y-65654913D01*
X95607580Y-65682553D01*
X95640544Y-65715517D01*
X95759896Y-65879792D01*
X95910208Y-66030104D01*
X96082184Y-66155051D01*
X96271588Y-66251557D01*
X96473757Y-66317246D01*
X96683713Y-66350500D01*
X96683718Y-66350500D01*
X96896286Y-66350500D01*
X96896287Y-66350500D01*
X97009669Y-66332541D01*
X97086371Y-66340602D01*
X97138335Y-66374347D01*
X98463867Y-67699879D01*
X98502431Y-67766674D01*
X98502431Y-67843802D01*
X98463867Y-67910597D01*
X98426154Y-67937997D01*
X98388478Y-67957194D01*
X98388472Y-67957197D01*
X98248399Y-68058966D01*
X98248396Y-68058968D01*
X98125968Y-68181396D01*
X98125961Y-68181404D01*
X98085850Y-68236612D01*
X98025910Y-68285149D01*
X97949731Y-68297214D01*
X97877726Y-68269572D01*
X97844765Y-68236610D01*
X97812267Y-68191881D01*
X97804414Y-68181072D01*
X97681928Y-68058586D01*
X97605315Y-68002923D01*
X97541793Y-67956771D01*
X97541790Y-67956769D01*
X97541788Y-67956768D01*
X97387445Y-67878127D01*
X97310362Y-67853081D01*
X97222700Y-67824597D01*
X97125086Y-67809137D01*
X97051611Y-67797500D01*
X96878389Y-67797500D01*
X96812088Y-67808001D01*
X96707299Y-67824597D01*
X96564923Y-67870859D01*
X96542555Y-67878127D01*
X96542549Y-67878129D01*
X96542549Y-67878130D01*
X96388206Y-67956771D01*
X96248075Y-68058583D01*
X96162886Y-68143772D01*
X96096091Y-68182335D01*
X96018963Y-68182335D01*
X95952168Y-68143770D01*
X95930715Y-68116639D01*
X95907712Y-68079344D01*
X95783656Y-67955288D01*
X95634334Y-67863186D01*
X95551065Y-67835593D01*
X95467798Y-67808001D01*
X95450665Y-67806250D01*
X95365009Y-67797500D01*
X95365004Y-67797500D01*
X94564994Y-67797500D01*
X94564984Y-67797501D01*
X94530488Y-67801024D01*
X94486284Y-67798932D01*
X94363461Y-67774500D01*
X94363455Y-67774500D01*
X91112230Y-67774500D01*
X91037730Y-67754538D01*
X91006871Y-67730859D01*
X88212480Y-64936468D01*
X88099059Y-64860683D01*
X88093655Y-64857072D01*
X88093647Y-64857068D01*
X87972788Y-64807007D01*
X87961620Y-64802381D01*
X87961618Y-64802380D01*
X87961619Y-64802380D01*
X87821458Y-64774500D01*
X87821455Y-64774500D01*
X84571456Y-64774500D01*
X84428545Y-64774500D01*
X84428541Y-64774500D01*
X84288381Y-64802380D01*
X84156352Y-64857068D01*
X84156344Y-64857073D01*
X84037522Y-64936466D01*
X84037520Y-64936467D01*
X81103129Y-67870859D01*
X81036334Y-67909423D01*
X80997770Y-67914500D01*
X80642320Y-67914500D01*
X80567820Y-67894538D01*
X80521777Y-67853081D01*
X80432977Y-67730859D01*
X80405786Y-67693434D01*
X80244066Y-67531714D01*
X80186974Y-67490234D01*
X80138436Y-67430294D01*
X80126370Y-67354116D01*
X80154011Y-67282111D01*
X80186975Y-67249147D01*
X80243734Y-67207909D01*
X80405407Y-67046236D01*
X80539787Y-66861277D01*
X80539790Y-66861272D01*
X80643578Y-66657576D01*
X80643585Y-66657559D01*
X80714233Y-66440128D01*
X80728509Y-66350000D01*
X79740748Y-66350000D01*
X79762518Y-66312292D01*
X79800000Y-66172409D01*
X79800000Y-66027591D01*
X79762518Y-65887708D01*
X79740748Y-65850000D01*
X80728508Y-65850000D01*
X80714233Y-65759871D01*
X80643585Y-65542440D01*
X80643578Y-65542423D01*
X80539790Y-65338727D01*
X80539782Y-65338713D01*
X80426330Y-65182560D01*
X80398689Y-65110555D01*
X80410755Y-65034376D01*
X80459293Y-64974437D01*
X80483111Y-64961650D01*
X80482977Y-64961404D01*
X80492333Y-64956295D01*
X80568868Y-64899000D01*
X80607546Y-64870046D01*
X80693796Y-64754831D01*
X80696967Y-64746331D01*
X80725549Y-64669696D01*
X80744091Y-64619983D01*
X80750500Y-64560373D01*
X80750499Y-63505095D01*
X80750499Y-62559636D01*
X80750499Y-62559628D01*
X80744091Y-62500017D01*
X80702270Y-62387889D01*
X80693797Y-62365170D01*
X80693795Y-62365166D01*
X80607547Y-62249955D01*
X80607544Y-62249952D01*
X80596336Y-62241562D01*
X80492333Y-62163704D01*
X80492329Y-62163702D01*
X80357482Y-62113408D01*
X80297876Y-62107000D01*
X78202136Y-62107000D01*
X78202111Y-62107002D01*
X78142521Y-62113408D01*
X78142512Y-62113410D01*
X78001568Y-62165978D01*
X77924789Y-62173309D01*
X77854632Y-62141268D01*
X77809894Y-62078440D01*
X77800500Y-62026372D01*
X77800500Y-57249500D01*
X77820462Y-57175000D01*
X77875000Y-57120462D01*
X77949500Y-57100500D01*
X80520597Y-57100500D01*
X80595097Y-57120462D01*
G37*
%TD.AperFunction*%
%TA.AperFunction,Conductor*%
G36*
X99285500Y-63995462D02*
G01*
X99340038Y-64050000D01*
X99360000Y-64124500D01*
X99360000Y-64750000D01*
X100276988Y-64750000D01*
X100244075Y-64807007D01*
X100210000Y-64934174D01*
X100210000Y-65065826D01*
X100244075Y-65192993D01*
X100276988Y-65250000D01*
X99360000Y-65250000D01*
X99360000Y-65897822D01*
X99360001Y-65897842D01*
X99366401Y-65957377D01*
X99416645Y-66092084D01*
X99416650Y-66092094D01*
X99509197Y-66215720D01*
X99506982Y-66217377D01*
X99537327Y-66269936D01*
X99537327Y-66347064D01*
X99498763Y-66413859D01*
X99431968Y-66452423D01*
X99393404Y-66457500D01*
X99335230Y-66457500D01*
X99260730Y-66437538D01*
X99229871Y-66413859D01*
X98164347Y-65348335D01*
X98125783Y-65281540D01*
X98122541Y-65219670D01*
X98140500Y-65106287D01*
X98140500Y-64893713D01*
X98107246Y-64683757D01*
X98041557Y-64481588D01*
X97945051Y-64292184D01*
X97945047Y-64292178D01*
X97945044Y-64292173D01*
X97886853Y-64212080D01*
X97859212Y-64140075D01*
X97871278Y-64063896D01*
X97919816Y-64003957D01*
X97991821Y-63976316D01*
X98007396Y-63975500D01*
X99211000Y-63975500D01*
X99285500Y-63995462D01*
G37*
%TD.AperFunction*%
%TD*%
M02*
