%TF.GenerationSoftware,KiCad,Pcbnew,9.0.6*%
%TF.CreationDate,2026-02-19T21:20:34+01:00*%
%TF.ProjectId,TankIR_Breaker,54616e6b-4952-45f4-9272-65616b65722e,rev?*%
%TF.SameCoordinates,Original*%
%TF.FileFunction,Legend,Top*%
%TF.FilePolarity,Positive*%
%FSLAX46Y46*%
G04 Gerber Fmt 4.6, Leading zero omitted, Abs format (unit mm)*
G04 Created by KiCad (PCBNEW 9.0.6) date 2026-02-19 21:20:34*
%MOMM*%
%LPD*%
G01*
G04 APERTURE LIST*
%ADD10C,0.200000*%
%ADD11C,0.100000*%
%ADD12C,0.150000*%
%ADD13C,0.120000*%
G04 APERTURE END LIST*
D10*
X113469673Y-68486266D02*
X114231578Y-68486266D01*
X113850625Y-68867219D02*
X113850625Y-68105314D01*
X91069673Y-63486266D02*
X91831578Y-63486266D01*
X91450625Y-63867219D02*
X91450625Y-63105314D01*
D11*
X83448609Y-71362782D02*
X83496228Y-71219925D01*
X83496228Y-71219925D02*
X83543847Y-71172306D01*
X83543847Y-71172306D02*
X83639085Y-71124687D01*
X83639085Y-71124687D02*
X83781942Y-71124687D01*
X83781942Y-71124687D02*
X83877180Y-71172306D01*
X83877180Y-71172306D02*
X83924800Y-71219925D01*
X83924800Y-71219925D02*
X83972419Y-71315163D01*
X83972419Y-71315163D02*
X83972419Y-71696115D01*
X83972419Y-71696115D02*
X82972419Y-71696115D01*
X82972419Y-71696115D02*
X82972419Y-71362782D01*
X82972419Y-71362782D02*
X83020038Y-71267544D01*
X83020038Y-71267544D02*
X83067657Y-71219925D01*
X83067657Y-71219925D02*
X83162895Y-71172306D01*
X83162895Y-71172306D02*
X83258133Y-71172306D01*
X83258133Y-71172306D02*
X83353371Y-71219925D01*
X83353371Y-71219925D02*
X83400990Y-71267544D01*
X83400990Y-71267544D02*
X83448609Y-71362782D01*
X83448609Y-71362782D02*
X83448609Y-71696115D01*
X83686704Y-70743734D02*
X83686704Y-70267544D01*
X83972419Y-70838972D02*
X82972419Y-70505639D01*
X82972419Y-70505639D02*
X83972419Y-70172306D01*
X82972419Y-69981829D02*
X82972419Y-69410401D01*
X83972419Y-69696115D02*
X82972419Y-69696115D01*
X82972419Y-69219924D02*
X82972419Y-68648496D01*
X83972419Y-68934210D02*
X82972419Y-68934210D01*
X83448609Y-68315162D02*
X83448609Y-67981829D01*
X83972419Y-67838972D02*
X83972419Y-68315162D01*
X83972419Y-68315162D02*
X82972419Y-68315162D01*
X82972419Y-68315162D02*
X82972419Y-67838972D01*
X83972419Y-66838972D02*
X83496228Y-67172305D01*
X83972419Y-67410400D02*
X82972419Y-67410400D01*
X82972419Y-67410400D02*
X82972419Y-67029448D01*
X82972419Y-67029448D02*
X83020038Y-66934210D01*
X83020038Y-66934210D02*
X83067657Y-66886591D01*
X83067657Y-66886591D02*
X83162895Y-66838972D01*
X83162895Y-66838972D02*
X83305752Y-66838972D01*
X83305752Y-66838972D02*
X83400990Y-66886591D01*
X83400990Y-66886591D02*
X83448609Y-66934210D01*
X83448609Y-66934210D02*
X83496228Y-67029448D01*
X83496228Y-67029448D02*
X83496228Y-67410400D01*
X83496228Y-66219924D02*
X83972419Y-66219924D01*
X82972419Y-66553257D02*
X83496228Y-66219924D01*
X83496228Y-66219924D02*
X82972419Y-65886591D01*
X107903884Y-65972419D02*
X107903884Y-64972419D01*
X107903884Y-64972419D02*
X108237217Y-65686704D01*
X108237217Y-65686704D02*
X108570550Y-64972419D01*
X108570550Y-64972419D02*
X108570550Y-65972419D01*
X109046741Y-64972419D02*
X109046741Y-65781942D01*
X109046741Y-65781942D02*
X109094360Y-65877180D01*
X109094360Y-65877180D02*
X109141979Y-65924800D01*
X109141979Y-65924800D02*
X109237217Y-65972419D01*
X109237217Y-65972419D02*
X109427693Y-65972419D01*
X109427693Y-65972419D02*
X109522931Y-65924800D01*
X109522931Y-65924800D02*
X109570550Y-65877180D01*
X109570550Y-65877180D02*
X109618169Y-65781942D01*
X109618169Y-65781942D02*
X109618169Y-64972419D01*
X109999122Y-64972419D02*
X110665788Y-64972419D01*
X110665788Y-64972419D02*
X109999122Y-65972419D01*
X109999122Y-65972419D02*
X110665788Y-65972419D01*
X110951503Y-64972419D02*
X111618169Y-64972419D01*
X111618169Y-64972419D02*
X110951503Y-65972419D01*
X110951503Y-65972419D02*
X111618169Y-65972419D01*
X112475312Y-65972419D02*
X111999122Y-65972419D01*
X111999122Y-65972419D02*
X111999122Y-64972419D01*
X112808646Y-65448609D02*
X113141979Y-65448609D01*
X113284836Y-65972419D02*
X112808646Y-65972419D01*
X112808646Y-65972419D02*
X112808646Y-64972419D01*
X112808646Y-64972419D02*
X113284836Y-64972419D01*
X106003884Y-66372419D02*
X106003884Y-65372419D01*
X107051502Y-66372419D02*
X106718169Y-65896228D01*
X106480074Y-66372419D02*
X106480074Y-65372419D01*
X106480074Y-65372419D02*
X106861026Y-65372419D01*
X106861026Y-65372419D02*
X106956264Y-65420038D01*
X106956264Y-65420038D02*
X107003883Y-65467657D01*
X107003883Y-65467657D02*
X107051502Y-65562895D01*
X107051502Y-65562895D02*
X107051502Y-65705752D01*
X107051502Y-65705752D02*
X107003883Y-65800990D01*
X107003883Y-65800990D02*
X106956264Y-65848609D01*
X106956264Y-65848609D02*
X106861026Y-65896228D01*
X106861026Y-65896228D02*
X106480074Y-65896228D01*
X100656265Y-66586704D02*
X101132455Y-66586704D01*
X100561027Y-66872419D02*
X100894360Y-65872419D01*
X100894360Y-65872419D02*
X101227693Y-66872419D01*
X101561027Y-66872419D02*
X101561027Y-65872419D01*
X101561027Y-65872419D02*
X101941979Y-65872419D01*
X101941979Y-65872419D02*
X102037217Y-65920038D01*
X102037217Y-65920038D02*
X102084836Y-65967657D01*
X102084836Y-65967657D02*
X102132455Y-66062895D01*
X102132455Y-66062895D02*
X102132455Y-66205752D01*
X102132455Y-66205752D02*
X102084836Y-66300990D01*
X102084836Y-66300990D02*
X102037217Y-66348609D01*
X102037217Y-66348609D02*
X101941979Y-66396228D01*
X101941979Y-66396228D02*
X101561027Y-66396228D01*
X102561027Y-66872419D02*
X102561027Y-65872419D01*
X102561027Y-65872419D02*
X102941979Y-65872419D01*
X102941979Y-65872419D02*
X103037217Y-65920038D01*
X103037217Y-65920038D02*
X103084836Y-65967657D01*
X103084836Y-65967657D02*
X103132455Y-66062895D01*
X103132455Y-66062895D02*
X103132455Y-66205752D01*
X103132455Y-66205752D02*
X103084836Y-66300990D01*
X103084836Y-66300990D02*
X103037217Y-66348609D01*
X103037217Y-66348609D02*
X102941979Y-66396228D01*
X102941979Y-66396228D02*
X102561027Y-66396228D01*
X104037217Y-66872419D02*
X103561027Y-66872419D01*
X103561027Y-66872419D02*
X103561027Y-65872419D01*
X104370551Y-66348609D02*
X104703884Y-66348609D01*
X104846741Y-66872419D02*
X104370551Y-66872419D01*
X104370551Y-66872419D02*
X104370551Y-65872419D01*
X104370551Y-65872419D02*
X104846741Y-65872419D01*
X100575312Y-65372419D02*
X100241979Y-64896228D01*
X100003884Y-65372419D02*
X100003884Y-64372419D01*
X100003884Y-64372419D02*
X100384836Y-64372419D01*
X100384836Y-64372419D02*
X100480074Y-64420038D01*
X100480074Y-64420038D02*
X100527693Y-64467657D01*
X100527693Y-64467657D02*
X100575312Y-64562895D01*
X100575312Y-64562895D02*
X100575312Y-64705752D01*
X100575312Y-64705752D02*
X100527693Y-64800990D01*
X100527693Y-64800990D02*
X100480074Y-64848609D01*
X100480074Y-64848609D02*
X100384836Y-64896228D01*
X100384836Y-64896228D02*
X100003884Y-64896228D01*
X101575312Y-65277180D02*
X101527693Y-65324800D01*
X101527693Y-65324800D02*
X101384836Y-65372419D01*
X101384836Y-65372419D02*
X101289598Y-65372419D01*
X101289598Y-65372419D02*
X101146741Y-65324800D01*
X101146741Y-65324800D02*
X101051503Y-65229561D01*
X101051503Y-65229561D02*
X101003884Y-65134323D01*
X101003884Y-65134323D02*
X100956265Y-64943847D01*
X100956265Y-64943847D02*
X100956265Y-64800990D01*
X100956265Y-64800990D02*
X101003884Y-64610514D01*
X101003884Y-64610514D02*
X101051503Y-64515276D01*
X101051503Y-64515276D02*
X101146741Y-64420038D01*
X101146741Y-64420038D02*
X101289598Y-64372419D01*
X101289598Y-64372419D02*
X101384836Y-64372419D01*
X101384836Y-64372419D02*
X101527693Y-64420038D01*
X101527693Y-64420038D02*
X101575312Y-64467657D01*
X101765789Y-65467657D02*
X102527693Y-65467657D01*
X102765789Y-65372419D02*
X102765789Y-64372419D01*
X103241979Y-65372419D02*
X103241979Y-64372419D01*
X103241979Y-64372419D02*
X103813407Y-65372419D01*
X103813407Y-65372419D02*
X103813407Y-64372419D01*
X101256265Y-63924800D02*
X101399122Y-63972419D01*
X101399122Y-63972419D02*
X101637217Y-63972419D01*
X101637217Y-63972419D02*
X101732455Y-63924800D01*
X101732455Y-63924800D02*
X101780074Y-63877180D01*
X101780074Y-63877180D02*
X101827693Y-63781942D01*
X101827693Y-63781942D02*
X101827693Y-63686704D01*
X101827693Y-63686704D02*
X101780074Y-63591466D01*
X101780074Y-63591466D02*
X101732455Y-63543847D01*
X101732455Y-63543847D02*
X101637217Y-63496228D01*
X101637217Y-63496228D02*
X101446741Y-63448609D01*
X101446741Y-63448609D02*
X101351503Y-63400990D01*
X101351503Y-63400990D02*
X101303884Y-63353371D01*
X101303884Y-63353371D02*
X101256265Y-63258133D01*
X101256265Y-63258133D02*
X101256265Y-63162895D01*
X101256265Y-63162895D02*
X101303884Y-63067657D01*
X101303884Y-63067657D02*
X101351503Y-63020038D01*
X101351503Y-63020038D02*
X101446741Y-62972419D01*
X101446741Y-62972419D02*
X101684836Y-62972419D01*
X101684836Y-62972419D02*
X101827693Y-63020038D01*
X102446741Y-62972419D02*
X102637217Y-62972419D01*
X102637217Y-62972419D02*
X102732455Y-63020038D01*
X102732455Y-63020038D02*
X102827693Y-63115276D01*
X102827693Y-63115276D02*
X102875312Y-63305752D01*
X102875312Y-63305752D02*
X102875312Y-63639085D01*
X102875312Y-63639085D02*
X102827693Y-63829561D01*
X102827693Y-63829561D02*
X102732455Y-63924800D01*
X102732455Y-63924800D02*
X102637217Y-63972419D01*
X102637217Y-63972419D02*
X102446741Y-63972419D01*
X102446741Y-63972419D02*
X102351503Y-63924800D01*
X102351503Y-63924800D02*
X102256265Y-63829561D01*
X102256265Y-63829561D02*
X102208646Y-63639085D01*
X102208646Y-63639085D02*
X102208646Y-63305752D01*
X102208646Y-63305752D02*
X102256265Y-63115276D01*
X102256265Y-63115276D02*
X102351503Y-63020038D01*
X102351503Y-63020038D02*
X102446741Y-62972419D01*
X103303884Y-62972419D02*
X103303884Y-63781942D01*
X103303884Y-63781942D02*
X103351503Y-63877180D01*
X103351503Y-63877180D02*
X103399122Y-63924800D01*
X103399122Y-63924800D02*
X103494360Y-63972419D01*
X103494360Y-63972419D02*
X103684836Y-63972419D01*
X103684836Y-63972419D02*
X103780074Y-63924800D01*
X103780074Y-63924800D02*
X103827693Y-63877180D01*
X103827693Y-63877180D02*
X103875312Y-63781942D01*
X103875312Y-63781942D02*
X103875312Y-62972419D01*
X104351503Y-63972419D02*
X104351503Y-62972419D01*
X104351503Y-62972419D02*
X104922931Y-63972419D01*
X104922931Y-63972419D02*
X104922931Y-62972419D01*
X105399122Y-63972419D02*
X105399122Y-62972419D01*
X105399122Y-62972419D02*
X105637217Y-62972419D01*
X105637217Y-62972419D02*
X105780074Y-63020038D01*
X105780074Y-63020038D02*
X105875312Y-63115276D01*
X105875312Y-63115276D02*
X105922931Y-63210514D01*
X105922931Y-63210514D02*
X105970550Y-63400990D01*
X105970550Y-63400990D02*
X105970550Y-63543847D01*
X105970550Y-63543847D02*
X105922931Y-63734323D01*
X105922931Y-63734323D02*
X105875312Y-63829561D01*
X105875312Y-63829561D02*
X105780074Y-63924800D01*
X105780074Y-63924800D02*
X105637217Y-63972419D01*
X105637217Y-63972419D02*
X105399122Y-63972419D01*
X90972419Y-62938972D02*
X90972419Y-62367544D01*
X91972419Y-62653258D02*
X90972419Y-62653258D01*
X91972419Y-61462782D02*
X91496228Y-61796115D01*
X91972419Y-62034210D02*
X90972419Y-62034210D01*
X90972419Y-62034210D02*
X90972419Y-61653258D01*
X90972419Y-61653258D02*
X91020038Y-61558020D01*
X91020038Y-61558020D02*
X91067657Y-61510401D01*
X91067657Y-61510401D02*
X91162895Y-61462782D01*
X91162895Y-61462782D02*
X91305752Y-61462782D01*
X91305752Y-61462782D02*
X91400990Y-61510401D01*
X91400990Y-61510401D02*
X91448609Y-61558020D01*
X91448609Y-61558020D02*
X91496228Y-61653258D01*
X91496228Y-61653258D02*
X91496228Y-62034210D01*
X91972419Y-61034210D02*
X90972419Y-61034210D01*
X91020038Y-60034211D02*
X90972419Y-60129449D01*
X90972419Y-60129449D02*
X90972419Y-60272306D01*
X90972419Y-60272306D02*
X91020038Y-60415163D01*
X91020038Y-60415163D02*
X91115276Y-60510401D01*
X91115276Y-60510401D02*
X91210514Y-60558020D01*
X91210514Y-60558020D02*
X91400990Y-60605639D01*
X91400990Y-60605639D02*
X91543847Y-60605639D01*
X91543847Y-60605639D02*
X91734323Y-60558020D01*
X91734323Y-60558020D02*
X91829561Y-60510401D01*
X91829561Y-60510401D02*
X91924800Y-60415163D01*
X91924800Y-60415163D02*
X91972419Y-60272306D01*
X91972419Y-60272306D02*
X91972419Y-60177068D01*
X91972419Y-60177068D02*
X91924800Y-60034211D01*
X91924800Y-60034211D02*
X91877180Y-59986592D01*
X91877180Y-59986592D02*
X91543847Y-59986592D01*
X91543847Y-59986592D02*
X91543847Y-60177068D01*
D12*
X112533333Y-69854819D02*
X112200000Y-69378628D01*
X111961905Y-69854819D02*
X111961905Y-68854819D01*
X111961905Y-68854819D02*
X112342857Y-68854819D01*
X112342857Y-68854819D02*
X112438095Y-68902438D01*
X112438095Y-68902438D02*
X112485714Y-68950057D01*
X112485714Y-68950057D02*
X112533333Y-69045295D01*
X112533333Y-69045295D02*
X112533333Y-69188152D01*
X112533333Y-69188152D02*
X112485714Y-69283390D01*
X112485714Y-69283390D02*
X112438095Y-69331009D01*
X112438095Y-69331009D02*
X112342857Y-69378628D01*
X112342857Y-69378628D02*
X111961905Y-69378628D01*
X112866667Y-68854819D02*
X113485714Y-68854819D01*
X113485714Y-68854819D02*
X113152381Y-69235771D01*
X113152381Y-69235771D02*
X113295238Y-69235771D01*
X113295238Y-69235771D02*
X113390476Y-69283390D01*
X113390476Y-69283390D02*
X113438095Y-69331009D01*
X113438095Y-69331009D02*
X113485714Y-69426247D01*
X113485714Y-69426247D02*
X113485714Y-69664342D01*
X113485714Y-69664342D02*
X113438095Y-69759580D01*
X113438095Y-69759580D02*
X113390476Y-69807200D01*
X113390476Y-69807200D02*
X113295238Y-69854819D01*
X113295238Y-69854819D02*
X113009524Y-69854819D01*
X113009524Y-69854819D02*
X112914286Y-69807200D01*
X112914286Y-69807200D02*
X112866667Y-69759580D01*
X120733333Y-65754819D02*
X120400000Y-65278628D01*
X120161905Y-65754819D02*
X120161905Y-64754819D01*
X120161905Y-64754819D02*
X120542857Y-64754819D01*
X120542857Y-64754819D02*
X120638095Y-64802438D01*
X120638095Y-64802438D02*
X120685714Y-64850057D01*
X120685714Y-64850057D02*
X120733333Y-64945295D01*
X120733333Y-64945295D02*
X120733333Y-65088152D01*
X120733333Y-65088152D02*
X120685714Y-65183390D01*
X120685714Y-65183390D02*
X120638095Y-65231009D01*
X120638095Y-65231009D02*
X120542857Y-65278628D01*
X120542857Y-65278628D02*
X120161905Y-65278628D01*
X121114286Y-64850057D02*
X121161905Y-64802438D01*
X121161905Y-64802438D02*
X121257143Y-64754819D01*
X121257143Y-64754819D02*
X121495238Y-64754819D01*
X121495238Y-64754819D02*
X121590476Y-64802438D01*
X121590476Y-64802438D02*
X121638095Y-64850057D01*
X121638095Y-64850057D02*
X121685714Y-64945295D01*
X121685714Y-64945295D02*
X121685714Y-65040533D01*
X121685714Y-65040533D02*
X121638095Y-65183390D01*
X121638095Y-65183390D02*
X121066667Y-65754819D01*
X121066667Y-65754819D02*
X121685714Y-65754819D01*
X119433333Y-67054819D02*
X119100000Y-66578628D01*
X118861905Y-67054819D02*
X118861905Y-66054819D01*
X118861905Y-66054819D02*
X119242857Y-66054819D01*
X119242857Y-66054819D02*
X119338095Y-66102438D01*
X119338095Y-66102438D02*
X119385714Y-66150057D01*
X119385714Y-66150057D02*
X119433333Y-66245295D01*
X119433333Y-66245295D02*
X119433333Y-66388152D01*
X119433333Y-66388152D02*
X119385714Y-66483390D01*
X119385714Y-66483390D02*
X119338095Y-66531009D01*
X119338095Y-66531009D02*
X119242857Y-66578628D01*
X119242857Y-66578628D02*
X118861905Y-66578628D01*
X120385714Y-67054819D02*
X119814286Y-67054819D01*
X120100000Y-67054819D02*
X120100000Y-66054819D01*
X120100000Y-66054819D02*
X120004762Y-66197676D01*
X120004762Y-66197676D02*
X119909524Y-66292914D01*
X119909524Y-66292914D02*
X119814286Y-66340533D01*
X116704761Y-60380057D02*
X116609523Y-60332438D01*
X116609523Y-60332438D02*
X116514285Y-60237200D01*
X116514285Y-60237200D02*
X116371428Y-60094342D01*
X116371428Y-60094342D02*
X116276190Y-60046723D01*
X116276190Y-60046723D02*
X116180952Y-60046723D01*
X116228571Y-60284819D02*
X116133333Y-60237200D01*
X116133333Y-60237200D02*
X116038095Y-60141961D01*
X116038095Y-60141961D02*
X115990476Y-59951485D01*
X115990476Y-59951485D02*
X115990476Y-59618152D01*
X115990476Y-59618152D02*
X116038095Y-59427676D01*
X116038095Y-59427676D02*
X116133333Y-59332438D01*
X116133333Y-59332438D02*
X116228571Y-59284819D01*
X116228571Y-59284819D02*
X116419047Y-59284819D01*
X116419047Y-59284819D02*
X116514285Y-59332438D01*
X116514285Y-59332438D02*
X116609523Y-59427676D01*
X116609523Y-59427676D02*
X116657142Y-59618152D01*
X116657142Y-59618152D02*
X116657142Y-59951485D01*
X116657142Y-59951485D02*
X116609523Y-60141961D01*
X116609523Y-60141961D02*
X116514285Y-60237200D01*
X116514285Y-60237200D02*
X116419047Y-60284819D01*
X116419047Y-60284819D02*
X116228571Y-60284819D01*
X117038095Y-59380057D02*
X117085714Y-59332438D01*
X117085714Y-59332438D02*
X117180952Y-59284819D01*
X117180952Y-59284819D02*
X117419047Y-59284819D01*
X117419047Y-59284819D02*
X117514285Y-59332438D01*
X117514285Y-59332438D02*
X117561904Y-59380057D01*
X117561904Y-59380057D02*
X117609523Y-59475295D01*
X117609523Y-59475295D02*
X117609523Y-59570533D01*
X117609523Y-59570533D02*
X117561904Y-59713390D01*
X117561904Y-59713390D02*
X116990476Y-60284819D01*
X116990476Y-60284819D02*
X117609523Y-60284819D01*
X116804761Y-72650057D02*
X116709523Y-72602438D01*
X116709523Y-72602438D02*
X116614285Y-72507200D01*
X116614285Y-72507200D02*
X116471428Y-72364342D01*
X116471428Y-72364342D02*
X116376190Y-72316723D01*
X116376190Y-72316723D02*
X116280952Y-72316723D01*
X116328571Y-72554819D02*
X116233333Y-72507200D01*
X116233333Y-72507200D02*
X116138095Y-72411961D01*
X116138095Y-72411961D02*
X116090476Y-72221485D01*
X116090476Y-72221485D02*
X116090476Y-71888152D01*
X116090476Y-71888152D02*
X116138095Y-71697676D01*
X116138095Y-71697676D02*
X116233333Y-71602438D01*
X116233333Y-71602438D02*
X116328571Y-71554819D01*
X116328571Y-71554819D02*
X116519047Y-71554819D01*
X116519047Y-71554819D02*
X116614285Y-71602438D01*
X116614285Y-71602438D02*
X116709523Y-71697676D01*
X116709523Y-71697676D02*
X116757142Y-71888152D01*
X116757142Y-71888152D02*
X116757142Y-72221485D01*
X116757142Y-72221485D02*
X116709523Y-72411961D01*
X116709523Y-72411961D02*
X116614285Y-72507200D01*
X116614285Y-72507200D02*
X116519047Y-72554819D01*
X116519047Y-72554819D02*
X116328571Y-72554819D01*
X117709523Y-72554819D02*
X117138095Y-72554819D01*
X117423809Y-72554819D02*
X117423809Y-71554819D01*
X117423809Y-71554819D02*
X117328571Y-71697676D01*
X117328571Y-71697676D02*
X117233333Y-71792914D01*
X117233333Y-71792914D02*
X117138095Y-71840533D01*
X77954819Y-60761904D02*
X78764342Y-60761904D01*
X78764342Y-60761904D02*
X78859580Y-60714285D01*
X78859580Y-60714285D02*
X78907200Y-60666666D01*
X78907200Y-60666666D02*
X78954819Y-60571428D01*
X78954819Y-60571428D02*
X78954819Y-60380952D01*
X78954819Y-60380952D02*
X78907200Y-60285714D01*
X78907200Y-60285714D02*
X78859580Y-60238095D01*
X78859580Y-60238095D02*
X78764342Y-60190476D01*
X78764342Y-60190476D02*
X77954819Y-60190476D01*
X78954819Y-59190476D02*
X78954819Y-59761904D01*
X78954819Y-59476190D02*
X77954819Y-59476190D01*
X77954819Y-59476190D02*
X78097676Y-59571428D01*
X78097676Y-59571428D02*
X78192914Y-59666666D01*
X78192914Y-59666666D02*
X78240533Y-59761904D01*
D13*
%TO.C,A1*%
X121040000Y-74920000D02*
X121040000Y-69840000D01*
X121040000Y-56880000D02*
X121040000Y-61960000D01*
X121040000Y-56880000D02*
X77600000Y-56880000D01*
X118370000Y-72250000D02*
X118370000Y-74920000D01*
X118370000Y-59550000D02*
X118370000Y-56880000D01*
X82810000Y-74920000D02*
X121040000Y-74920000D01*
X82810000Y-72250000D02*
X118370000Y-72250000D01*
X82810000Y-72250000D02*
X82810000Y-74920000D01*
X82810000Y-72250000D02*
X80270000Y-72250000D01*
X80270000Y-72250000D02*
X80270000Y-74920000D01*
X80270000Y-59550000D02*
X118370000Y-59550000D01*
X80270000Y-59550000D02*
X80270000Y-56880000D01*
X77600000Y-74920000D02*
X80270000Y-74920000D01*
X77600000Y-56880000D02*
X77600000Y-74920000D01*
%TO.C,R3*%
X115200000Y-70700000D02*
X114580000Y-70700000D01*
X117040000Y-70700000D02*
G75*
G02*
X115200000Y-70700000I-920000J0D01*
G01*
X115200000Y-70700000D02*
G75*
G02*
X117040000Y-70700000I920000J0D01*
G01*
%TO.C,R2*%
X119200000Y-63800000D02*
X119820000Y-63800000D01*
X119200000Y-63800000D02*
G75*
G02*
X117360000Y-63800000I-920000J0D01*
G01*
X117360000Y-63800000D02*
G75*
G02*
X119200000Y-63800000I920000J0D01*
G01*
%TO.C,R1*%
X119200000Y-67900000D02*
X119820000Y-67900000D01*
X119200000Y-67900000D02*
G75*
G02*
X117360000Y-67900000I-920000J0D01*
G01*
X117360000Y-67900000D02*
G75*
G02*
X119200000Y-67900000I920000J0D01*
G01*
%TO.C,J2*%
X84240000Y-59940000D02*
X84240000Y-61190000D01*
X84540000Y-60240000D02*
X84540000Y-64960000D01*
X84540000Y-61550000D02*
X85150000Y-61550000D01*
X84540000Y-62850000D02*
X85150000Y-62850000D01*
X84540000Y-64960000D02*
X90660000Y-64960000D01*
X85150000Y-60850000D02*
X85150000Y-64350000D01*
X85150000Y-64350000D02*
X90050000Y-64350000D01*
X85490000Y-59940000D02*
X84240000Y-59940000D01*
X86000000Y-60040000D02*
X86000000Y-60240000D01*
X86300000Y-60040000D02*
X86000000Y-60040000D01*
X86300000Y-60140000D02*
X86000000Y-60140000D01*
X86300000Y-60240000D02*
X86300000Y-60040000D01*
X87100000Y-60240000D02*
X87100000Y-60850000D01*
X87100000Y-60850000D02*
X85150000Y-60850000D01*
X87500000Y-63850000D02*
X87700000Y-63850000D01*
X87500000Y-64350000D02*
X87500000Y-63850000D01*
X87600000Y-64350000D02*
X87600000Y-63850000D01*
X87700000Y-63850000D02*
X87700000Y-64350000D01*
X88100000Y-60850000D02*
X88100000Y-60240000D01*
X90050000Y-60850000D02*
X88100000Y-60850000D01*
X90050000Y-64350000D02*
X90050000Y-60850000D01*
X90660000Y-60240000D02*
X84540000Y-60240000D01*
X90660000Y-61550000D02*
X90050000Y-61550000D01*
X90660000Y-62850000D02*
X90050000Y-62850000D01*
X90660000Y-64960000D02*
X90660000Y-60240000D01*
%TO.C,Q2*%
X117750000Y-58030000D02*
X117750000Y-61630000D01*
X117761522Y-57991522D02*
G75*
G02*
X122200001Y-59830000I1838478J-1838478D01*
G01*
X122200000Y-59830000D02*
G75*
G02*
X117761522Y-61668478I-2600000J0D01*
G01*
%TO.C,J6*%
X93000000Y-62780000D02*
X93000000Y-61400000D01*
X94380000Y-62780000D02*
X93000000Y-62780000D01*
X95650000Y-60020000D02*
X105920000Y-60020000D01*
X95650000Y-62780000D02*
X95650000Y-60020000D01*
X95650000Y-62780000D02*
X105920000Y-62780000D01*
X105920000Y-62780000D02*
X105920000Y-60020000D01*
%TO.C,J7*%
X105040000Y-66740000D02*
X105040000Y-67990000D01*
X105340000Y-67040000D02*
X105340000Y-71760000D01*
X105340000Y-68350000D02*
X105950000Y-68350000D01*
X105340000Y-69650000D02*
X105950000Y-69650000D01*
X105340000Y-71760000D02*
X111460000Y-71760000D01*
X105950000Y-67650000D02*
X105950000Y-71150000D01*
X105950000Y-71150000D02*
X110850000Y-71150000D01*
X106290000Y-66740000D02*
X105040000Y-66740000D01*
X106800000Y-66840000D02*
X106800000Y-67040000D01*
X107100000Y-66840000D02*
X106800000Y-66840000D01*
X107100000Y-66940000D02*
X106800000Y-66940000D01*
X107100000Y-67040000D02*
X107100000Y-66840000D01*
X107900000Y-67040000D02*
X107900000Y-67650000D01*
X107900000Y-67650000D02*
X105950000Y-67650000D01*
X108300000Y-70650000D02*
X108500000Y-70650000D01*
X108300000Y-71150000D02*
X108300000Y-70650000D01*
X108400000Y-71150000D02*
X108400000Y-70650000D01*
X108500000Y-70650000D02*
X108500000Y-71150000D01*
X108900000Y-67650000D02*
X108900000Y-67040000D01*
X110850000Y-67650000D02*
X108900000Y-67650000D01*
X110850000Y-71150000D02*
X110850000Y-67650000D01*
X111460000Y-67040000D02*
X105340000Y-67040000D01*
X111460000Y-68350000D02*
X110850000Y-68350000D01*
X111460000Y-69650000D02*
X110850000Y-69650000D01*
X111460000Y-71760000D02*
X111460000Y-67040000D01*
%TO.C,J1*%
X90560000Y-71910000D02*
X90560000Y-67190000D01*
X90560000Y-69800000D02*
X89950000Y-69800000D01*
X90560000Y-68500000D02*
X89950000Y-68500000D01*
X90560000Y-67190000D02*
X84440000Y-67190000D01*
X89950000Y-71300000D02*
X89950000Y-67800000D01*
X89950000Y-67800000D02*
X88000000Y-67800000D01*
X88000000Y-67800000D02*
X88000000Y-67190000D01*
X87600000Y-70800000D02*
X87600000Y-71300000D01*
X87500000Y-71300000D02*
X87500000Y-70800000D01*
X87400000Y-71300000D02*
X87400000Y-70800000D01*
X87400000Y-70800000D02*
X87600000Y-70800000D01*
X87000000Y-67800000D02*
X85050000Y-67800000D01*
X87000000Y-67190000D02*
X87000000Y-67800000D01*
X86200000Y-67190000D02*
X86200000Y-66990000D01*
X86200000Y-67090000D02*
X85900000Y-67090000D01*
X86200000Y-66990000D02*
X85900000Y-66990000D01*
X85900000Y-66990000D02*
X85900000Y-67190000D01*
X85390000Y-66890000D02*
X84140000Y-66890000D01*
X85050000Y-71300000D02*
X89950000Y-71300000D01*
X85050000Y-67800000D02*
X85050000Y-71300000D01*
X84440000Y-71910000D02*
X90560000Y-71910000D01*
X84440000Y-69800000D02*
X85050000Y-69800000D01*
X84440000Y-68500000D02*
X85050000Y-68500000D01*
X84440000Y-67190000D02*
X84440000Y-71910000D01*
X84140000Y-66890000D02*
X84140000Y-68140000D01*
%TO.C,J5*%
X91440000Y-67040000D02*
X91440000Y-68290000D01*
X91740000Y-67340000D02*
X91740000Y-72060000D01*
X91740000Y-68650000D02*
X92350000Y-68650000D01*
X91740000Y-69950000D02*
X92350000Y-69950000D01*
X91740000Y-72060000D02*
X103860000Y-72060000D01*
X92350000Y-67950000D02*
X92350000Y-71450000D01*
X92350000Y-71450000D02*
X103250000Y-71450000D01*
X92690000Y-67040000D02*
X91440000Y-67040000D01*
X93200000Y-67140000D02*
X93200000Y-67340000D01*
X93500000Y-67140000D02*
X93200000Y-67140000D01*
X93500000Y-67240000D02*
X93200000Y-67240000D01*
X93500000Y-67340000D02*
X93500000Y-67140000D01*
X94300000Y-67340000D02*
X94300000Y-67950000D01*
X94300000Y-67950000D02*
X92350000Y-67950000D01*
X94700000Y-70950000D02*
X94900000Y-70950000D01*
X94700000Y-71450000D02*
X94700000Y-70950000D01*
X94800000Y-71450000D02*
X94800000Y-70950000D01*
X94900000Y-70950000D02*
X94900000Y-71450000D01*
X96700000Y-70950000D02*
X96900000Y-70950000D01*
X96700000Y-71450000D02*
X96700000Y-70950000D01*
X96800000Y-71450000D02*
X96800000Y-70950000D01*
X96900000Y-70950000D02*
X96900000Y-71450000D01*
X98700000Y-70950000D02*
X98900000Y-70950000D01*
X98700000Y-71450000D02*
X98700000Y-70950000D01*
X98800000Y-71450000D02*
X98800000Y-70950000D01*
X98900000Y-70950000D02*
X98900000Y-71450000D01*
X100700000Y-70950000D02*
X100900000Y-70950000D01*
X100700000Y-71450000D02*
X100700000Y-70950000D01*
X100800000Y-71450000D02*
X100800000Y-70950000D01*
X100900000Y-70950000D02*
X100900000Y-71450000D01*
X101300000Y-67950000D02*
X101300000Y-67340000D01*
X103250000Y-67950000D02*
X101300000Y-67950000D01*
X103250000Y-71450000D02*
X103250000Y-67950000D01*
X103860000Y-67340000D02*
X91740000Y-67340000D01*
X103860000Y-68650000D02*
X103250000Y-68650000D01*
X103860000Y-69950000D02*
X103250000Y-69950000D01*
X103860000Y-72060000D02*
X103860000Y-67340000D01*
%TO.C,J8*%
X106540000Y-59740000D02*
X106540000Y-60990000D01*
X106840000Y-60040000D02*
X106840000Y-64760000D01*
X106840000Y-61350000D02*
X107450000Y-61350000D01*
X106840000Y-62650000D02*
X107450000Y-62650000D01*
X106840000Y-64760000D02*
X112960000Y-64760000D01*
X107450000Y-60650000D02*
X107450000Y-64150000D01*
X107450000Y-64150000D02*
X112350000Y-64150000D01*
X107790000Y-59740000D02*
X106540000Y-59740000D01*
X108300000Y-59840000D02*
X108300000Y-60040000D01*
X108600000Y-59840000D02*
X108300000Y-59840000D01*
X108600000Y-59940000D02*
X108300000Y-59940000D01*
X108600000Y-60040000D02*
X108600000Y-59840000D01*
X109400000Y-60040000D02*
X109400000Y-60650000D01*
X109400000Y-60650000D02*
X107450000Y-60650000D01*
X109800000Y-63650000D02*
X110000000Y-63650000D01*
X109800000Y-64150000D02*
X109800000Y-63650000D01*
X109900000Y-64150000D02*
X109900000Y-63650000D01*
X110000000Y-63650000D02*
X110000000Y-64150000D01*
X110400000Y-60650000D02*
X110400000Y-60040000D01*
X112350000Y-60650000D02*
X110400000Y-60650000D01*
X112350000Y-64150000D02*
X112350000Y-60650000D01*
X112960000Y-60040000D02*
X106840000Y-60040000D01*
X112960000Y-61350000D02*
X112350000Y-61350000D01*
X112960000Y-62650000D02*
X112350000Y-62650000D01*
X112960000Y-64760000D02*
X112960000Y-60040000D01*
%TO.C,Q1*%
X117790000Y-70300000D02*
X117790000Y-73900000D01*
X117801522Y-70261522D02*
G75*
G02*
X122240001Y-72100000I1838478J-1838478D01*
G01*
X122240000Y-72100000D02*
G75*
G02*
X117801522Y-73938478I-2600000J0D01*
G01*
%TO.C,J3*%
X114020000Y-60480000D02*
X115400000Y-60480000D01*
X114020000Y-61860000D02*
X114020000Y-60480000D01*
X114020000Y-63130000D02*
X114020000Y-68320000D01*
X114020000Y-63130000D02*
X116780000Y-63130000D01*
X114020000Y-68320000D02*
X116780000Y-68320000D01*
X116780000Y-63130000D02*
X116780000Y-68320000D01*
%TO.C,U1*%
X77890000Y-60990000D02*
X82510000Y-60990000D01*
X77890000Y-71210000D02*
X77890000Y-60990000D01*
X81130000Y-60990000D02*
X81130000Y-71210000D01*
X82510000Y-60990000D02*
X82510000Y-71210000D01*
X82510000Y-64250000D02*
X81130000Y-64250000D01*
X82510000Y-67950000D02*
X81130000Y-67950000D01*
X82510000Y-71210000D02*
X77890000Y-71210000D01*
%TO.C,J4*%
X91680000Y-63720000D02*
X91680000Y-66480000D01*
X96870000Y-63720000D02*
X91680000Y-63720000D01*
X96870000Y-63720000D02*
X96870000Y-66480000D01*
X96870000Y-66480000D02*
X91680000Y-66480000D01*
X98140000Y-63720000D02*
X99520000Y-63720000D01*
X99520000Y-63720000D02*
X99520000Y-65100000D01*
%TD*%
M02*
