%TF.GenerationSoftware,KiCad,Pcbnew,9.0.6*%
%TF.CreationDate,2026-02-19T20:59:12+01:00*%
%TF.ProjectId,TankIR_Breaker,54616e6b-4952-45f4-9272-65616b65722e,rev?*%
%TF.SameCoordinates,Original*%
%TF.FileFunction,Soldermask,Top*%
%TF.FilePolarity,Negative*%
%FSLAX46Y46*%
G04 Gerber Fmt 4.6, Leading zero omitted, Abs format (unit mm)*
G04 Created by KiCad (PCBNEW 9.0.6) date 2026-02-19 20:59:12*
%MOMM*%
%LPD*%
G01*
G04 APERTURE LIST*
G04 Aperture macros list*
%AMRoundRect*
0 Rectangle with rounded corners*
0 $1 Rounding radius*
0 $2 $3 $4 $5 $6 $7 $8 $9 X,Y pos of 4 corners*
0 Add a 4 corners polygon primitive as box body*
4,1,4,$2,$3,$4,$5,$6,$7,$8,$9,$2,$3,0*
0 Add four circle primitives for the rounded corners*
1,1,$1+$1,$2,$3*
1,1,$1+$1,$4,$5*
1,1,$1+$1,$6,$7*
1,1,$1+$1,$8,$9*
0 Add four rect primitives between the rounded corners*
20,1,$1+$1,$2,$3,$4,$5,0*
20,1,$1+$1,$4,$5,$6,$7,0*
20,1,$1+$1,$6,$7,$8,$9,0*
20,1,$1+$1,$8,$9,$2,$3,0*%
G04 Aperture macros list end*
%ADD10O,1.600000X1.600000*%
%ADD11R,1.600000X1.600000*%
%ADD12C,1.400000*%
%ADD13RoundRect,0.250000X-0.350000X-0.625000X0.350000X-0.625000X0.350000X0.625000X-0.350000X0.625000X0*%
%ADD14O,1.200000X1.750000*%
%ADD15R,1.500000X1.050000*%
%ADD16O,1.500000X1.050000*%
%ADD17R,1.700000X1.700000*%
%ADD18C,1.700000*%
%ADD19RoundRect,0.250000X0.350000X0.625000X-0.350000X0.625000X-0.350000X-0.625000X0.350000X-0.625000X0*%
%ADD20R,2.000000X1.905000*%
%ADD21O,2.000000X1.905000*%
G04 APERTURE END LIST*
D10*
%TO.C,A1*%
X81520000Y-58280000D03*
X84060000Y-58280000D03*
X86600000Y-58280000D03*
X89140000Y-58280000D03*
X91680000Y-58280000D03*
X94220000Y-58280000D03*
X96760000Y-58280000D03*
X99300000Y-58280000D03*
X101840000Y-58280000D03*
X104380000Y-58280000D03*
X106920000Y-58280000D03*
X109460000Y-58280000D03*
X112000000Y-58280000D03*
X114540000Y-58280000D03*
X117080000Y-58280000D03*
X117080000Y-73520000D03*
X114540000Y-73520000D03*
X112000000Y-73520000D03*
X109460000Y-73520000D03*
X106920000Y-73520000D03*
X104380000Y-73520000D03*
X101840000Y-73520000D03*
X99300000Y-73520000D03*
X96760000Y-73520000D03*
X94220000Y-73520000D03*
X91680000Y-73520000D03*
X89140000Y-73520000D03*
X86600000Y-73520000D03*
X84060000Y-73520000D03*
D11*
X81520000Y-73520000D03*
%TD*%
D12*
%TO.C,R3*%
X116120000Y-70500000D03*
X113580000Y-70500000D03*
%TD*%
%TO.C,R2*%
X118280000Y-63800000D03*
X120820000Y-63800000D03*
%TD*%
%TO.C,R1*%
X118280000Y-67900000D03*
X120820000Y-67900000D03*
%TD*%
D13*
%TO.C,J2*%
X86600000Y-62050000D03*
D14*
X88600000Y-62050000D03*
%TD*%
D15*
%TO.C,Q2*%
X119600000Y-58560000D03*
D16*
X119600000Y-59830000D03*
X119600000Y-61100000D03*
%TD*%
D17*
%TO.C,J6*%
X94380000Y-61400000D03*
D18*
X96920000Y-61400000D03*
X99460000Y-61400000D03*
X102000000Y-61400000D03*
X104540000Y-61400000D03*
%TD*%
D13*
%TO.C,J7*%
X107400000Y-68850000D03*
D14*
X109400000Y-68850000D03*
%TD*%
D19*
%TO.C,J1*%
X88600000Y-69600000D03*
D14*
X86600000Y-69600000D03*
%TD*%
D13*
%TO.C,J5*%
X93800000Y-69150000D03*
D14*
X95800000Y-69150000D03*
X97800000Y-69150000D03*
X99800000Y-69150000D03*
X101800000Y-69150000D03*
%TD*%
D13*
%TO.C,J8*%
X108900000Y-61850000D03*
D14*
X110900000Y-61850000D03*
%TD*%
D15*
%TO.C,Q1*%
X119640000Y-70830000D03*
D16*
X119640000Y-72100000D03*
X119640000Y-73370000D03*
%TD*%
D17*
%TO.C,J3*%
X115400000Y-61860000D03*
D18*
X115400000Y-64400000D03*
X115400000Y-66940000D03*
%TD*%
D20*
%TO.C,U1*%
X79250000Y-63560000D03*
D21*
X79250000Y-66100000D03*
X79250000Y-68640000D03*
%TD*%
D17*
%TO.C,J4*%
X98140000Y-65100000D03*
D18*
X95600000Y-65100000D03*
X93060000Y-65100000D03*
%TD*%
M02*
