%TF.GenerationSoftware,KiCad,Pcbnew,9.0.6*%
%TF.CreationDate,2026-02-19T21:20:34+01:00*%
%TF.ProjectId,TankIR_Breaker,54616e6b-4952-45f4-9272-65616b65722e,rev?*%
%TF.SameCoordinates,Original*%
%TF.FileFunction,Copper,L1,Top*%
%TF.FilePolarity,Positive*%
%FSLAX46Y46*%
G04 Gerber Fmt 4.6, Leading zero omitted, Abs format (unit mm)*
G04 Created by KiCad (PCBNEW 9.0.6) date 2026-02-19 21:20:34*
%MOMM*%
%LPD*%
G01*
G04 APERTURE LIST*
G04 Aperture macros list*
%AMRoundRect*
0 Rectangle with rounded corners*
0 $1 Rounding radius*
0 $2 $3 $4 $5 $6 $7 $8 $9 X,Y pos of 4 corners*
0 Add a 4 corners polygon primitive as box body*
4,1,4,$2,$3,$4,$5,$6,$7,$8,$9,$2,$3,0*
0 Add four circle primitives for the rounded corners*
1,1,$1+$1,$2,$3*
1,1,$1+$1,$4,$5*
1,1,$1+$1,$6,$7*
1,1,$1+$1,$8,$9*
0 Add four rect primitives between the rounded corners*
20,1,$1+$1,$2,$3,$4,$5,0*
20,1,$1+$1,$4,$5,$6,$7,0*
20,1,$1+$1,$6,$7,$8,$9,0*
20,1,$1+$1,$8,$9,$2,$3,0*%
G04 Aperture macros list end*
%TA.AperFunction,ComponentPad*%
%ADD10O,1.600000X1.600000*%
%TD*%
%TA.AperFunction,ComponentPad*%
%ADD11R,1.600000X1.600000*%
%TD*%
%TA.AperFunction,ComponentPad*%
%ADD12C,1.400000*%
%TD*%
%TA.AperFunction,ComponentPad*%
%ADD13RoundRect,0.250000X-0.350000X-0.625000X0.350000X-0.625000X0.350000X0.625000X-0.350000X0.625000X0*%
%TD*%
%TA.AperFunction,ComponentPad*%
%ADD14O,1.200000X1.750000*%
%TD*%
%TA.AperFunction,ComponentPad*%
%ADD15R,1.500000X1.050000*%
%TD*%
%TA.AperFunction,ComponentPad*%
%ADD16O,1.500000X1.050000*%
%TD*%
%TA.AperFunction,ComponentPad*%
%ADD17R,1.700000X1.700000*%
%TD*%
%TA.AperFunction,ComponentPad*%
%ADD18C,1.700000*%
%TD*%
%TA.AperFunction,ComponentPad*%
%ADD19R,2.000000X1.905000*%
%TD*%
%TA.AperFunction,ComponentPad*%
%ADD20O,2.000000X1.905000*%
%TD*%
%TA.AperFunction,ViaPad*%
%ADD21C,0.600000*%
%TD*%
%TA.AperFunction,Conductor*%
%ADD22C,0.450000*%
%TD*%
%TA.AperFunction,Conductor*%
%ADD23C,0.200000*%
%TD*%
%TA.AperFunction,Conductor*%
%ADD24C,0.250000*%
%TD*%
%TA.AperFunction,Conductor*%
%ADD25C,0.500000*%
%TD*%
G04 APERTURE END LIST*
D10*
%TO.P,A1,30,VIN*%
%TO.N,unconnected-(A1-VIN-Pad30)*%
X81540000Y-58280000D03*
%TO.P,A1,29,GND*%
%TO.N,GND*%
X84080000Y-58280000D03*
%TO.P,A1,28,~{RESET}*%
%TO.N,unconnected-(A1-~{RESET}-Pad28)*%
X86620000Y-58280000D03*
%TO.P,A1,27,+5V*%
%TO.N,unconnected-(A1-+5V-Pad27)*%
X89160000Y-58280000D03*
%TO.P,A1,26,A7*%
%TO.N,unconnected-(A1-A7-Pad26)*%
X91700000Y-58280000D03*
%TO.P,A1,25,A6*%
%TO.N,unconnected-(A1-A6-Pad25)*%
X94240000Y-58280000D03*
%TO.P,A1,24,A5*%
%TO.N,unconnected-(A1-A5-Pad24)*%
X96780000Y-58280000D03*
%TO.P,A1,23,A4*%
%TO.N,/SOUND_REP*%
X99320000Y-58280000D03*
%TO.P,A1,22,A3*%
%TO.N,/SOUND_DES*%
X101860000Y-58280000D03*
%TO.P,A1,21,A2*%
%TO.N,/SOUND_HIT*%
X104400000Y-58280000D03*
%TO.P,A1,20,A1*%
%TO.N,/SOUND_FIRE*%
X106940000Y-58280000D03*
%TO.P,A1,19,A0*%
%TO.N,/Trigger*%
X109480000Y-58280000D03*
%TO.P,A1,18,AREF*%
%TO.N,unconnected-(A1-AREF-Pad18)*%
X112020000Y-58280000D03*
%TO.P,A1,17,3V3*%
%TO.N,unconnected-(A1-3V3-Pad17)*%
X114560000Y-58280000D03*
%TO.P,A1,16,D13*%
%TO.N,unconnected-(A1-D13-Pad16)*%
X117100000Y-58280000D03*
%TO.P,A1,15,D12*%
%TO.N,unconnected-(A1-D12-Pad15)*%
X117100000Y-73520000D03*
%TO.P,A1,14,D11*%
%TO.N,unconnected-(A1-D11-Pad14)*%
X114560000Y-73520000D03*
%TO.P,A1,13,D10*%
%TO.N,unconnected-(A1-D10-Pad13)*%
X112020000Y-73520000D03*
%TO.P,A1,12,D9*%
%TO.N,unconnected-(A1-D9-Pad12)*%
X109480000Y-73520000D03*
%TO.P,A1,11,D8*%
%TO.N,/Recoil_OUT*%
X106940000Y-73520000D03*
%TO.P,A1,10,D7*%
%TO.N,/RC_IN*%
X104400000Y-73520000D03*
%TO.P,A1,9,D6*%
%TO.N,/MUZZLE*%
X101860000Y-73520000D03*
%TO.P,A1,8,D5*%
%TO.N,/HIT*%
X99320000Y-73520000D03*
%TO.P,A1,7,D4*%
%TO.N,unconnected-(A1-D4-Pad7)*%
X96780000Y-73520000D03*
%TO.P,A1,6,D3*%
%TO.N,/IR OUT*%
X94240000Y-73520000D03*
%TO.P,A1,5,D2*%
%TO.N,/IR_IN*%
X91700000Y-73520000D03*
%TO.P,A1,4,GND*%
%TO.N,GND*%
X89160000Y-73520000D03*
%TO.P,A1,3,~{RESET}*%
%TO.N,unconnected-(A1-~{RESET}-Pad3)*%
X86620000Y-73520000D03*
%TO.P,A1,2,D0/RX*%
%TO.N,unconnected-(A1-D0{slash}RX-Pad2)*%
X84080000Y-73520000D03*
D11*
%TO.P,A1,1,D1/TX*%
%TO.N,unconnected-(A1-D1{slash}TX-Pad1)*%
X81540000Y-73520000D03*
%TD*%
D12*
%TO.P,R3,1*%
%TO.N,Net-(Q1-C)*%
X116120000Y-70700000D03*
%TO.P,R3,2*%
%TO.N,Net-(J7-Pin_2)*%
X113580000Y-70700000D03*
%TD*%
%TO.P,R2,1*%
%TO.N,/MUZZLE*%
X118280000Y-63800000D03*
%TO.P,R2,2*%
%TO.N,Net-(Q2-B)*%
X120820000Y-63800000D03*
%TD*%
%TO.P,R1,1*%
%TO.N,/IR OUT*%
X118280000Y-67900000D03*
%TO.P,R1,2*%
%TO.N,Net-(Q1-B)*%
X120820000Y-67900000D03*
%TD*%
D13*
%TO.P,J2,1,Pin_1*%
%TO.N,GND*%
X86600000Y-62050000D03*
D14*
%TO.P,J2,2,Pin_2*%
%TO.N,/Trigger*%
X88600000Y-62050000D03*
%TD*%
D15*
%TO.P,Q2,1,C*%
%TO.N,Net-(J8-Pin_2)*%
X119600000Y-58560000D03*
D16*
%TO.P,Q2,2,B*%
%TO.N,Net-(Q2-B)*%
X119600000Y-59830000D03*
%TO.P,Q2,3,E*%
%TO.N,GND*%
X119600000Y-61100000D03*
%TD*%
D17*
%TO.P,J6,1,Pin_1*%
%TO.N,/SOUND_REP*%
X94380000Y-61400000D03*
D18*
%TO.P,J6,2,Pin_2*%
%TO.N,/SOUND_DES*%
X96920000Y-61400000D03*
%TO.P,J6,3,Pin_3*%
%TO.N,/SOUND_HIT*%
X99460000Y-61400000D03*
%TO.P,J6,4,Pin_4*%
%TO.N,/SOUND_FIRE*%
X102000000Y-61400000D03*
%TO.P,J6,5,Pin_5*%
%TO.N,GND*%
X104540000Y-61400000D03*
%TD*%
D13*
%TO.P,J7,1,Pin_1*%
%TO.N,+BATT*%
X107400000Y-68850000D03*
D14*
%TO.P,J7,2,Pin_2*%
%TO.N,Net-(J7-Pin_2)*%
X109400000Y-68850000D03*
%TD*%
D13*
%TO.P,J1,1,Pin_1*%
%TO.N,+BATT*%
X86500000Y-69000000D03*
D14*
%TO.P,J1,2,Pin_2*%
%TO.N,GND*%
X88500000Y-69000000D03*
%TD*%
D13*
%TO.P,J5,1,Pin_1*%
%TO.N,5V*%
X93800000Y-69150000D03*
D14*
%TO.P,J5,2,Pin_2*%
%TO.N,/IR_IN*%
X95800000Y-69150000D03*
%TO.P,J5,3,Pin_3*%
%TO.N,GND*%
X97800000Y-69150000D03*
%TO.P,J5,4,Pin_4*%
X99800000Y-69150000D03*
%TO.P,J5,5,Pin_5*%
%TO.N,/HIT*%
X101800000Y-69150000D03*
%TD*%
D13*
%TO.P,J8,1,Pin_1*%
%TO.N,5V*%
X108900000Y-61850000D03*
D14*
%TO.P,J8,2,Pin_2*%
%TO.N,Net-(J8-Pin_2)*%
X110900000Y-61850000D03*
%TD*%
D15*
%TO.P,Q1,1,C*%
%TO.N,Net-(Q1-C)*%
X119640000Y-70830000D03*
D16*
%TO.P,Q1,2,B*%
%TO.N,Net-(Q1-B)*%
X119640000Y-72100000D03*
%TO.P,Q1,3,E*%
%TO.N,GND*%
X119640000Y-73370000D03*
%TD*%
D17*
%TO.P,J3,1,Pin_1*%
%TO.N,GND*%
X115400000Y-61860000D03*
D18*
%TO.P,J3,2,Pin_2*%
%TO.N,5V*%
X115400000Y-64400000D03*
%TO.P,J3,3,Pin_3*%
%TO.N,/Recoil_OUT*%
X115400000Y-66940000D03*
%TD*%
D19*
%TO.P,U1,1,VI*%
%TO.N,+BATT*%
X79250000Y-63560000D03*
D20*
%TO.P,U1,2,GND*%
%TO.N,GND*%
X79250000Y-66100000D03*
%TO.P,U1,3,VO*%
%TO.N,5V*%
X79250000Y-68640000D03*
%TD*%
D17*
%TO.P,J4,1,Pin_1*%
%TO.N,GND*%
X98140000Y-65100000D03*
D18*
%TO.P,J4,2,Pin_2*%
%TO.N,5V*%
X95600000Y-65100000D03*
%TO.P,J4,3,Pin_3*%
%TO.N,/RC_IN*%
X93060000Y-65100000D03*
%TD*%
D21*
%TO.N,/IR OUT*%
X109800000Y-65700000D03*
X118100000Y-66600000D03*
%TO.N,/RC_IN*%
X104300000Y-68300000D03*
%TD*%
D22*
%TO.N,Net-(J7-Pin_2)*%
X111700000Y-68850000D02*
X109400000Y-68850000D01*
X113350000Y-70500000D02*
X111700000Y-68850000D01*
D23*
%TO.N,Net-(Q1-B)*%
X120247000Y-72100000D02*
X119640000Y-72100000D01*
X120691000Y-71656000D02*
X120247000Y-72100000D01*
X120691000Y-68391000D02*
X120691000Y-71656000D01*
X120200000Y-67900000D02*
X120691000Y-68391000D01*
D22*
%TO.N,Net-(Q1-C)*%
X119310000Y-70500000D02*
X119640000Y-70830000D01*
X116450000Y-70500000D02*
X119310000Y-70500000D01*
D23*
%TO.N,Net-(Q2-B)*%
X119600000Y-59600000D02*
X119400000Y-59400000D01*
X119600000Y-59830000D02*
X119600000Y-59600000D01*
X119723140Y-59830000D02*
X120651000Y-60757860D01*
X119600000Y-59830000D02*
X119723140Y-59830000D01*
X120651000Y-60757860D02*
X120651000Y-63549000D01*
X120651000Y-63549000D02*
X120300000Y-63900000D01*
D24*
%TO.N,/IR OUT*%
X108753486Y-65700000D02*
X109800000Y-65700000D01*
X99900000Y-71000000D02*
X103453486Y-71000000D01*
X118100000Y-67800000D02*
X118200000Y-67900000D01*
X94220000Y-73520000D02*
X96740000Y-71000000D01*
X96740000Y-71000000D02*
X99900000Y-71000000D01*
X103453486Y-71000000D02*
X108753486Y-65700000D01*
X118100000Y-66600000D02*
X118100000Y-67800000D01*
%TO.N,/MUZZLE*%
X111089438Y-65576000D02*
X108400000Y-68265438D01*
X116624000Y-65576000D02*
X111089438Y-65576000D01*
X103760000Y-71600000D02*
X101840000Y-73520000D01*
X118300000Y-63900000D02*
X116624000Y-65576000D01*
X108400000Y-68265438D02*
X108400000Y-70300000D01*
X107100000Y-71600000D02*
X103760000Y-71600000D01*
X108400000Y-70300000D02*
X107100000Y-71600000D01*
%TO.N,/RC_IN*%
X104300000Y-68300000D02*
X102600000Y-66600000D01*
X94560000Y-66600000D02*
X93060000Y-65100000D01*
X102600000Y-66600000D02*
X94560000Y-66600000D01*
D25*
%TO.N,/SOUND_REP*%
X94380000Y-61400000D02*
X96249000Y-59531000D01*
X98049000Y-59531000D02*
X99300000Y-58280000D01*
X96249000Y-59531000D02*
X98049000Y-59531000D01*
%TO.N,/SOUND_DES*%
X99369000Y-59531000D02*
X100589000Y-59531000D01*
X100589000Y-59531000D02*
X101840000Y-58280000D01*
X96920000Y-61400000D02*
X97500000Y-61400000D01*
X97500000Y-61400000D02*
X99369000Y-59531000D01*
%TO.N,/SOUND_FIRE*%
X104269000Y-59531000D02*
X105669000Y-59531000D01*
X102000000Y-61400000D02*
X102400000Y-61400000D01*
X102400000Y-61400000D02*
X104269000Y-59531000D01*
X105669000Y-59531000D02*
X106920000Y-58280000D01*
%TO.N,/SOUND_HIT*%
X100100000Y-61400000D02*
X101969000Y-59531000D01*
X103129000Y-59531000D02*
X104380000Y-58280000D01*
X99460000Y-61400000D02*
X100100000Y-61400000D01*
X101969000Y-59531000D02*
X103129000Y-59531000D01*
%TD*%
%TA.AperFunction,Conductor*%
%TO.N,5V*%
G36*
X96715270Y-65861717D02*
G01*
X96715270Y-65861716D01*
X96754622Y-65807554D01*
X96805015Y-65708654D01*
X96852990Y-65657858D01*
X96920811Y-65641063D01*
X96986946Y-65663600D01*
X97030397Y-65718315D01*
X97039500Y-65764949D01*
X97039500Y-65974678D01*
X97054032Y-66047735D01*
X97056232Y-66053046D01*
X97063701Y-66122515D01*
X97032427Y-66184995D01*
X96972338Y-66220648D01*
X96941671Y-66224500D01*
X96422308Y-66224500D01*
X96355269Y-66204815D01*
X96334627Y-66188181D01*
X95729408Y-65582962D01*
X95792993Y-65565925D01*
X95907007Y-65500099D01*
X96000099Y-65407007D01*
X96065925Y-65292993D01*
X96082962Y-65229409D01*
X96715270Y-65861717D01*
G37*
%TD.AperFunction*%
%TA.AperFunction,Conductor*%
G36*
X81086125Y-57120185D02*
G01*
X81131880Y-57172989D01*
X81141824Y-57242147D01*
X81112799Y-57305703D01*
X81066539Y-57339061D01*
X81042403Y-57349058D01*
X80870342Y-57464024D01*
X80724024Y-57610342D01*
X80609058Y-57782403D01*
X80529870Y-57973579D01*
X80529868Y-57973587D01*
X80489500Y-58176530D01*
X80489500Y-58383469D01*
X80529868Y-58586412D01*
X80529870Y-58586420D01*
X80609058Y-58777596D01*
X80724024Y-58949657D01*
X80870342Y-59095975D01*
X80870345Y-59095977D01*
X81042402Y-59210941D01*
X81233580Y-59290130D01*
X81417838Y-59326781D01*
X81436530Y-59330499D01*
X81436534Y-59330500D01*
X81436535Y-59330500D01*
X81643466Y-59330500D01*
X81643467Y-59330499D01*
X81846420Y-59290130D01*
X82037598Y-59210941D01*
X82209655Y-59095977D01*
X82355977Y-58949655D01*
X82470941Y-58777598D01*
X82550130Y-58586420D01*
X82590500Y-58383465D01*
X82590500Y-58176535D01*
X82550130Y-57973580D01*
X82470941Y-57782402D01*
X82355977Y-57610345D01*
X82355975Y-57610342D01*
X82209657Y-57464024D01*
X82123626Y-57406541D01*
X82037598Y-57349059D01*
X82013461Y-57339061D01*
X81959058Y-57295220D01*
X81936993Y-57228926D01*
X81954272Y-57161227D01*
X82005409Y-57113616D01*
X82060914Y-57100500D01*
X83559086Y-57100500D01*
X83626125Y-57120185D01*
X83671880Y-57172989D01*
X83681824Y-57242147D01*
X83652799Y-57305703D01*
X83606539Y-57339061D01*
X83582403Y-57349058D01*
X83410342Y-57464024D01*
X83264024Y-57610342D01*
X83149058Y-57782403D01*
X83069870Y-57973579D01*
X83069868Y-57973587D01*
X83029500Y-58176530D01*
X83029500Y-58383469D01*
X83069868Y-58586412D01*
X83069870Y-58586420D01*
X83149058Y-58777596D01*
X83264024Y-58949657D01*
X83410342Y-59095975D01*
X83410345Y-59095977D01*
X83582402Y-59210941D01*
X83773580Y-59290130D01*
X83957838Y-59326781D01*
X83976530Y-59330499D01*
X83976534Y-59330500D01*
X83976535Y-59330500D01*
X84183466Y-59330500D01*
X84183467Y-59330499D01*
X84386420Y-59290130D01*
X84577598Y-59210941D01*
X84749655Y-59095977D01*
X84895977Y-58949655D01*
X85010941Y-58777598D01*
X85090130Y-58586420D01*
X85130500Y-58383465D01*
X85130500Y-58176535D01*
X85090130Y-57973580D01*
X85010941Y-57782402D01*
X84895977Y-57610345D01*
X84895975Y-57610342D01*
X84749657Y-57464024D01*
X84663626Y-57406541D01*
X84577598Y-57349059D01*
X84553461Y-57339061D01*
X84499058Y-57295220D01*
X84476993Y-57228926D01*
X84494272Y-57161227D01*
X84545409Y-57113616D01*
X84600914Y-57100500D01*
X86099086Y-57100500D01*
X86166125Y-57120185D01*
X86211880Y-57172989D01*
X86221824Y-57242147D01*
X86192799Y-57305703D01*
X86146539Y-57339061D01*
X86122403Y-57349058D01*
X85950342Y-57464024D01*
X85804024Y-57610342D01*
X85689058Y-57782403D01*
X85609870Y-57973579D01*
X85609868Y-57973587D01*
X85569500Y-58176530D01*
X85569500Y-58383469D01*
X85609868Y-58586412D01*
X85609870Y-58586420D01*
X85689058Y-58777596D01*
X85804024Y-58949657D01*
X85950342Y-59095975D01*
X85950345Y-59095977D01*
X86122402Y-59210941D01*
X86313580Y-59290130D01*
X86497838Y-59326781D01*
X86516530Y-59330499D01*
X86516534Y-59330500D01*
X86516535Y-59330500D01*
X86723466Y-59330500D01*
X86723467Y-59330499D01*
X86926420Y-59290130D01*
X87117598Y-59210941D01*
X87289655Y-59095977D01*
X87435977Y-58949655D01*
X87550941Y-58777598D01*
X87630130Y-58586420D01*
X87670500Y-58383465D01*
X87670500Y-58176535D01*
X87630130Y-57973580D01*
X87550941Y-57782402D01*
X87435977Y-57610345D01*
X87435975Y-57610342D01*
X87289657Y-57464024D01*
X87203626Y-57406541D01*
X87117598Y-57349059D01*
X87093461Y-57339061D01*
X87039058Y-57295220D01*
X87016993Y-57228926D01*
X87034272Y-57161227D01*
X87085409Y-57113616D01*
X87140914Y-57100500D01*
X88639086Y-57100500D01*
X88706125Y-57120185D01*
X88751880Y-57172989D01*
X88761824Y-57242147D01*
X88732799Y-57305703D01*
X88686539Y-57339061D01*
X88662403Y-57349058D01*
X88490342Y-57464024D01*
X88344024Y-57610342D01*
X88229058Y-57782403D01*
X88149870Y-57973579D01*
X88149868Y-57973587D01*
X88109500Y-58176530D01*
X88109500Y-58383469D01*
X88149868Y-58586412D01*
X88149870Y-58586420D01*
X88229058Y-58777596D01*
X88344024Y-58949657D01*
X88490342Y-59095975D01*
X88490345Y-59095977D01*
X88662402Y-59210941D01*
X88853580Y-59290130D01*
X89037838Y-59326781D01*
X89056530Y-59330499D01*
X89056534Y-59330500D01*
X89056535Y-59330500D01*
X89263466Y-59330500D01*
X89263467Y-59330499D01*
X89466420Y-59290130D01*
X89657598Y-59210941D01*
X89829655Y-59095977D01*
X89975977Y-58949655D01*
X90090941Y-58777598D01*
X90170130Y-58586420D01*
X90210500Y-58383465D01*
X90210500Y-58176535D01*
X90170130Y-57973580D01*
X90090941Y-57782402D01*
X89975977Y-57610345D01*
X89975975Y-57610342D01*
X89829657Y-57464024D01*
X89743626Y-57406541D01*
X89657598Y-57349059D01*
X89633461Y-57339061D01*
X89579058Y-57295220D01*
X89556993Y-57228926D01*
X89574272Y-57161227D01*
X89625409Y-57113616D01*
X89680914Y-57100500D01*
X91179086Y-57100500D01*
X91246125Y-57120185D01*
X91291880Y-57172989D01*
X91301824Y-57242147D01*
X91272799Y-57305703D01*
X91226539Y-57339061D01*
X91202403Y-57349058D01*
X91030342Y-57464024D01*
X90884024Y-57610342D01*
X90769058Y-57782403D01*
X90689870Y-57973579D01*
X90689868Y-57973587D01*
X90649500Y-58176530D01*
X90649500Y-58383469D01*
X90689868Y-58586412D01*
X90689870Y-58586420D01*
X90769058Y-58777596D01*
X90884024Y-58949657D01*
X91030342Y-59095975D01*
X91030345Y-59095977D01*
X91202402Y-59210941D01*
X91393580Y-59290130D01*
X91577838Y-59326781D01*
X91596530Y-59330499D01*
X91596534Y-59330500D01*
X91596535Y-59330500D01*
X91803466Y-59330500D01*
X91803467Y-59330499D01*
X92006420Y-59290130D01*
X92197598Y-59210941D01*
X92369655Y-59095977D01*
X92515977Y-58949655D01*
X92630941Y-58777598D01*
X92710130Y-58586420D01*
X92750500Y-58383465D01*
X92750500Y-58176535D01*
X92710130Y-57973580D01*
X92630941Y-57782402D01*
X92515977Y-57610345D01*
X92515975Y-57610342D01*
X92369657Y-57464024D01*
X92283626Y-57406541D01*
X92197598Y-57349059D01*
X92173461Y-57339061D01*
X92119058Y-57295220D01*
X92096993Y-57228926D01*
X92114272Y-57161227D01*
X92165409Y-57113616D01*
X92220914Y-57100500D01*
X93719086Y-57100500D01*
X93786125Y-57120185D01*
X93831880Y-57172989D01*
X93841824Y-57242147D01*
X93812799Y-57305703D01*
X93766539Y-57339061D01*
X93742403Y-57349058D01*
X93570342Y-57464024D01*
X93424024Y-57610342D01*
X93309058Y-57782403D01*
X93229870Y-57973579D01*
X93229868Y-57973587D01*
X93189500Y-58176530D01*
X93189500Y-58383469D01*
X93229868Y-58586412D01*
X93229870Y-58586420D01*
X93309058Y-58777596D01*
X93424024Y-58949657D01*
X93570342Y-59095975D01*
X93570345Y-59095977D01*
X93742402Y-59210941D01*
X93933580Y-59290130D01*
X94117838Y-59326781D01*
X94136530Y-59330499D01*
X94136534Y-59330500D01*
X94136535Y-59330500D01*
X94343466Y-59330500D01*
X94343467Y-59330499D01*
X94546420Y-59290130D01*
X94737598Y-59210941D01*
X94909655Y-59095977D01*
X95055977Y-58949655D01*
X95170941Y-58777598D01*
X95250130Y-58586420D01*
X95290500Y-58383465D01*
X95290500Y-58176535D01*
X95250130Y-57973580D01*
X95170941Y-57782402D01*
X95055977Y-57610345D01*
X95055975Y-57610342D01*
X94909657Y-57464024D01*
X94823626Y-57406541D01*
X94737598Y-57349059D01*
X94713461Y-57339061D01*
X94659058Y-57295220D01*
X94636993Y-57228926D01*
X94654272Y-57161227D01*
X94705409Y-57113616D01*
X94760914Y-57100500D01*
X96259086Y-57100500D01*
X96326125Y-57120185D01*
X96371880Y-57172989D01*
X96381824Y-57242147D01*
X96352799Y-57305703D01*
X96306539Y-57339061D01*
X96282403Y-57349058D01*
X96110342Y-57464024D01*
X95964024Y-57610342D01*
X95849058Y-57782403D01*
X95769870Y-57973579D01*
X95769868Y-57973587D01*
X95729500Y-58176530D01*
X95729500Y-58383469D01*
X95769868Y-58586412D01*
X95769870Y-58586420D01*
X95849058Y-58777596D01*
X95964022Y-58949654D01*
X95965173Y-58951056D01*
X95965546Y-58951934D01*
X95967408Y-58954721D01*
X95966879Y-58955073D01*
X95992490Y-59015365D01*
X95980702Y-59084233D01*
X95944818Y-59128096D01*
X95941687Y-59130498D01*
X94809005Y-60263181D01*
X94747682Y-60296666D01*
X94721324Y-60299500D01*
X93505323Y-60299500D01*
X93432264Y-60314032D01*
X93432260Y-60314033D01*
X93349399Y-60369399D01*
X93294033Y-60452260D01*
X93294032Y-60452264D01*
X93279500Y-60525321D01*
X93279500Y-62274678D01*
X93294032Y-62347735D01*
X93294033Y-62347739D01*
X93294034Y-62347740D01*
X93349399Y-62430601D01*
X93432260Y-62485966D01*
X93432264Y-62485967D01*
X93505321Y-62500499D01*
X93505324Y-62500500D01*
X93505326Y-62500500D01*
X95254676Y-62500500D01*
X95254677Y-62500499D01*
X95327740Y-62485966D01*
X95410601Y-62430601D01*
X95465966Y-62347740D01*
X95480500Y-62274674D01*
X95480500Y-61058676D01*
X95500185Y-60991637D01*
X95516819Y-60970995D01*
X95614020Y-60873794D01*
X95751541Y-60736272D01*
X95812862Y-60702789D01*
X95882553Y-60707773D01*
X95938487Y-60749644D01*
X95962904Y-60815109D01*
X95949705Y-60880249D01*
X95900129Y-60977549D01*
X95846597Y-61142302D01*
X95819500Y-61313389D01*
X95819500Y-61486610D01*
X95846597Y-61657697D01*
X95846597Y-61657699D01*
X95846598Y-61657701D01*
X95900127Y-61822445D01*
X95978768Y-61976788D01*
X96080586Y-62116928D01*
X96203072Y-62239414D01*
X96343212Y-62341232D01*
X96497555Y-62419873D01*
X96662299Y-62473402D01*
X96833389Y-62500500D01*
X96833390Y-62500500D01*
X97006610Y-62500500D01*
X97006611Y-62500500D01*
X97177701Y-62473402D01*
X97342445Y-62419873D01*
X97496788Y-62341232D01*
X97636928Y-62239414D01*
X97759414Y-62116928D01*
X97861232Y-61976788D01*
X97939873Y-61822445D01*
X97993402Y-61657701D01*
X97995246Y-61646056D01*
X98004362Y-61626824D01*
X98008887Y-61606028D01*
X98023432Y-61586597D01*
X98025174Y-61582924D01*
X98030020Y-61577792D01*
X98154836Y-61452976D01*
X98216157Y-61419493D01*
X98285849Y-61424477D01*
X98341782Y-61466349D01*
X98364988Y-61521261D01*
X98386597Y-61657697D01*
X98386597Y-61657699D01*
X98386598Y-61657701D01*
X98440127Y-61822445D01*
X98518768Y-61976788D01*
X98620586Y-62116928D01*
X98743072Y-62239414D01*
X98883212Y-62341232D01*
X99037555Y-62419873D01*
X99202299Y-62473402D01*
X99373389Y-62500500D01*
X99373390Y-62500500D01*
X99546610Y-62500500D01*
X99546611Y-62500500D01*
X99717701Y-62473402D01*
X99882445Y-62419873D01*
X100036788Y-62341232D01*
X100176928Y-62239414D01*
X100299414Y-62116928D01*
X100401232Y-61976788D01*
X100479873Y-61822445D01*
X100482795Y-61813454D01*
X100516159Y-61710767D01*
X100523146Y-61699364D01*
X100525258Y-61689657D01*
X100546406Y-61661406D01*
X100703039Y-61504773D01*
X100764360Y-61471290D01*
X100834052Y-61476274D01*
X100889985Y-61518146D01*
X100913191Y-61573057D01*
X100926597Y-61657698D01*
X100926598Y-61657701D01*
X100980127Y-61822445D01*
X101058768Y-61976788D01*
X101160586Y-62116928D01*
X101283072Y-62239414D01*
X101423212Y-62341232D01*
X101577555Y-62419873D01*
X101742299Y-62473402D01*
X101913389Y-62500500D01*
X101913390Y-62500500D01*
X102086610Y-62500500D01*
X102086611Y-62500500D01*
X102257701Y-62473402D01*
X102422445Y-62419873D01*
X102576788Y-62341232D01*
X102716928Y-62239414D01*
X102839414Y-62116928D01*
X102941232Y-61976788D01*
X103019873Y-61822445D01*
X103073402Y-61657701D01*
X103100500Y-61486611D01*
X103100500Y-61458675D01*
X103109144Y-61429234D01*
X103115668Y-61399248D01*
X103119422Y-61394232D01*
X103120185Y-61391636D01*
X103136815Y-61370998D01*
X103227820Y-61279993D01*
X103289142Y-61246509D01*
X103358834Y-61251493D01*
X103414767Y-61293365D01*
X103439184Y-61358829D01*
X103439500Y-61367675D01*
X103439500Y-61486610D01*
X103466597Y-61657697D01*
X103466597Y-61657699D01*
X103466598Y-61657701D01*
X103520127Y-61822445D01*
X103598768Y-61976788D01*
X103700586Y-62116928D01*
X103823072Y-62239414D01*
X103963212Y-62341232D01*
X104117555Y-62419873D01*
X104282299Y-62473402D01*
X104453389Y-62500500D01*
X104453390Y-62500500D01*
X104626610Y-62500500D01*
X104626611Y-62500500D01*
X104797701Y-62473402D01*
X104962445Y-62419873D01*
X105116788Y-62341232D01*
X105256928Y-62239414D01*
X105379414Y-62116928D01*
X105481232Y-61976788D01*
X105559873Y-61822445D01*
X105613402Y-61657701D01*
X105640500Y-61486611D01*
X105640500Y-61313389D01*
X105618583Y-61175013D01*
X107800000Y-61175013D01*
X107800000Y-61600000D01*
X108619670Y-61600000D01*
X108599925Y-61619745D01*
X108550556Y-61705255D01*
X108525000Y-61800630D01*
X108525000Y-61899370D01*
X108550556Y-61994745D01*
X108599925Y-62080255D01*
X108619670Y-62100000D01*
X107800001Y-62100000D01*
X107800001Y-62524986D01*
X107810494Y-62627697D01*
X107865641Y-62794119D01*
X107865643Y-62794124D01*
X107957684Y-62943345D01*
X108081654Y-63067315D01*
X108230875Y-63159356D01*
X108230880Y-63159358D01*
X108397302Y-63214505D01*
X108397309Y-63214506D01*
X108500019Y-63224999D01*
X108649999Y-63224999D01*
X108650000Y-63224998D01*
X108650000Y-62130330D01*
X108669745Y-62150075D01*
X108755255Y-62199444D01*
X108850630Y-62225000D01*
X108949370Y-62225000D01*
X109044745Y-62199444D01*
X109130255Y-62150075D01*
X109150000Y-62130330D01*
X109150000Y-63224999D01*
X109299972Y-63224999D01*
X109299986Y-63224998D01*
X109402697Y-63214505D01*
X109569119Y-63159358D01*
X109569124Y-63159356D01*
X109718345Y-63067315D01*
X109842315Y-62943345D01*
X109934356Y-62794124D01*
X109934359Y-62794117D01*
X109983776Y-62644984D01*
X110023548Y-62587539D01*
X110088063Y-62560715D01*
X110156839Y-62573030D01*
X110204584Y-62615096D01*
X110239373Y-62667161D01*
X110239376Y-62667165D01*
X110357837Y-62785626D01*
X110450494Y-62847537D01*
X110497137Y-62878703D01*
X110497138Y-62878703D01*
X110497139Y-62878704D01*
X110525859Y-62890600D01*
X110651918Y-62942816D01*
X110786587Y-62969603D01*
X110816228Y-62975499D01*
X110816232Y-62975500D01*
X110816233Y-62975500D01*
X110983768Y-62975500D01*
X110983769Y-62975499D01*
X111148082Y-62942816D01*
X111302863Y-62878703D01*
X111442162Y-62785626D01*
X111560626Y-62667162D01*
X111653703Y-62527863D01*
X111717816Y-62373082D01*
X111750500Y-62208767D01*
X111750500Y-61491233D01*
X111717816Y-61326918D01*
X111653703Y-61172137D01*
X111615107Y-61114374D01*
X111570844Y-61048129D01*
X111570841Y-61048126D01*
X111560623Y-61032834D01*
X111442162Y-60914373D01*
X111302860Y-60821295D01*
X111148082Y-60757184D01*
X111148074Y-60757182D01*
X110983771Y-60724500D01*
X110983767Y-60724500D01*
X110816233Y-60724500D01*
X110816228Y-60724500D01*
X110651925Y-60757182D01*
X110651917Y-60757184D01*
X110497139Y-60821295D01*
X110357837Y-60914373D01*
X110239376Y-61032834D01*
X110239373Y-61032838D01*
X110204585Y-61084902D01*
X110150972Y-61129707D01*
X110081647Y-61138414D01*
X110018620Y-61108259D01*
X109983777Y-61055015D01*
X109934358Y-60905880D01*
X109934356Y-60905875D01*
X109842315Y-60756654D01*
X109718345Y-60632684D01*
X109569124Y-60540643D01*
X109569119Y-60540641D01*
X109402697Y-60485494D01*
X109402690Y-60485493D01*
X109299986Y-60475000D01*
X109150000Y-60475000D01*
X109150000Y-61569670D01*
X109130255Y-61549925D01*
X109044745Y-61500556D01*
X108949370Y-61475000D01*
X108850630Y-61475000D01*
X108755255Y-61500556D01*
X108669745Y-61549925D01*
X108650000Y-61569670D01*
X108650000Y-60475000D01*
X108500027Y-60475000D01*
X108500012Y-60475001D01*
X108397302Y-60485494D01*
X108230880Y-60540641D01*
X108230875Y-60540643D01*
X108081654Y-60632684D01*
X107957684Y-60756654D01*
X107865643Y-60905875D01*
X107865641Y-60905880D01*
X107810494Y-61072302D01*
X107810493Y-61072309D01*
X107800000Y-61175013D01*
X105618583Y-61175013D01*
X105613402Y-61142299D01*
X105559873Y-60977555D01*
X105481232Y-60823212D01*
X105379414Y-60683072D01*
X105256928Y-60560586D01*
X105116788Y-60458768D01*
X104962445Y-60380127D01*
X104797701Y-60326598D01*
X104797699Y-60326597D01*
X104797698Y-60326597D01*
X104661261Y-60304988D01*
X104626611Y-60299500D01*
X104507676Y-60299500D01*
X104486430Y-60293261D01*
X104464342Y-60291682D01*
X104453558Y-60283609D01*
X104440637Y-60279815D01*
X104426137Y-60263081D01*
X104408409Y-60249810D01*
X104403701Y-60237189D01*
X104394882Y-60227011D01*
X104391730Y-60205093D01*
X104383992Y-60184346D01*
X104386854Y-60171185D01*
X104384938Y-60157853D01*
X104394137Y-60137709D01*
X104398844Y-60116073D01*
X104412112Y-60098347D01*
X104413963Y-60094297D01*
X104419995Y-60087819D01*
X104439995Y-60067819D01*
X104501318Y-60034334D01*
X104527676Y-60031500D01*
X105734890Y-60031500D01*
X105734892Y-60031500D01*
X105862186Y-59997392D01*
X105976314Y-59931500D01*
X106573455Y-59334357D01*
X106634776Y-59300874D01*
X106685325Y-59300423D01*
X106780356Y-59319325D01*
X106836532Y-59330499D01*
X106836534Y-59330500D01*
X106836535Y-59330500D01*
X107043466Y-59330500D01*
X107043467Y-59330499D01*
X107246420Y-59290130D01*
X107437598Y-59210941D01*
X107609655Y-59095977D01*
X107755977Y-58949655D01*
X107870941Y-58777598D01*
X107950130Y-58586420D01*
X107990500Y-58383465D01*
X107990500Y-58176535D01*
X107950130Y-57973580D01*
X107870941Y-57782402D01*
X107755977Y-57610345D01*
X107755975Y-57610342D01*
X107609657Y-57464024D01*
X107523626Y-57406541D01*
X107437598Y-57349059D01*
X107413461Y-57339061D01*
X107359058Y-57295220D01*
X107336993Y-57228926D01*
X107354272Y-57161227D01*
X107405409Y-57113616D01*
X107460914Y-57100500D01*
X108959086Y-57100500D01*
X109026125Y-57120185D01*
X109071880Y-57172989D01*
X109081824Y-57242147D01*
X109052799Y-57305703D01*
X109006539Y-57339061D01*
X108982403Y-57349058D01*
X108810342Y-57464024D01*
X108664024Y-57610342D01*
X108549058Y-57782403D01*
X108469870Y-57973579D01*
X108469868Y-57973587D01*
X108429500Y-58176530D01*
X108429500Y-58383469D01*
X108469868Y-58586412D01*
X108469870Y-58586420D01*
X108549058Y-58777596D01*
X108664024Y-58949657D01*
X108810342Y-59095975D01*
X108810345Y-59095977D01*
X108982402Y-59210941D01*
X109173580Y-59290130D01*
X109357838Y-59326781D01*
X109376530Y-59330499D01*
X109376534Y-59330500D01*
X109376535Y-59330500D01*
X109583466Y-59330500D01*
X109583467Y-59330499D01*
X109786420Y-59290130D01*
X109977598Y-59210941D01*
X110149655Y-59095977D01*
X110295977Y-58949655D01*
X110410941Y-58777598D01*
X110490130Y-58586420D01*
X110530500Y-58383465D01*
X110530500Y-58176535D01*
X110490130Y-57973580D01*
X110410941Y-57782402D01*
X110295977Y-57610345D01*
X110295975Y-57610342D01*
X110149657Y-57464024D01*
X110063626Y-57406541D01*
X109977598Y-57349059D01*
X109953461Y-57339061D01*
X109899058Y-57295220D01*
X109876993Y-57228926D01*
X109894272Y-57161227D01*
X109945409Y-57113616D01*
X110000914Y-57100500D01*
X111499086Y-57100500D01*
X111566125Y-57120185D01*
X111611880Y-57172989D01*
X111621824Y-57242147D01*
X111592799Y-57305703D01*
X111546539Y-57339061D01*
X111522403Y-57349058D01*
X111350342Y-57464024D01*
X111204024Y-57610342D01*
X111089058Y-57782403D01*
X111009870Y-57973579D01*
X111009868Y-57973587D01*
X110969500Y-58176530D01*
X110969500Y-58383469D01*
X111009868Y-58586412D01*
X111009870Y-58586420D01*
X111089058Y-58777596D01*
X111204024Y-58949657D01*
X111350342Y-59095975D01*
X111350345Y-59095977D01*
X111522402Y-59210941D01*
X111713580Y-59290130D01*
X111897838Y-59326781D01*
X111916530Y-59330499D01*
X111916534Y-59330500D01*
X111916535Y-59330500D01*
X112123466Y-59330500D01*
X112123467Y-59330499D01*
X112326420Y-59290130D01*
X112517598Y-59210941D01*
X112689655Y-59095977D01*
X112835977Y-58949655D01*
X112950941Y-58777598D01*
X113030130Y-58586420D01*
X113070500Y-58383465D01*
X113070500Y-58176535D01*
X113030130Y-57973580D01*
X112950941Y-57782402D01*
X112835977Y-57610345D01*
X112835975Y-57610342D01*
X112689657Y-57464024D01*
X112603626Y-57406541D01*
X112517598Y-57349059D01*
X112493461Y-57339061D01*
X112439058Y-57295220D01*
X112416993Y-57228926D01*
X112434272Y-57161227D01*
X112485409Y-57113616D01*
X112540914Y-57100500D01*
X114039086Y-57100500D01*
X114106125Y-57120185D01*
X114151880Y-57172989D01*
X114161824Y-57242147D01*
X114132799Y-57305703D01*
X114086539Y-57339061D01*
X114062403Y-57349058D01*
X113890342Y-57464024D01*
X113744024Y-57610342D01*
X113629058Y-57782403D01*
X113549870Y-57973579D01*
X113549868Y-57973587D01*
X113509500Y-58176530D01*
X113509500Y-58383469D01*
X113549868Y-58586412D01*
X113549870Y-58586420D01*
X113629058Y-58777596D01*
X113744024Y-58949657D01*
X113890342Y-59095975D01*
X113890345Y-59095977D01*
X114062402Y-59210941D01*
X114253580Y-59290130D01*
X114437838Y-59326781D01*
X114456530Y-59330499D01*
X114456534Y-59330500D01*
X114456535Y-59330500D01*
X114663466Y-59330500D01*
X114663467Y-59330499D01*
X114866420Y-59290130D01*
X115057598Y-59210941D01*
X115229655Y-59095977D01*
X115375977Y-58949655D01*
X115490941Y-58777598D01*
X115570130Y-58586420D01*
X115610500Y-58383465D01*
X115610500Y-58176535D01*
X115570130Y-57973580D01*
X115490941Y-57782402D01*
X115375977Y-57610345D01*
X115375975Y-57610342D01*
X115229657Y-57464024D01*
X115143626Y-57406541D01*
X115057598Y-57349059D01*
X115033461Y-57339061D01*
X114979058Y-57295220D01*
X114956993Y-57228926D01*
X114974272Y-57161227D01*
X115025409Y-57113616D01*
X115080914Y-57100500D01*
X116579086Y-57100500D01*
X116646125Y-57120185D01*
X116691880Y-57172989D01*
X116701824Y-57242147D01*
X116672799Y-57305703D01*
X116626539Y-57339061D01*
X116602403Y-57349058D01*
X116430342Y-57464024D01*
X116284024Y-57610342D01*
X116169058Y-57782403D01*
X116089870Y-57973579D01*
X116089868Y-57973587D01*
X116049500Y-58176530D01*
X116049500Y-58383469D01*
X116089868Y-58586412D01*
X116089870Y-58586420D01*
X116169058Y-58777596D01*
X116284024Y-58949657D01*
X116430342Y-59095975D01*
X116430345Y-59095977D01*
X116602402Y-59210941D01*
X116793580Y-59290130D01*
X116977838Y-59326781D01*
X116996530Y-59330499D01*
X116996534Y-59330500D01*
X116996535Y-59330500D01*
X117203466Y-59330500D01*
X117203467Y-59330499D01*
X117406420Y-59290130D01*
X117597598Y-59210941D01*
X117769655Y-59095977D01*
X117915977Y-58949655D01*
X118030941Y-58777598D01*
X118110130Y-58586420D01*
X118150500Y-58383465D01*
X118150500Y-58176535D01*
X118110130Y-57973580D01*
X118030941Y-57782402D01*
X117915977Y-57610345D01*
X117915975Y-57610342D01*
X117769657Y-57464024D01*
X117683626Y-57406541D01*
X117597598Y-57349059D01*
X117573461Y-57339061D01*
X117519058Y-57295220D01*
X117496993Y-57228926D01*
X117514272Y-57161227D01*
X117565409Y-57113616D01*
X117620914Y-57100500D01*
X121675500Y-57100500D01*
X121742539Y-57120185D01*
X121788294Y-57172989D01*
X121799500Y-57224500D01*
X121799500Y-63146296D01*
X121779815Y-63213335D01*
X121727011Y-63259090D01*
X121657853Y-63269034D01*
X121594297Y-63240009D01*
X121572399Y-63215188D01*
X121558304Y-63194094D01*
X121558299Y-63194088D01*
X121425911Y-63061700D01*
X121425907Y-63061697D01*
X121270237Y-62957681D01*
X121270228Y-62957676D01*
X121097251Y-62886027D01*
X121091419Y-62884258D01*
X121092096Y-62882024D01*
X121039367Y-62854419D01*
X121004814Y-62793691D01*
X121001500Y-62765216D01*
X121001500Y-60711718D01*
X121001500Y-60711716D01*
X120977614Y-60622572D01*
X120967843Y-60605648D01*
X120931470Y-60542648D01*
X120592476Y-60203654D01*
X120558991Y-60142331D01*
X120563975Y-60072639D01*
X120565599Y-60068514D01*
X120565888Y-60067818D01*
X120570698Y-60056205D01*
X120600500Y-59906380D01*
X120600500Y-59753620D01*
X120570698Y-59603795D01*
X120512239Y-59462663D01*
X120495765Y-59438009D01*
X120474888Y-59371332D01*
X120493372Y-59303952D01*
X120522007Y-59274279D01*
X120521965Y-59274237D01*
X120524331Y-59271870D01*
X120529983Y-59266013D01*
X120530601Y-59265601D01*
X120585966Y-59182740D01*
X120600500Y-59109674D01*
X120600500Y-58010326D01*
X120600500Y-58010323D01*
X120600499Y-58010321D01*
X120585967Y-57937264D01*
X120585966Y-57937260D01*
X120530601Y-57854399D01*
X120447740Y-57799034D01*
X120447739Y-57799033D01*
X120447735Y-57799032D01*
X120374677Y-57784500D01*
X120374674Y-57784500D01*
X118825326Y-57784500D01*
X118825323Y-57784500D01*
X118752264Y-57799032D01*
X118752260Y-57799033D01*
X118669399Y-57854399D01*
X118614033Y-57937260D01*
X118614032Y-57937264D01*
X118599500Y-58010321D01*
X118599500Y-59109678D01*
X118614032Y-59182735D01*
X118614033Y-59182739D01*
X118614034Y-59182740D01*
X118669399Y-59265601D01*
X118670016Y-59266013D01*
X118671058Y-59267260D01*
X118678035Y-59274237D01*
X118677411Y-59274860D01*
X118714824Y-59319621D01*
X118723536Y-59388945D01*
X118704234Y-59438007D01*
X118687766Y-59462653D01*
X118687759Y-59462665D01*
X118629302Y-59603794D01*
X118629300Y-59603802D01*
X118599500Y-59753615D01*
X118599500Y-59906384D01*
X118629300Y-60056197D01*
X118629302Y-60056205D01*
X118687759Y-60197334D01*
X118687764Y-60197343D01*
X118772629Y-60324351D01*
X118772632Y-60324355D01*
X118825596Y-60377319D01*
X118859081Y-60438642D01*
X118854097Y-60508334D01*
X118825596Y-60552681D01*
X118772632Y-60605644D01*
X118772629Y-60605648D01*
X118687764Y-60732656D01*
X118687759Y-60732665D01*
X118629302Y-60873794D01*
X118629300Y-60873802D01*
X118599500Y-61023615D01*
X118599500Y-61176384D01*
X118629300Y-61326197D01*
X118629302Y-61326205D01*
X118687759Y-61467334D01*
X118687764Y-61467343D01*
X118772629Y-61594351D01*
X118772632Y-61594355D01*
X118880644Y-61702367D01*
X118880648Y-61702370D01*
X119007656Y-61787235D01*
X119007662Y-61787238D01*
X119007663Y-61787239D01*
X119148795Y-61845698D01*
X119298615Y-61875499D01*
X119298619Y-61875500D01*
X119298620Y-61875500D01*
X119901381Y-61875500D01*
X119901382Y-61875499D01*
X120051205Y-61845698D01*
X120129049Y-61813453D01*
X120198516Y-61805985D01*
X120260995Y-61837260D01*
X120296648Y-61897348D01*
X120300500Y-61928015D01*
X120300500Y-62937682D01*
X120280815Y-63004721D01*
X120245391Y-63040784D01*
X120214092Y-63061697D01*
X120214088Y-63061700D01*
X120081700Y-63194088D01*
X120081697Y-63194092D01*
X119977681Y-63349762D01*
X119977676Y-63349771D01*
X119906027Y-63522748D01*
X119906025Y-63522756D01*
X119869500Y-63706379D01*
X119869500Y-63893620D01*
X119906025Y-64077243D01*
X119906027Y-64077251D01*
X119977676Y-64250228D01*
X119977681Y-64250237D01*
X120081697Y-64405907D01*
X120081700Y-64405911D01*
X120214088Y-64538299D01*
X120214092Y-64538302D01*
X120369762Y-64642318D01*
X120369768Y-64642321D01*
X120369769Y-64642322D01*
X120542749Y-64713973D01*
X120706003Y-64746446D01*
X120726379Y-64750499D01*
X120726383Y-64750500D01*
X120726384Y-64750500D01*
X120913617Y-64750500D01*
X120913618Y-64750499D01*
X121097251Y-64713973D01*
X121270231Y-64642322D01*
X121425908Y-64538302D01*
X121558302Y-64405908D01*
X121572397Y-64384812D01*
X121626009Y-64340007D01*
X121695334Y-64331300D01*
X121758362Y-64361454D01*
X121795082Y-64420897D01*
X121799500Y-64453703D01*
X121799500Y-67246296D01*
X121779815Y-67313335D01*
X121727011Y-67359090D01*
X121657853Y-67369034D01*
X121594297Y-67340009D01*
X121572399Y-67315188D01*
X121558304Y-67294094D01*
X121558299Y-67294088D01*
X121425911Y-67161700D01*
X121425907Y-67161697D01*
X121270237Y-67057681D01*
X121270228Y-67057676D01*
X121097251Y-66986027D01*
X121097243Y-66986025D01*
X120913620Y-66949500D01*
X120913616Y-66949500D01*
X120726384Y-66949500D01*
X120726379Y-66949500D01*
X120542756Y-66986025D01*
X120542748Y-66986027D01*
X120369771Y-67057676D01*
X120369762Y-67057681D01*
X120214092Y-67161697D01*
X120214088Y-67161700D01*
X120081700Y-67294088D01*
X120081697Y-67294092D01*
X119977681Y-67449762D01*
X119977676Y-67449771D01*
X119906027Y-67622748D01*
X119906025Y-67622754D01*
X119884096Y-67732999D01*
X119875200Y-67756667D01*
X119876496Y-67757204D01*
X119873385Y-67764713D01*
X119849501Y-67853852D01*
X119849501Y-67946149D01*
X119873385Y-68035288D01*
X119876496Y-68042798D01*
X119875190Y-68043338D01*
X119884097Y-68067003D01*
X119906025Y-68177243D01*
X119906027Y-68177251D01*
X119977676Y-68350228D01*
X119977681Y-68350237D01*
X120081697Y-68505907D01*
X120081700Y-68505911D01*
X120214089Y-68638300D01*
X120214092Y-68638302D01*
X120285391Y-68685942D01*
X120330195Y-68739553D01*
X120340500Y-68789044D01*
X120340500Y-69930500D01*
X120320815Y-69997539D01*
X120268011Y-70043294D01*
X120216500Y-70054500D01*
X119500887Y-70054500D01*
X119468794Y-70050275D01*
X119388290Y-70028704D01*
X119372601Y-70024500D01*
X119372600Y-70024500D01*
X116840073Y-70024500D01*
X116773034Y-70004815D01*
X116752392Y-69988181D01*
X116725911Y-69961700D01*
X116725907Y-69961697D01*
X116570237Y-69857681D01*
X116570228Y-69857676D01*
X116397251Y-69786027D01*
X116397243Y-69786025D01*
X116213620Y-69749500D01*
X116213616Y-69749500D01*
X116026384Y-69749500D01*
X116026379Y-69749500D01*
X115842756Y-69786025D01*
X115842748Y-69786027D01*
X115669771Y-69857676D01*
X115669762Y-69857681D01*
X115514092Y-69961697D01*
X115514088Y-69961700D01*
X115381700Y-70094088D01*
X115381697Y-70094092D01*
X115277681Y-70249762D01*
X115277676Y-70249771D01*
X115206027Y-70422748D01*
X115206025Y-70422756D01*
X115169500Y-70606379D01*
X115169500Y-70793620D01*
X115206025Y-70977243D01*
X115206027Y-70977251D01*
X115277676Y-71150228D01*
X115277681Y-71150237D01*
X115381697Y-71305907D01*
X115381700Y-71305911D01*
X115514088Y-71438299D01*
X115514092Y-71438302D01*
X115669762Y-71542318D01*
X115669768Y-71542321D01*
X115669769Y-71542322D01*
X115842749Y-71613973D01*
X116026379Y-71650499D01*
X116026383Y-71650500D01*
X116026384Y-71650500D01*
X116213617Y-71650500D01*
X116213618Y-71650499D01*
X116397251Y-71613973D01*
X116570231Y-71542322D01*
X116725908Y-71438302D01*
X116858302Y-71305908D01*
X116962322Y-71150231D01*
X117002991Y-71052048D01*
X117046832Y-70997644D01*
X117113126Y-70975579D01*
X117117552Y-70975500D01*
X118515500Y-70975500D01*
X118582539Y-70995185D01*
X118628294Y-71047989D01*
X118639500Y-71099500D01*
X118639500Y-71379678D01*
X118654032Y-71452735D01*
X118654033Y-71452739D01*
X118654034Y-71452740D01*
X118709399Y-71535601D01*
X118710016Y-71536013D01*
X118711058Y-71537260D01*
X118718035Y-71544237D01*
X118717411Y-71544860D01*
X118754824Y-71589621D01*
X118763536Y-71658945D01*
X118744234Y-71708007D01*
X118727766Y-71732653D01*
X118727759Y-71732665D01*
X118669302Y-71873794D01*
X118669300Y-71873802D01*
X118639500Y-72023615D01*
X118639500Y-72176384D01*
X118669300Y-72326197D01*
X118669302Y-72326205D01*
X118727759Y-72467334D01*
X118727764Y-72467343D01*
X118812629Y-72594351D01*
X118812632Y-72594355D01*
X118865596Y-72647319D01*
X118899081Y-72708642D01*
X118894097Y-72778334D01*
X118865596Y-72822681D01*
X118812632Y-72875644D01*
X118812629Y-72875648D01*
X118727764Y-73002656D01*
X118727759Y-73002665D01*
X118669302Y-73143794D01*
X118669300Y-73143802D01*
X118639500Y-73293615D01*
X118639500Y-73446384D01*
X118669300Y-73596197D01*
X118669302Y-73596205D01*
X118727759Y-73737334D01*
X118727764Y-73737343D01*
X118812629Y-73864351D01*
X118812632Y-73864355D01*
X118920644Y-73972367D01*
X118920648Y-73972370D01*
X119047656Y-74057235D01*
X119047662Y-74057238D01*
X119047663Y-74057239D01*
X119188795Y-74115698D01*
X119338615Y-74145499D01*
X119338619Y-74145500D01*
X119338620Y-74145500D01*
X119941381Y-74145500D01*
X119941382Y-74145499D01*
X120091205Y-74115698D01*
X120232337Y-74057239D01*
X120359352Y-73972370D01*
X120467370Y-73864352D01*
X120552239Y-73737337D01*
X120610698Y-73596205D01*
X120640500Y-73446380D01*
X120640500Y-73293620D01*
X120610698Y-73143795D01*
X120552239Y-73002663D01*
X120552238Y-73002662D01*
X120552235Y-73002656D01*
X120467370Y-72875648D01*
X120467367Y-72875644D01*
X120414404Y-72822681D01*
X120380919Y-72761358D01*
X120385903Y-72691666D01*
X120414404Y-72647319D01*
X120467367Y-72594355D01*
X120467370Y-72594352D01*
X120552239Y-72467337D01*
X120610698Y-72326205D01*
X120626755Y-72245478D01*
X120659139Y-72183569D01*
X120660691Y-72181990D01*
X120666301Y-72176380D01*
X120971470Y-71871212D01*
X121017614Y-71791288D01*
X121041500Y-71702144D01*
X121041500Y-71609856D01*
X121041500Y-68919919D01*
X121061185Y-68852880D01*
X121113989Y-68807125D01*
X121118021Y-68805369D01*
X121270231Y-68742322D01*
X121425908Y-68638302D01*
X121558302Y-68505908D01*
X121572397Y-68484812D01*
X121626009Y-68440007D01*
X121695334Y-68431300D01*
X121758362Y-68461454D01*
X121795082Y-68520897D01*
X121799500Y-68553703D01*
X121799500Y-74575500D01*
X121779815Y-74642539D01*
X121727011Y-74688294D01*
X121675500Y-74699500D01*
X117620914Y-74699500D01*
X117553875Y-74679815D01*
X117508120Y-74627011D01*
X117498176Y-74557853D01*
X117527201Y-74494297D01*
X117573461Y-74460939D01*
X117575259Y-74460194D01*
X117597598Y-74450941D01*
X117769655Y-74335977D01*
X117915977Y-74189655D01*
X118030941Y-74017598D01*
X118110130Y-73826420D01*
X118150500Y-73623465D01*
X118150500Y-73416535D01*
X118110130Y-73213580D01*
X118030941Y-73022402D01*
X117915977Y-72850345D01*
X117915975Y-72850342D01*
X117769657Y-72704024D01*
X117605524Y-72594355D01*
X117597598Y-72589059D01*
X117406420Y-72509870D01*
X117406412Y-72509868D01*
X117203469Y-72469500D01*
X117203465Y-72469500D01*
X116996535Y-72469500D01*
X116996530Y-72469500D01*
X116793587Y-72509868D01*
X116793579Y-72509870D01*
X116602403Y-72589058D01*
X116430342Y-72704024D01*
X116284024Y-72850342D01*
X116169058Y-73022403D01*
X116089870Y-73213579D01*
X116089868Y-73213587D01*
X116049500Y-73416530D01*
X116049500Y-73623469D01*
X116089868Y-73826412D01*
X116089870Y-73826420D01*
X116150323Y-73972367D01*
X116169059Y-74017598D01*
X116195546Y-74057239D01*
X116284024Y-74189657D01*
X116430342Y-74335975D01*
X116430345Y-74335977D01*
X116602402Y-74450941D01*
X116623191Y-74459552D01*
X116626539Y-74460939D01*
X116680942Y-74504780D01*
X116703007Y-74571074D01*
X116685728Y-74638773D01*
X116634591Y-74686384D01*
X116579086Y-74699500D01*
X115080914Y-74699500D01*
X115013875Y-74679815D01*
X114968120Y-74627011D01*
X114958176Y-74557853D01*
X114987201Y-74494297D01*
X115033461Y-74460939D01*
X115035259Y-74460194D01*
X115057598Y-74450941D01*
X115229655Y-74335977D01*
X115375977Y-74189655D01*
X115490941Y-74017598D01*
X115570130Y-73826420D01*
X115610500Y-73623465D01*
X115610500Y-73416535D01*
X115570130Y-73213580D01*
X115490941Y-73022402D01*
X115375977Y-72850345D01*
X115375975Y-72850342D01*
X115229657Y-72704024D01*
X115065524Y-72594355D01*
X115057598Y-72589059D01*
X114866420Y-72509870D01*
X114866412Y-72509868D01*
X114663469Y-72469500D01*
X114663465Y-72469500D01*
X114456535Y-72469500D01*
X114456530Y-72469500D01*
X114253587Y-72509868D01*
X114253579Y-72509870D01*
X114062403Y-72589058D01*
X113890342Y-72704024D01*
X113744024Y-72850342D01*
X113629058Y-73022403D01*
X113549870Y-73213579D01*
X113549868Y-73213587D01*
X113509500Y-73416530D01*
X113509500Y-73623469D01*
X113549868Y-73826412D01*
X113549870Y-73826420D01*
X113610323Y-73972367D01*
X113629059Y-74017598D01*
X113655546Y-74057239D01*
X113744024Y-74189657D01*
X113890342Y-74335975D01*
X113890345Y-74335977D01*
X114062402Y-74450941D01*
X114083191Y-74459552D01*
X114086539Y-74460939D01*
X114140942Y-74504780D01*
X114163007Y-74571074D01*
X114145728Y-74638773D01*
X114094591Y-74686384D01*
X114039086Y-74699500D01*
X112540914Y-74699500D01*
X112473875Y-74679815D01*
X112428120Y-74627011D01*
X112418176Y-74557853D01*
X112447201Y-74494297D01*
X112493461Y-74460939D01*
X112495259Y-74460194D01*
X112517598Y-74450941D01*
X112689655Y-74335977D01*
X112835977Y-74189655D01*
X112950941Y-74017598D01*
X113030130Y-73826420D01*
X113070500Y-73623465D01*
X113070500Y-73416535D01*
X113030130Y-73213580D01*
X112950941Y-73022402D01*
X112835977Y-72850345D01*
X112835975Y-72850342D01*
X112689657Y-72704024D01*
X112525524Y-72594355D01*
X112517598Y-72589059D01*
X112326420Y-72509870D01*
X112326412Y-72509868D01*
X112123469Y-72469500D01*
X112123465Y-72469500D01*
X111916535Y-72469500D01*
X111916530Y-72469500D01*
X111713587Y-72509868D01*
X111713579Y-72509870D01*
X111522403Y-72589058D01*
X111350342Y-72704024D01*
X111204024Y-72850342D01*
X111089058Y-73022403D01*
X111009870Y-73213579D01*
X111009868Y-73213587D01*
X110969500Y-73416530D01*
X110969500Y-73623469D01*
X111009868Y-73826412D01*
X111009870Y-73826420D01*
X111070323Y-73972367D01*
X111089059Y-74017598D01*
X111115546Y-74057239D01*
X111204024Y-74189657D01*
X111350342Y-74335975D01*
X111350345Y-74335977D01*
X111522402Y-74450941D01*
X111543191Y-74459552D01*
X111546539Y-74460939D01*
X111600942Y-74504780D01*
X111623007Y-74571074D01*
X111605728Y-74638773D01*
X111554591Y-74686384D01*
X111499086Y-74699500D01*
X110000914Y-74699500D01*
X109933875Y-74679815D01*
X109888120Y-74627011D01*
X109878176Y-74557853D01*
X109907201Y-74494297D01*
X109953461Y-74460939D01*
X109955259Y-74460194D01*
X109977598Y-74450941D01*
X110149655Y-74335977D01*
X110295977Y-74189655D01*
X110410941Y-74017598D01*
X110490130Y-73826420D01*
X110530500Y-73623465D01*
X110530500Y-73416535D01*
X110490130Y-73213580D01*
X110410941Y-73022402D01*
X110295977Y-72850345D01*
X110295975Y-72850342D01*
X110149657Y-72704024D01*
X109985524Y-72594355D01*
X109977598Y-72589059D01*
X109786420Y-72509870D01*
X109786412Y-72509868D01*
X109583469Y-72469500D01*
X109583465Y-72469500D01*
X109376535Y-72469500D01*
X109376530Y-72469500D01*
X109173587Y-72509868D01*
X109173579Y-72509870D01*
X108982403Y-72589058D01*
X108810342Y-72704024D01*
X108664024Y-72850342D01*
X108549058Y-73022403D01*
X108469870Y-73213579D01*
X108469868Y-73213587D01*
X108429500Y-73416530D01*
X108429500Y-73623469D01*
X108469868Y-73826412D01*
X108469870Y-73826420D01*
X108530323Y-73972367D01*
X108549059Y-74017598D01*
X108575546Y-74057239D01*
X108664024Y-74189657D01*
X108810342Y-74335975D01*
X108810345Y-74335977D01*
X108982402Y-74450941D01*
X109003191Y-74459552D01*
X109006539Y-74460939D01*
X109060942Y-74504780D01*
X109083007Y-74571074D01*
X109065728Y-74638773D01*
X109014591Y-74686384D01*
X108959086Y-74699500D01*
X107460914Y-74699500D01*
X107393875Y-74679815D01*
X107348120Y-74627011D01*
X107338176Y-74557853D01*
X107367201Y-74494297D01*
X107413461Y-74460939D01*
X107415259Y-74460194D01*
X107437598Y-74450941D01*
X107609655Y-74335977D01*
X107755977Y-74189655D01*
X107870941Y-74017598D01*
X107950130Y-73826420D01*
X107990500Y-73623465D01*
X107990500Y-73416535D01*
X107950130Y-73213580D01*
X107870941Y-73022402D01*
X107755977Y-72850345D01*
X107755975Y-72850342D01*
X107609657Y-72704024D01*
X107445524Y-72594355D01*
X107437598Y-72589059D01*
X107246420Y-72509870D01*
X107246412Y-72509868D01*
X107043469Y-72469500D01*
X107043465Y-72469500D01*
X106836535Y-72469500D01*
X106836530Y-72469500D01*
X106633587Y-72509868D01*
X106633579Y-72509870D01*
X106442403Y-72589058D01*
X106270342Y-72704024D01*
X106124024Y-72850342D01*
X106009058Y-73022403D01*
X105929870Y-73213579D01*
X105929868Y-73213587D01*
X105889500Y-73416530D01*
X105889500Y-73623469D01*
X105929868Y-73826412D01*
X105929870Y-73826420D01*
X105990323Y-73972367D01*
X106009059Y-74017598D01*
X106035546Y-74057239D01*
X106124024Y-74189657D01*
X106270342Y-74335975D01*
X106270345Y-74335977D01*
X106442402Y-74450941D01*
X106463191Y-74459552D01*
X106466539Y-74460939D01*
X106520942Y-74504780D01*
X106543007Y-74571074D01*
X106525728Y-74638773D01*
X106474591Y-74686384D01*
X106419086Y-74699500D01*
X104920914Y-74699500D01*
X104853875Y-74679815D01*
X104808120Y-74627011D01*
X104798176Y-74557853D01*
X104827201Y-74494297D01*
X104873461Y-74460939D01*
X104875259Y-74460194D01*
X104897598Y-74450941D01*
X105069655Y-74335977D01*
X105215977Y-74189655D01*
X105330941Y-74017598D01*
X105410130Y-73826420D01*
X105450500Y-73623465D01*
X105450500Y-73416535D01*
X105410130Y-73213580D01*
X105330941Y-73022402D01*
X105215977Y-72850345D01*
X105215975Y-72850342D01*
X105069657Y-72704024D01*
X104905524Y-72594355D01*
X104897598Y-72589059D01*
X104706420Y-72509870D01*
X104706412Y-72509868D01*
X104503469Y-72469500D01*
X104503465Y-72469500D01*
X104296535Y-72469500D01*
X104296530Y-72469500D01*
X104093587Y-72509868D01*
X104093579Y-72509870D01*
X103902403Y-72589058D01*
X103730342Y-72704024D01*
X103584024Y-72850342D01*
X103469058Y-73022403D01*
X103389870Y-73213579D01*
X103389868Y-73213587D01*
X103349500Y-73416530D01*
X103349500Y-73623469D01*
X103389868Y-73826412D01*
X103389870Y-73826420D01*
X103450323Y-73972367D01*
X103469059Y-74017598D01*
X103495546Y-74057239D01*
X103584024Y-74189657D01*
X103730342Y-74335975D01*
X103730345Y-74335977D01*
X103902402Y-74450941D01*
X103923191Y-74459552D01*
X103926539Y-74460939D01*
X103980942Y-74504780D01*
X104003007Y-74571074D01*
X103985728Y-74638773D01*
X103934591Y-74686384D01*
X103879086Y-74699500D01*
X102380914Y-74699500D01*
X102313875Y-74679815D01*
X102268120Y-74627011D01*
X102258176Y-74557853D01*
X102287201Y-74494297D01*
X102333461Y-74460939D01*
X102335259Y-74460194D01*
X102357598Y-74450941D01*
X102529655Y-74335977D01*
X102675977Y-74189655D01*
X102790941Y-74017598D01*
X102870130Y-73826420D01*
X102910500Y-73623465D01*
X102910500Y-73416535D01*
X102870130Y-73213580D01*
X102845402Y-73153882D01*
X102837934Y-73084418D01*
X102869208Y-73021938D01*
X102872253Y-73018782D01*
X103879218Y-72011819D01*
X103940541Y-71978334D01*
X103966899Y-71975500D01*
X107149435Y-71975500D01*
X107149436Y-71975500D01*
X107197186Y-71962705D01*
X107244938Y-71949910D01*
X107330562Y-71900475D01*
X107400475Y-71830562D01*
X107400474Y-71830562D01*
X107459043Y-71771993D01*
X108700475Y-70530563D01*
X108749911Y-70444937D01*
X108775500Y-70349436D01*
X108775500Y-70250564D01*
X108775500Y-69962597D01*
X108795185Y-69895558D01*
X108847989Y-69849803D01*
X108917147Y-69839859D01*
X108968389Y-69859494D01*
X108997137Y-69878703D01*
X109151918Y-69942816D01*
X109316223Y-69975498D01*
X109316228Y-69975499D01*
X109316232Y-69975500D01*
X109316233Y-69975500D01*
X109483768Y-69975500D01*
X109483769Y-69975499D01*
X109648082Y-69942816D01*
X109802863Y-69878703D01*
X109942162Y-69785626D01*
X110060626Y-69667162D01*
X110153703Y-69527863D01*
X110205818Y-69402046D01*
X110249659Y-69347644D01*
X110315953Y-69325579D01*
X110320379Y-69325500D01*
X111451679Y-69325500D01*
X111518718Y-69345185D01*
X111539360Y-69361819D01*
X112608253Y-70430712D01*
X112641738Y-70492035D01*
X112642190Y-70542582D01*
X112629500Y-70606384D01*
X112629500Y-70793620D01*
X112666025Y-70977243D01*
X112666027Y-70977251D01*
X112737676Y-71150228D01*
X112737681Y-71150237D01*
X112841697Y-71305907D01*
X112841700Y-71305911D01*
X112974088Y-71438299D01*
X112974092Y-71438302D01*
X113129762Y-71542318D01*
X113129768Y-71542321D01*
X113129769Y-71542322D01*
X113302749Y-71613973D01*
X113486379Y-71650499D01*
X113486383Y-71650500D01*
X113486384Y-71650500D01*
X113673617Y-71650500D01*
X113673618Y-71650499D01*
X113857251Y-71613973D01*
X114030231Y-71542322D01*
X114185908Y-71438302D01*
X114318302Y-71305908D01*
X114422322Y-71150231D01*
X114493973Y-70977251D01*
X114530500Y-70793616D01*
X114530500Y-70606384D01*
X114493973Y-70422749D01*
X114422322Y-70249769D01*
X114422321Y-70249768D01*
X114422318Y-70249762D01*
X114318302Y-70094092D01*
X114318299Y-70094088D01*
X114185911Y-69961700D01*
X114185907Y-69961697D01*
X114030237Y-69857681D01*
X114030228Y-69857676D01*
X113857251Y-69786027D01*
X113857243Y-69786025D01*
X113673620Y-69749500D01*
X113673616Y-69749500D01*
X113486384Y-69749500D01*
X113372538Y-69772144D01*
X113302947Y-69765917D01*
X113260667Y-69738208D01*
X111991965Y-68469506D01*
X111991964Y-68469505D01*
X111883536Y-68406905D01*
X111883537Y-68406905D01*
X111843224Y-68396103D01*
X111762601Y-68374500D01*
X111762599Y-68374500D01*
X110320379Y-68374500D01*
X110253340Y-68354815D01*
X110207585Y-68302011D01*
X110205818Y-68297953D01*
X110153704Y-68172139D01*
X110060626Y-68032837D01*
X109942162Y-67914373D01*
X109802860Y-67821295D01*
X109671896Y-67767048D01*
X109617493Y-67723207D01*
X109595428Y-67656912D01*
X109612707Y-67589213D01*
X109631664Y-67564810D01*
X111208657Y-65987819D01*
X111269980Y-65954334D01*
X111296338Y-65951500D01*
X114532796Y-65951500D01*
X114599835Y-65971185D01*
X114645590Y-66023989D01*
X114655534Y-66093147D01*
X114626509Y-66156703D01*
X114620477Y-66163181D01*
X114560588Y-66223069D01*
X114560588Y-66223070D01*
X114560586Y-66223072D01*
X114532316Y-66261982D01*
X114458768Y-66363211D01*
X114380128Y-66517552D01*
X114326597Y-66682302D01*
X114305978Y-66812488D01*
X114299500Y-66853389D01*
X114299500Y-67026611D01*
X114303899Y-67054386D01*
X114324448Y-67184130D01*
X114326598Y-67197701D01*
X114380127Y-67362445D01*
X114458768Y-67516788D01*
X114560586Y-67656928D01*
X114683072Y-67779414D01*
X114823212Y-67881232D01*
X114977555Y-67959873D01*
X115142299Y-68013402D01*
X115313389Y-68040500D01*
X115313390Y-68040500D01*
X115486610Y-68040500D01*
X115486611Y-68040500D01*
X115657701Y-68013402D01*
X115822445Y-67959873D01*
X115976788Y-67881232D01*
X116079814Y-67806379D01*
X117329500Y-67806379D01*
X117329500Y-67993620D01*
X117366025Y-68177243D01*
X117366027Y-68177251D01*
X117437676Y-68350228D01*
X117437681Y-68350237D01*
X117541697Y-68505907D01*
X117541700Y-68505911D01*
X117674088Y-68638299D01*
X117674092Y-68638302D01*
X117829762Y-68742318D01*
X117829768Y-68742321D01*
X117829769Y-68742322D01*
X118002749Y-68813973D01*
X118183493Y-68849925D01*
X118186379Y-68850499D01*
X118186383Y-68850500D01*
X118186384Y-68850500D01*
X118373617Y-68850500D01*
X118373618Y-68850499D01*
X118557251Y-68813973D01*
X118730231Y-68742322D01*
X118885908Y-68638302D01*
X119018302Y-68505908D01*
X119122322Y-68350231D01*
X119193973Y-68177251D01*
X119230500Y-67993616D01*
X119230500Y-67806384D01*
X119193973Y-67622749D01*
X119122322Y-67449769D01*
X119122321Y-67449768D01*
X119122318Y-67449762D01*
X119018302Y-67294092D01*
X119018299Y-67294088D01*
X118885911Y-67161700D01*
X118885907Y-67161697D01*
X118730237Y-67057681D01*
X118730228Y-67057676D01*
X118655229Y-67026611D01*
X118652000Y-67025273D01*
X118597598Y-66981433D01*
X118575533Y-66915139D01*
X118592066Y-66848714D01*
X118612984Y-66812485D01*
X118650500Y-66672475D01*
X118650500Y-66527525D01*
X118612984Y-66387515D01*
X118609628Y-66381703D01*
X118540511Y-66261988D01*
X118540506Y-66261982D01*
X118438017Y-66159493D01*
X118438011Y-66159488D01*
X118312488Y-66087017D01*
X118312489Y-66087017D01*
X118296949Y-66082853D01*
X118172475Y-66049500D01*
X118027525Y-66049500D01*
X117903051Y-66082853D01*
X117887511Y-66087017D01*
X117761988Y-66159488D01*
X117761982Y-66159493D01*
X117659493Y-66261982D01*
X117659488Y-66261988D01*
X117587017Y-66387511D01*
X117587016Y-66387515D01*
X117549500Y-66527525D01*
X117549500Y-66672475D01*
X117587016Y-66812485D01*
X117587017Y-66812488D01*
X117659488Y-66938011D01*
X117659493Y-66938017D01*
X117688181Y-66966705D01*
X117702884Y-66993632D01*
X117719477Y-67019451D01*
X117720368Y-67025651D01*
X117721666Y-67028028D01*
X117724500Y-67054386D01*
X117724500Y-67061737D01*
X117704815Y-67128776D01*
X117677661Y-67156460D01*
X117678794Y-67157840D01*
X117674093Y-67161696D01*
X117674094Y-67161697D01*
X117674085Y-67161704D01*
X117541700Y-67294088D01*
X117541697Y-67294092D01*
X117437681Y-67449762D01*
X117437676Y-67449771D01*
X117366027Y-67622748D01*
X117366025Y-67622756D01*
X117329500Y-67806379D01*
X116079814Y-67806379D01*
X116116928Y-67779414D01*
X116239414Y-67656928D01*
X116341232Y-67516788D01*
X116419873Y-67362445D01*
X116473402Y-67197701D01*
X116500500Y-67026611D01*
X116500500Y-66853389D01*
X116473402Y-66682299D01*
X116419873Y-66517555D01*
X116341232Y-66363212D01*
X116239414Y-66223072D01*
X116179523Y-66163181D01*
X116146038Y-66101858D01*
X116151022Y-66032166D01*
X116192894Y-65976233D01*
X116258358Y-65951816D01*
X116267204Y-65951500D01*
X116673435Y-65951500D01*
X116673436Y-65951500D01*
X116721186Y-65938705D01*
X116768938Y-65925910D01*
X116854562Y-65876475D01*
X116924475Y-65806562D01*
X117967824Y-64763211D01*
X118029145Y-64729728D01*
X118079691Y-64729277D01*
X118166004Y-64746446D01*
X118186383Y-64750500D01*
X118186384Y-64750500D01*
X118373617Y-64750500D01*
X118373618Y-64750499D01*
X118557251Y-64713973D01*
X118730231Y-64642322D01*
X118885908Y-64538302D01*
X119018302Y-64405908D01*
X119122322Y-64250231D01*
X119193973Y-64077251D01*
X119230500Y-63893616D01*
X119230500Y-63706384D01*
X119193973Y-63522749D01*
X119122322Y-63349769D01*
X119122321Y-63349768D01*
X119122318Y-63349762D01*
X119018302Y-63194092D01*
X119018299Y-63194088D01*
X118885911Y-63061700D01*
X118885907Y-63061697D01*
X118730237Y-62957681D01*
X118730228Y-62957676D01*
X118557251Y-62886027D01*
X118557243Y-62886025D01*
X118373620Y-62849500D01*
X118373616Y-62849500D01*
X118186384Y-62849500D01*
X118186379Y-62849500D01*
X118002756Y-62886025D01*
X118002748Y-62886027D01*
X117829771Y-62957676D01*
X117829762Y-62957681D01*
X117674092Y-63061697D01*
X117674088Y-63061700D01*
X117541700Y-63194088D01*
X117541697Y-63194092D01*
X117437681Y-63349762D01*
X117437676Y-63349771D01*
X117366027Y-63522748D01*
X117366025Y-63522756D01*
X117329500Y-63706379D01*
X117329500Y-63893620D01*
X117366024Y-64077243D01*
X117366027Y-64077252D01*
X117400421Y-64160287D01*
X117407890Y-64229757D01*
X117376614Y-64292236D01*
X117373541Y-64295420D01*
X116942184Y-64726777D01*
X116880861Y-64760262D01*
X116811169Y-64755278D01*
X116755236Y-64713406D01*
X116730819Y-64647942D01*
X116732030Y-64619697D01*
X116750000Y-64506244D01*
X116750000Y-64293753D01*
X116716757Y-64083872D01*
X116716757Y-64083869D01*
X116651095Y-63881782D01*
X116554624Y-63692449D01*
X116515270Y-63638282D01*
X116515269Y-63638282D01*
X115882962Y-64270589D01*
X115865925Y-64207007D01*
X115800099Y-64092993D01*
X115707007Y-63999901D01*
X115592993Y-63934075D01*
X115529409Y-63917037D01*
X116161716Y-63284728D01*
X116107550Y-63245375D01*
X116008655Y-63194985D01*
X115957859Y-63147010D01*
X115941064Y-63079189D01*
X115963602Y-63013054D01*
X116018317Y-62969603D01*
X116064950Y-62960500D01*
X116274676Y-62960500D01*
X116274677Y-62960499D01*
X116347740Y-62945966D01*
X116430601Y-62890601D01*
X116485966Y-62807740D01*
X116500500Y-62734674D01*
X116500500Y-60985326D01*
X116500500Y-60985323D01*
X116500499Y-60985321D01*
X116485967Y-60912264D01*
X116485966Y-60912260D01*
X116464577Y-60880249D01*
X116430601Y-60829399D01*
X116347740Y-60774034D01*
X116347739Y-60774033D01*
X116347735Y-60774032D01*
X116274677Y-60759500D01*
X116274674Y-60759500D01*
X114525326Y-60759500D01*
X114525323Y-60759500D01*
X114452264Y-60774032D01*
X114452260Y-60774033D01*
X114369399Y-60829399D01*
X114314033Y-60912260D01*
X114314032Y-60912264D01*
X114299500Y-60985321D01*
X114299500Y-62734678D01*
X114314032Y-62807735D01*
X114314033Y-62807739D01*
X114314034Y-62807740D01*
X114369399Y-62890601D01*
X114439862Y-62937682D01*
X114452260Y-62945966D01*
X114452264Y-62945967D01*
X114525321Y-62960499D01*
X114525324Y-62960500D01*
X114735051Y-62960500D01*
X114802090Y-62980185D01*
X114847845Y-63032989D01*
X114857789Y-63102147D01*
X114828764Y-63165703D01*
X114791346Y-63194985D01*
X114692439Y-63245380D01*
X114638282Y-63284727D01*
X114638282Y-63284728D01*
X115270591Y-63917037D01*
X115207007Y-63934075D01*
X115092993Y-63999901D01*
X114999901Y-64092993D01*
X114934075Y-64207007D01*
X114917037Y-64270591D01*
X114284728Y-63638282D01*
X114284727Y-63638282D01*
X114245380Y-63692439D01*
X114148904Y-63881782D01*
X114083242Y-64083869D01*
X114083242Y-64083872D01*
X114050000Y-64293753D01*
X114050000Y-64506246D01*
X114083242Y-64716127D01*
X114083242Y-64716130D01*
X114148904Y-64918217D01*
X114200870Y-65020205D01*
X114213766Y-65088874D01*
X114187490Y-65153615D01*
X114130383Y-65193872D01*
X114090385Y-65200500D01*
X111040002Y-65200500D01*
X110944501Y-65226089D01*
X110944498Y-65226090D01*
X110858878Y-65275522D01*
X110858873Y-65275526D01*
X110535413Y-65598986D01*
X110474090Y-65632471D01*
X110404398Y-65627487D01*
X110348465Y-65585615D01*
X110327959Y-65543402D01*
X110312984Y-65487515D01*
X110302577Y-65469490D01*
X110240511Y-65361988D01*
X110240506Y-65361982D01*
X110138017Y-65259493D01*
X110138011Y-65259488D01*
X110012488Y-65187017D01*
X110012489Y-65187017D01*
X109995269Y-65182403D01*
X109872475Y-65149500D01*
X109727525Y-65149500D01*
X109604731Y-65182403D01*
X109587511Y-65187017D01*
X109461988Y-65259488D01*
X109461982Y-65259493D01*
X109433295Y-65288181D01*
X109371972Y-65321666D01*
X109345614Y-65324500D01*
X108704050Y-65324500D01*
X108656298Y-65337295D01*
X108656297Y-65337294D01*
X108608552Y-65350088D01*
X108608545Y-65350091D01*
X108584612Y-65363908D01*
X108565736Y-65374807D01*
X108555032Y-65380986D01*
X108522926Y-65399522D01*
X108522921Y-65399526D01*
X103334268Y-70588181D01*
X103272945Y-70621666D01*
X103246587Y-70624500D01*
X96690564Y-70624500D01*
X96642812Y-70637295D01*
X96642811Y-70637294D01*
X96595063Y-70650089D01*
X96595062Y-70650089D01*
X96509435Y-70699527D01*
X94712962Y-72495999D01*
X94651639Y-72529484D01*
X94581947Y-72524500D01*
X94577830Y-72522880D01*
X94546420Y-72509870D01*
X94546412Y-72509868D01*
X94343469Y-72469500D01*
X94343465Y-72469500D01*
X94136535Y-72469500D01*
X94136530Y-72469500D01*
X93933587Y-72509868D01*
X93933579Y-72509870D01*
X93742403Y-72589058D01*
X93570342Y-72704024D01*
X93424024Y-72850342D01*
X93309058Y-73022403D01*
X93229870Y-73213579D01*
X93229868Y-73213587D01*
X93189500Y-73416530D01*
X93189500Y-73623469D01*
X93229868Y-73826412D01*
X93229870Y-73826420D01*
X93290323Y-73972367D01*
X93309059Y-74017598D01*
X93335546Y-74057239D01*
X93424024Y-74189657D01*
X93570342Y-74335975D01*
X93570345Y-74335977D01*
X93742402Y-74450941D01*
X93763191Y-74459552D01*
X93766539Y-74460939D01*
X93820942Y-74504780D01*
X93843007Y-74571074D01*
X93825728Y-74638773D01*
X93774591Y-74686384D01*
X93719086Y-74699500D01*
X92220914Y-74699500D01*
X92153875Y-74679815D01*
X92108120Y-74627011D01*
X92098176Y-74557853D01*
X92127201Y-74494297D01*
X92173461Y-74460939D01*
X92175259Y-74460194D01*
X92197598Y-74450941D01*
X92369655Y-74335977D01*
X92515977Y-74189655D01*
X92630941Y-74017598D01*
X92710130Y-73826420D01*
X92750500Y-73623465D01*
X92750500Y-73416535D01*
X92710130Y-73213580D01*
X92630941Y-73022402D01*
X92515977Y-72850345D01*
X92515975Y-72850342D01*
X92369657Y-72704024D01*
X92205524Y-72594355D01*
X92197598Y-72589059D01*
X92006420Y-72509870D01*
X92006412Y-72509868D01*
X91803469Y-72469500D01*
X91803465Y-72469500D01*
X91596535Y-72469500D01*
X91596530Y-72469500D01*
X91393587Y-72509868D01*
X91393579Y-72509870D01*
X91202403Y-72589058D01*
X91030342Y-72704024D01*
X90884024Y-72850342D01*
X90769058Y-73022403D01*
X90689870Y-73213579D01*
X90689868Y-73213587D01*
X90649500Y-73416530D01*
X90649500Y-73623469D01*
X90689868Y-73826412D01*
X90689870Y-73826420D01*
X90750323Y-73972367D01*
X90769059Y-74017598D01*
X90795546Y-74057239D01*
X90884024Y-74189657D01*
X91030342Y-74335975D01*
X91030345Y-74335977D01*
X91202402Y-74450941D01*
X91223191Y-74459552D01*
X91226539Y-74460939D01*
X91280942Y-74504780D01*
X91303007Y-74571074D01*
X91285728Y-74638773D01*
X91234591Y-74686384D01*
X91179086Y-74699500D01*
X89680914Y-74699500D01*
X89613875Y-74679815D01*
X89568120Y-74627011D01*
X89558176Y-74557853D01*
X89587201Y-74494297D01*
X89633461Y-74460939D01*
X89635259Y-74460194D01*
X89657598Y-74450941D01*
X89829655Y-74335977D01*
X89975977Y-74189655D01*
X90090941Y-74017598D01*
X90170130Y-73826420D01*
X90210500Y-73623465D01*
X90210500Y-73416535D01*
X90170130Y-73213580D01*
X90090941Y-73022402D01*
X89975977Y-72850345D01*
X89975975Y-72850342D01*
X89829657Y-72704024D01*
X89665524Y-72594355D01*
X89657598Y-72589059D01*
X89466420Y-72509870D01*
X89466412Y-72509868D01*
X89263469Y-72469500D01*
X89263465Y-72469500D01*
X89056535Y-72469500D01*
X89056530Y-72469500D01*
X88853587Y-72509868D01*
X88853579Y-72509870D01*
X88662403Y-72589058D01*
X88490342Y-72704024D01*
X88344024Y-72850342D01*
X88229058Y-73022403D01*
X88149870Y-73213579D01*
X88149868Y-73213587D01*
X88109500Y-73416530D01*
X88109500Y-73623469D01*
X88149868Y-73826412D01*
X88149870Y-73826420D01*
X88210323Y-73972367D01*
X88229059Y-74017598D01*
X88255546Y-74057239D01*
X88344024Y-74189657D01*
X88490342Y-74335975D01*
X88490345Y-74335977D01*
X88662402Y-74450941D01*
X88683191Y-74459552D01*
X88686539Y-74460939D01*
X88740942Y-74504780D01*
X88763007Y-74571074D01*
X88745728Y-74638773D01*
X88694591Y-74686384D01*
X88639086Y-74699500D01*
X87140914Y-74699500D01*
X87073875Y-74679815D01*
X87028120Y-74627011D01*
X87018176Y-74557853D01*
X87047201Y-74494297D01*
X87093461Y-74460939D01*
X87095259Y-74460194D01*
X87117598Y-74450941D01*
X87289655Y-74335977D01*
X87435977Y-74189655D01*
X87550941Y-74017598D01*
X87630130Y-73826420D01*
X87670500Y-73623465D01*
X87670500Y-73416535D01*
X87630130Y-73213580D01*
X87550941Y-73022402D01*
X87435977Y-72850345D01*
X87435975Y-72850342D01*
X87289657Y-72704024D01*
X87125524Y-72594355D01*
X87117598Y-72589059D01*
X86926420Y-72509870D01*
X86926412Y-72509868D01*
X86723469Y-72469500D01*
X86723465Y-72469500D01*
X86516535Y-72469500D01*
X86516530Y-72469500D01*
X86313587Y-72509868D01*
X86313579Y-72509870D01*
X86122403Y-72589058D01*
X85950342Y-72704024D01*
X85804024Y-72850342D01*
X85689058Y-73022403D01*
X85609870Y-73213579D01*
X85609868Y-73213587D01*
X85569500Y-73416530D01*
X85569500Y-73623469D01*
X85609868Y-73826412D01*
X85609870Y-73826420D01*
X85670323Y-73972367D01*
X85689059Y-74017598D01*
X85715546Y-74057239D01*
X85804024Y-74189657D01*
X85950342Y-74335975D01*
X85950345Y-74335977D01*
X86122402Y-74450941D01*
X86143191Y-74459552D01*
X86146539Y-74460939D01*
X86200942Y-74504780D01*
X86223007Y-74571074D01*
X86205728Y-74638773D01*
X86154591Y-74686384D01*
X86099086Y-74699500D01*
X84600914Y-74699500D01*
X84533875Y-74679815D01*
X84488120Y-74627011D01*
X84478176Y-74557853D01*
X84507201Y-74494297D01*
X84553461Y-74460939D01*
X84555259Y-74460194D01*
X84577598Y-74450941D01*
X84749655Y-74335977D01*
X84895977Y-74189655D01*
X85010941Y-74017598D01*
X85090130Y-73826420D01*
X85130500Y-73623465D01*
X85130500Y-73416535D01*
X85090130Y-73213580D01*
X85010941Y-73022402D01*
X84895977Y-72850345D01*
X84895975Y-72850342D01*
X84749657Y-72704024D01*
X84585524Y-72594355D01*
X84577598Y-72589059D01*
X84386420Y-72509870D01*
X84386412Y-72509868D01*
X84183469Y-72469500D01*
X84183465Y-72469500D01*
X83976535Y-72469500D01*
X83976530Y-72469500D01*
X83773587Y-72509868D01*
X83773579Y-72509870D01*
X83582403Y-72589058D01*
X83410342Y-72704024D01*
X83264024Y-72850342D01*
X83149058Y-73022403D01*
X83069870Y-73213579D01*
X83069868Y-73213587D01*
X83029500Y-73416530D01*
X83029500Y-73623469D01*
X83069868Y-73826412D01*
X83069870Y-73826420D01*
X83130323Y-73972367D01*
X83149059Y-74017598D01*
X83175546Y-74057239D01*
X83264024Y-74189657D01*
X83410342Y-74335975D01*
X83410345Y-74335977D01*
X83582402Y-74450941D01*
X83603191Y-74459552D01*
X83606539Y-74460939D01*
X83660942Y-74504780D01*
X83683007Y-74571074D01*
X83665728Y-74638773D01*
X83614591Y-74686384D01*
X83559086Y-74699500D01*
X82619688Y-74699500D01*
X82552649Y-74679815D01*
X82506894Y-74627011D01*
X82496950Y-74557853D01*
X82516586Y-74506610D01*
X82575964Y-74417743D01*
X82575964Y-74417742D01*
X82575966Y-74417740D01*
X82590500Y-74344674D01*
X82590500Y-72695326D01*
X82590500Y-72695323D01*
X82590499Y-72695321D01*
X82575967Y-72622264D01*
X82575966Y-72622260D01*
X82520601Y-72539399D01*
X82437740Y-72484034D01*
X82437739Y-72484033D01*
X82437735Y-72484032D01*
X82364677Y-72469500D01*
X82364674Y-72469500D01*
X80715326Y-72469500D01*
X80715323Y-72469500D01*
X80642264Y-72484032D01*
X80642260Y-72484033D01*
X80559399Y-72539399D01*
X80504033Y-72622260D01*
X80504032Y-72622264D01*
X80489500Y-72695321D01*
X80489500Y-74344678D01*
X80504032Y-74417735D01*
X80504035Y-74417743D01*
X80563414Y-74506610D01*
X80584292Y-74573287D01*
X80565807Y-74640667D01*
X80513828Y-74687357D01*
X80460312Y-74699500D01*
X77924500Y-74699500D01*
X77857461Y-74679815D01*
X77811706Y-74627011D01*
X77800500Y-74575500D01*
X77800500Y-69563085D01*
X77820185Y-69496046D01*
X77872989Y-69450291D01*
X77942147Y-69440347D01*
X78005703Y-69469372D01*
X78024818Y-69490200D01*
X78094592Y-69586236D01*
X78094597Y-69586242D01*
X78256257Y-69747902D01*
X78441223Y-69882288D01*
X78644929Y-69986082D01*
X78862371Y-70056734D01*
X79000000Y-70078532D01*
X79000000Y-69130747D01*
X79037708Y-69152518D01*
X79177591Y-69190000D01*
X79322409Y-69190000D01*
X79462292Y-69152518D01*
X79500000Y-69130747D01*
X79500000Y-70078531D01*
X79637628Y-70056734D01*
X79855070Y-69986082D01*
X80058776Y-69882288D01*
X80243742Y-69747902D01*
X80405402Y-69586242D01*
X80539788Y-69401276D01*
X80643582Y-69197570D01*
X80714234Y-68980128D01*
X80728509Y-68890000D01*
X79740748Y-68890000D01*
X79762518Y-68852292D01*
X79800000Y-68712409D01*
X79800000Y-68567591D01*
X79762518Y-68427708D01*
X79740748Y-68390000D01*
X80728509Y-68390000D01*
X80721097Y-68343205D01*
X80721097Y-68343203D01*
X80718552Y-68327135D01*
X85649500Y-68327135D01*
X85649500Y-69672870D01*
X85649501Y-69672876D01*
X85655908Y-69732483D01*
X85706202Y-69867328D01*
X85706206Y-69867335D01*
X85792452Y-69982544D01*
X85792455Y-69982547D01*
X85907664Y-70068793D01*
X85907671Y-70068797D01*
X86042517Y-70119091D01*
X86042516Y-70119091D01*
X86049444Y-70119835D01*
X86102127Y-70125500D01*
X86897872Y-70125499D01*
X86957483Y-70119091D01*
X87092331Y-70068796D01*
X87207546Y-69982546D01*
X87293796Y-69867331D01*
X87344091Y-69732483D01*
X87350500Y-69672873D01*
X87350499Y-68641228D01*
X87649500Y-68641228D01*
X87649500Y-69358771D01*
X87682182Y-69523074D01*
X87682184Y-69523082D01*
X87746295Y-69677860D01*
X87839373Y-69817162D01*
X87957837Y-69935626D01*
X88028055Y-69982544D01*
X88097137Y-70028703D01*
X88251918Y-70092816D01*
X88416223Y-70125498D01*
X88416228Y-70125499D01*
X88416232Y-70125500D01*
X88416233Y-70125500D01*
X88583768Y-70125500D01*
X88583769Y-70125499D01*
X88748082Y-70092816D01*
X88902863Y-70028703D01*
X89042162Y-69935626D01*
X89160626Y-69817162D01*
X89253703Y-69677863D01*
X89317816Y-69523082D01*
X89350500Y-69358767D01*
X89350500Y-68641233D01*
X89335852Y-68567591D01*
X89321623Y-68496055D01*
X89317817Y-68476925D01*
X89317816Y-68476918D01*
X89317027Y-68475013D01*
X92700000Y-68475013D01*
X92700000Y-68900000D01*
X93519670Y-68900000D01*
X93499925Y-68919745D01*
X93450556Y-69005255D01*
X93425000Y-69100630D01*
X93425000Y-69199370D01*
X93450556Y-69294745D01*
X93499925Y-69380255D01*
X93519670Y-69400000D01*
X92700001Y-69400000D01*
X92700001Y-69824986D01*
X92710494Y-69927697D01*
X92765641Y-70094119D01*
X92765643Y-70094124D01*
X92857684Y-70243345D01*
X92981654Y-70367315D01*
X93130875Y-70459356D01*
X93130880Y-70459358D01*
X93297302Y-70514505D01*
X93297309Y-70514506D01*
X93400019Y-70524999D01*
X93549999Y-70524999D01*
X93550000Y-70524998D01*
X93550000Y-69430330D01*
X93569745Y-69450075D01*
X93655255Y-69499444D01*
X93750630Y-69525000D01*
X93849370Y-69525000D01*
X93944745Y-69499444D01*
X94030255Y-69450075D01*
X94050000Y-69430330D01*
X94050000Y-70524999D01*
X94199972Y-70524999D01*
X94199986Y-70524998D01*
X94302697Y-70514505D01*
X94469119Y-70459358D01*
X94469124Y-70459356D01*
X94618345Y-70367315D01*
X94742315Y-70243345D01*
X94834356Y-70094124D01*
X94834359Y-70094117D01*
X94883776Y-69944984D01*
X94923548Y-69887539D01*
X94988063Y-69860715D01*
X95056839Y-69873030D01*
X95104584Y-69915096D01*
X95139373Y-69967161D01*
X95139376Y-69967165D01*
X95257837Y-70085626D01*
X95317510Y-70125498D01*
X95397137Y-70178703D01*
X95397138Y-70178703D01*
X95397139Y-70178704D01*
X95432201Y-70193227D01*
X95551918Y-70242816D01*
X95716228Y-70275499D01*
X95716232Y-70275500D01*
X95716233Y-70275500D01*
X95883768Y-70275500D01*
X95883769Y-70275499D01*
X96048082Y-70242816D01*
X96202863Y-70178703D01*
X96342162Y-70085626D01*
X96460626Y-69967162D01*
X96553703Y-69827863D01*
X96617816Y-69673082D01*
X96650500Y-69508767D01*
X96650500Y-68791233D01*
X96650499Y-68791228D01*
X96949500Y-68791228D01*
X96949500Y-69508771D01*
X96982182Y-69673074D01*
X96982184Y-69673082D01*
X97046295Y-69827860D01*
X97139373Y-69967162D01*
X97257837Y-70085626D01*
X97317510Y-70125498D01*
X97397137Y-70178703D01*
X97397138Y-70178703D01*
X97397139Y-70178704D01*
X97432201Y-70193227D01*
X97551918Y-70242816D01*
X97716228Y-70275499D01*
X97716232Y-70275500D01*
X97716233Y-70275500D01*
X97883768Y-70275500D01*
X97883769Y-70275499D01*
X98048082Y-70242816D01*
X98202863Y-70178703D01*
X98342162Y-70085626D01*
X98460626Y-69967162D01*
X98553703Y-69827863D01*
X98617816Y-69673082D01*
X98650500Y-69508767D01*
X98650500Y-68791233D01*
X98650499Y-68791228D01*
X98949500Y-68791228D01*
X98949500Y-69508771D01*
X98982182Y-69673074D01*
X98982184Y-69673082D01*
X99046295Y-69827860D01*
X99139373Y-69967162D01*
X99257837Y-70085626D01*
X99317510Y-70125498D01*
X99397137Y-70178703D01*
X99397138Y-70178703D01*
X99397139Y-70178704D01*
X99432201Y-70193227D01*
X99551918Y-70242816D01*
X99716228Y-70275499D01*
X99716232Y-70275500D01*
X99716233Y-70275500D01*
X99883768Y-70275500D01*
X99883769Y-70275499D01*
X100048082Y-70242816D01*
X100202863Y-70178703D01*
X100342162Y-70085626D01*
X100460626Y-69967162D01*
X100553703Y-69827863D01*
X100617816Y-69673082D01*
X100650500Y-69508767D01*
X100650500Y-68791233D01*
X100650499Y-68791228D01*
X100949500Y-68791228D01*
X100949500Y-69508771D01*
X100982182Y-69673074D01*
X100982184Y-69673082D01*
X101046295Y-69827860D01*
X101139373Y-69967162D01*
X101257837Y-70085626D01*
X101317510Y-70125498D01*
X101397137Y-70178703D01*
X101397138Y-70178703D01*
X101397139Y-70178704D01*
X101432201Y-70193227D01*
X101551918Y-70242816D01*
X101716228Y-70275499D01*
X101716232Y-70275500D01*
X101716233Y-70275500D01*
X101883768Y-70275500D01*
X101883769Y-70275499D01*
X102048082Y-70242816D01*
X102202863Y-70178703D01*
X102342162Y-70085626D01*
X102460626Y-69967162D01*
X102553703Y-69827863D01*
X102617816Y-69673082D01*
X102650500Y-69508767D01*
X102650500Y-68791233D01*
X102617816Y-68626918D01*
X102555686Y-68476925D01*
X102553704Y-68472139D01*
X102551943Y-68469504D01*
X102486995Y-68372302D01*
X102460626Y-68332837D01*
X102342162Y-68214373D01*
X102202860Y-68121295D01*
X102048082Y-68057184D01*
X102048074Y-68057182D01*
X101883771Y-68024500D01*
X101883767Y-68024500D01*
X101716233Y-68024500D01*
X101716228Y-68024500D01*
X101551925Y-68057182D01*
X101551917Y-68057184D01*
X101397139Y-68121295D01*
X101257837Y-68214373D01*
X101139373Y-68332837D01*
X101046295Y-68472139D01*
X100982184Y-68626917D01*
X100982182Y-68626925D01*
X100949500Y-68791228D01*
X100650499Y-68791228D01*
X100617816Y-68626918D01*
X100555686Y-68476925D01*
X100553704Y-68472139D01*
X100551943Y-68469504D01*
X100486995Y-68372302D01*
X100460626Y-68332837D01*
X100342162Y-68214373D01*
X100202860Y-68121295D01*
X100048082Y-68057184D01*
X100048074Y-68057182D01*
X99883771Y-68024500D01*
X99883767Y-68024500D01*
X99716233Y-68024500D01*
X99716228Y-68024500D01*
X99551925Y-68057182D01*
X99551917Y-68057184D01*
X99397139Y-68121295D01*
X99257837Y-68214373D01*
X99139373Y-68332837D01*
X99046295Y-68472139D01*
X98982184Y-68626917D01*
X98982182Y-68626925D01*
X98949500Y-68791228D01*
X98650499Y-68791228D01*
X98617816Y-68626918D01*
X98555686Y-68476925D01*
X98553704Y-68472139D01*
X98551943Y-68469504D01*
X98486995Y-68372302D01*
X98460626Y-68332837D01*
X98342162Y-68214373D01*
X98202860Y-68121295D01*
X98048082Y-68057184D01*
X98048074Y-68057182D01*
X97883771Y-68024500D01*
X97883767Y-68024500D01*
X97716233Y-68024500D01*
X97716228Y-68024500D01*
X97551925Y-68057182D01*
X97551917Y-68057184D01*
X97397139Y-68121295D01*
X97257837Y-68214373D01*
X97139373Y-68332837D01*
X97046295Y-68472139D01*
X96982184Y-68626917D01*
X96982182Y-68626925D01*
X96949500Y-68791228D01*
X96650499Y-68791228D01*
X96617816Y-68626918D01*
X96555686Y-68476925D01*
X96553704Y-68472139D01*
X96551943Y-68469504D01*
X96486995Y-68372302D01*
X96460626Y-68332837D01*
X96342162Y-68214373D01*
X96202860Y-68121295D01*
X96048082Y-68057184D01*
X96048074Y-68057182D01*
X95883771Y-68024500D01*
X95883767Y-68024500D01*
X95716233Y-68024500D01*
X95716228Y-68024500D01*
X95551925Y-68057182D01*
X95551917Y-68057184D01*
X95397139Y-68121295D01*
X95257837Y-68214373D01*
X95139376Y-68332834D01*
X95139373Y-68332838D01*
X95104585Y-68384902D01*
X95050972Y-68429707D01*
X94981647Y-68438414D01*
X94918620Y-68408259D01*
X94883777Y-68355015D01*
X94834358Y-68205880D01*
X94834356Y-68205875D01*
X94742315Y-68056654D01*
X94618345Y-67932684D01*
X94469124Y-67840643D01*
X94469119Y-67840641D01*
X94302697Y-67785494D01*
X94302690Y-67785493D01*
X94199986Y-67775000D01*
X94050000Y-67775000D01*
X94050000Y-68869670D01*
X94030255Y-68849925D01*
X93944745Y-68800556D01*
X93849370Y-68775000D01*
X93750630Y-68775000D01*
X93655255Y-68800556D01*
X93569745Y-68849925D01*
X93550000Y-68869670D01*
X93550000Y-67775000D01*
X93400027Y-67775000D01*
X93400012Y-67775001D01*
X93297302Y-67785494D01*
X93130880Y-67840641D01*
X93130875Y-67840643D01*
X92981654Y-67932684D01*
X92857684Y-68056654D01*
X92765643Y-68205875D01*
X92765641Y-68205880D01*
X92710494Y-68372302D01*
X92710493Y-68372309D01*
X92700000Y-68475013D01*
X89317027Y-68475013D01*
X89255771Y-68327129D01*
X89253704Y-68322139D01*
X89160626Y-68182837D01*
X89042162Y-68064373D01*
X88902860Y-67971295D01*
X88748082Y-67907184D01*
X88748074Y-67907182D01*
X88583771Y-67874500D01*
X88583767Y-67874500D01*
X88416233Y-67874500D01*
X88416228Y-67874500D01*
X88251925Y-67907182D01*
X88251917Y-67907184D01*
X88097139Y-67971295D01*
X87957837Y-68064373D01*
X87839373Y-68182837D01*
X87746295Y-68322139D01*
X87682184Y-68476917D01*
X87682182Y-68476925D01*
X87649500Y-68641228D01*
X87350499Y-68641228D01*
X87350499Y-68327128D01*
X87344091Y-68267517D01*
X87312507Y-68182837D01*
X87293797Y-68132671D01*
X87293793Y-68132664D01*
X87207547Y-68017455D01*
X87207544Y-68017452D01*
X87092335Y-67931206D01*
X87092328Y-67931202D01*
X86957482Y-67880908D01*
X86957483Y-67880908D01*
X86897883Y-67874501D01*
X86897881Y-67874500D01*
X86897873Y-67874500D01*
X86897864Y-67874500D01*
X86102129Y-67874500D01*
X86102123Y-67874501D01*
X86042516Y-67880908D01*
X85907671Y-67931202D01*
X85907664Y-67931206D01*
X85792455Y-68017452D01*
X85792452Y-68017455D01*
X85706206Y-68132664D01*
X85706202Y-68132671D01*
X85655908Y-68267517D01*
X85650036Y-68322139D01*
X85649501Y-68327123D01*
X85649500Y-68327135D01*
X80718552Y-68327135D01*
X80714234Y-68299871D01*
X80643582Y-68082429D01*
X80539788Y-67878723D01*
X80405402Y-67693757D01*
X80243742Y-67532097D01*
X80058776Y-67397711D01*
X79944733Y-67339603D01*
X79893937Y-67291628D01*
X79877142Y-67223807D01*
X79899680Y-67157672D01*
X79928140Y-67128802D01*
X80081202Y-67017597D01*
X80215097Y-66883702D01*
X80326398Y-66730509D01*
X80412364Y-66561792D01*
X80470878Y-66381703D01*
X80500500Y-66194678D01*
X80500500Y-66005322D01*
X80470878Y-65818297D01*
X80435253Y-65708654D01*
X80412365Y-65638210D01*
X80412364Y-65638207D01*
X80364056Y-65543398D01*
X80326398Y-65469491D01*
X80215097Y-65316298D01*
X80081202Y-65182403D01*
X79928009Y-65071102D01*
X79814742Y-65013389D01*
X91959500Y-65013389D01*
X91959500Y-65186610D01*
X91985392Y-65350091D01*
X91986598Y-65357701D01*
X92040127Y-65522445D01*
X92118768Y-65676788D01*
X92220586Y-65816928D01*
X92343072Y-65939414D01*
X92483212Y-66041232D01*
X92637555Y-66119873D01*
X92802299Y-66173402D01*
X92973389Y-66200500D01*
X92973390Y-66200500D01*
X93146610Y-66200500D01*
X93146611Y-66200500D01*
X93317701Y-66173402D01*
X93460289Y-66127071D01*
X93530126Y-66125077D01*
X93586285Y-66157322D01*
X94259525Y-66830562D01*
X94329438Y-66900475D01*
X94394463Y-66938017D01*
X94415062Y-66949910D01*
X94462811Y-66962705D01*
X94462812Y-66962705D01*
X94472903Y-66965408D01*
X94510564Y-66975500D01*
X94510565Y-66975500D01*
X102393101Y-66975500D01*
X102460140Y-66995185D01*
X102480782Y-67011819D01*
X103713181Y-68244218D01*
X103746666Y-68305541D01*
X103749500Y-68331899D01*
X103749500Y-68372475D01*
X103787016Y-68512485D01*
X103787017Y-68512488D01*
X103859488Y-68638011D01*
X103859490Y-68638013D01*
X103859491Y-68638015D01*
X103961985Y-68740509D01*
X103961986Y-68740510D01*
X103961988Y-68740511D01*
X104087511Y-68812982D01*
X104087512Y-68812982D01*
X104087515Y-68812984D01*
X104227525Y-68850500D01*
X104227528Y-68850500D01*
X104372472Y-68850500D01*
X104372475Y-68850500D01*
X104512485Y-68812984D01*
X104638015Y-68740509D01*
X104740509Y-68638015D01*
X104812984Y-68512485D01*
X104850500Y-68372475D01*
X104850500Y-68227525D01*
X104812984Y-68087515D01*
X104801141Y-68067003D01*
X104740511Y-67961988D01*
X104740506Y-67961982D01*
X104638017Y-67859493D01*
X104638011Y-67859488D01*
X104512488Y-67787017D01*
X104512489Y-67787017D01*
X104501006Y-67783940D01*
X104372475Y-67749500D01*
X104372472Y-67749500D01*
X104331899Y-67749500D01*
X104264860Y-67729815D01*
X104244218Y-67713181D01*
X102830563Y-66299526D01*
X102830562Y-66299525D01*
X102744940Y-66250091D01*
X102744939Y-66250090D01*
X102657993Y-66226793D01*
X102657993Y-66226792D01*
X102657990Y-66226792D01*
X102649437Y-66224500D01*
X102649436Y-66224500D01*
X102649435Y-66224500D01*
X99338329Y-66224500D01*
X99271290Y-66204815D01*
X99225535Y-66152011D01*
X99215591Y-66082853D01*
X99223768Y-66053046D01*
X99225963Y-66047744D01*
X99225966Y-66047740D01*
X99240500Y-65974674D01*
X99240500Y-64225326D01*
X99240500Y-64225323D01*
X99240499Y-64225321D01*
X99225967Y-64152264D01*
X99225966Y-64152260D01*
X99219426Y-64142472D01*
X99170601Y-64069399D01*
X99087740Y-64014034D01*
X99087739Y-64014033D01*
X99087735Y-64014032D01*
X99014677Y-63999500D01*
X99014674Y-63999500D01*
X97265326Y-63999500D01*
X97265323Y-63999500D01*
X97192264Y-64014032D01*
X97192260Y-64014033D01*
X97109399Y-64069399D01*
X97054033Y-64152260D01*
X97054032Y-64152264D01*
X97039500Y-64225321D01*
X97039500Y-64435050D01*
X97019815Y-64502089D01*
X96967011Y-64547844D01*
X96897853Y-64557788D01*
X96834297Y-64528763D01*
X96805015Y-64491345D01*
X96754624Y-64392450D01*
X96715270Y-64338282D01*
X96715269Y-64338282D01*
X96082962Y-64970590D01*
X96065925Y-64907007D01*
X96000099Y-64792993D01*
X95907007Y-64699901D01*
X95792993Y-64634075D01*
X95729409Y-64617037D01*
X96361716Y-63984728D01*
X96307550Y-63945375D01*
X96118217Y-63848904D01*
X95916129Y-63783242D01*
X95706246Y-63750000D01*
X95493754Y-63750000D01*
X95283872Y-63783242D01*
X95283869Y-63783242D01*
X95081782Y-63848904D01*
X94892439Y-63945380D01*
X94838282Y-63984727D01*
X94838282Y-63984728D01*
X95470591Y-64617037D01*
X95407007Y-64634075D01*
X95292993Y-64699901D01*
X95199901Y-64792993D01*
X95134075Y-64907007D01*
X95117037Y-64970591D01*
X94484728Y-64338282D01*
X94484727Y-64338282D01*
X94445380Y-64392439D01*
X94348904Y-64581783D01*
X94316760Y-64680712D01*
X94277322Y-64738388D01*
X94212964Y-64765586D01*
X94144117Y-64753671D01*
X94092642Y-64706427D01*
X94080898Y-64680712D01*
X94079873Y-64677555D01*
X94001232Y-64523212D01*
X93899414Y-64383072D01*
X93776928Y-64260586D01*
X93636788Y-64158768D01*
X93482445Y-64080127D01*
X93317701Y-64026598D01*
X93317699Y-64026597D01*
X93317698Y-64026597D01*
X93186271Y-64005781D01*
X93146611Y-63999500D01*
X92973389Y-63999500D01*
X92933728Y-64005781D01*
X92802302Y-64026597D01*
X92637552Y-64080128D01*
X92483211Y-64158768D01*
X92416817Y-64207007D01*
X92343072Y-64260586D01*
X92343070Y-64260588D01*
X92343069Y-64260588D01*
X92220588Y-64383069D01*
X92220588Y-64383070D01*
X92220586Y-64383072D01*
X92182822Y-64435050D01*
X92118768Y-64523211D01*
X92040128Y-64677552D01*
X91986597Y-64842302D01*
X91959500Y-65013389D01*
X79814742Y-65013389D01*
X79780927Y-64996159D01*
X79778379Y-64994706D01*
X79756087Y-64971568D01*
X79732732Y-64949510D01*
X79732004Y-64946570D01*
X79729902Y-64944389D01*
X79723657Y-64912863D01*
X79715937Y-64881689D01*
X79716913Y-64878822D01*
X79716325Y-64875851D01*
X79728113Y-64845959D01*
X79738475Y-64815554D01*
X79740846Y-64813670D01*
X79741958Y-64810853D01*
X79768029Y-64792083D01*
X79793190Y-64772103D01*
X79796748Y-64771408D01*
X79798662Y-64770031D01*
X79805711Y-64769658D01*
X79839823Y-64763000D01*
X80274676Y-64763000D01*
X80274677Y-64762999D01*
X80347740Y-64748466D01*
X80430601Y-64693101D01*
X80485966Y-64610240D01*
X80500500Y-64537174D01*
X80500500Y-62582826D01*
X80500500Y-62582823D01*
X80500499Y-62582821D01*
X80485967Y-62509764D01*
X80485966Y-62509760D01*
X80479778Y-62500499D01*
X80430601Y-62426899D01*
X80347740Y-62371534D01*
X80347739Y-62371533D01*
X80347735Y-62371532D01*
X80274677Y-62357000D01*
X80274674Y-62357000D01*
X78225326Y-62357000D01*
X78225323Y-62357000D01*
X78152264Y-62371532D01*
X78152260Y-62371533D01*
X78069398Y-62426899D01*
X78027602Y-62489453D01*
X77973990Y-62534258D01*
X77904665Y-62542965D01*
X77841637Y-62512811D01*
X77804918Y-62453368D01*
X77800500Y-62420562D01*
X77800500Y-61377135D01*
X85749500Y-61377135D01*
X85749500Y-62722870D01*
X85749501Y-62722876D01*
X85755908Y-62782483D01*
X85806202Y-62917328D01*
X85806206Y-62917335D01*
X85892452Y-63032544D01*
X85892455Y-63032547D01*
X86007664Y-63118793D01*
X86007671Y-63118797D01*
X86142517Y-63169091D01*
X86142516Y-63169091D01*
X86149444Y-63169835D01*
X86202127Y-63175500D01*
X86997872Y-63175499D01*
X87057483Y-63169091D01*
X87192331Y-63118796D01*
X87307546Y-63032546D01*
X87393796Y-62917331D01*
X87444091Y-62782483D01*
X87450500Y-62722873D01*
X87450499Y-61691228D01*
X87749500Y-61691228D01*
X87749500Y-62408771D01*
X87782182Y-62573074D01*
X87782184Y-62573082D01*
X87846295Y-62727860D01*
X87939373Y-62867162D01*
X88057837Y-62985626D01*
X88128055Y-63032544D01*
X88197137Y-63078703D01*
X88351918Y-63142816D01*
X88516223Y-63175498D01*
X88516228Y-63175499D01*
X88516232Y-63175500D01*
X88516233Y-63175500D01*
X88683768Y-63175500D01*
X88683769Y-63175499D01*
X88848082Y-63142816D01*
X89002863Y-63078703D01*
X89142162Y-62985626D01*
X89260626Y-62867162D01*
X89353703Y-62727863D01*
X89417816Y-62573082D01*
X89450500Y-62408767D01*
X89450500Y-61691233D01*
X89417816Y-61526918D01*
X89355771Y-61377129D01*
X89353704Y-61372139D01*
X89350721Y-61367675D01*
X89262784Y-61236067D01*
X89260626Y-61232837D01*
X89142162Y-61114373D01*
X89002860Y-61021295D01*
X88848082Y-60957184D01*
X88848074Y-60957182D01*
X88683771Y-60924500D01*
X88683767Y-60924500D01*
X88516233Y-60924500D01*
X88516228Y-60924500D01*
X88351925Y-60957182D01*
X88351917Y-60957184D01*
X88197139Y-61021295D01*
X88057837Y-61114373D01*
X87939373Y-61232837D01*
X87846295Y-61372139D01*
X87782184Y-61526917D01*
X87782182Y-61526925D01*
X87749500Y-61691228D01*
X87450499Y-61691228D01*
X87450499Y-61377128D01*
X87444091Y-61317517D01*
X87442551Y-61313389D01*
X87393797Y-61182671D01*
X87393793Y-61182664D01*
X87307547Y-61067455D01*
X87307544Y-61067452D01*
X87192335Y-60981206D01*
X87192328Y-60981202D01*
X87057482Y-60930908D01*
X87057483Y-60930908D01*
X86997883Y-60924501D01*
X86997881Y-60924500D01*
X86997873Y-60924500D01*
X86997864Y-60924500D01*
X86202129Y-60924500D01*
X86202123Y-60924501D01*
X86142516Y-60930908D01*
X86007671Y-60981202D01*
X86007664Y-60981206D01*
X85892455Y-61067452D01*
X85892452Y-61067455D01*
X85806206Y-61182664D01*
X85806202Y-61182671D01*
X85755908Y-61317517D01*
X85750036Y-61372139D01*
X85749501Y-61377123D01*
X85749500Y-61377135D01*
X77800500Y-61377135D01*
X77800500Y-57224500D01*
X77820185Y-57157461D01*
X77872989Y-57111706D01*
X77924500Y-57100500D01*
X81019086Y-57100500D01*
X81086125Y-57120185D01*
G37*
%TD.AperFunction*%
%TD*%
M02*
